<svg xmlns="http://www.w3.org/2000/svg" width="14.5" height="11.75" viewBox="0 0 14.5 11.75">
  <metadata><?xpacket begin="﻿" id="W5M0MpCehiHzreSzNTczkc9d"?>
<x:xmpmeta xmlns:x="adobe:ns:meta/" x:xmptk="Adobe XMP Core 5.6-c138 79.159824, 2016/09/14-01:09:01        ">
   <rdf:RDF xmlns:rdf="http://www.w3.org/1999/02/22-rdf-syntax-ns#">
      <rdf:Description rdf:about=""/>
   </rdf:RDF>
</x:xmpmeta>
                                                                                                    
                                                                                                    
                                                                                                    
                                                                                                    
                                                                                                    
                                                                                                    
                                                                                                    
                                                                                                    
                                                                                                    
                                                                                                    
                                                                                                    
                                                                                                    
                                                                                                    
                                                                                                    
                                                                                                    
                                                                                                    
                                                                                                    
                                                                                                    
                                                                                                    
                                                                                                    
                           
<?xpacket end="w"?></metadata>
<defs>
    <style>
      .cls-1 {
        fill: #fff;
        fill-rule: evenodd;
        opacity: 0.75;
      }
    </style>
  </defs>
  <path id="tw" class="cls-1" d="M192.84,382.835a5.979,5.979,0,0,1-1.887.722,2.969,2.969,0,0,0-5.137,2.03,3.024,3.024,0,0,0,.076.678,8.425,8.425,0,0,1-6.121-3.1,2.97,2.97,0,0,0,.916,3.963,2.947,2.947,0,0,1-1.343-.37v0.038a2.972,2.972,0,0,0,2.383,2.913,2.891,2.891,0,0,1-1.342.05,2.974,2.974,0,0,0,2.775,2.063,5.972,5.972,0,0,1-3.69,1.27,6.338,6.338,0,0,1-.708-0.04,8.449,8.449,0,0,0,13-7.118c0-.127,0-0.256-0.008-0.384a6.024,6.024,0,0,0,1.48-1.537,5.921,5.921,0,0,1-1.705.468,2.983,2.983,0,0,0,1.308-1.644h0Z" transform="translate(-178.75 -382.625)"/>
</svg>
