<svg id="SvgjsSvg1011" xmlns="http://www.w3.org/2000/svg" version="1.1" xmlns:xlink="http://www.w3.org/1999/xlink" xmlns:svgjs="http://svgjs.com/svgjs" width="25" height="24"><defs id="SvgjsDefs1012"></defs><path id="SvgjsPath1013" d="M1325.48 619.999C1319.07 619.999 1313.8700000000001 621.177 1313.8700000000001 631.499C1313.8700000000001 641.8190000000001 1319.0700000000002 642.999 1325.48 642.999C1331.9 642.999 1337.1 641.8190000000001 1337.1 631.499C1337.1 621.177 1331.8999999999999 619.999 1325.48 619.999ZM1329.35 632.023C1329.27 632.193 1329.3 632.361 1329.4299999999998 632.5260000000001C1329.5099999999998 632.613 1329.6799999999998 632.782 1329.9499999999998 633.0340000000001L1329.9599999999998 633.041L1329.9699999999998 633.047L1329.9799999999998 633.059C1330.5699999999997 633.601 1330.9699999999998 634.059 1331.1899999999998 634.4309999999999C1331.1999999999998 634.4509999999999 1331.2099999999998 634.477 1331.2299999999998 634.5079999999999C1331.2399999999998 634.5389999999999 1331.2599999999998 634.5939999999999 1331.2699999999998 634.6719999999999C1331.2899999999997 634.7509999999999 1331.2799999999997 634.8209999999999 1331.2699999999998 634.8829999999999C1331.2499999999998 634.9449999999999 1331.1999999999998 635.002 1331.1099999999997 635.0529999999999C1331.0199999999998 635.1049999999999 1330.8999999999996 635.1309999999999 1330.7399999999998 635.1309999999999L1329.12 635.1559999999998C1329.02 635.1769999999998 1328.8999999999999 635.1669999999998 1328.76 635.1249999999999C1328.6299999999999 635.0839999999998 1328.52 635.0379999999999 1328.44 634.9889999999999L1328.31 634.9139999999999C1328.1799999999998 634.8269999999999 1328.03 634.6949999999998 1327.87 634.5169999999998C1327.6999999999998 634.3389999999998 1327.55 634.1789999999999 1327.4299999999998 634.0359999999998C1327.31 633.8939999999998 1327.1799999999998 633.7739999999999 1327.0499999999997 633.6759999999998C1326.9099999999996 633.5789999999998 1326.7899999999997 633.5469999999998 1326.6899999999998 633.5799999999998C1326.6799999999998 633.5849999999998 1326.6599999999999 633.5919999999998 1326.6399999999999 633.6019999999999C1326.62 633.6119999999999 1326.58 633.6419999999998 1326.53 633.6919999999999C1326.48 633.7419999999998 1326.44 633.8029999999999 1326.3999999999999 633.8749999999999C1326.36 633.9479999999999 1326.32 634.0549999999998 1326.29 634.1979999999999C1326.26 634.3399999999999 1326.24 634.5009999999999 1326.25 634.6779999999999C1326.25 634.7409999999999 1326.24 634.7979999999999 1326.23 634.8489999999999C1326.21 634.901 1326.19 634.939 1326.18 634.9639999999999L1326.15 634.9949999999999C1326.0800000000002 635.0729999999999 1325.97 635.1189999999999 1325.8200000000002 635.1309999999999L1325.0900000000001 635.1309999999999C1324.7900000000002 635.1479999999999 1324.4800000000002 635.1139999999998 1324.17 635.0289999999999C1323.8500000000001 634.9439999999998 1323.5700000000002 634.8339999999998 1323.3400000000001 634.6999999999999C1323.1000000000001 634.5649999999999 1322.88 634.429 1322.69 634.2909999999999C1322.49 634.1519999999999 1322.3400000000001 634.0329999999999 1322.24 633.934L1322.08 633.785C1322.04 633.7439999999999 1321.98 633.6809999999999 1321.9099999999999 633.598C1321.83 633.516 1321.6799999999998 633.328 1321.4599999999998 633.034C1321.2299999999998 632.74 1320.9999999999998 632.428 1320.7899999999997 632.097C1320.5699999999997 631.766 1320.3099999999997 631.3299999999999 1320.0099999999998 630.788C1319.7099999999998 630.246 1319.4399999999998 629.683 1319.1899999999998 629.1C1319.1599999999999 629.034 1319.1499999999999 628.9780000000001 1319.1499999999999 628.932C1319.1499999999999 628.8870000000001 1319.1499999999999 628.854 1319.1699999999998 628.833L1319.1899999999998 628.7959999999999C1319.2599999999998 628.717 1319.3799999999999 628.6779999999999 1319.5499999999997 628.6779999999999L1321.2799999999997 628.6659999999999C1321.3399999999997 628.674 1321.3799999999997 628.688 1321.4299999999998 628.7059999999999C1321.4799999999998 628.7249999999999 1321.5099999999998 628.7419999999998 1321.5299999999997 628.7589999999999L1321.5599999999997 628.7769999999999C1321.6299999999997 628.823 1321.6799999999996 628.8889999999999 1321.7099999999998 628.9759999999999C1321.7999999999997 629.1829999999999 1321.8999999999999 629.3969999999999 1322.0099999999998 629.6179999999999C1322.1099999999997 629.8389999999999 1322.1999999999998 630.0079999999999 1322.2599999999998 630.1229999999999L1322.3699999999997 630.304C1322.4899999999996 630.552 1322.6099999999997 630.7669999999999 1322.7199999999996 630.949C1322.8299999999995 631.131 1322.9399999999996 631.2729999999999 1323.0299999999995 631.3739999999999C1323.1199999999994 631.4749999999999 1323.1999999999996 631.555 1323.2899999999995 631.6129999999999C1323.3699999999994 631.6709999999999 1323.4399999999996 631.6999999999999 1323.4999999999995 631.6999999999999C1323.5599999999995 631.6999999999999 1323.6199999999994 631.689 1323.6699999999996 631.669C1323.6799999999996 631.665 1323.6899999999996 631.654 1323.7099999999996 631.638C1323.7199999999996 631.6220000000001 1323.7399999999996 631.576 1323.7799999999995 631.5010000000001C1323.8199999999995 631.4270000000001 1323.8499999999995 631.33 1323.8699999999994 631.21C1323.8899999999994 631.09 1323.9099999999994 630.923 1323.9299999999994 630.707C1323.9499999999994 630.492 1323.9499999999994 630.233 1323.9299999999994 629.932C1323.9199999999994 629.766 1323.8999999999994 629.615 1323.8699999999994 629.479C1323.8399999999995 629.3420000000001 1323.8099999999995 629.2470000000001 1323.7799999999995 629.1930000000001L1323.7399999999996 629.1190000000001C1323.6399999999996 628.9780000000002 1323.4599999999996 628.8890000000001 1323.2099999999996 628.8520000000001C1323.1499999999996 628.844 1323.1599999999996 628.7940000000001 1323.2399999999996 628.7030000000001C1323.3099999999995 628.6240000000001 1323.3899999999996 628.5620000000001 1323.4799999999996 628.517C1323.6999999999996 628.4090000000001 1324.2099999999996 628.36 1324.9899999999996 628.368C1325.3299999999995 628.3720000000001 1325.6199999999997 628.399 1325.8399999999995 628.4480000000001C1325.9299999999994 628.469 1325.9999999999995 628.4970000000001 1326.0499999999995 628.532C1326.1099999999994 628.567 1326.1499999999994 628.6170000000001 1326.1799999999996 628.681C1326.2099999999996 628.745 1326.2399999999996 628.812 1326.2499999999995 628.879C1326.2699999999995 628.948 1326.2699999999995 629.042 1326.2699999999995 629.162C1326.2699999999995 629.282 1326.2699999999995 629.3960000000001 1326.2699999999995 629.503C1326.2599999999995 629.611 1326.2599999999995 629.7570000000001 1326.2499999999995 629.941C1326.2399999999996 630.125 1326.2399999999996 630.296 1326.2399999999996 630.453C1326.2399999999996 630.4979999999999 1326.2399999999996 630.5849999999999 1326.2299999999996 630.713C1326.2299999999996 630.841 1326.2299999999996 630.9409999999999 1326.2299999999996 631.011C1326.2299999999996 631.082 1326.2399999999996 631.165 1326.2499999999995 631.2629999999999C1326.2699999999995 631.3599999999999 1326.2899999999995 631.4409999999999 1326.3299999999995 631.5039999999999C1326.3599999999994 631.569 1326.4099999999994 631.6189999999999 1326.4699999999996 631.6569999999999C1326.4999999999995 631.665 1326.5399999999995 631.6729999999999 1326.5799999999995 631.6809999999999C1326.6099999999994 631.689 1326.6699999999994 631.6669999999999 1326.7399999999996 631.6129999999999C1326.8099999999995 631.56 1326.8899999999996 631.4879999999999 1326.9799999999996 631.3989999999999C1327.0699999999995 631.3099999999998 1327.1799999999996 631.1719999999999 1327.3099999999995 630.9829999999998C1327.4399999999996 630.7949999999998 1327.5799999999995 630.5729999999999 1327.7399999999996 630.3159999999998C1327.9899999999996 629.8859999999999 1328.2199999999996 629.4209999999998 1328.4199999999996 628.9199999999998C1328.4299999999996 628.8789999999998 1328.4499999999996 628.8429999999998 1328.4799999999996 628.8119999999999C1328.4999999999995 628.7799999999999 1328.5299999999995 628.7589999999999 1328.5499999999995 628.7459999999999L1328.5699999999995 628.7279999999998C1328.5799999999995 628.7239999999998 1328.5899999999995 628.7189999999998 1328.6099999999994 628.7119999999999C1328.6199999999994 628.7059999999999 1328.6499999999994 628.6999999999999 1328.6899999999994 628.6939999999998C1328.7299999999993 628.6879999999999 1328.7699999999993 628.6869999999999 1328.8099999999993 628.6909999999998L1330.6399999999992 628.6779999999998C1330.7999999999993 628.6569999999998 1330.9299999999992 628.6619999999998 1331.0399999999993 628.6939999999997C1331.1399999999992 628.7249999999997 1331.2099999999994 628.7589999999998 1331.2399999999993 628.7959999999997L1331.2699999999993 628.8579999999997C1331.3699999999992 629.1229999999997 1331.0499999999993 629.7309999999998 1330.3199999999993 630.6819999999997C1330.2199999999993 630.8149999999997 1330.0899999999992 630.9909999999996 1329.9099999999992 631.2099999999997C1329.5899999999992 631.6229999999997 1329.3999999999992 631.8939999999997 1329.3499999999992 632.0229999999997Z " fill="#a8a9ac" transform="matrix(1,0,0,1,-1313,-619)"></path></svg>