<?xml version="1.0" encoding="utf-8"?>
<!-- Generator: Adobe Illustrator 21.0.0, SVG Export Plug-In . SVG Version: 6.00 Build 0)  -->
<svg version="1.1" id="Layer_1" xmlns="http://www.w3.org/2000/svg" xmlns:xlink="http://www.w3.org/1999/xlink" x="0px" y="0px"
	 viewBox="0 0 44 33" style="enable-background:new 0 0 44 33;" xml:space="preserve">
<style type="text/css">
	.st0{fill:#FFFFFF;}
</style>
<path id="agencies" class="st0" d="M14.7,33c-0.3,0-0.5-0.2-0.5-0.5v-1.8c0-0.6-2-2.1-3.9-2.1S6.5,30,6.5,30.7v1.8
	C6.5,32.8,6.3,33,6,33s-0.5-0.2-0.5-0.5c0,0,0,0,0,0v-1.8c0-1.5,2.9-3.2,4.9-3.2s4.9,1.6,4.9,3.2v1.8C15.2,32.8,15,33,14.7,33
	C14.7,33,14.7,33,14.7,33z M10.3,28.5c-1.7,0.1-3.2-1.2-3.4-2.9v-1.9c0.3-1.9,2.1-3.2,3.9-2.9c1.5,0.2,2.7,1.4,2.9,2.9v1.9
	C13.6,27.3,12.1,28.6,10.3,28.5L10.3,28.5z M10.3,21.8c-1.2-0.1-2.2,0.7-2.4,1.9v1.9c0.3,1.3,1.7,2.2,3,1.8c0.9-0.2,1.6-0.9,1.8-1.8
	v-1.9C12.6,22.6,11.5,21.8,10.3,21.8L10.3,21.8z M26.4,33c-0.3,0-0.5-0.2-0.5-0.5v-1.8c0-0.6-2-2.1-3.9-2.1s-3.9,1.5-3.9,2.1v1.8
	c0,0.3-0.2,0.5-0.5,0.5s-0.5-0.2-0.5-0.5c0,0,0,0,0,0v-1.8c0-1.5,2.9-3.2,4.9-3.2s4.9,1.6,4.9,3.2v1.8C26.9,32.8,26.6,33,26.4,33
	C26.4,33,26.4,33,26.4,33L26.4,33z M22,28.5c-1.7,0.1-3.2-1.2-3.4-2.9v-1.9c0.3-1.9,2.1-3.2,3.9-2.9c1.5,0.2,2.6,1.4,2.9,2.9v1.9
	C25.2,27.3,23.7,28.6,22,28.5L22,28.5z M22,21.8c-1.2-0.1-2.2,0.7-2.4,1.9v1.9c0.3,1.3,1.7,2.2,3,1.8c0.9-0.2,1.6-0.9,1.8-1.8v-1.9
	C24.2,22.6,23.2,21.8,22,21.8L22,21.8z M26.4,12.2c-0.3,0-0.5-0.2-0.5-0.5c0,0,0,0,0,0V9.8c0-0.6-2-2.1-3.9-2.1s-3.9,1.5-3.9,2.1
	v1.8c0,0.3-0.2,0.5-0.5,0.5s-0.5-0.2-0.5-0.5c0,0,0,0,0,0V9.8c0-1.5,2.9-3.1,4.9-3.1s4.9,1.6,4.9,3.1v1.8
	C26.9,11.9,26.6,12.2,26.4,12.2C26.4,12.2,26.4,12.2,26.4,12.2L26.4,12.2z M22,7.7c-1.8,0-3.3-1.4-3.4-3.2V3.2
	c0.1-1.9,1.8-3.3,3.6-3.2c1.7,0.1,3,1.5,3.2,3.2v1.3C25.3,6.3,23.8,7.7,22,7.7L22,7.7z M22,1c-1.3,0-2.3,0.9-2.4,2.2v1.3
	c0.1,1.3,1.3,2.3,2.7,2.2c1.1-0.1,2.1-1,2.2-2.2V3.2C24.3,1.9,23.3,1,22,1L22,1z M38,33c-0.3,0-0.5-0.2-0.5-0.5v-1.8
	c0-0.6-2-2.1-3.9-2.1s-3.9,1.5-3.9,2.1v1.8c0,0.3-0.2,0.5-0.5,0.5s-0.5-0.2-0.5-0.5c0,0,0,0,0,0v-1.8c0-1.5,2.9-3.2,4.9-3.2
	s4.9,1.6,4.9,3.2v1.8C38.5,32.8,38.3,33,38,33C38,33,38,33,38,33L38,33z M33.6,28.5c-1.7,0.1-3.2-1.2-3.4-2.9v-1.9
	c0.3-1.9,2.1-3.2,3.9-2.9c1.5,0.2,2.7,1.4,2.9,2.9v1.9C36.9,27.3,35.4,28.6,33.6,28.5L33.6,28.5z M33.6,21.8
	c-1.2-0.1-2.2,0.7-2.4,1.9v1.9c0.3,1.3,1.7,2.2,3,1.8c0.9-0.2,1.6-0.9,1.8-1.8v-1.9C35.9,22.6,34.8,21.8,33.6,21.8L33.6,21.8z
	 M22,19.6c-0.3,0-0.5-0.2-0.5-0.5v-7.4c0-0.3,0.2-0.5,0.5-0.5s0.5,0.2,0.5,0.5c0,0,0,0,0,0v7.4C22.5,19.4,22.3,19.6,22,19.6
	C22,19.6,22,19.6,22,19.6L22,19.6z M33.6,19.6c-0.3,0-0.5-0.2-0.5-0.5c0,0,0,0,0,0v-3.2H10.8v3.2c0,0.3-0.2,0.5-0.5,0.5
	s-0.5-0.2-0.5-0.5c0,0,0,0,0,0v-3.7c0-0.3,0.2-0.5,0.5-0.5c0,0,0,0,0,0h23.3c0.3,0,0.5,0.2,0.5,0.5c0,0,0,0,0,0v3.7
	C34.1,19.4,33.9,19.6,33.6,19.6C33.6,19.6,33.6,19.6,33.6,19.6L33.6,19.6z"/>
</svg>
