<?xml version="1.0" encoding="utf-8"?>
<!-- Generator: Adobe Illustrator 21.0.0, SVG Export Plug-In . SVG Version: 6.00 Build 0)  -->
<svg version="1.1" id="Layer_1" xmlns="http://www.w3.org/2000/svg" xmlns:xlink="http://www.w3.org/1999/xlink" x="0px" y="0px"
	 viewBox="0 0 44 33" style="enable-background:new 0 0 44 33;" xml:space="preserve">
<style type="text/css">
	.st0{fill:#FFFFFF;}
</style>
<path id="airlines" class="st0" d="M8.1,28.5c-0.1,0-0.2,0-0.3-0.1l-7.5-7.2C0,21,0,20.7,0.2,20.5c0,0,0.1-0.1,0.1-0.1l3-1.8
	c0.1-0.1,0.2-0.1,0.4-0.1l7.2,1.9l6.1-4L5.9,8.5C5.7,8.4,5.7,8.3,5.7,8.1c0-0.2,0.1-0.3,0.2-0.4L10.6,5c0.1-0.1,0.2-0.1,0.4-0.1
	l17,4.4l1.4-0.9c1.8-1.2,3.8-2.1,5.9-2.8c6.5-2.1,7.5-1.1,8.6,0.8l0,0C44,6.9,44,7.5,43.9,8c-0.6,2.2-4.7,4.6-8.1,6.4l-0.3,0.1
	l-27.2,14C8.2,28.5,8.1,28.5,8.1,28.5z M1.4,20.9l6.8,6.5l27.2-14c1.7-0.9,7-3.7,7.6-5.7C43,7.4,43,7.2,42.9,6.9l0,0
	c-0.8-1.4-1.3-2.3-7.4-0.3c-2,0.6-3.9,1.5-5.6,2.7l-1.6,1c-0.1,0.1-0.3,0.1-0.4,0.1l-17-4.4L7.1,8.2l11.1,7.9
	c0.1,0.1,0.2,0.3,0.2,0.4c0,0.2-0.1,0.3-0.2,0.4l-6.9,4.5c-0.1,0.1-0.3,0.1-0.4,0.1l-7.2-1.9L1.4,20.9z"/>
</svg>
