<?xml version="1.0" encoding="utf-8"?>
<!-- Generator: Adobe Illustrator 21.0.0, SVG Export Plug-In . SVG Version: 6.00 Build 0)  -->
<svg version="1.1" id="Layer_1" xmlns="http://www.w3.org/2000/svg" xmlns:xlink="http://www.w3.org/1999/xlink" x="0px" y="0px"
	 viewBox="0 0 44 33" style="enable-background:new 0 0 44 33;" xml:space="preserve">
<style type="text/css">
	.st0{fill:#FFFFFF;}
</style>
<path id="defence" class="st0" d="M22,31c0,0-0.1,0-0.1,0C21.3,30.8,10,24.7,10,18.9V7.3c0-0.3,0.2-0.5,0.5-0.5c0,0,0,0,0,0
	c2.8,0,10.1-3.2,11.1-4.7C21.7,2.1,21.8,2,22,2l0,0c0.2,0,0.3,0.1,0.4,0.2c1,1.4,7.9,4.7,11.1,4.7c0.3,0,0.5,0.2,0.5,0.5v12.2
	c0,4.9-11.4,11.3-11.9,11.4C22.1,31,22,31,22,31z M11,7.8v11.1c0,4.8,9.6,10.4,11,11c1.5-0.7,11-6.6,11-10.4V7.8
	c-3.2-0.3-9.2-2.9-11-4.6C20.1,5,14,7.5,11,7.8z M22,27.6c-0.1,0-0.2,0-0.2-0.1c-1.6-0.9-3.1-1.9-4.5-3.1C14.1,21.9,13,20,13,18.9
	v-9c0-0.2,0.2-0.4,0.4-0.5c2.9-0.8,5.7-2,8.3-3.5c0.2-0.1,0.4-0.1,0.5,0c2.6,1.6,5.4,2.8,8.4,3.5C30.8,9.5,31,9.7,31,9.9v9.6
	c-0.1,0.7-1.1,2.4-4.4,4.9c-1.4,1.1-2.9,2.1-4.4,3C22.1,27.5,22.1,27.6,22,27.6L22,27.6z M14,10.3v8.6c0,0.6,0.8,2.3,3.8,4.7
	c1.3,1,2.7,2,4.1,2.8c1.4-0.9,2.7-1.8,4-2.8c3.6-2.8,4-4.2,4-4.2v-9.2c-2.8-0.8-5.5-1.9-8-3.4C19.5,8.4,16.8,9.5,14,10.3L14,10.3z"
	/>
</svg>
