<?xml version="1.0" encoding="utf-8"?>
<!-- Generator: Adobe Illustrator 21.0.0, SVG Export Plug-In . SVG Version: 6.00 Build 0)  -->
<svg version="1.1" id="Layer_1" xmlns="http://www.w3.org/2000/svg" xmlns:xlink="http://www.w3.org/1999/xlink" x="0px" y="0px"
	 viewBox="0 0 44 33" style="enable-background:new 0 0 44 33;" xml:space="preserve">
<style type="text/css">
	.st0{fill:#FFFFFF;}
</style>
<path id="finance" class="st0" d="M8,12.1h3.6v13.2H8.8c-0.3,0-0.5,0.2-0.5,0.5s0.2,0.5,0.5,0.5h26.5c0.3,0,0.5-0.2,0.5-0.5
	s-0.2-0.5-0.5-0.5h-3.3V12.1H36c0.3,0,0.5-0.2,0.5-0.5s-0.2-0.5-0.5-0.5H8c-0.3,0-0.5,0.2-0.5,0.5C7.5,11.9,7.7,12.1,8,12.1z
	 M12.6,12.1h8.7v13.2h-8.7V12.1z M30.9,25.3h-8.7V12.1h8.7V25.3z M8.3,9.8h27.4c0.3,0,0.5-0.2,0.5-0.5c0-0.2-0.1-0.4-0.3-0.5
	L22.2,1.6c-0.1-0.1-0.3-0.1-0.5,0L8.1,8.9C7.8,9,7.7,9.3,7.8,9.5C7.9,9.7,8.1,9.8,8.3,9.8L8.3,9.8z M22,2.6l11.7,6.2H10.3L22,2.6z
	 M38.5,30.5h-33C5.2,30.5,5,30.7,5,31s0.2,0.5,0.5,0.5h33c0.3,0,0.6-0.2,0.6-0.5C39,30.7,38.8,30.4,38.5,30.5L38.5,30.5z"/>
</svg>
