<?xml version="1.0" encoding="utf-8"?>
<!-- Generator: Adobe Illustrator 21.0.0, SVG Export Plug-In . SVG Version: 6.00 Build 0)  -->
<svg version="1.1" id="Layer_1" xmlns="http://www.w3.org/2000/svg" xmlns:xlink="http://www.w3.org/1999/xlink" x="0px" y="0px"
	 viewBox="0 0 44 33" style="enable-background:new 0 0 44 33;" xml:space="preserve">
<style type="text/css">
	.st0{fill:#FFFFFF;}
</style>
<path id="fmcgs" class="st0" d="M37.8,6.1c-0.2-0.3-0.6-0.5-0.9-0.5H13.7l-0.4-1.4C13,3.5,12.3,3,11.5,3h-5C6.2,2.9,6,3.1,5.9,3.4
	c0,0.3,0.2,0.5,0.4,0.6c0,0,0.1,0,0.1,0h5c0.4,0,0.7,0.2,0.8,0.6l5.4,18.1c0.2,0.8,0.9,1.3,1.8,1.3h14.3c0.3,0,0.5-0.3,0.4-0.6
	c0-0.2-0.2-0.4-0.4-0.4H19.5c-0.4,0-0.7-0.2-0.8-0.6l-0.9-3.1h15.1c0.8,0,1.5-0.5,1.8-1.3l3.3-10.9C38,6.8,38,6.4,37.8,6.1z M37,6.9
	l-3.3,10.9c-0.1,0.4-0.4,0.6-0.8,0.6H17.5L14,6.6h22.8c0.1,0,0.1,0,0.1,0.1C37,6.8,37,6.8,37,6.9z M18.5,25c-1.4,0-2.5,1.1-2.5,2.5
	c0,1.4,1.1,2.5,2.5,2.5c1.4,0,2.5-1.1,2.5-2.5c0,0,0,0,0,0C21,26.1,19.9,25,18.5,25L18.5,25L18.5,25z M18.5,29
	c-0.8,0-1.5-0.7-1.5-1.5s0.7-1.5,1.5-1.5c0.8,0,1.5,0.7,1.5,1.5C20,28.3,19.3,29,18.5,29C18.5,29,18.5,29,18.5,29L18.5,29z M31.9,25
	c-1.4,0-2.5,1.1-2.5,2.5c0,1.4,1.1,2.5,2.5,2.5c1.4,0,2.5-1.1,2.5-2.5c0,0,0,0,0,0C34.4,26.1,33.2,25,31.9,25L31.9,25L31.9,25z
	 M31.9,29c-0.8,0-1.5-0.7-1.5-1.5S31,26,31.9,26c0.8,0,1.5,0.7,1.5,1.5C33.4,28.3,32.7,29,31.9,29C31.9,29,31.9,29,31.9,29L31.9,29z
	"/>
</svg>
