<?xml version="1.0" encoding="utf-8"?>
<!-- Generator: Adobe Illustrator 21.0.0, SVG Export Plug-In . SVG Version: 6.00 Build 0)  -->
<svg version="1.1" id="Layer_1" xmlns="http://www.w3.org/2000/svg" xmlns:xlink="http://www.w3.org/1999/xlink" x="0px" y="0px"
	 viewBox="0 0 44 33" style="enable-background:new 0 0 44 33;" xml:space="preserve">
<style type="text/css">
	.st0{fill:#FFFFFF;}
</style>
<path id="telcos" class="st0" d="M30,29L30,29c-1.1-0.1-7-0.7-13.4-7.1l0,0c-6.4-6.4-7-12.3-7.1-13.4c0-0.2,0.1-0.3,0.2-0.4
	c1.5-1,3.2-1.8,4.9-2.3c0.2,0,0.4,0,0.5,0.1c1.5,1.6,2.7,3.4,3.6,5.4c0.1,0.2,0,0.4-0.1,0.5l-2,2c1.6,3.6,4.4,6.4,8,8l2-2
	c0.1-0.1,0.4-0.2,0.5-0.1c2,0.9,3.8,2.1,5.4,3.6c0.1,0.1,0.2,0.3,0.1,0.5c-0.4,1.8-1.2,3.4-2.2,4.9C30.3,28.9,30.2,29,30,29z
	 M10.5,8.7c0.1,1.4,1,6.7,6.8,12.5l0,0c5.8,5.8,11.1,6.7,12.5,6.8c0.8-1.3,1.5-2.7,1.9-4.1c-1.4-1.2-2.9-2.3-4.6-3.1l-1.9,1.9
	c-0.1,0.1-0.3,0.2-0.5,0.1c-4.1-1.7-7.4-5-9.1-9.1c0-0.2,0-0.4,0.1-0.5l1.9-1.9c-0.8-1.7-1.8-3.2-3.1-4.6
	C13.2,7.2,11.8,7.9,10.5,8.7L10.5,8.7z M27.9,16.1c-0.3,0-0.5-0.2-0.5-0.5c0-2.4-2-4.4-4.4-4.4c-0.3,0-0.5-0.3-0.4-0.6
	c0-0.2,0.2-0.4,0.4-0.4c3,0,5.4,2.4,5.4,5.4C28.4,15.8,28.1,16.1,27.9,16.1z M31,16.1c-0.3,0-0.5-0.2-0.5-0.5c0-4.2-3.4-7.5-7.5-7.5
	c-0.3,0-0.5-0.2-0.5-0.5s0.2-0.5,0.5-0.5c0,0,0,0,0,0c4.7,0,8.5,3.8,8.5,8.5C31.4,15.8,31.2,16.1,31,16.1C31,16.1,31,16.1,31,16.1z
	 M34,16.1c-0.3,0-0.5-0.2-0.5-0.5c0,0,0,0,0,0C33.5,9.7,28.8,5,23,5c-0.3,0-0.5-0.2-0.5-0.5S22.7,4,22.9,4c0,0,0,0,0,0
	c6.4,0,11.6,5.2,11.6,11.6C34.5,15.8,34.3,16.1,34,16.1C34,16.1,34,16.1,34,16.1z"/>
</svg>
