<svg width="18" height="18" viewBox="0 0 18 18" version="1.1" xmlns="http://www.w3.org/2000/svg" xmlns:xlink="http://www.w3.org/1999/xlink">
<title>github</title>
<desc>Created using Figma</desc>
<g id="Canvas" transform="translate(-9785 485)">
<g id="github">
<use xlink:href="#path0_fill" transform="translate(9785.36 -484.25)"/>
</g>
</g>
<defs>
<path id="path0_fill" fill-rule="evenodd" d="M 8.79121 0C 3.93717 0 0 3.95829 0 8.83838C 0 12.7425 2.53489 16.0501 5.98666 17.243C 6.41813 17.2972 6.57993 17.0261 6.57993 16.8092C 6.57993 16.5923 6.57993 16.0501 6.57993 15.2909C 4.15291 15.8332 3.61357 14.098 3.61357 14.098C 3.23603 13.0678 2.64276 12.7967 2.64276 12.7967C 1.83375 12.2544 2.69669 12.2544 2.69669 12.2544C 3.55963 12.3087 4.04504 13.1762 4.04504 13.1762C 4.85405 14.5318 6.09452 14.1523 6.57993 13.9354C 6.63386 13.3389 6.90353 12.9593 7.11927 12.7425C 5.17765 12.5256 3.12816 11.7664 3.12816 8.35038C 3.12816 7.37436 3.45177 6.61523 4.04504 5.96455C 3.9911 5.80188 3.6675 4.88009 4.15291 3.68718C 4.15291 3.68718 4.90798 3.47029 6.57993 4.60897C 7.28107 4.39208 8.03614 4.33786 8.79121 4.33786C 9.54629 4.33786 10.3014 4.4463 11.0025 4.60897C 12.6745 3.47029 13.4295 3.68718 13.4295 3.68718C 13.9149 4.88009 13.5913 5.80188 13.5374 6.01878C 14.0767 6.61523 14.4543 7.42858 14.4543 8.4046C 14.4543 11.8207 12.4048 12.5256 10.4632 12.7425C 10.7868 13.0136 11.0564 13.5558 11.0564 14.3692C 11.0564 15.5621 11.0564 16.4839 11.0564 16.8092C 11.0564 17.0261 11.2182 17.2972 11.6497 17.243C 15.1554 16.0501 17.6364 12.7425 17.6364 8.83838C 17.5824 3.95829 13.6453 0 8.79121 0Z"/>
</defs>
</svg>
