<svg width="18" height="18" viewBox="0 0 18 18" version="1.1" xmlns="http://www.w3.org/2000/svg" xmlns:xlink="http://www.w3.org/1999/xlink">
<title>linkedin</title>
<desc>Created using Figma</desc>
<g id="Canvas" transform="translate(-9741 486)">
<g id="linkedin">
<use xlink:href="#path0_fill" transform="translate(9741.15 -486)"/>
</g>
</g>
<defs>
<path id="path0_fill" d="M 0.295169 5.98324L 3.93559 5.98324L 3.93559 18L 0.295169 18L 0.295169 5.98324ZM 2.11538 0C 3.29606 0 4.23076 0.980447 4.23076 2.16201C 4.23076 3.34358 3.27146 4.32402 2.11538 4.32402C 0.934703 4.32402 0 3.36872 0 2.16201C 0 0.955307 0.934703 0 2.11538 0ZM 6.24775 17.9749L 9.88817 17.9749L 9.88817 12.0419C 9.88817 10.4832 10.1833 8.94972 12.0773 8.94972C 13.9467 8.94972 13.9713 10.7346 13.9713 12.1425L 13.9713 17.9749L 17.6364 17.9749L 17.6364 11.3883C 17.6364 8.14525 16.9476 5.65642 13.258 5.65642C 11.487 5.65642 10.2817 6.66201 9.78978 7.59218L 9.74059 7.59218L 9.74059 5.9581L 6.24775 5.9581L 6.24775 17.9749Z"/>
</defs>
</svg>
