<svg width="96" height="14" viewBox="0 0 96 14" version="1.1" xmlns="http://www.w3.org/2000/svg" xmlns:xlink="http://www.w3.org/1999/xlink">
<title>logo</title>
<desc>Created using Figma</desc>
<g id="Canvas" transform="translate(-8535 480)">
<g id="logo">
<use xlink:href="#path0_fill" transform="translate(8535 -480)" fill="#CFCFCF"/>
<use xlink:href="#path1_fill" transform="translate(8535 -480)" fill="#CFCFCF"/>
<use xlink:href="#path2_fill" transform="translate(8535 -480)" fill="#CFCFCF"/>
<use xlink:href="#path3_fill" transform="translate(8535 -480)" fill="#CFCFCF"/>
<use xlink:href="#path4_fill" transform="translate(8535 -480)" fill="#CFCFCF"/>
<use xlink:href="#path5_fill" transform="translate(8535 -480)" fill="#CFCFCF"/>
<use xlink:href="#path6_fill" transform="translate(8535 -480)" fill="#CFCFCF"/>
<use xlink:href="#path7_fill" transform="translate(8535 -480)" fill="#CFCFCF"/>
<use xlink:href="#path8_fill" transform="translate(8535 -480)" fill="#CFCFCF"/>
<use xlink:href="#path9_fill" transform="translate(8535 -480)" fill="#CFCFCF"/>
<use xlink:href="#path10_fill" transform="translate(8535 -480)" fill="#CFCFCF"/>
</g>
</g>
<defs>
<path id="path0_fill" d="M 1.2518 0C 0.541822 0 0 0.535621 0 1.27441C 0 1.99472 0.541822 2.53034 1.2518 2.53034C 1.96177 2.53034 2.50359 1.99472 2.50359 1.27441C 2.50359 0.535621 1.96177 0 1.2518 0Z"/>
<path id="path1_fill" d="M 0.186835 4.08179L 0.186835 13.9077L 2.31675 13.9077L 2.31675 4.08179L 0.186835 4.08179Z"/>
<path id="path2_fill" fill-rule="evenodd" d="M 13.0071 13.9077L 12.9884 7.46174C 12.9697 5.30079 11.5311 4.00792 8.97144 4.00792C 7.08441 4.00792 6.0755 4.43272 4.69292 5.24538L 5.57104 6.72296C 6.56127 6.05805 7.55149 5.72559 8.50435 5.72559C 10.0738 5.72559 10.8772 6.46438 10.8772 7.70185L 10.8772 7.99736L 7.86911 7.99736C 5.47763 8.01583 4.11373 9.16095 4.11373 10.9525C 4.11373 12.6887 5.45894 14 7.60754 14C 9.04617 14 10.1859 13.5752 10.8958 12.7071L 10.8958 13.9077L 13.0071 13.9077ZM 8.05595 12.3193C 6.8602 12.3193 6.13155 11.7467 6.13155 10.8602C 6.13155 9.91821 6.78547 9.54881 8.18673 9.54881L 10.8772 9.54881L 10.8772 10.4538C 10.7651 11.5251 9.588 12.3193 8.05595 12.3193Z"/>
<path id="path3_fill" d="M 28.289 4.00792C 26.4767 4.00792 25.1502 4.72823 24.515 6.37203C 24.0479 4.87599 22.8334 4.00792 21.0585 4.00792C 19.4144 4.00792 18.1439 4.59894 17.4526 5.98417L 17.4526 4.08179L 15.3227 4.08179L 15.3227 13.9077L 17.4526 13.9077L 17.4526 9.05013C 17.4526 7.33245 18.4989 6.03958 20.2177 5.98417C 21.6751 5.98417 22.5532 6.88918 22.5532 8.38522L 22.5532 13.9077L 24.7018 13.9077L 24.7018 9.05013C 24.7018 7.33245 25.7294 6.03958 27.4296 5.98417C 28.8869 5.98417 29.7837 6.88918 29.7837 8.38522L 29.7837 13.9077L 31.9323 13.9077L 31.9323 7.7942C 31.9323 5.44855 30.5684 4.00792 28.289 4.00792Z"/>
<path id="path4_fill" d="M 44.9505 6.55673L 45.7352 4.98681C 44.8384 4.35884 43.5118 3.98945 42.26 3.98945C 40.3543 3.98945 38.5981 4.83905 38.5981 6.83377C 38.5794 10.3799 43.8108 9.2533 43.8108 11.2665C 43.8108 12.0053 43.1008 12.3193 42.1853 12.3193C 41.1017 12.3193 39.7191 11.8575 38.8597 11.1003L 38.0936 12.6148C 39.0839 13.5013 40.6346 13.9815 42.0919 13.9815C 44.091 13.9815 45.9033 13.0765 45.9033 11.0633C 45.922 7.49868 40.6346 8.47757 40.6346 6.66755C 40.6346 5.9657 41.2511 5.68865 42.0919 5.68865C 42.97 5.68865 44.0724 6.02111 44.9505 6.55673Z"/>
<path id="path5_fill" d="M 52.5869 11.6544C 52.0077 11.9314 51.5406 12.0792 51.0922 12.0792C 50.4196 12.0792 50.0273 11.7652 50.0273 10.7493L 50.0273 6.03958L 52.9606 6.03958L 52.9606 4.45119L 50.0273 4.45119L 50.0273 1.75462L 47.8974 1.75462L 47.8974 4.45119L 46.4961 4.45119L 46.4961 6.03958L 47.8974 6.03958L 47.8974 11.1372C 47.8974 13.1504 49.1865 14 50.6812 14C 51.522 14 52.344 13.7414 53.1287 13.2797L 52.5869 11.6544Z"/>
<path id="path6_fill" d="M 56.7015 6.03958L 56.7015 4.08179L 54.5529 4.08179L 54.5529 13.9077L 56.7015 13.9077L 56.7015 8.77309C 56.8697 7.09235 58.1402 5.92876 60.1393 6.03958L 60.1393 4.00792C 58.5699 4.00792 57.3741 4.70976 56.7015 6.03958Z"/>
<path id="path7_fill" fill-rule="evenodd" d="M 69.0153 13.9077L 68.9966 7.46174C 68.9779 5.30079 67.5393 4.00792 64.9796 4.00792C 63.0926 4.00792 62.0837 4.43272 60.7011 5.24538L 61.5792 6.72296C 62.5695 6.05805 63.5597 5.72559 64.5125 5.72559C 66.082 5.72559 66.8853 6.46438 66.8853 7.70185L 66.8853 7.99736L 63.8773 7.99736C 61.4858 8.01583 60.1219 9.16095 60.1219 10.9525C 60.1219 12.6887 61.4671 14 63.6157 14C 65.0544 14 66.1941 13.5752 66.904 12.7071L 66.904 13.9077L 69.0153 13.9077ZM 64.0641 12.3193C 62.8684 12.3193 62.1397 11.7467 62.1397 10.8602C 62.1397 9.91821 62.7937 9.54881 64.1949 9.54881L 66.8853 9.54881L 66.8853 10.4538C 66.7732 11.5251 65.5962 12.3193 64.0641 12.3193Z"/>
<path id="path8_fill" d="M 76.4128 11.6544C 75.8336 11.9314 75.3665 12.0792 74.9181 12.0792C 74.2455 12.0792 73.8531 11.7652 73.8531 10.7493L 73.8531 6.03958L 76.7864 6.03958L 76.7864 4.45119L 73.8531 4.45119L 73.8531 1.75462L 71.7232 1.75462L 71.7232 4.45119L 70.322 4.45119L 70.322 6.03958L 71.7232 6.03958L 71.7232 11.1372C 71.7232 13.1504 73.0124 14 74.5071 14C 75.3478 14 76.1699 13.7414 76.9546 13.2797L 76.4128 11.6544Z"/>
<path id="path9_fill" fill-rule="evenodd" d="M 82.5291 4.00792C 79.4464 4.00792 77.3351 6.02111 77.3351 8.97625C 77.3351 11.9499 79.4464 13.9815 82.5291 13.9815C 85.5932 13.9815 87.7045 11.9499 87.7045 8.97625C 87.7045 6.02111 85.5932 4.00792 82.5291 4.00792ZM 82.5291 5.81794C 84.3041 5.81794 85.5559 7.12929 85.5559 9.01319C 85.5559 10.9156 84.3041 12.2084 82.5291 12.2084C 80.7355 12.2084 79.4837 10.9156 79.4837 9.01319C 79.4837 7.12929 80.7355 5.81794 82.5291 5.81794Z"/>
<path id="path10_fill" d="M 95.0471 6.55673L 95.8318 4.98681C 94.935 4.35884 93.6085 3.98945 92.3567 3.98945C 90.4509 3.98945 88.6947 4.83905 88.6947 6.83377C 88.676 10.3799 93.9074 9.2533 93.9074 11.2665C 93.9074 12.0053 93.1974 12.3193 92.2819 12.3193C 91.1983 12.3193 89.8157 11.8575 88.9563 11.1003L 88.1902 12.6148C 89.1805 13.5013 90.7312 13.9815 92.1885 13.9815C 94.1876 13.9815 96 13.0765 96 11.0633C 96.0186 7.49868 90.7312 8.47757 90.7312 6.66755C 90.7312 5.9657 91.3478 5.68865 92.1885 5.68865C 93.0666 5.68865 94.169 6.02111 95.0471 6.55673Z"/>
</defs>
</svg>
