<svg width="20" height="16" viewBox="0 0 20 16" version="1.1" xmlns="http://www.w3.org/2000/svg" xmlns:xlink="http://www.w3.org/1999/xlink">
<title>twitter</title>
<desc>Created using Figma</desc>
<g id="Canvas" transform="translate(-9696 484)">
<g id="twitter">
<use xlink:href="#path0_fill" transform="translate(9696 -483.75)"/>
</g>
</g>
<defs>
<path id="path0_fill" d="M 6.00695 15C 13.2138 15 17.1572 9.22449 17.1572 4.22446C 17.1572 4.06198 17.1572 3.8995 17.1496 3.73701C 17.9138 3.19787 18.5787 2.53317 19.1061 1.77984C 18.3877 2.08265 17.6311 2.28944 16.8515 2.37807C 17.6693 1.90539 18.2807 1.15945 18.5711 0.280568C 17.7992 0.723702 16.9585 1.0339 16.0797 1.19638C 14.597 -0.332434 12.1132 -0.406289 10.5313 1.0339C 9.51482 1.95709 9.0792 3.33819 9.40018 4.65282C 6.25915 4.49773 3.31681 3.05754 1.32978 0.69416C 0.290412 2.42238 0.817739 4.63805 2.54493 5.74589C 1.91825 5.73112 1.3145 5.56863 0.764242 5.27321C 0.764242 5.28798 0.764242 5.30275 0.764242 5.31752C 0.764242 7.1196 2.07874 8.67057 3.91292 9.03246C 3.3321 9.18756 2.72835 9.20972 2.13988 9.09893C 2.65192 10.6425 4.12691 11.6987 5.8006 11.7282C 4.40968 12.7843 2.69778 13.353 0.932376 13.353C 0.619036 13.353 0.305697 13.3309 0 13.3013C 1.79597 14.4165 3.87471 15 6.00695 15Z"/>
</defs>
</svg>
