<svg width="265" height="24" viewBox="0 0 265 24" fill="none" xmlns="http://www.w3.org/2000/svg">
<path d="M163.568 23.0001C162.167 23.0001 160.806 22.7605 159.525 22.3213C158.244 21.8421 157.123 21.1633 156.162 20.2049C155.202 19.2466 154.441 18.0886 153.841 16.6511C153.28 15.2536 153 13.5765 153 11.6997C153 9.82301 153.28 8.18586 153.881 6.74836C154.481 5.31086 155.282 4.11295 156.242 3.11469C157.203 2.11642 158.364 1.35775 159.645 0.838649C160.926 0.319552 162.287 0.0400391 163.688 0.0400391C165.169 0.0400391 166.49 0.319551 167.65 0.918509C168.811 1.47754 169.772 2.19628 170.573 2.99489L167.49 6.74836C166.93 6.2692 166.37 5.86989 165.809 5.59037C165.249 5.27093 164.568 5.11121 163.808 5.11121C163.167 5.11121 162.527 5.27093 161.966 5.55045C161.406 5.82996 160.886 6.2692 160.445 6.82822C160.005 7.38725 159.645 8.02614 159.405 8.82475C159.124 9.62336 159.004 10.5018 159.004 11.5001C159.004 13.5765 159.445 15.1737 160.325 16.2917C161.206 17.4098 162.367 17.9688 163.768 17.9688C164.648 17.9688 165.409 17.7692 166.089 17.4098C166.77 17.0504 167.33 16.5713 167.811 16.0522L170.893 19.7258C169.932 20.8039 168.851 21.6424 167.61 22.1615C166.37 22.7206 165.009 23.0001 163.568 23.0001Z" fill="#434343"/>
<path d="M185.984 22.6007H179.979L186.744 0.479248H193.829L200.594 22.6007H194.39C194.39 22.6007 190.507 5.94973 190.227 4.83168H190.106C189.826 5.94973 185.984 22.6007 185.984 22.6007Z" fill="#434343"/>
<path d="M218.567 23C217.166 23 215.725 22.7604 214.204 22.2413C212.723 21.7222 211.362 20.9236 210.161 19.8455L213.523 15.8125C214.324 16.4514 215.164 16.9705 216.085 17.3698C217.006 17.7691 217.886 17.9687 218.687 17.9687C219.568 17.9687 220.208 17.8489 220.608 17.5694C221.009 17.2899 221.209 16.9305 221.209 16.4114C221.209 16.1319 221.129 15.9323 221.009 15.7326C220.889 15.533 220.688 15.3732 220.408 15.2135C220.128 15.0538 219.848 14.8941 219.488 14.7344C219.127 14.5746 218.687 14.4149 218.207 14.2552L215.445 13.0972C214.844 12.8576 214.284 12.5781 213.723 12.1788C213.163 11.8194 212.683 11.3802 212.282 10.8611C211.882 10.342 211.562 9.78297 211.322 9.10415C211.082 8.46527 210.961 7.70659 210.961 6.90798C210.961 5.94964 211.162 5.07117 211.562 4.23263C211.962 3.39409 212.523 2.67535 213.283 2.03646C214.004 1.39757 214.884 0.918405 215.885 0.559031C216.886 0.199656 218.006 0 219.207 0C220.488 0 221.769 0.239584 223.09 0.71875C224.411 1.19792 225.572 1.9566 226.573 2.95486L223.651 6.62846C222.89 6.10937 222.169 5.71006 221.489 5.43055C220.808 5.15104 220.048 5.03124 219.207 5.03124C218.487 5.03124 217.926 5.15103 217.486 5.39062C217.086 5.6302 216.886 6.0295 216.886 6.50867C216.886 7.02777 217.166 7.42707 217.766 7.70659C218.327 7.9861 219.167 8.30554 220.168 8.70485L222.85 9.74304C224.251 10.3021 225.292 11.0607 226.052 12.0191C226.813 12.9774 227.173 14.2552 227.173 15.8125C227.173 16.7309 226.973 17.6493 226.613 18.4878C226.212 19.3663 225.652 20.085 224.931 20.7639C224.211 21.4427 223.29 21.9218 222.209 22.3211C221.209 22.8003 219.968 23 218.567 23Z" fill="#434343"/>
<path d="M243.185 22.6007V5.3907H237.3V0.479248H254.913V5.3907H249.029V22.6007H243.185Z" fill="#434343"/>
<path d="M260.237 3.55384V1.15801H259.316V0.638916H261.758V1.15801H260.837V3.55384H260.237ZM262.158 3.55384V0.638916H262.838L263.279 1.71704L263.559 2.43579H263.599L263.879 1.71704L264.319 0.638916H265V3.55384H264.44V2.27606L264.52 1.2778H264.48L263.799 3.1146H263.359L262.678 1.2778H262.638L262.718 2.27606V3.55384H262.158Z" fill="#434343"/>
<path d="M0 23.17V0.420001H8.19C9.38 0.420001 10.5 0.513335 11.55 0.700002C12.6 0.863334 13.51 1.155 14.28 1.575C15.05 1.995 15.6567 2.57833 16.1 3.325C16.5667 4.04833 16.8 4.97 16.8 6.09C16.8 6.58 16.73 7.08167 16.59 7.595C16.45 8.085 16.2517 8.56333 15.995 9.03C15.7617 9.47333 15.47 9.87 15.12 10.22C14.77 10.57 14.3733 10.8267 13.93 10.99V11.13C15.0267 11.4567 15.9483 12.0517 16.695 12.915C17.465 13.755 17.85 14.9333 17.85 16.45C17.85 17.6167 17.605 18.6317 17.115 19.495C16.6483 20.335 16.0067 21.035 15.19 21.595C14.3967 22.1317 13.4517 22.5283 12.355 22.785C11.2583 23.0417 10.1033 23.17 8.89 23.17H0ZM6.02 9.31H8.05C9.03 9.31 9.75333 9.1 10.22 8.68C10.6867 8.26 10.92 7.7 10.92 7C10.92 6.3 10.6867 5.79834 10.22 5.495C9.75333 5.19167 9.03 5.04 8.05 5.04H6.02V9.31ZM6.02 18.55H8.47C10.8033 18.55 11.97 17.71 11.97 16.03C11.97 15.19 11.6783 14.595 11.095 14.245C10.535 13.895 9.66 13.72 8.47 13.72H6.02V18.55Z" fill="#434343"/>
<path d="M30.1807 23.17V0.420001H38.7907C40.004 0.420001 41.159 0.536667 42.2557 0.77C43.3757 1.00333 44.344 1.4 45.1607 1.96C46.0007 2.52 46.6657 3.27833 47.1557 4.235C47.6457 5.16833 47.8907 6.34667 47.8907 7.77C47.8907 9.40333 47.5523 10.7567 46.8757 11.83C46.2223 12.9033 45.3357 13.7433 44.2157 14.35L49.1507 23.17H42.4307L38.5107 15.54H36.2007V23.17H30.1807ZM36.2007 10.78H38.3707C40.7973 10.78 42.0107 9.77667 42.0107 7.77C42.0107 6.79 41.6957 6.11334 41.0657 5.74C40.459 5.36667 39.5607 5.18 38.3707 5.18H36.2007V10.78Z" fill="#434343"/>
<path d="M70.5666 23.59C68.9799 23.59 67.5332 23.3217 66.2266 22.785C64.9432 22.2483 63.8349 21.4783 62.9016 20.475C61.9916 19.4483 61.2799 18.2 60.7666 16.73C60.2532 15.2367 59.9966 13.5567 59.9966 11.69C59.9966 9.82334 60.2532 8.16667 60.7666 6.72C61.2799 5.25 61.9916 4.025 62.9016 3.045C63.8349 2.04167 64.9432 1.28333 66.2266 0.77C67.5332 0.256667 68.9799 0 70.5666 0C72.1299 0 73.5649 0.256667 74.8716 0.77C76.1782 1.28333 77.2866 2.04167 78.1966 3.045C79.1299 4.04833 79.8532 5.27333 80.3666 6.72C80.8799 8.16667 81.1366 9.82334 81.1366 11.69C81.1366 13.5567 80.8799 15.2367 80.3666 16.73C79.8532 18.2 79.1299 19.4483 78.1966 20.475C77.2866 21.4783 76.1782 22.2483 74.8716 22.785C73.5649 23.3217 72.1299 23.59 70.5666 23.59ZM70.5666 18.41C71.9432 18.41 73.0166 17.815 73.7866 16.625C74.5799 15.4117 74.9766 13.7667 74.9766 11.69C74.9766 9.61334 74.5799 8.015 73.7866 6.895C73.0166 5.75167 71.9432 5.18 70.5666 5.18C69.1899 5.18 68.1049 5.75167 67.3116 6.895C66.5416 8.015 66.1566 9.61334 66.1566 11.69C66.1566 13.7667 66.5416 15.4117 67.3116 16.625C68.1049 17.815 69.1899 18.41 70.5666 18.41Z" fill="#434343"/>
<path d="M99.4982 12.11L99.1132 13.685H103.313L102.928 12.11C102.648 11.0133 102.368 9.82333 102.088 8.54C101.808 7.25667 101.528 6.04333 101.248 4.9H101.108C100.852 6.06667 100.583 7.29167 100.303 8.575C100.047 9.835 99.7782 11.0133 99.4982 12.11ZM90.7482 23.17L97.6782 0.420001H104.958L111.888 23.17H105.518L104.398 18.34H98.0282L96.9082 23.17H90.7482Z" fill="#434343"/>
<path d="M122.808 23.17V0.420001H129.528C131.254 0.420001 132.829 0.630001 134.253 1.05C135.699 1.47 136.936 2.135 137.963 3.045C138.989 3.955 139.783 5.12167 140.343 6.545C140.926 7.96834 141.218 9.68334 141.218 11.69C141.218 13.6967 140.938 15.4233 140.378 16.87C139.818 18.3167 139.024 19.5067 137.998 20.44C136.994 21.3733 135.793 22.0617 134.393 22.505C133.016 22.9483 131.511 23.17 129.878 23.17H122.808ZM128.828 18.34H129.178C129.994 18.34 130.764 18.2467 131.488 18.06C132.211 17.85 132.829 17.5 133.343 17.01C133.879 16.52 134.299 15.8433 134.603 14.98C134.906 14.1167 135.058 13.02 135.058 11.69C135.058 10.36 134.906 9.275 134.603 8.435C134.299 7.595 133.879 6.94167 133.343 6.475C132.829 6.00833 132.211 5.69334 131.488 5.53C130.764 5.34334 129.994 5.25 129.178 5.25H128.828V18.34Z" fill="#434343"/>
</svg>
