<svg width="112" height="23" viewBox="0 0 112 23" fill="none" xmlns="http://www.w3.org/2000/svg">
<path d="M10.5675 23.0001C9.16654 23.0001 7.80557 22.7605 6.52465 22.3213C5.24374 21.8421 4.12294 21.1633 3.16226 20.2049C2.20157 19.2466 1.44103 18.0886 0.840603 16.6511C0.280203 15.2536 0 13.5765 0 11.6997C0 9.82301 0.280193 8.18586 0.880621 6.74836C1.48105 5.31086 2.28163 4.11295 3.24232 3.11469C4.203 2.11642 5.36383 1.35775 6.64475 0.838649C7.92566 0.319552 9.28662 0.0400391 10.6876 0.0400391C12.1687 0.0400391 13.4896 0.319551 14.6505 0.918509C15.8113 1.47754 16.772 2.19628 17.5725 2.99489L14.4903 6.74836C13.9299 6.2692 13.3695 5.86989 12.8091 5.59037C12.2487 5.27093 11.5683 5.11121 10.8077 5.11121C10.1673 5.11121 9.5268 5.27093 8.9664 5.55045C8.406 5.82996 7.88563 6.2692 7.44532 6.82822C7.005 7.38725 6.64474 8.02614 6.40457 8.82475C6.12437 9.62336 6.00429 10.5018 6.00429 11.5001C6.00429 13.5765 6.4446 15.1737 7.32522 16.2917C8.20585 17.4098 9.36668 17.9688 10.7677 17.9688C11.6483 17.9688 12.4089 17.7692 13.0893 17.4098C13.7698 17.0504 14.3302 16.5713 14.8106 16.0522L17.8928 19.7258C16.9321 20.8039 15.8513 21.6424 14.6104 22.1615C13.3695 22.7206 12.0086 23.0001 10.5675 23.0001Z" fill="#434343"/>
<path d="M32.9835 22.6007H26.9792L33.7441 0.479248H40.8291L47.594 22.6007H41.3895C41.3895 22.6007 37.5068 5.94973 37.2266 4.83168H37.1065C36.8263 5.94973 32.9835 22.6007 32.9835 22.6007Z" fill="#434343"/>
<path d="M65.5669 23C64.1659 23 62.7249 22.7604 61.2038 22.2413C59.7227 21.7222 58.3617 20.9236 57.1609 19.8455L60.5233 15.8125C61.3239 16.4514 62.1645 16.9705 63.0851 17.3698C64.0058 17.7691 64.8864 17.9687 65.687 17.9687C66.5676 17.9687 67.2081 17.8489 67.6084 17.5694C68.0086 17.2899 68.2088 16.9305 68.2088 16.4114C68.2088 16.1319 68.1287 15.9323 68.0086 15.7326C67.8885 15.533 67.6884 15.3732 67.4082 15.2135C67.128 15.0538 66.8478 14.8941 66.4876 14.7344C66.1273 14.5746 65.687 14.4149 65.2066 14.2552L62.4447 13.0972C61.8442 12.8576 61.2838 12.5781 60.7234 12.1788C60.163 11.8194 59.6827 11.3802 59.2824 10.8611C58.8821 10.342 58.5619 9.78297 58.3217 9.10415C58.0815 8.46527 57.9615 7.70659 57.9615 6.90798C57.9615 5.94964 58.1616 5.07117 58.5619 4.23263C58.9622 3.39409 59.5226 2.67535 60.2831 2.03646C61.0036 1.39757 61.8843 0.918405 62.885 0.559031C63.8857 0.199656 65.0065 0 66.2074 0C67.4883 0 68.7692 0.239584 70.0901 0.71875C71.4111 1.19792 72.5719 1.9566 73.5726 2.95486L70.6505 6.62846C69.89 6.10937 69.1695 5.71006 68.489 5.43055C67.8085 5.15104 67.048 5.03124 66.2074 5.03124C65.4868 5.03124 64.9264 5.15103 64.4861 5.39062C64.0858 5.6302 63.8857 6.0295 63.8857 6.50867C63.8857 7.02777 64.1659 7.42707 64.7663 7.70659C65.3267 7.9861 66.1673 8.30554 67.168 8.70485L69.8499 9.74304C71.2509 10.3021 72.2917 11.0607 73.0522 12.0191C73.8128 12.9774 74.173 14.2552 74.173 15.8125C74.173 16.7309 73.9729 17.6493 73.6126 18.4878C73.2124 19.3663 72.6519 20.085 71.9314 20.7639C71.2109 21.4427 70.2903 21.9218 69.2095 22.3211C68.2088 22.8003 66.9679 23 65.5669 23Z" fill="#434343"/>
<path d="M90.1845 22.6007V5.3907H84.3003V0.479248H101.913V5.3907H96.0287V22.6007H90.1845Z" fill="#434343"/>
<path d="M107.237 3.55384V1.15801H106.316V0.638916H108.758V1.15801H107.837V3.55384H107.237ZM109.158 3.55384V0.638916H109.838L110.279 1.71704L110.559 2.43579H110.599L110.879 1.71704L111.319 0.638916H112V3.55384H111.44V2.27606L111.52 1.2778H111.48L110.799 3.1146H110.359L109.678 1.2778H109.638L109.718 2.27606V3.55384H109.158Z" fill="#434343"/>
</svg>
