<svg width="229" height="24" viewBox="0 0 229 24" fill="none" xmlns="http://www.w3.org/2000/svg">
<path d="M0 23.1699V0.419922H6.72C8.44667 0.419922 10.0217 0.629922 11.445 1.04992C12.8917 1.46992 14.1283 2.13492 15.155 3.04492C16.1817 3.95492 16.975 5.12159 17.535 6.54492C18.1183 7.96826 18.41 9.68326 18.41 11.6899C18.41 13.6966 18.13 15.4233 17.57 16.8699C17.01 18.3166 16.2167 19.5066 15.19 20.4399C14.1867 21.3733 12.985 22.0616 11.585 22.5049C10.2083 22.9483 8.70333 23.1699 7.07 23.1699H0ZM6.02 18.3399H6.37C7.18667 18.3399 7.95667 18.2466 8.68 18.0599C9.40333 17.8499 10.0217 17.4999 10.535 17.0099C11.0717 16.5199 11.4917 15.8433 11.795 14.9799C12.0983 14.1166 12.25 13.0199 12.25 11.6899C12.25 10.3599 12.0983 9.27492 11.795 8.43492C11.4917 7.59492 11.0717 6.94159 10.535 6.47492C10.0217 6.00826 9.40333 5.69326 8.68 5.52992C7.95667 5.34326 7.18667 5.24992 6.37 5.24992H6.02V18.3399Z" fill="#434343"/>
<path d="M31.2061 23.1699V0.419922H45.9061V5.45992H37.2261V9.02992H44.6461V14.0699H37.2261V18.1299H46.2561V23.1699H31.2061Z" fill="#434343"/>
<path d="M59.4043 23.1699V0.419922H74.1043V5.45992H65.4243V9.02992H72.8443V14.0699H65.4243V18.1299H74.4543V23.1699H59.4043Z" fill="#434343"/>
<path d="M87.6025 23.1699V0.419922H95.9325C97.1692 0.419922 98.3475 0.548255 99.4675 0.804921C100.588 1.03826 101.568 1.45826 102.408 2.06492C103.248 2.64826 103.913 3.42992 104.403 4.40992C104.916 5.36659 105.173 6.55659 105.173 7.97992C105.173 9.37992 104.916 10.5816 104.403 11.5849C103.913 12.5883 103.248 13.4166 102.408 14.0699C101.568 14.6999 100.599 15.1783 99.5025 15.5049C98.4059 15.8083 97.2625 15.9599 96.0725 15.9599H93.6225V23.1699H87.6025ZM93.6225 11.1999H95.7925C96.9825 11.1999 97.8575 10.9199 98.4175 10.3599C99.0009 9.79992 99.2925 9.00659 99.2925 7.97992C99.2925 6.95326 98.9775 6.22992 98.3475 5.80992C97.7175 5.38992 96.8192 5.17992 95.6525 5.17992H93.6225V11.1999Z" fill="#434343"/>
<path d="M127.568 23.0001C126.167 23.0001 124.806 22.7605 123.525 22.3213C122.244 21.8421 121.123 21.1633 120.162 20.2049C119.202 19.2466 118.441 18.0886 117.841 16.6511C117.28 15.2536 117 13.5765 117 11.6997C117 9.82301 117.28 8.18586 117.881 6.74836C118.481 5.31086 119.282 4.11295 120.242 3.11469C121.203 2.11642 122.364 1.35775 123.645 0.838649C124.926 0.319552 126.287 0.0400391 127.688 0.0400391C129.169 0.0400391 130.49 0.319551 131.65 0.918509C132.811 1.47754 133.772 2.19628 134.573 2.99489L131.49 6.74836C130.93 6.2692 130.37 5.86989 129.809 5.59037C129.249 5.27093 128.568 5.11121 127.808 5.11121C127.167 5.11121 126.527 5.27093 125.966 5.55045C125.406 5.82996 124.886 6.2692 124.445 6.82822C124.005 7.38725 123.645 8.02614 123.405 8.82475C123.124 9.62336 123.004 10.5018 123.004 11.5001C123.004 13.5765 123.445 15.1737 124.325 16.2917C125.206 17.4098 126.367 17.9688 127.768 17.9688C128.648 17.9688 129.409 17.7692 130.089 17.4098C130.77 17.0504 131.33 16.5713 131.811 16.0522L134.893 19.7258C133.932 20.8039 132.851 21.6424 131.61 22.1615C130.37 22.7206 129.009 23.0001 127.568 23.0001Z" fill="#434343"/>
<path d="M149.984 22.6007H143.979L150.744 0.479248H157.829L164.594 22.6007H158.39C158.39 22.6007 154.507 5.94973 154.227 4.83168H154.106C153.826 5.94973 149.984 22.6007 149.984 22.6007Z" fill="#434343"/>
<path d="M182.567 23C181.166 23 179.725 22.7604 178.204 22.2413C176.723 21.7222 175.362 20.9236 174.161 19.8455L177.523 15.8125C178.324 16.4514 179.164 16.9705 180.085 17.3698C181.006 17.7691 181.886 17.9687 182.687 17.9687C183.568 17.9687 184.208 17.8489 184.608 17.5694C185.009 17.2899 185.209 16.9305 185.209 16.4114C185.209 16.1319 185.129 15.9323 185.009 15.7326C184.889 15.533 184.688 15.3732 184.408 15.2135C184.128 15.0538 183.848 14.8941 183.488 14.7344C183.127 14.5746 182.687 14.4149 182.207 14.2552L179.445 13.0972C178.844 12.8576 178.284 12.5781 177.723 12.1788C177.163 11.8194 176.683 11.3802 176.282 10.8611C175.882 10.342 175.562 9.78297 175.322 9.10415C175.082 8.46527 174.961 7.70659 174.961 6.90798C174.961 5.94964 175.162 5.07117 175.562 4.23263C175.962 3.39409 176.523 2.67535 177.283 2.03646C178.004 1.39757 178.884 0.918405 179.885 0.559031C180.886 0.199656 182.006 0 183.207 0C184.488 0 185.769 0.239584 187.09 0.71875C188.411 1.19792 189.572 1.9566 190.573 2.95486L187.651 6.62846C186.89 6.10937 186.169 5.71006 185.489 5.43055C184.808 5.15104 184.048 5.03124 183.207 5.03124C182.487 5.03124 181.926 5.15103 181.486 5.39062C181.086 5.6302 180.886 6.0295 180.886 6.50867C180.886 7.02777 181.166 7.42707 181.766 7.70659C182.327 7.9861 183.167 8.30554 184.168 8.70485L186.85 9.74304C188.251 10.3021 189.292 11.0607 190.052 12.0191C190.813 12.9774 191.173 14.2552 191.173 15.8125C191.173 16.7309 190.973 17.6493 190.613 18.4878C190.212 19.3663 189.652 20.085 188.931 20.7639C188.211 21.4427 187.29 21.9218 186.209 22.3211C185.209 22.8003 183.968 23 182.567 23Z" fill="#434343"/>
<path d="M207.185 22.6007V5.3907H201.3V0.479248H218.913V5.3907H213.029V22.6007H207.185Z" fill="#434343"/>
<path d="M224.237 3.55384V1.15801H223.316V0.638916H225.758V1.15801H224.837V3.55384H224.237ZM226.158 3.55384V0.638916H226.838L227.279 1.71704L227.559 2.43579H227.599L227.879 1.71704L228.319 0.638916H229V3.55384H228.44V2.27606L228.52 1.2778H228.48L227.799 3.1146H227.359L226.678 1.2778H226.638L226.718 2.27606V3.55384H226.158Z" fill="#434343"/>
</svg>
