<svg width="230" height="24" viewBox="0 0 230 24" fill="none" xmlns="http://www.w3.org/2000/svg">
<path d="M128.568 23.0001C127.167 23.0001 125.806 22.7605 124.525 22.3213C123.244 21.8421 122.123 21.1633 121.162 20.2049C120.202 19.2466 119.441 18.0886 118.841 16.6511C118.28 15.2536 118 13.5765 118 11.6997C118 9.82301 118.28 8.18586 118.881 6.74836C119.481 5.31086 120.282 4.11295 121.242 3.11469C122.203 2.11642 123.364 1.35775 124.645 0.838649C125.926 0.319552 127.287 0.0400391 128.688 0.0400391C130.169 0.0400391 131.49 0.319551 132.65 0.918509C133.811 1.47754 134.772 2.19628 135.573 2.99489L132.49 6.74836C131.93 6.2692 131.37 5.86989 130.809 5.59037C130.249 5.27093 129.568 5.11121 128.808 5.11121C128.167 5.11121 127.527 5.27093 126.966 5.55045C126.406 5.82996 125.886 6.2692 125.445 6.82822C125.005 7.38725 124.645 8.02614 124.405 8.82475C124.124 9.62336 124.004 10.5018 124.004 11.5001C124.004 13.5765 124.445 15.1737 125.325 16.2917C126.206 17.4098 127.367 17.9688 128.768 17.9688C129.648 17.9688 130.409 17.7692 131.089 17.4098C131.77 17.0504 132.33 16.5713 132.811 16.0522L135.893 19.7258C134.932 20.8039 133.851 21.6424 132.61 22.1615C131.37 22.7206 130.009 23.0001 128.568 23.0001Z" fill="#434343"/>
<path d="M150.984 22.6007H144.979L151.744 0.479248H158.829L165.594 22.6007H159.39C159.39 22.6007 155.507 5.94973 155.227 4.83168H155.106C154.826 5.94973 150.984 22.6007 150.984 22.6007Z" fill="#434343"/>
<path d="M183.567 23C182.166 23 180.725 22.7604 179.204 22.2413C177.723 21.7222 176.362 20.9236 175.161 19.8455L178.523 15.8125C179.324 16.4514 180.164 16.9705 181.085 17.3698C182.006 17.7691 182.886 17.9687 183.687 17.9687C184.568 17.9687 185.208 17.8489 185.608 17.5694C186.009 17.2899 186.209 16.9305 186.209 16.4114C186.209 16.1319 186.129 15.9323 186.009 15.7326C185.889 15.533 185.688 15.3732 185.408 15.2135C185.128 15.0538 184.848 14.8941 184.488 14.7344C184.127 14.5746 183.687 14.4149 183.207 14.2552L180.445 13.0972C179.844 12.8576 179.284 12.5781 178.723 12.1788C178.163 11.8194 177.683 11.3802 177.282 10.8611C176.882 10.342 176.562 9.78297 176.322 9.10415C176.082 8.46527 175.961 7.70659 175.961 6.90798C175.961 5.94964 176.162 5.07117 176.562 4.23263C176.962 3.39409 177.523 2.67535 178.283 2.03646C179.004 1.39757 179.884 0.918405 180.885 0.559031C181.886 0.199656 183.006 0 184.207 0C185.488 0 186.769 0.239584 188.09 0.71875C189.411 1.19792 190.572 1.9566 191.573 2.95486L188.651 6.62846C187.89 6.10937 187.169 5.71006 186.489 5.43055C185.808 5.15104 185.048 5.03124 184.207 5.03124C183.487 5.03124 182.926 5.15103 182.486 5.39062C182.086 5.6302 181.886 6.0295 181.886 6.50867C181.886 7.02777 182.166 7.42707 182.766 7.70659C183.327 7.9861 184.167 8.30554 185.168 8.70485L187.85 9.74304C189.251 10.3021 190.292 11.0607 191.052 12.0191C191.813 12.9774 192.173 14.2552 192.173 15.8125C192.173 16.7309 191.973 17.6493 191.613 18.4878C191.212 19.3663 190.652 20.085 189.931 20.7639C189.211 21.4427 188.29 21.9218 187.209 22.3211C186.209 22.8003 184.968 23 183.567 23Z" fill="#434343"/>
<path d="M208.185 22.6007V5.3907H202.3V0.479248H219.913V5.3907H214.029V22.6007H208.185Z" fill="#434343"/>
<path d="M225.237 3.55384V1.15801H224.316V0.638916H226.758V1.15801H225.837V3.55384H225.237ZM227.158 3.55384V0.638916H227.838L228.279 1.71704L228.559 2.43579H228.599L228.879 1.71704L229.319 0.638916H230V3.55384H229.44V2.27606L229.52 1.2778H229.48L228.799 3.1146H228.359L227.678 1.2778H227.638L227.718 2.27606V3.55384H227.158Z" fill="#434343"/>
<path d="M0 23.17V0.420001H14.84V5.46H6.02V9.8H13.58V14.84H6.02V23.17H0Z" fill="#434343"/>
<path d="M36.7629 23.59C35.1762 23.59 33.7295 23.3217 32.4229 22.785C31.1395 22.2483 30.0312 21.4783 29.0979 20.475C28.1879 19.4483 27.4762 18.2 26.9629 16.73C26.4495 15.2367 26.1929 13.5567 26.1929 11.69C26.1929 9.82334 26.4495 8.16667 26.9629 6.72C27.4762 5.25 28.1879 4.025 29.0979 3.045C30.0312 2.04167 31.1395 1.28333 32.4229 0.77C33.7295 0.256667 35.1762 0 36.7629 0C38.3262 0 39.7612 0.256667 41.0679 0.77C42.3745 1.28333 43.4829 2.04167 44.3929 3.045C45.3262 4.04833 46.0495 5.27333 46.5629 6.72C47.0762 8.16667 47.3329 9.82334 47.3329 11.69C47.3329 13.5567 47.0762 15.2367 46.5629 16.73C46.0495 18.2 45.3262 19.4483 44.3929 20.475C43.4829 21.4783 42.3745 22.2483 41.0679 22.785C39.7612 23.3217 38.3262 23.59 36.7629 23.59ZM36.7629 18.41C38.1395 18.41 39.2129 17.815 39.9829 16.625C40.7762 15.4117 41.1729 13.7667 41.1729 11.69C41.1729 9.61334 40.7762 8.015 39.9829 6.895C39.2129 5.75167 38.1395 5.18 36.7629 5.18C35.3862 5.18 34.3012 5.75167 33.5079 6.895C32.7379 8.015 32.3529 9.61334 32.3529 11.69C32.3529 13.7667 32.7379 15.4117 33.5079 16.625C34.3012 17.815 35.3862 18.41 36.7629 18.41Z" fill="#434343"/>
<path d="M60.1562 23.17V0.420001H68.7663C69.9796 0.420001 71.1346 0.536667 72.2313 0.77C73.3513 1.00333 74.3196 1.4 75.1363 1.96C75.9763 2.52 76.6413 3.27833 77.1313 4.235C77.6213 5.16833 77.8663 6.34667 77.8663 7.77C77.8663 9.40333 77.5279 10.7567 76.8513 11.83C76.1979 12.9033 75.3113 13.7433 74.1913 14.35L79.1263 23.17H72.4063L68.4863 15.54H66.1763V23.17H60.1562ZM66.1763 10.78H68.3463C70.7729 10.78 71.9863 9.77667 71.9863 7.77C71.9863 6.79 71.6712 6.11334 71.0413 5.74C70.4346 5.36667 69.5363 5.18 68.3463 5.18H66.1763V10.78Z" fill="#434343"/>
<path d="M90.9521 23.17V0.420001H105.652V5.46H96.9722V9.03H104.392V14.07H96.9722V18.13H106.002V23.17H90.9521Z" fill="#434343"/>
</svg>
