<svg width="170" height="24" viewBox="0 0 170 24" fill="none" xmlns="http://www.w3.org/2000/svg">
<path d="M68.5675 23.0001C67.1665 23.0001 65.8056 22.7605 64.5247 22.3213C63.2437 21.8421 62.1229 21.1633 61.1623 20.2049C60.2016 19.2466 59.441 18.0886 58.8406 16.6511C58.2802 15.2536 58 13.5765 58 11.6997C58 9.82301 58.2802 8.18586 58.8806 6.74836C59.4811 5.31086 60.2816 4.11295 61.2423 3.11469C62.203 2.11642 63.3638 1.35775 64.6447 0.838649C65.9257 0.319552 67.2866 0.0400391 68.6876 0.0400391C70.1687 0.0400391 71.4896 0.319551 72.6505 0.918509C73.8113 1.47754 74.772 2.19628 75.5725 2.99489L72.4903 6.74836C71.9299 6.2692 71.3695 5.86989 70.8091 5.59037C70.2487 5.27093 69.5683 5.11121 68.8077 5.11121C68.1673 5.11121 67.5268 5.27093 66.9664 5.55045C66.406 5.82996 65.8856 6.2692 65.4453 6.82822C65.005 7.38725 64.6447 8.02614 64.4046 8.82475C64.1244 9.62336 64.0043 10.5018 64.0043 11.5001C64.0043 13.5765 64.4446 15.1737 65.3252 16.2917C66.2059 17.4098 67.3667 17.9688 68.7677 17.9688C69.6483 17.9688 70.4089 17.7692 71.0893 17.4098C71.7698 17.0504 72.3302 16.5713 72.8106 16.0522L75.8928 19.7258C74.9321 20.8039 73.8513 21.6424 72.6104 22.1615C71.3695 22.7206 70.0086 23.0001 68.5675 23.0001Z" fill="#434343"/>
<path d="M90.9835 22.6007H84.9792L91.7441 0.479248H98.8291L105.594 22.6007H99.3895C99.3895 22.6007 95.5068 5.94973 95.2266 4.83168H95.1065C94.8263 5.94973 90.9835 22.6007 90.9835 22.6007Z" fill="#434343"/>
<path d="M123.567 23C122.166 23 120.725 22.7604 119.204 22.2413C117.723 21.7222 116.362 20.9236 115.161 19.8455L118.523 15.8125C119.324 16.4514 120.164 16.9705 121.085 17.3698C122.006 17.7691 122.886 17.9687 123.687 17.9687C124.568 17.9687 125.208 17.8489 125.608 17.5694C126.009 17.2899 126.209 16.9305 126.209 16.4114C126.209 16.1319 126.129 15.9323 126.009 15.7326C125.889 15.533 125.688 15.3732 125.408 15.2135C125.128 15.0538 124.848 14.8941 124.488 14.7344C124.127 14.5746 123.687 14.4149 123.207 14.2552L120.445 13.0972C119.844 12.8576 119.284 12.5781 118.723 12.1788C118.163 11.8194 117.683 11.3802 117.282 10.8611C116.882 10.342 116.562 9.78297 116.322 9.10415C116.082 8.46527 115.961 7.70659 115.961 6.90798C115.961 5.94964 116.162 5.07117 116.562 4.23263C116.962 3.39409 117.523 2.67535 118.283 2.03646C119.004 1.39757 119.884 0.918405 120.885 0.559031C121.886 0.199656 123.006 0 124.207 0C125.488 0 126.769 0.239584 128.09 0.71875C129.411 1.19792 130.572 1.9566 131.573 2.95486L128.651 6.62846C127.89 6.10937 127.169 5.71006 126.489 5.43055C125.808 5.15104 125.048 5.03124 124.207 5.03124C123.487 5.03124 122.926 5.15103 122.486 5.39062C122.086 5.6302 121.886 6.0295 121.886 6.50867C121.886 7.02777 122.166 7.42707 122.766 7.70659C123.327 7.9861 124.167 8.30554 125.168 8.70485L127.85 9.74304C129.251 10.3021 130.292 11.0607 131.052 12.0191C131.813 12.9774 132.173 14.2552 132.173 15.8125C132.173 16.7309 131.973 17.6493 131.613 18.4878C131.212 19.3663 130.652 20.085 129.931 20.7639C129.211 21.4427 128.29 21.9218 127.209 22.3211C126.209 22.8003 124.968 23 123.567 23Z" fill="#434343"/>
<path d="M148.185 22.6007V5.3907H142.3V0.479248H159.913V5.3907H154.029V22.6007H148.185Z" fill="#434343"/>
<path d="M165.237 3.55384V1.15801H164.316V0.638916H166.758V1.15801H165.837V3.55384H165.237ZM167.158 3.55384V0.638916H167.838L168.279 1.71704L168.559 2.43579H168.599L168.879 1.71704L169.319 0.638916H170V3.55384H169.44V2.27606L169.52 1.2778H169.48L168.799 3.1146H168.359L167.678 1.2778H167.638L167.718 2.27606V3.55384H167.158Z" fill="#434343"/>
<path d="M0 23.1699V0.419922H8.61C9.82333 0.419922 10.9783 0.536588 12.075 0.769921C13.195 1.00325 14.1633 1.39992 14.98 1.95992C15.82 2.51992 16.485 3.27826 16.975 4.23492C17.465 5.16825 17.71 6.34659 17.71 7.76992C17.71 9.40326 17.3717 10.7566 16.695 11.8299C16.0417 12.9033 15.155 13.7433 14.035 14.3499L18.97 23.1699H12.25L8.33 15.5399H6.02V23.1699H0ZM6.02 10.7799H8.19C10.6167 10.7799 11.83 9.77659 11.83 7.76992C11.83 6.78992 11.515 6.11326 10.885 5.73992C10.2783 5.36659 9.38 5.17992 8.19 5.17992H6.02V10.7799Z" fill="#434343"/>
<path d="M30.7959 23.1699V0.419922H45.4959V5.45992H36.8159V9.02992H44.2359V14.0699H36.8159V18.1299H45.8459V23.1699H30.7959Z" fill="#434343"/>
</svg>
