<svg width="26" height="26" viewBox="0 0 26 26" version="1.1" xmlns="http://www.w3.org/2000/svg" xmlns:xlink="http://www.w3.org/1999/xlink">
<title>side-settings</title>
<desc>Created using Figma</desc>
<g id="Canvas" transform="translate(485 -315)">
<g id="side-settings">
<g id="Vector">
<use xlink:href="#path0_fill" transform="matrix(6.00046e-17 1 -1 6.24852e-17 -459 315)" fill="#5B6F85"/>
</g>
</g>
</g>
<defs>
<path id="path0_fill" d="M 13.6317 2.53823C 15.0729 2.82546 16.1586 4.07575 16.1586 5.57143C 16.1586 7.06794 15.0722 8.31745 13.6317 8.6046L 13.6317 25.381C 13.6317 25.7228 13.3489 26 13 26C 12.6511 26 12.3683 25.7228 12.3683 25.381L 12.3683 8.60462C 10.9271 8.3174 9.84143 7.0671 9.84143 5.57143C 9.84143 4.07492 10.9278 2.8254 12.3683 2.53825L 12.3683 0.619048C 12.3683 0.277157 12.6511 9.17718e-17 13 9.17718e-17C 13.3489 9.17718e-17 13.6317 0.277157 13.6317 0.619048L 13.6317 2.53823ZM 11.1049 5.57143C 11.1049 6.59539 11.9544 7.42857 13 7.42857C 14.0449 7.42857 14.8951 6.59603 14.8951 5.57143C 14.8951 4.54747 14.0456 3.71429 13 3.71429C 11.9551 3.71429 11.1049 4.54682 11.1049 5.57143ZM 3.79028 17.3954C 5.23146 17.6826 6.31714 18.9329 6.31714 20.4286C 6.31714 21.9251 5.23078 23.1746 3.79028 23.4617L 3.79028 25.381C 3.79028 25.7228 3.50745 26 3.15857 26C 2.80968 26 2.52685 25.7228 2.52685 25.381L 2.52685 23.4618C 1.08568 23.1745 0 21.9242 0 20.4286C 0 18.9321 1.08636 17.6825 2.52685 17.3954L 2.52685 0.619048C 2.52685 0.277157 2.80968 1.83544e-16 3.15857 1.83544e-16C 3.50745 1.83544e-16 3.79028 0.277157 3.79028 0.619048L 3.79028 17.3954ZM 1.26343 20.4286C 1.26343 21.4525 2.113 22.2857 3.15857 22.2857C 4.20348 22.2857 5.05371 21.4532 5.05371 20.4286C 5.05371 19.4046 4.20414 18.5714 3.15857 18.5714C 2.11366 18.5714 1.26343 19.404 1.26343 20.4286ZM 23.4731 11.8239C 24.9143 12.1112 26 13.3615 26 14.8571C 26 16.3537 24.9136 17.6032 23.4731 17.8903L 23.4731 25.381C 23.4731 25.7228 23.1903 26 22.8414 26C 22.4925 26 22.2097 25.7228 22.2097 25.381L 22.2097 17.8903C 20.7685 17.6031 19.6829 16.3528 19.6829 14.8571C 19.6829 13.3606 20.7692 12.1111 22.2097 11.824L 22.2097 0.619048C 22.2097 0.277157 22.4925 0 22.8414 0C 23.1903 0 23.4731 0.277157 23.4731 0.619048L 23.4731 11.8239ZM 20.9463 14.8571C 20.9463 15.8811 21.7959 16.7143 22.8414 16.7143C 23.8863 16.7143 24.7366 15.8817 24.7366 14.8571C 24.7366 13.8332 23.887 13 22.8414 13C 21.7965 13 20.9463 13.8325 20.9463 14.8571Z"/>
</defs>
</svg>
