<svg width="28" height="25" viewBox="0 0 28 25" version="1.1" xmlns="http://www.w3.org/2000/svg" xmlns:xlink="http://www.w3.org/1999/xlink">
<title>react</title>
<desc>Created using Figma</desc>
<g id="Canvas" transform="translate(-167 -125)">
<g id="react">
<g id="Vector">
<use xlink:href="#path0_fill" transform="translate(167 125)" fill="#FFFFFF"/>
</g>
<g id="Vector">
<use xlink:href="#path1_fill" transform="translate(168.595 126.501)" fill="#53C1DE"/>
</g>
<g id="Vector">
<use xlink:href="#path2_fill" transform="translate(169.657 127.553)" fill="#FFFFFF"/>
</g>
<g id="Vector">
<use xlink:href="#path3_fill" transform="translate(178.807 135.26)" fill="#53C1DE"/>
</g>
</g>
</g>
<defs>
<path id="path0_fill" d="M 8.9209e-10 12.4551C 8.9209e-10 14.555 2.06487 16.5153 5.32014 17.6203C 4.67008 20.8702 5.20371 23.4898 6.98586 24.5104C 8.81764 25.5596 11.5467 24.8334 14.1369 22.5848C 16.6618 24.7425 19.2135 25.5917 20.9941 24.5681C 22.8242 23.516 23.3808 20.7189 22.7128 17.3675C 26.1034 16.2542 28 14.5827 28 12.4551C 28 10.4038 25.9314 8.62932 22.7199 7.53141C 23.4391 4.04152 22.8297 1.4856 20.9738 0.422773C 19.1845 -0.601911 16.603 0.291191 14.041 2.50537C 11.3756 0.155236 8.81973 -0.56224 6.96572 0.503537C 5.17807 1.53117 4.66799 4.19835 5.32014 7.50836C 2.1747 8.59741 8.9209e-10 10.4121 8.9209e-10 12.4551Z"/>
<path id="path1_fill" d="M 20.4453 7.12116C 20.1806 7.031 19.9137 6.94748 19.6448 6.87067C 19.6894 6.69072 19.7306 6.50996 19.7685 6.32849C 20.3744 3.40744 19.9782 1.05425 18.6253 0.279616C 17.3281 -0.463324 15.2066 0.31131 13.0639 2.16298C 12.8528 2.34585 12.6463 2.534 12.4448 2.72723C 12.3098 2.59874 12.1724 2.47275 12.0327 2.34931C 9.78718 0.369233 7.53633 -0.465073 6.18481 0.311856C 4.88886 1.05687 4.505 3.26919 5.05052 6.03746C 5.1048 6.3116 5.16608 6.58432 5.2343 6.85537C 4.91582 6.9452 4.60823 7.04094 4.31396 7.1428C 1.68134 8.05426 3.35846e-09 9.48287 3.35846e-09 10.9646C 3.35846e-09 12.4951 1.80482 14.0301 4.54704 14.9608C 4.7694 15.0359 4.9936 15.1055 5.21945 15.1696C 5.14608 15.4616 5.08094 15.7556 5.02411 16.0512C 4.50401 18.7714 4.91021 20.9312 6.20274 21.6717C 7.53776 22.4361 9.77838 21.6503 11.9602 19.7564C 12.1327 19.6067 12.3058 19.4479 12.4791 19.2814C 12.6974 19.4906 12.9216 19.6937 13.1513 19.8905C 15.2647 21.6965 17.3519 22.4257 18.6433 21.6834C 19.9771 20.9166 20.4105 18.5963 19.8477 15.7733C 19.8048 15.5576 19.7547 15.3374 19.6986 15.1132C 19.856 15.0671 20.0104 15.0194 20.161 14.9698C 23.0118 14.0319 24.8664 12.5155 24.8664 10.9646C 24.8664 9.47752 23.131 8.03929 20.4453 7.12116Z"/>
<path id="path2_fill" d="M 18.7647 12.916C 18.6288 12.9607 18.4893 13.0039 18.3471 13.0458C 18.0323 12.0564 17.6075 11.0043 17.0879 9.91739C 17.5839 8.8562 17.9922 7.81764 18.2981 6.83459C 18.5524 6.90782 18.7994 6.98486 19.0373 7.06628C 21.3385 7.85283 22.742 9.01598 22.742 9.91214C 22.742 10.8668 21.2261 12.1061 18.7648 12.916L 18.7647 12.916ZM 17.7435 14.9257C 17.9923 16.174 18.0278 17.3026 17.863 18.1849C 17.7148 18.9777 17.417 19.5062 17.0488 19.7179C 16.2652 20.1684 14.5892 19.5828 12.782 18.0384C 12.5747 17.8613 12.366 17.6723 12.1567 17.4723C 12.8574 16.7112 13.5576 15.8264 14.241 14.8439C 15.4432 14.738 16.5789 14.5648 17.6089 14.3284C 17.6595 14.5316 17.7046 14.7309 17.7435 14.9257ZM 7.41527 19.6401C 6.64966 19.9086 6.03987 19.9163 5.67131 19.7052C 4.88688 19.2561 4.56091 17.5217 5.00562 15.1955C 5.0585 14.9205 5.11905 14.6472 5.1872 14.3756C 6.20571 14.5993 7.33318 14.7603 8.53822 14.8573C 9.22615 15.8187 9.94664 16.7024 10.6728 17.4763C 10.5184 17.6245 10.3605 17.769 10.199 17.9095C 9.23418 18.7471 8.26739 19.3412 7.41538 19.6401L 7.41527 19.6401ZM 3.82842 12.9101C 2.61589 12.4986 1.61454 11.9637 0.928161 11.3801C 0.311441 10.8555 5.03769e-08 10.3348 5.03769e-08 9.91214C 5.03769e-08 9.01303 1.34998 7.86605 3.60149 7.0865C 3.88409 6.98908 4.1695 6.8999 4.45735 6.81907C 4.76857 7.8242 5.17675 8.87511 5.66933 9.93783C 5.17037 11.0164 4.75636 12.084 4.44228 13.101C 4.23611 13.0424 4.03143 12.9787 3.82842 12.9101ZM 5.03082 4.78238C 4.56344 2.4105 4.87378 0.621347 5.6548 0.172392C 6.48678 -0.305853 8.32627 0.376105 10.2651 2.0857C 10.389 2.19499 10.5135 2.30941 10.6382 2.42777C 9.91583 3.19814 9.20193 4.07518 8.51996 5.03101C 7.35045 5.13866 6.23092 5.31155 5.20173 5.54314C 5.13833 5.29098 5.08135 5.03728 5.03082 4.78227L 5.03082 4.78238ZM 15.7571 7.41262C 15.514 6.99562 15.2619 6.58387 15.0009 6.17766C 15.7944 6.27711 16.5545 6.40935 17.2683 6.57121C 17.054 7.25328 16.7869 7.96649 16.4724 8.69763C 16.2426 8.2646 16.0041 7.83618 15.7571 7.41262ZM 11.3829 3.18164C 11.8728 3.70874 12.3636 4.29736 12.8462 4.93593C 11.8671 4.88998 10.8864 4.88977 9.90724 4.93528C 10.3904 4.30261 10.8853 3.71486 11.3829 3.18164ZM 6.98069 7.41983C 6.73675 7.84003 6.50272 8.26582 6.27879 8.69686C 5.96944 7.96824 5.70477 7.25185 5.48863 6.56006C 6.19812 6.40236 6.95471 6.27351 7.743 6.17569C 7.47913 6.58442 7.22495 6.99925 6.98069 7.41983ZM 7.76567 13.7239C 6.9513 13.6336 6.18326 13.5113 5.47399 13.358C 5.69354 12.654 5.96405 11.9222 6.28 11.1779C 6.50487 11.6093 6.73993 12.0353 6.98498 12.4557C 7.23502 12.8845 7.49533 13.3074 7.76567 13.7239ZM 11.4123 16.7172C 10.9088 16.1776 10.4067 15.5809 9.91616 14.9391C 10.3922 14.9576 10.8777 14.967 11.371 14.967C 11.8779 14.967 12.379 14.9558 12.8721 14.9339C 12.3879 15.5875 11.8989 16.1851 11.4123 16.7172ZM 16.4825 11.14C 16.8149 11.8923 17.095 12.6202 17.3176 13.3123C 16.5965 13.4757 15.8181 13.6073 14.9979 13.705C 15.2608 13.2912 15.5153 12.8722 15.7613 12.4484C 16.0115 12.0176 16.2519 11.5814 16.4825 11.14ZM 14.8411 11.9214C 14.4644 12.5712 14.0666 13.2087 13.6482 13.8329C 12.9104 13.8852 12.148 13.9122 11.371 13.9122C 10.5973 13.9122 9.84452 13.8883 9.11962 13.8416C 8.69036 13.2189 8.28498 12.5803 7.90434 11.9272C 7.52547 11.2775 7.17159 10.6138 6.84345 9.9375C 7.17076 9.26097 7.52357 8.5969 7.90114 7.94671L 7.90114 7.94693C 8.2786 7.2966 8.68079 6.66074 9.10685 6.04072C 9.84639 5.98521 10.6046 5.95613 11.3711 5.95613C 12.141 5.95613 12.9003 5.98542 13.6396 6.04138C 14.0613 6.66044 14.461 7.29408 14.8377 7.94113C 15.2166 8.58988 15.5741 9.25069 15.9097 9.92253C 15.5775 10.6012 15.2212 11.2679 14.8412 11.9214L 14.8411 11.9214ZM 17.0325 0.141026C 17.8652 0.617959 18.1891 2.5411 17.6659 5.06314C 17.6316 5.22744 17.5943 5.39111 17.5541 5.55406C 16.5225 5.31767 15.4021 5.14172 14.2292 5.03243C 13.5459 4.06622 12.838 3.18765 12.1273 2.42722C 12.3135 2.24893 12.5042 2.07525 12.6991 1.90636C 14.535 0.319713 16.2507 -0.306727 17.0325 0.141026Z"/>
<path id="path3_fill" d="M 2.22048 1.00056e-07C 3.44687 1.00056e-07 4.44095 0.987309 4.44095 2.20511C 4.44095 3.42301 3.44687 4.41032 2.22048 4.41032C 0.99419 4.41032 -1.41055e-07 3.42301 -1.41055e-07 2.20511C -1.41055e-07 0.987309 0.99419 1.00056e-07 2.22048 1.00056e-07Z"/>
</defs>
</svg>
