<svg width="34" height="39" viewBox="0 0 34 39" version="1.1" xmlns="http://www.w3.org/2000/svg" xmlns:xlink="http://www.w3.org/1999/xlink">
<title>contentful-light</title>
<desc>Created using Figma</desc>
<g id="Canvas" transform="translate(489 491)">
<g id="contentful-light">
<g id="Vector">
<use xlink:href="#path0_fill" transform="translate(-489 -486.552)" fill="#FFD85F"/>
</g>
<g id="Vector">
<use xlink:href="#path1_fill" transform="translate(-484.623 -491)" fill="#3BB4E7"/>
</g>
<g id="Vector">
<use xlink:href="#path2_fill" transform="translate(-484.623 -465.01)" fill="#ED5C68"/>
</g>
<g id="Vector">
<use xlink:href="#path3_fill" transform="translate(-484.563 -486.491)" fill="#308BC5"/>
</g>
<g id="Vector">
<use xlink:href="#path4_fill" transform="translate(-484.563 -465.041)" fill="#D5465F"/>
</g>
</g>
</g>
<defs>
<path id="path0_fill" d="M 11.6332 22.7297C 9.59436 20.7797 8.39506 18.0984 8.39506 15.0516C 8.39506 12.0047 9.59436 9.32344 11.5132 7.37344C 13.1922 5.66719 13.1922 2.98594 11.5132 1.27969C 9.83422 -0.426563 7.19577 -0.426563 5.51675 1.27969C 2.15873 4.81406 0 9.68906 0 15.0516C 0 20.4141 2.15873 25.2891 5.63668 28.8234C 7.3157 30.5297 9.95414 30.5297 11.6332 28.8234C 13.1922 27.1172 13.1922 24.4359 11.6332 22.7297Z"/>
<path id="path1_fill" d="M 7.25573 11.8219C 9.1746 9.75 11.8131 8.53125 14.8113 8.53125C 17.8095 8.53125 20.448 9.75 22.3668 11.7C 24.0459 13.4063 26.6843 13.4063 28.3633 11.7C 30.0423 9.99375 30.0423 7.3125 28.3633 5.60625C 24.8854 2.19375 20.0882 0 14.8113 0C 9.53439 0 4.73721 2.19375 1.25926 5.72812C -0.419753 7.43437 -0.419753 10.1156 1.25926 11.8219C 2.93827 13.4062 5.57672 13.4062 7.25573 11.8219Z"/>
<path id="path2_fill" d="M 22.3668 1.18828C 20.448 3.26016 17.8095 4.47891 14.8113 4.47891C 11.8131 4.47891 9.1746 3.26016 7.25573 1.31016C 5.57672 -0.396094 2.93827 -0.396094 1.25926 1.31016C -0.419753 3.01641 -0.419753 5.69766 1.25926 7.40391C 4.73721 10.8164 9.53439 13.0102 14.8113 13.0102C 20.0882 13.0102 24.8854 10.8164 28.3633 7.28203C 30.0423 5.57578 30.0423 2.89453 28.3633 1.18828C 26.6843 -0.396095 24.0459 -0.396095 22.3668 1.18828Z"/>
<path id="path3_fill" d="M 4.19753 8.53125C 6.51576 8.53125 8.39506 6.62146 8.39506 4.26562C 8.39506 1.90979 6.51576 0 4.19753 0C 1.8793 0 0 1.90979 0 4.26562C 0 6.62146 1.8793 8.53125 4.19753 8.53125Z"/>
<path id="path4_fill" d="M 4.19753 8.53125C 6.51576 8.53125 8.39506 6.62146 8.39506 4.26562C 8.39506 1.90978 6.51576 0 4.19753 0C 1.8793 0 0 1.90978 0 4.26562C 0 6.62146 1.8793 8.53125 4.19753 8.53125Z"/>
</defs>
</svg>
