<svg width="8" height="10" viewBox="0 0 8 10" version="1.1" xmlns="http://www.w3.org/2000/svg" xmlns:xlink="http://www.w3.org/1999/xlink">
<title>github-commit</title>
<desc>Created using Figma</desc>
<g id="Canvas" transform="translate(-65 -192)">
<g id="github-commit">
<g id="Vector">
<use xlink:href="#path0_fill" transform="translate(65 192)"/>
</g>
</g>
</g>
<defs>
<path id="path0_fill" fill-rule="evenodd" d="M 6.40083 4.97253e-06C 6.04923 -0.000824207 5.70717 0.102069 5.42786 0.292682C 5.14854 0.483295 4.94762 0.750946 4.85635 1.05401C 4.76507 1.35707 4.78855 1.67856 4.92314 1.96849C 5.05773 2.25841 5.29588 2.50051 5.60055 2.65714L 5.60055 3.57143L 4 5L 2.39945 3.57143L 2.39945 2.65714C 2.70412 2.50051 2.94227 2.25841 3.07686 1.96849C 3.21145 1.67856 3.23493 1.35707 3.14365 1.05401C 3.05238 0.750946 2.85146 0.483295 2.57214 0.292682C 2.29283 0.102069 1.95077 -0.000824207 1.59917 4.97253e-06C 1.24756 -0.000824207 0.905508 0.102069 0.626193 0.292682C 0.346878 0.483295 0.145959 0.750946 0.054682 1.05401C -0.0365948 1.35707 -0.0131135 1.67856 0.121474 1.96849C 0.256062 2.25841 0.494212 2.50051 0.79889 2.65714L 0.79889 3.92857L 3.19972 6.07143L 3.19972 7.34285C 2.89504 7.49949 2.65689 7.74159 2.52231 8.03151C 2.38772 8.32143 2.36424 8.64293 2.45551 8.94599C 2.54679 9.24905 2.74771 9.5167 3.02703 9.70732C 3.30634 9.89793 3.6484 10.0008 4 9.99999C 4.3516 10.0008 4.69366 9.89793 4.97297 9.70732C 5.25229 9.5167 5.45321 9.24905 5.54449 8.94599C 5.63576 8.64293 5.61228 8.32143 5.47769 8.03151C 5.34311 7.74159 5.10496 7.49949 4.80028 7.34285L 4.80028 6.07143L 7.20111 3.92857L 7.20111 2.65714C 7.50579 2.50051 7.74394 2.25841 7.87853 1.96849C 8.01311 1.67856 8.03659 1.35707 7.94532 1.05401C 7.85404 0.750946 7.65312 0.483295 7.37381 0.292682C 7.09449 0.102069 6.75244 -0.000824207 6.40083 4.97253e-06L 6.40083 4.97253e-06ZM 1.59917 2.28572C 1.07098 2.28572 0.638835 1.89286 0.638835 1.42857C 0.638835 0.96429 1.07899 0.571433 1.59917 0.571433C 2.11935 0.571433 2.5595 0.96429 2.5595 1.42857C 2.5595 1.89286 2.11935 2.28572 1.59917 2.28572ZM 4 9.42857C 3.47182 9.42857 3.03967 9.03571 3.03967 8.57142C 3.03967 8.10714 3.47982 7.71428 4 7.71428C 4.52018 7.71428 4.96033 8.10714 4.96033 8.57142C 4.96033 9.03571 4.52018 9.42857 4 9.42857ZM 6.40083 2.28572C 5.87265 2.28572 5.4405 1.89286 5.4405 1.42857C 5.4405 0.96429 5.88065 0.571433 6.40083 0.571433C 6.92101 0.571433 7.36116 0.96429 7.36116 1.42857C 7.36116 1.89286 6.92101 2.28572 6.40083 2.28572L 6.40083 2.28572Z"/>
</defs>
</svg>
