<svg width="23" height="22" viewBox="0 0 23 22" version="1.1" xmlns="http://www.w3.org/2000/svg" xmlns:xlink="http://www.w3.org/1999/xlink">
<title>Vector</title>
<desc>Created using Figma</desc>
<g id="Canvas" transform="translate(348 -127)">
<g id="Vector">
<use xlink:href="#path0_fill" transform="translate(-348 127)" fill="#191717"/>
</g>
</g>
<defs>
<path id="path0_fill" fill-rule="evenodd" d="M 11.4648 0C 5.13456 0 0 5.04826 0 11.2721C 0 16.2512 3.30581 20.4697 7.80734 21.9911C 8.37003 22.0602 8.58104 21.7144 8.58104 21.4378C 8.58104 21.1612 8.58104 20.4697 8.58104 19.5015C 5.4159 20.193 4.71254 17.9801 4.71254 17.9801C 4.22018 16.6662 3.44648 16.3204 3.44648 16.3204C 2.39144 15.6289 3.51682 15.6289 3.51682 15.6289C 4.6422 15.698 5.27523 16.8045 5.27523 16.8045C 6.33028 18.5333 7.94801 18.0493 8.58104 17.7726C 8.65138 17.0119 9.00306 16.5279 9.2844 16.2512C 6.75229 15.9746 4.07951 15.0065 4.07951 10.6498C 4.07951 9.40498 4.50153 8.43682 5.27523 7.60697C 5.20489 7.39951 4.78287 6.22388 5.4159 4.70249C 5.4159 4.70249 6.40061 4.42587 8.58104 5.87811C 9.49541 5.60149 10.4801 5.53234 11.4648 5.53234C 12.4495 5.53234 13.4342 5.67065 14.3486 5.87811C 16.5291 4.42587 17.5138 4.70249 17.5138 4.70249C 18.1468 6.22388 17.7248 7.39951 17.6544 7.67612C 18.3578 8.43682 18.8502 9.47413 18.8502 10.7189C 18.8502 15.0756 16.1774 15.9746 13.6453 16.2512C 14.0673 16.597 14.419 17.2886 14.419 18.3259C 14.419 19.8473 14.419 21.0229 14.419 21.4378C 14.419 21.7144 14.63 22.0602 15.1927 21.9911C 19.7645 20.4697 23 16.2512 23 11.2721C 22.9297 5.04826 17.7951 0 11.4648 0Z"/>
</defs>
</svg>
