<svg xmlns="http://www.w3.org/2000/svg" width="23" height="21" viewBox="0 0 23 21">
  <metadata><?xpacket begin="﻿" id="W5M0MpCehiHzreSzNTczkc9d"?>
<x:xmpmeta xmlns:x="adobe:ns:meta/" x:xmptk="Adobe XMP Core 5.6-c138 79.159824, 2016/09/14-01:09:01        ">
   <rdf:RDF xmlns:rdf="http://www.w3.org/1999/02/22-rdf-syntax-ns#">
      <rdf:Description rdf:about=""/>
   </rdf:RDF>
</x:xmpmeta>
                                                                                                    
                                                                                                    
                                                                                                    
                                                                                                    
                                                                                                    
                                                                                                    
                                                                                                    
                                                                                                    
                                                                                                    
                                                                                                    
                                                                                                    
                                                                                                    
                                                                                                    
                                                                                                    
                                                                                                    
                                                                                                    
                                                                                                    
                                                                                                    
                                                                                                    
                                                                                                    
                           
<?xpacket end="w"?></metadata>
<defs>
    <style>
      .cls-1 {
        fill: #fff;
        fill-rule: evenodd;
      }
    </style>
  </defs>
  <path id="linkedin" class="cls-1" d="M1068.77,5571h-18.19a1.55,1.55,0,0,0-1.58,1.51v17.97a1.552,1.552,0,0,0,1.58,1.52h18.19a1.552,1.552,0,0,0,1.58-1.52v-17.97A1.55,1.55,0,0,0,1068.77,5571Zm-13.44,17.89h-3.17v-10.02h3.17v10.02Zm-1.58-11.39a1.805,1.805,0,1,1,1.83-1.8A1.821,1.821,0,0,1,1053.75,5577.5Zm13.44,11.39h-3.16v-4.87c0-1.16-.03-2.66-1.65-2.66-1.65,0-1.9,1.27-1.9,2.58v4.95h-3.16v-10.02h3.03v1.37h0.05a3.32,3.32,0,0,1,2.99-1.62c3.21,0,3.8,2.08,3.8,4.78v5.49Zm4.33-.39a0.158,0.158,0,0,0,.16-0.16,0.172,0.172,0,0,0-.21-0.17h-0.23v0.59h0.08v-0.25h0.11l0.17,0.25h0.09l-0.18-.26h0.01Zm-0.1-.06h-0.1v-0.2h0.13c0.07,0,.14.01,0.14,0.09C1071.59,5588.43,1071.51,5588.44,1071.42,5588.44Zm0.01-.53a0.56,0.56,0,1,0,0,1.12A0.56,0.56,0,1,0,1071.43,5587.91Zm0,1.04a0.474,0.474,0,0,1-.48-0.48,0.482,0.482,0,0,1,.48-0.49,0.491,0.491,0,0,1,.49.49A0.482,0.482,0,0,1,1071.43,5588.95Z" transform="translate(-1049 -5571)"/>
</svg>
