<svg xmlns="http://www.w3.org/2000/svg" width="26" height="14" viewBox="0 0 26 14">
  <metadata><?xpacket begin="﻿" id="W5M0MpCehiHzreSzNTczkc9d"?>
<x:xmpmeta xmlns:x="adobe:ns:meta/" x:xmptk="Adobe XMP Core 5.6-c138 79.159824, 2016/09/14-01:09:01        ">
   <rdf:RDF xmlns:rdf="http://www.w3.org/1999/02/22-rdf-syntax-ns#">
      <rdf:Description rdf:about=""/>
   </rdf:RDF>
</x:xmpmeta>
                                                                                                    
                                                                                                    
                                                                                                    
                                                                                                    
                                                                                                    
                                                                                                    
                                                                                                    
                                                                                                    
                                                                                                    
                                                                                                    
                                                                                                    
                                                                                                    
                                                                                                    
                                                                                                    
                                                                                                    
                                                                                                    
                                                                                                    
                                                                                                    
                                                                                                    
                                                                                                    
                           
<?xpacket end="w"?></metadata>
<defs>
    <style>
      .cls-1 {
        fill: #fff;
        fill-rule: evenodd;
      }
    </style>
  </defs>
  <path id="workable" class="cls-1" d="M1019.48,5585.64a8.121,8.121,0,0,0,1.27-3.87,3.621,3.621,0,0,0-1.27-2.84c-2.23-1.89-6.64-.88-6.58,2.89,0.02,1.43.72,3.28,2.51,5.5a4.741,4.741,0,0,0,1.22-1.7c-4.77-6.5,5.26-6.85.27,0.35a7.463,7.463,0,0,1-1.31,1.57c-1.55,1.47-2.96,1.93-4.19,1.73-4.27-.7-4.95-7.08-5.27-10.86H1003v0.83c0.16,7.52,5.48,17.98,13.97,9.75a13.562,13.562,0,0,0,1.32-1.51A19.5,19.5,0,0,0,1019.48,5585.64Zm7.28-3.57q-0.03.135-.06,0.3c-0.57,4.42-3.12,8.15-6.98,6.09a2.34,2.34,0,0,1-.24.31,7.047,7.047,0,0,1-1.23,1.17c-0.01,0-.02-0.01-0.03-0.01a7.479,7.479,0,0,0,1.26.64c4.76,1.84,9.1-2.71,9.52-8.4Z" transform="translate(-1003 -5578)"/>
</svg>
