<svg width="24" height="24" viewBox="0 0 24 24" version="1.1" xmlns="http://www.w3.org/2000/svg" xmlns:xlink="http://www.w3.org/1999/xlink">
<title>linkedin</title>
<desc>Created using Figma</desc>
<g id="Canvas" transform="translate(-3706 2245)">
<g id="linkedin">
<use xlink:href="#path0_fill" transform="translate(3706 -2245)" fill="#FFFFFF"/>
</g>
</g>
<defs>
<path id="path0_fill" d="M 0.401674 7.97765L 5.35565 7.97765L 5.35565 24L 0.401674 24L 0.401674 7.97765ZM 2.87866 0C 4.48536 0 5.75732 1.30726 5.75732 2.88268C 5.75732 4.4581 4.45188 5.76536 2.87866 5.76536C 1.27197 5.76536 0 4.49162 0 2.88268C 0 1.27374 1.27197 0 2.87866 0ZM 8.50209 23.9665L 13.4561 23.9665L 13.4561 16.0559C 13.4561 13.9777 13.8577 11.933 16.4351 11.933C 18.9791 11.933 19.0126 14.3128 19.0126 16.1899L 19.0126 23.9665L 24 23.9665L 24 15.1844C 24 10.8603 23.0628 7.5419 18.0418 7.5419C 15.6318 7.5419 13.9916 8.88268 13.3222 10.1229L 13.2552 10.1229L 13.2552 7.94413L 8.50209 7.94413L 8.50209 23.9665Z"/>
</defs>
</svg>
