<svg width="41" height="21" viewBox="0 0 41 21" version="1.1" xmlns="http://www.w3.org/2000/svg" xmlns:xlink="http://www.w3.org/1999/xlink">
<title>logo</title>
<desc>Created using Figma</desc>
<g id="Canvas" transform="translate(-2050 -1512)">
<g id="logo">
<g id="Vector">
<use xlink:href="#path0_fill" transform="translate(2050.02 1515.12)"/>
</g>
<g id="Vector">
<use xlink:href="#path1_fill" transform="translate(2066.46 1514.88)"/>
</g>
<g id="Vector">
<use xlink:href="#path2_fill" transform="translate(2080.61 1514.88)"/>
</g>
<g id="Vector">
<use xlink:href="#path3_fill" transform="translate(2050 1531.74)"/>
</g>
<g id="Vector">
<use xlink:href="#path4_fill" transform="translate(2050.04 1512)"/>
</g>
</g>
</g>
<defs>
<path id="path0_fill" d="M 1.73747 3.43423L 9.56157 14.7075L 11.004 14.7075L 11.004 0.0106653L 9.2556 0.0106653L 9.2556 11.1879L 1.68284 0.287963L 1.48614 0.0106653L 0.677505 0.0106653L 0.65565 -8.13699e-08L 0.65565 0.0106653L 3.25665e-10 0.0106653L 3.25665e-10 14.7075L 1.73747 14.7075L 1.73747 3.43423Z"/>
<path id="path1_fill" d="M 6.02106 9.07618C 8.66551 7.51904 9.70362 6.16455 9.70362 4.27679C 9.70362 1.67445 7.91151 7.57816e-16 5.13593 7.57816e-16C 2.6226 7.57816e-16 0.983475 1.61046 0.284115 3.11427L 0.0218553 3.6902L 1.59542 4.39411L 1.8686 3.82885C 2.25107 3.02895 3.19083 1.68512 5.13593 1.68512C 6.89526 1.68512 7.9443 2.65566 7.9443 4.28745C 7.9443 5.33266 7.47441 6.26054 5.16871 7.64703C 1.03811 10.1214 0.13113 11.2199 0.0218553 13.8649C 0.0218553 13.9502 6.66962e-07 14.2595 6.66962e-07 14.3448L 6.66962e-07 14.9741L 9.65991 14.9741L 9.65991 13.2783L 1.81397 13.2783C 1.96695 11.9025 2.57889 11.1239 6.02106 9.07618Z"/>
<path id="path2_fill" d="M 5.37633 5.39665C 3.89019 5.39665 2.6226 6.08989 1.79211 6.69782C 2.0653 3.53022 3.4968 1.67445 5.71508 1.67445C 6.7532 1.67445 7.47441 1.95175 8.35954 2.69832L 8.85128 3.11427L 9.98774 1.80244L 9.48507 1.39716C 8.28305 0.415947 7.14659 7.57816e-16 5.70416 7.57816e-16C 2.1855 7.57816e-16 6.66962e-07 3.00762 6.66962e-07 7.84967C 6.66962e-07 13.289 2.76466 15.2301 5.35448 15.2301C 8.66551 15.2301 10.3921 12.6811 10.3921 10.164C 10.3921 6.64449 7.68203 5.39665 5.37633 5.39665ZM 8.63273 10.164C 8.63273 11.8492 7.5072 13.5449 5.35448 13.5449C 3.89019 13.5449 2.09808 12.3291 1.78118 8.92687C 2.41498 8.18029 3.78092 7.0711 5.37633 7.0711C 8.31583 7.0711 8.63273 9.23616 8.63273 10.164Z"/>
<path id="path3_fill" d="M 11.0368 0L 0 0L 0 1.25851L 11.0368 1.25851L 11.0368 0Z"/>
<path id="path4_fill" d="M 11.004 0L 0 0L 0 1.25851L 11.004 1.25851L 11.004 0Z"/>
</defs>
</svg>
