<svg width="51" height="52" viewBox="0 0 51 52" fill="none" xmlns="http://www.w3.org/2000/svg">
<path fill-rule="evenodd" clip-rule="evenodd" d="M15.0389 52C14.8736 52 14.7414 52 14.5761 51.9676C13.3202 51.741 9.84966 49.9277 5.05705 38.2714C2.04924 30.9539 0 23.2154 0 19.0386C0 8.54791 8.72587 0 19.4349 0C24.7563 0 30.8049 2.0722 35.5975 5.5691C37.0163 6.60053 38.2616 7.70271 39.3237 8.85794C39.9692 9.43073 40.5677 10.0235 41.1177 10.6336L41.185 10.7011C41.3614 10.8616 41.5342 11.0239 41.7034 11.1879C42.0729 11.51 42.4279 11.8403 42.768 12.1783L42.836 12.2391C43.0826 12.461 43.3224 12.687 43.5555 12.917C43.726 13.0671 43.8939 13.2198 44.0591 13.3751C48.2994 16.8715 51 22.1064 51 27.9427C51 38.4333 42.2742 46.9813 31.5651 46.9813C31.4186 46.9813 31.2724 46.9797 31.1266 46.9765C30.7155 47.0811 30.2997 47.1799 29.8795 47.2727C29.333 47.4065 28.7865 47.4789 28.2401 47.511L28.1938 47.5317C27.4876 47.8657 26.7456 48.0767 25.9809 48.1646C25.3067 48.5546 24.6009 48.7877 23.8538 48.8639C23.248 49.2331 22.6039 49.4484 21.9148 49.4965C21.365 49.8529 20.7841 50.0487 20.1673 50.0838C19.6207 50.4907 19.0263 50.6943 18.3941 50.7045C17.8767 51.1365 17.3062 51.3524 16.6915 51.3524C16.6755 51.3524 16.6592 51.3522 16.6427 51.3518C16.1589 51.784 15.6255 52 15.0389 52ZM31.0469 46.5536C30.8372 46.5481 30.6282 46.5391 30.4202 46.5269C39.619 42.3293 49.1491 37.1493 49.1491 25.7086C49.1491 23.2932 48.6285 20.9303 47.6352 18.721C48.9271 21.182 49.6543 23.9323 49.6449 26.8095C49.6449 31.99 47.6617 36.4259 43.7284 40.0523C40.4897 43.0155 36.1494 45.2594 31.0469 46.5536ZM32.7542 46.5243C42.6803 45.9209 50.5703 37.8156 50.5703 27.9427C50.5703 24.7254 49.7324 21.6958 48.2593 19.0523C49.4223 21.4436 50.0746 24.0851 50.0746 26.8419C50.0746 32.0548 47.9922 36.7173 44.0259 40.3761C41.0977 43.0838 37.2404 45.17 32.7542 46.5243ZM41.0393 11.8084C38.2485 10.2294 35.0124 9.32504 31.5651 9.32504C21.0875 9.32504 12.56 17.6787 12.56 27.9427C12.56 34.186 15.7151 39.7225 20.5451 43.1021C25.2823 34.9523 30.6803 32.3886 35.1812 30.251L35.2009 30.2415L35.2441 30.2211C39.9482 27.9977 43.3318 26.3984 43.3318 19.0386C43.3234 16.4965 42.4755 14.0478 41.0393 11.8084ZM39.0866 10.3899C36.7715 9.43326 34.2297 8.9041 31.5651 8.9041C20.8561 8.9041 12.1303 17.452 12.1303 27.9427C12.1303 34.3395 15.3746 40.0139 20.3346 43.4686C20.1741 43.7518 20.0142 44.0415 19.8553 44.3379C19.734 44.2476 19.6159 44.1573 19.501 44.0673C14.5101 40.1818 11.0395 33.091 11.0395 26.8419C11.0395 16.5779 19.5671 8.2242 30.0447 8.2242C33.2805 8.2242 36.3635 9.01129 39.0866 10.3899ZM20.6644 43.6933C20.5028 43.9805 20.342 44.2744 20.1821 44.5754C20.5221 44.8163 20.8844 45.0546 21.2677 45.283C21.45 44.9833 21.6331 44.6908 21.8167 44.4052C21.4237 44.1808 21.0394 43.9433 20.6644 43.6933ZM22.1628 44.5981C21.9772 44.8848 21.7922 45.1786 21.6079 45.4798C21.9507 45.6723 22.3091 45.8559 22.6818 46.0257C22.8903 45.7347 23.0992 45.4509 23.3082 45.1738C22.9192 44.994 22.5372 44.8019 22.1628 44.5981ZM23.5697 44.8309C23.1701 44.6487 22.778 44.4532 22.394 44.245C27.0187 37.2632 31.9872 34.5952 36.1264 32.3786C41.0512 29.7559 44.6209 27.8456 44.6209 20.1719C44.6209 18.2903 44.2092 16.4745 43.4717 14.7609C44.5529 16.8472 45.1167 19.046 45.1167 21.2727C45.1167 28.8493 41.4809 31.0187 36.4569 33.9975L36.395 34.0345C32.6136 36.2951 28.0454 39.0261 23.5697 44.8309ZM23.6841 45.3427C23.4758 45.6186 23.2678 45.9013 23.0603 46.1911C23.3916 46.33 23.7336 46.4573 24.0855 46.5701C24.3179 46.3017 24.5503 46.0395 24.7826 45.7834C24.411 45.6472 24.0447 45.5002 23.6841 45.3427ZM25.0906 45.4475C24.7034 45.3096 24.3221 45.1596 23.947 44.9982C28.365 39.2735 32.8917 36.5802 36.6349 34.3531L36.6883 34.3213C41.8445 31.2777 45.5463 29.076 45.5463 21.2404C45.5463 19.5547 45.2323 17.8843 44.6241 16.2655C45.5083 18.1776 46.0091 20.2411 46.0091 22.4059C46.0091 30.3064 42.0428 32.8642 36.523 36.3611C33.1817 38.4888 29.1601 41.0529 25.0906 45.4475ZM25.213 45.9354C24.9849 46.1853 24.7568 46.441 24.5288 46.7028C24.8296 46.7865 25.1373 46.8593 25.4514 46.9192C25.7021 46.6888 25.9523 46.4635 26.2017 46.2428C25.8684 46.1489 25.5388 46.0462 25.213 45.9354ZM26.5808 45.9106C26.2249 45.8157 25.8731 45.7109 25.5258 45.5965C29.4382 41.4023 33.3339 38.9017 36.5796 36.8183L36.5805 36.8178L36.7874 36.6849C42.4063 33.1233 46.4388 30.533 46.4388 22.3736C46.4388 20.6986 46.1433 19.082 45.605 17.5466C46.454 19.5037 46.9089 21.5313 46.9015 23.5069C46.9015 32.0224 42.2742 35.0336 35.8289 39.2105C32.9843 41.0325 29.8454 43.0762 26.5808 45.9106ZM26.715 46.3802C26.479 46.586 26.2425 46.796 26.0054 47.0104C26.2748 47.0476 26.5485 47.0752 26.8264 47.0919C27.0818 46.9189 27.3359 46.7483 27.5888 46.58C27.2951 46.5198 27.0038 46.4532 26.715 46.3802ZM28.0904 46.2484C27.7591 46.1881 27.4309 46.1195 27.1058 46.0426C30.1314 43.4549 33.0558 41.537 35.7111 39.7957L36.0603 39.5666L36.1564 39.5038C42.6509 35.2627 47.3312 32.2062 47.3312 23.5069C47.3312 21.1798 46.7915 18.8885 45.7567 16.7268C47.1373 19.1908 47.8601 21.8736 47.8601 24.6077C47.8601 34.1523 41.8865 37.7804 33.6329 42.7931L33.6144 42.8044C31.8066 43.8867 29.9798 45.0063 28.0904 46.2484ZM28.6795 46.3461C30.2129 45.3424 31.7171 44.4308 33.1844 43.5417C33.3946 43.4143 33.6041 43.2874 33.8127 43.1606L33.8477 43.1395C41.896 38.2602 48.2567 34.4042 48.2567 24.6077C48.2567 22.4441 47.8149 20.3172 46.9663 18.3008C48.1175 20.6258 48.7194 23.1404 48.7194 25.7086C48.7194 31.0511 46.7693 35.2603 42.5386 38.9191C39.1335 41.8743 34.5138 44.2214 29.6064 46.4622C29.2951 46.4308 28.9861 46.3921 28.6795 46.3461ZM28.1609 46.6884C28.3949 46.7291 28.6303 46.7657 28.867 46.7981C28.6574 46.8929 28.4473 46.9876 28.2369 47.0821C28 47.0997 27.7655 47.1091 27.5336 47.1107C27.7432 46.968 27.9523 46.8273 28.1609 46.6884ZM22.0466 44.0519C21.6461 43.8239 21.2548 43.582 20.8735 43.3268C25.5249 35.2698 30.8546 32.7396 35.2972 30.6305L35.3662 30.5977L35.3672 30.5973C40.0271 28.3957 43.7285 26.647 43.7285 19.0386C43.7285 17.7588 43.5288 16.4835 43.1385 15.2292C43.8381 16.8755 44.218 18.5396 44.2243 20.1394C44.2243 27.5542 40.7538 29.4321 35.9611 31.99L35.9066 32.0194C31.739 34.2635 26.7043 36.9743 22.0466 44.0519ZM30.0447 7.80326C32.8644 7.80326 35.5685 8.38894 38.0274 9.4365C35.0865 7.92168 31.7986 7.09095 28.5243 7.09095C18.0467 7.09095 9.51914 15.4446 9.51914 25.7086C9.51914 32.5693 13.9645 41.4223 19.2594 45.4897C19.3914 45.2253 19.5241 44.9659 19.6574 44.7113C19.5167 44.6074 19.3764 44.5006 19.2365 44.391C14.0804 40.3437 10.6098 33.2852 10.6098 26.8419C10.6098 16.3512 19.3357 7.80326 30.0447 7.80326ZM19.7883 45.335C19.8541 45.2049 19.9201 45.0762 19.9862 44.9486C20.339 45.197 20.6945 45.4279 21.0521 45.641C20.903 45.8915 20.7544 46.1469 20.6064 46.4072L20.5452 46.3707C20.4726 46.327 20.4 46.2823 20.3273 46.2366C20.0795 46.0803 19.833 45.9131 19.5881 45.7353C19.6546 45.6007 19.7214 45.4672 19.7883 45.335ZM20.9446 46.6008C21.093 46.3413 21.2419 46.087 21.3913 45.8376C21.7377 46.0324 22.086 46.2107 22.436 46.3722C22.2715 46.6065 22.1073 46.8452 21.9433 47.0886C21.6112 46.9472 21.2781 46.7846 20.9446 46.6008ZM22.3296 47.2437C22.4906 47.0046 22.6517 46.7699 22.8132 46.5398C23.1384 46.6783 23.4648 46.8025 23.7922 46.9123C23.6174 47.1184 23.4425 47.3281 23.2678 47.5416C22.9566 47.4615 22.6437 47.3621 22.3296 47.2437ZM23.7298 47.6468C23.8963 47.4445 24.0629 47.2457 24.2296 47.0502C24.5111 47.1333 24.7933 47.2057 25.076 47.2674C24.9018 47.4306 24.7272 47.5962 24.5524 47.7644C24.28 47.7404 24.0057 47.7012 23.7298 47.6468ZM25.16 47.7924C25.3104 47.6501 25.4606 47.5097 25.6107 47.3711C25.8336 47.409 26.0567 47.4402 26.2799 47.4647L26.2767 47.4669C26.1192 47.5755 25.9601 47.6751 25.7994 47.7656C25.6991 47.7744 25.5985 47.7811 25.4976 47.7856C25.3855 47.7906 25.2729 47.7928 25.16 47.7924ZM26.8358 47.5923L26.9426 47.5177C26.9915 47.5202 27.0403 47.5223 27.0892 47.5242C27.061 47.5323 27.0329 47.5403 27.0047 47.548C26.9485 47.5635 26.8922 47.5783 26.8358 47.5923ZM37.0943 8.53052C34.3758 7.32344 31.4282 6.67001 28.4912 6.67001C17.7823 6.67001 9.0564 15.2179 9.0564 25.7086C9.0564 32.8547 13.555 41.7577 19.0581 45.8978C18.9389 46.1425 18.8202 46.3913 18.7021 46.6444C12.8785 42.3182 7.99869 31.3987 7.99869 24.6077C7.99869 14.3437 16.5263 5.99003 27.0039 5.99003C30.4482 5.99003 33.9523 6.88282 37.0943 8.53052ZM19.3902 46.141C19.3492 46.2261 19.3083 46.3117 19.2675 46.3979C19.191 46.559 19.1148 46.7219 19.0389 46.8865C19.3597 47.1093 19.683 47.3117 20.0083 47.492C20.094 47.3317 20.1799 47.1733 20.2659 47.0165C20.3075 46.9407 20.3492 46.8654 20.3908 46.7904C20.342 46.762 20.2932 46.733 20.2444 46.7037C20.1839 46.6674 20.1234 46.6304 20.0629 46.5928C19.9587 46.527 19.8548 46.4595 19.7512 46.3903C19.6305 46.3095 19.5101 46.2264 19.3902 46.141ZM20.7294 46.9812C20.6025 47.2079 20.4761 47.4383 20.35 47.6726C20.6692 47.8326 20.9842 47.9677 21.295 48.0777C21.4297 47.8665 21.5647 47.6585 21.6999 47.4537C21.377 47.3149 21.0533 47.1573 20.7294 46.9812ZM22.0854 47.6106C21.9563 47.8065 21.8274 48.0054 21.6987 48.2073C21.9941 48.2922 22.2855 48.3539 22.573 48.3926C22.6146 48.346 22.656 48.2982 22.6971 48.2491C22.7337 48.2052 22.7701 48.1604 22.8062 48.1146C22.862 48.0441 22.9178 47.9742 22.9737 47.9045C22.8197 47.8619 22.6654 47.8147 22.5108 47.7633C22.3692 47.7161 22.2274 47.6652 22.0854 47.6106ZM23.4277 48.0179C23.3417 48.1248 23.2557 48.2325 23.1698 48.3412L23.136 48.382L23.1128 48.4098L23.0895 48.4373C23.2101 48.4418 23.33 48.4422 23.4492 48.4384C23.5187 48.4361 23.588 48.4324 23.657 48.4273C23.6828 48.4254 23.7086 48.4233 23.7343 48.421C23.8655 48.3362 23.995 48.2433 24.123 48.1418C23.8921 48.1108 23.6604 48.0694 23.4277 48.0179ZM24.7306 48.1999C24.7549 48.2012 24.7792 48.2025 24.8034 48.2036C24.7801 48.2111 24.7567 48.2184 24.7333 48.2256L24.6868 48.2395L24.7306 48.1999ZM27.0039 5.5691C30.4198 5.5691 33.8923 6.4418 37.0235 8.03322C33.7401 6.07311 29.8058 4.85678 25.4835 4.85678C15.0058 4.85678 6.47832 13.2105 6.47832 23.4745C6.47832 27.3599 8.09787 32.9614 10.7421 38.142C13.061 42.6585 15.6952 46.0722 18.18 47.8002C18.2301 47.6857 18.2803 47.5721 18.3306 47.4592C18.3923 47.3207 18.4542 47.1834 18.5162 47.0473C12.5572 42.6659 7.56903 31.5349 7.56903 24.6077C7.56903 14.117 16.2949 5.5691 27.0039 5.5691ZM18.6053 47.854L18.6451 47.7629C18.7151 47.6033 18.7853 47.4453 18.8557 47.2888C19.1696 47.5047 19.4861 47.7015 19.8044 47.8777C19.6896 48.0972 19.5751 48.3199 19.461 48.546C19.1534 48.4031 18.8421 48.2313 18.5281 48.0318C18.5538 47.9723 18.5795 47.9131 18.6053 47.854ZM20.0006 48.3341C20.0486 48.2414 20.0967 48.1494 20.145 48.0578C20.4511 48.2116 20.7546 48.345 21.0555 48.4573C20.94 48.641 20.8212 48.8113 20.6991 48.968C20.4103 48.9066 20.1152 48.8165 19.8138 48.6977L19.8791 48.5697C19.9195 48.4907 19.9601 48.4122 20.0006 48.3341ZM21.451 48.6003L21.4548 48.5942C21.7006 48.6711 21.9446 48.7333 22.1869 48.7806C22.1227 48.8382 22.0578 48.893 21.9923 48.9451C21.9425 48.9847 21.8922 49.0228 21.8416 49.0592C21.6189 49.0728 21.3921 49.0672 21.1612 49.0423C21.2601 48.9039 21.3568 48.7565 21.451 48.6003ZM22.6296 48.9263C22.6528 48.9041 22.6761 48.8815 22.6993 48.8587C22.7371 48.8628 22.7748 48.8665 22.8125 48.8698C22.7518 48.8902 22.6909 48.9091 22.6296 48.9263ZM34.6389 6.45816C31.7096 5.16848 28.5625 4.46826 25.4835 4.46826C14.7745 4.46826 6.04863 13.0162 6.04863 23.5069C6.04863 27.457 7.70125 33.1557 10.3455 38.3686C12.7019 42.9854 15.4218 46.4674 17.9967 48.2242C17.8923 48.4686 17.7883 48.7166 17.6849 48.9684C11.8122 45.5182 4.99092 30.4184 4.99092 22.3736C4.99092 12.1096 13.5184 3.75594 23.9961 3.75594C27.5327 3.75594 31.2688 4.73679 34.6389 6.45816ZM18.3481 48.4538C18.2489 48.6889 18.1503 48.9274 18.0521 49.1694C18.2948 49.2924 18.5356 49.3945 18.7738 49.4745C18.8197 49.4897 18.8653 49.5042 18.9109 49.5178C18.9556 49.4521 18.9998 49.3841 19.0435 49.3138C19.0852 49.2467 19.1265 49.1775 19.1673 49.1062C19.1967 49.0549 19.2258 49.0025 19.2547 48.9491C18.9554 48.8095 18.653 48.644 18.3481 48.4538ZM19.6092 49.1026C19.5142 49.2852 19.416 49.4567 19.3149 49.6171C19.3849 49.6306 19.4545 49.6419 19.5237 49.6511C19.6035 49.6618 19.6827 49.6697 19.7613 49.6748C19.8442 49.6801 19.9264 49.6824 20.008 49.6815C20.1313 49.5825 20.2519 49.4718 20.3697 49.3495C20.1225 49.2871 19.8701 49.2053 19.6092 49.1026ZM20.8441 49.4466C20.922 49.4589 20.9996 49.4692 21.0769 49.4776C21.0489 49.4884 21.0209 49.4987 20.9927 49.5087C20.9548 49.522 20.9167 49.5346 20.8784 49.5465C20.8236 49.5634 20.7685 49.5787 20.713 49.5925C20.7571 49.5454 20.8008 49.4967 20.8441 49.4466ZM23.9631 3.33501C27.225 3.33501 30.6568 4.15704 33.8293 5.61708C30.2192 3.72432 26.2088 2.65503 22.4757 2.65503C11.998 2.65503 3.47051 11.0087 3.47051 21.2727C3.47051 29.1665 11.0115 47.6755 17.1591 50.0566C17.2822 49.8461 17.4013 49.6141 17.5165 49.3609C14.8313 47.8225 11.8275 43.9529 9.15553 38.4333C6.34607 32.7023 4.52818 26.3885 4.52818 22.3736C4.52818 11.8829 13.254 3.33501 23.9631 3.33501ZM17.5524 50.1872C17.6652 49.9925 17.7746 49.7822 17.8806 49.5562C18.1264 49.6789 18.3692 49.7813 18.6085 49.863L18.6441 49.8752C18.5135 50.0342 18.379 50.1752 18.2409 50.2982C18.0173 50.2898 17.7877 50.2529 17.5524 50.1872ZM18.854 50.2469C18.9233 50.1661 18.9915 50.0808 19.0585 49.9911C19.0948 49.9992 19.131 50.0067 19.1672 50.0137C19.1868 50.0175 19.2063 50.0212 19.2259 50.0246L19.2585 50.0304C19.3125 50.0396 19.3663 50.0476 19.4198 50.0546C19.3202 50.102 19.2191 50.1426 19.1165 50.1763C19.0911 50.1846 19.0657 50.1925 19.0401 50.2001C19.0166 50.2069 18.993 50.2135 18.9694 50.2197C18.9311 50.2297 18.8927 50.2388 18.854 50.2469ZM33.665 5.01804C30.0972 3.21422 26.1492 2.20176 22.4757 2.20176C11.7667 2.20176 3.04081 10.7497 3.04081 21.2404C3.04081 25.3524 4.92479 32.1195 7.86647 38.4333C11.9665 47.2811 15.3187 49.7193 16.939 50.4041C16.8034 50.601 16.6634 50.7739 16.519 50.9229C16.4017 50.9134 16.283 50.8947 16.1627 50.8667C13.5515 50.2515 10.081 45.5243 6.87494 38.2067C3.93326 31.4719 1.95011 24.2192 1.95011 20.1394C1.95011 9.87546 10.4776 1.52178 20.9553 1.52178C25.65 1.52178 30.0142 2.88158 33.665 5.01804ZM17.3274 50.5479C17.2436 50.6724 17.158 50.789 17.0705 50.8975C17.3032 50.8558 17.5287 50.7745 17.7465 50.6534C17.6893 50.643 17.6314 50.6308 17.5726 50.6166C17.522 50.6043 17.4707 50.5906 17.4187 50.5753C17.3893 50.5669 17.3589 50.5577 17.3274 50.5479ZM20.9223 1.13325C24.439 1.13325 28.1932 2.04247 31.6523 3.63595C27.7844 1.616 23.4439 0.420937 19.4349 0.420937C8.95722 0.420937 0.429699 8.77462 0.429699 19.0386C0.429699 23.1183 2.47894 30.9539 5.45366 38.142C8.72587 46.0747 12.1633 51.0934 14.6753 51.5791C15.178 51.6748 15.6454 51.5799 16.0773 51.2942L16.0305 51.2876C9.9488 49.8954 1.48736 28.655 1.48736 20.1719C1.48736 9.68116 10.2132 1.13325 20.9223 1.13325Z" fill="url(#paint0_linear)"/>
<defs>
<linearGradient id="paint0_linear" x1="-2.88169" y1="82.4" x2="28.8552" y2="-16.2594" gradientUnits="userSpaceOnUse">
<stop offset="0.165839" stop-color="#646464"/>
<stop offset="0.915386" stop-color="#1A1A1A"/>
</linearGradient>
</defs>
</svg>
