<svg width="468" height="10" viewBox="0 0 468 10" fill="none" xmlns="http://www.w3.org/2000/svg">
<path d="M3.87023 8.04995C3.18357 8.04995 2.56357 7.89662 2.01023 7.58995C1.46357 7.28328 1.03023 6.85995 0.710235 6.31995C0.396901 5.77995 0.240234 5.17329 0.240234 4.49995C0.240234 3.82662 0.396901 3.21995 0.710235 2.67995C1.03023 2.13995 1.46357 1.71662 2.01023 1.40995C2.56357 1.10328 3.18357 0.949951 3.87023 0.949951C4.3769 0.949951 4.84357 1.03328 5.27023 1.19995C5.6969 1.35995 6.06023 1.59995 6.36023 1.91995L6.04023 2.24995C5.48023 1.69662 4.76357 1.41995 3.89023 1.41995C3.30357 1.41995 2.77023 1.55328 2.29023 1.81995C1.81023 2.08662 1.43357 2.45662 1.16023 2.92995C0.886901 3.39662 0.750235 3.91995 0.750235 4.49995C0.750235 5.07995 0.886901 5.60662 1.16023 6.07995C1.43357 6.54662 1.81023 6.91328 2.29023 7.17995C2.77023 7.44662 3.30357 7.57995 3.89023 7.57995C4.7569 7.57995 5.47357 7.29995 6.04023 6.73995L6.36023 7.06995C6.06023 7.38995 5.69357 7.63328 5.26023 7.79995C4.83357 7.96662 4.37023 8.04995 3.87023 8.04995Z" fill="url(#paint0_linear)"/>
<path d="M18.892 8.04995C18.2053 8.04995 17.5853 7.89662 17.032 7.58995C16.4786 7.27662 16.042 6.84995 15.722 6.30995C15.4086 5.76995 15.252 5.16662 15.252 4.49995C15.252 3.83328 15.4086 3.22995 15.722 2.68995C16.042 2.14995 16.4786 1.72662 17.032 1.41995C17.5853 1.10662 18.2053 0.949951 18.892 0.949951C19.5786 0.949951 20.1986 1.10328 20.752 1.40995C21.3053 1.71662 21.7386 2.13995 22.052 2.67995C22.372 3.21995 22.532 3.82662 22.532 4.49995C22.532 5.17329 22.372 5.77995 22.052 6.31995C21.7386 6.85995 21.3053 7.28328 20.752 7.58995C20.1986 7.89662 19.5786 8.04995 18.892 8.04995ZM18.892 7.57995C19.4786 7.57995 20.0086 7.44662 20.482 7.17995C20.9553 6.91328 21.3286 6.54662 21.602 6.07995C21.8753 5.60662 22.012 5.07995 22.012 4.49995C22.012 3.91995 21.8753 3.39662 21.602 2.92995C21.3286 2.45662 20.9553 2.08662 20.482 1.81995C20.0086 1.55328 19.4786 1.41995 18.892 1.41995C18.3053 1.41995 17.772 1.55328 17.292 1.81995C16.8186 2.08662 16.4453 2.45662 16.172 2.92995C15.8986 3.39662 15.762 3.91995 15.762 4.49995C15.762 5.07995 15.8986 5.60662 16.172 6.07995C16.4453 6.54662 16.8186 6.91328 17.292 7.17995C17.772 7.44662 18.3053 7.57995 18.892 7.57995Z" fill="url(#paint1_linear)"/>
<path d="M38.9209 7.99995L38.9109 2.00995L35.9809 7.06995H35.7309L32.8009 2.02995V7.99995H32.3009V0.999951L32.7309 0.999951L35.8609 6.40995L38.9909 0.999951L39.4109 0.999951L39.4209 7.99995H38.9209Z" fill="url(#paint2_linear)"/>
<path d="M52.3714 0.999951C53.2514 0.999951 53.9414 1.20995 54.4414 1.62995C54.9414 2.04328 55.1914 2.61995 55.1914 3.35995C55.1914 4.09328 54.9414 4.66995 54.4414 5.08995C53.9414 5.50328 53.2514 5.70995 52.3714 5.70995H50.3714V7.99995H49.8614V0.999951L52.3714 0.999951ZM52.3714 5.24995C53.1181 5.24995 53.6881 5.08662 54.0814 4.75995C54.4747 4.43328 54.6714 3.96662 54.6714 3.35995C54.6714 2.75328 54.4747 2.28662 54.0814 1.95995C53.6881 1.62662 53.1181 1.45995 52.3714 1.45995L50.3714 1.45995V5.24995H52.3714Z" fill="url(#paint3_linear)"/>
<path d="M64.9122 0.999951H65.4222V7.53995L69.4522 7.53995V7.99995L64.9122 7.99995V0.999951Z" fill="url(#paint4_linear)"/>
<path d="M83.5918 7.53995V7.99995L78.7618 7.99995V0.999951L83.4418 0.999951V1.45995L79.2718 1.45995V4.21995L83.0018 4.21995V4.66995L79.2718 4.66995V7.53995L83.5918 7.53995Z" fill="url(#paint5_linear)"/>
<path d="M97.7534 7.99995L95.3434 4.75995L92.9434 7.99995H92.3434L95.0334 4.38995L92.5334 0.999951L93.1334 0.999951L95.3634 4.00995L97.5934 0.999951L98.1634 0.999951L95.6634 4.37995L98.3534 7.99995H97.7534Z" fill="url(#paint6_linear)"/>
<path d="M118.348 0.999951L118.858 0.999951V7.99995H118.348V0.999951Z" fill="url(#paint7_linear)"/>
<path d="M134.997 0.999951V7.99995H134.577L129.807 1.91995V7.99995H129.297V0.999951L129.727 0.999951L134.487 7.07995V0.999951L134.997 0.999951Z" fill="url(#paint8_linear)"/>
<path d="M147.281 8.04995C146.768 8.04995 146.278 7.96328 145.811 7.78995C145.351 7.60995 144.991 7.37995 144.731 7.09995L144.961 6.71995C145.208 6.97995 145.538 7.19328 145.951 7.35995C146.371 7.51995 146.811 7.59995 147.271 7.59995C147.938 7.59995 148.441 7.47328 148.781 7.21995C149.121 6.96662 149.291 6.63662 149.291 6.22995C149.291 5.91662 149.201 5.66662 149.021 5.47995C148.841 5.29329 148.618 5.14995 148.351 5.04995C148.085 4.94995 147.725 4.84662 147.271 4.73995C146.758 4.61328 146.345 4.48995 146.031 4.36995C145.725 4.24995 145.461 4.06662 145.241 3.81995C145.028 3.56662 144.921 3.22995 144.921 2.80995C144.921 2.46995 145.011 2.15995 145.191 1.87995C145.371 1.59328 145.645 1.36662 146.011 1.19995C146.385 1.03328 146.848 0.949951 147.401 0.949951C147.788 0.949951 148.168 1.00662 148.541 1.11995C148.915 1.23328 149.238 1.38662 149.511 1.57995L149.321 1.98995C149.041 1.79662 148.731 1.64995 148.391 1.54995C148.058 1.44995 147.728 1.39995 147.401 1.39995C146.755 1.39995 146.265 1.52995 145.931 1.78995C145.598 2.04995 145.431 2.38662 145.431 2.79995C145.431 3.11328 145.521 3.36328 145.701 3.54995C145.881 3.73662 146.105 3.87995 146.371 3.97995C146.638 4.07995 147.001 4.18662 147.461 4.29995C147.975 4.42662 148.385 4.54995 148.691 4.66995C148.998 4.78995 149.258 4.97328 149.471 5.21995C149.691 5.45995 149.801 5.78662 149.801 6.19995C149.801 6.53995 149.708 6.84995 149.521 7.12995C149.341 7.40995 149.061 7.63328 148.681 7.79995C148.301 7.96662 147.835 8.04995 147.281 8.04995Z" fill="url(#paint9_linear)"/>
<path d="M159.535 0.999951L160.045 0.999951V7.99995H159.535V0.999951Z" fill="url(#paint10_linear)"/>
<path d="M175.484 4.52995H175.974V7.14995C175.668 7.44328 175.294 7.66662 174.854 7.81995C174.421 7.97328 173.961 8.04995 173.474 8.04995C172.781 8.04995 172.154 7.89662 171.594 7.58995C171.041 7.28328 170.604 6.85995 170.284 6.31995C169.971 5.77995 169.814 5.17329 169.814 4.49995C169.814 3.82662 169.971 3.21995 170.284 2.67995C170.604 2.13995 171.041 1.71662 171.594 1.40995C172.154 1.10328 172.784 0.949951 173.484 0.949951C173.998 0.949951 174.468 1.03328 174.894 1.19995C175.328 1.35995 175.698 1.59662 176.004 1.90995L175.684 2.24995C175.391 1.95662 175.061 1.74662 174.694 1.61995C174.334 1.48662 173.934 1.41995 173.494 1.41995C172.894 1.41995 172.351 1.55328 171.864 1.81995C171.384 2.08662 171.008 2.45662 170.734 2.92995C170.461 3.39662 170.324 3.91995 170.324 4.49995C170.324 5.07329 170.461 5.59662 170.734 6.06995C171.014 6.53662 171.394 6.90662 171.874 7.17995C172.354 7.44662 172.894 7.57995 173.494 7.57995C174.294 7.57995 174.958 7.36662 175.484 6.93995V4.52995Z" fill="url(#paint11_linear)"/>
<path d="M191.919 0.999951V7.99995H191.409V4.66995H186.729V7.99995H186.219V0.999951L186.729 0.999951V4.21995H191.409V0.999951L191.919 0.999951Z" fill="url(#paint12_linear)"/>
<path d="M203.703 1.45995L201.183 1.45995V0.999951L206.733 0.999951V1.45995L204.213 1.45995V7.99995H203.703V1.45995Z" fill="url(#paint13_linear)"/>
<path d="M217.711 8.04995C217.198 8.04995 216.708 7.96328 216.241 7.78995C215.781 7.60995 215.421 7.37995 215.161 7.09995L215.391 6.71995C215.638 6.97995 215.968 7.19328 216.381 7.35995C216.801 7.51995 217.241 7.59995 217.701 7.59995C218.368 7.59995 218.871 7.47328 219.211 7.21995C219.551 6.96662 219.721 6.63662 219.721 6.22995C219.721 5.91662 219.631 5.66662 219.451 5.47995C219.271 5.29329 219.048 5.14995 218.781 5.04995C218.515 4.94995 218.155 4.84662 217.701 4.73995C217.188 4.61328 216.774 4.48995 216.461 4.36995C216.154 4.24995 215.891 4.06662 215.671 3.81995C215.458 3.56662 215.351 3.22995 215.351 2.80995C215.351 2.46995 215.441 2.15995 215.621 1.87995C215.801 1.59328 216.074 1.36662 216.441 1.19995C216.814 1.03328 217.278 0.949951 217.831 0.949951C218.218 0.949951 218.598 1.00662 218.971 1.11995C219.345 1.23328 219.668 1.38662 219.941 1.57995L219.751 1.98995C219.471 1.79662 219.161 1.64995 218.821 1.54995C218.488 1.44995 218.158 1.39995 217.831 1.39995C217.184 1.39995 216.695 1.52995 216.361 1.78995C216.028 2.04995 215.861 2.38662 215.861 2.79995C215.861 3.11328 215.951 3.36328 216.131 3.54995C216.311 3.73662 216.534 3.87995 216.801 3.97995C217.068 4.07995 217.431 4.18662 217.891 4.29995C218.405 4.42662 218.815 4.54995 219.121 4.66995C219.428 4.78995 219.688 4.97328 219.901 5.21995C220.121 5.45995 220.231 5.78662 220.231 6.19995C220.231 6.53995 220.138 6.84995 219.951 7.12995C219.771 7.40995 219.491 7.63328 219.111 7.79995C218.731 7.96662 218.264 8.04995 217.711 8.04995Z" fill="url(#paint14_linear)"/>
<path d="M229.94 7.18995C230.06 7.18995 230.16 7.23328 230.24 7.31995C230.32 7.39995 230.36 7.49662 230.36 7.60995C230.36 7.67662 230.35 7.74662 230.33 7.81995C230.317 7.89328 230.297 7.97662 230.27 8.06995L229.88 9.42995H229.52L229.85 8.01995C229.75 7.99329 229.67 7.94662 229.61 7.87995C229.55 7.80662 229.52 7.71662 229.52 7.60995C229.52 7.48995 229.56 7.38995 229.64 7.30995C229.72 7.22995 229.82 7.18995 229.94 7.18995Z" fill="url(#paint15_linear)"/>
<path d="M252.571 8.04995C252.057 8.04995 251.567 7.96328 251.101 7.78995C250.641 7.60995 250.281 7.37995 250.021 7.09995L250.251 6.71995C250.497 6.97995 250.827 7.19328 251.241 7.35995C251.661 7.51995 252.101 7.59995 252.561 7.59995C253.227 7.59995 253.731 7.47328 254.071 7.21995C254.411 6.96662 254.581 6.63662 254.581 6.22995C254.581 5.91662 254.491 5.66662 254.311 5.47995C254.131 5.29329 253.907 5.14995 253.641 5.04995C253.374 4.94995 253.014 4.84662 252.561 4.73995C252.047 4.61328 251.634 4.48995 251.321 4.36995C251.014 4.24995 250.751 4.06662 250.531 3.81995C250.317 3.56662 250.211 3.22995 250.211 2.80995C250.211 2.46995 250.301 2.15995 250.481 1.87995C250.661 1.59328 250.934 1.36662 251.301 1.19995C251.674 1.03328 252.137 0.949951 252.691 0.949951C253.077 0.949951 253.457 1.00662 253.831 1.11995C254.204 1.23328 254.527 1.38662 254.801 1.57995L254.611 1.98995C254.331 1.79662 254.021 1.64995 253.681 1.54995C253.347 1.44995 253.017 1.39995 252.691 1.39995C252.044 1.39995 251.554 1.52995 251.221 1.78995C250.887 2.04995 250.721 2.38662 250.721 2.79995C250.721 3.11328 250.811 3.36328 250.991 3.54995C251.171 3.73662 251.394 3.87995 251.661 3.97995C251.927 4.07995 252.291 4.18662 252.751 4.29995C253.264 4.42662 253.674 4.54995 253.981 4.66995C254.287 4.78995 254.547 4.97328 254.761 5.21995C254.981 5.45995 255.091 5.78662 255.091 6.19995C255.091 6.53995 254.997 6.84995 254.811 7.12995C254.631 7.40995 254.351 7.63328 253.971 7.79995C253.591 7.96662 253.124 8.04995 252.571 8.04995Z" fill="url(#paint16_linear)"/>
<path d="M264.824 0.999951L265.334 0.999951V7.99995H264.824V0.999951Z" fill="url(#paint17_linear)"/>
<path d="M282.394 7.99995L282.384 2.00995L279.454 7.06995H279.204L276.274 2.02995V7.99995H275.774V0.999951L276.204 0.999951L279.334 6.40995L282.464 0.999951H282.884L282.894 7.99995H282.394Z" fill="url(#paint18_linear)"/>
<path d="M295.844 0.999951C296.724 0.999951 297.414 1.20995 297.914 1.62995C298.414 2.04328 298.664 2.61995 298.664 3.35995C298.664 4.09328 298.414 4.66995 297.914 5.08995C297.414 5.50328 296.724 5.70995 295.844 5.70995L293.844 5.70995V7.99995H293.334V0.999951L295.844 0.999951ZM295.844 5.24995C296.591 5.24995 297.161 5.08662 297.554 4.75995C297.947 4.43328 298.144 3.96662 298.144 3.35995C298.144 2.75328 297.947 2.28662 297.554 1.95995C297.161 1.62662 296.591 1.45995 295.844 1.45995L293.844 1.45995V5.24995L295.844 5.24995Z" fill="url(#paint19_linear)"/>
<path d="M308.385 0.999951L308.895 0.999951V7.53995L312.925 7.53995V7.99995L308.385 7.99995V0.999951Z" fill="url(#paint20_linear)"/>
<path d="M323.652 5.58995V7.99995L323.142 7.99995V5.58995L320.322 0.999951H320.882L323.412 5.11995L325.942 0.999951L326.472 0.999951L323.652 5.58995Z" fill="url(#paint21_linear)"/>
<path d="M346.311 0.999951L349.081 0.999951C349.807 0.999951 350.451 1.14995 351.011 1.44995C351.577 1.74995 352.017 2.16662 352.331 2.69995C352.644 3.22662 352.801 3.82662 352.801 4.49995C352.801 5.17329 352.644 5.77662 352.331 6.30995C352.017 6.83662 351.577 7.24995 351.011 7.54995C350.451 7.84995 349.807 7.99995 349.081 7.99995H346.311V0.999951ZM349.041 7.53995C349.687 7.53995 350.257 7.41328 350.751 7.15995C351.244 6.89995 351.624 6.53995 351.891 6.07995C352.157 5.61995 352.291 5.09329 352.291 4.49995C352.291 3.90662 352.157 3.37995 351.891 2.91995C351.624 2.45995 351.244 2.10328 350.751 1.84995C350.257 1.58995 349.687 1.45995 349.041 1.45995L346.821 1.45995V7.53995H349.041Z" fill="url(#paint22_linear)"/>
<path d="M367.402 7.53995V7.99995H362.572V0.999951L367.252 0.999951V1.45995L363.082 1.45995V4.21995H366.812V4.66995H363.082V7.53995H367.402Z" fill="url(#paint23_linear)"/>
<path d="M377.262 0.999951L377.772 0.999951V7.53995L381.802 7.53995V7.99995L377.262 7.99995V0.999951Z" fill="url(#paint24_linear)"/>
<path d="M391.111 0.999951L391.621 0.999951V7.99995H391.111V0.999951Z" fill="url(#paint25_linear)"/>
<path d="M407.563 0.999951L404.443 7.99995H403.933L400.813 0.999951L401.373 0.999951L404.203 7.33995L407.033 0.999951L407.563 0.999951Z" fill="url(#paint26_linear)"/>
<path d="M421.521 7.53995V7.99995L416.691 7.99995V0.999951L421.371 0.999951V1.45995L417.202 1.45995V4.21995H420.931V4.66995H417.202V7.53995L421.521 7.53995Z" fill="url(#paint27_linear)"/>
<path d="M436.241 7.99995L434.571 5.65995C434.324 5.69328 434.098 5.70995 433.891 5.70995L431.891 5.70995V7.99995H431.381V0.999951L433.891 0.999951C434.771 0.999951 435.461 1.20995 435.961 1.62995C436.461 2.04328 436.711 2.61995 436.711 3.35995C436.711 3.91328 436.568 4.37995 436.281 4.75995C436.001 5.13329 435.598 5.39662 435.071 5.54995L436.821 7.99995H436.241ZM433.891 5.25995C434.638 5.25995 435.208 5.09662 435.601 4.76995C435.994 4.43662 436.191 3.96662 436.191 3.35995C436.191 2.75328 435.994 2.28662 435.601 1.95995C435.208 1.62662 434.638 1.45995 433.891 1.45995L431.891 1.45995V5.25995L433.891 5.25995Z" fill="url(#paint28_linear)"/>
<path d="M451.408 7.53995V7.99995L446.578 7.99995V0.999951L451.258 0.999951V1.45995L447.088 1.45995V4.21995L450.818 4.21995V4.66995L447.088 4.66995V7.53995L451.408 7.53995Z" fill="url(#paint29_linear)"/>
<path d="M461.268 0.999951L464.038 0.999951C464.764 0.999951 465.408 1.14995 465.968 1.44995C466.534 1.74995 466.974 2.16662 467.288 2.69995C467.601 3.22662 467.758 3.82662 467.758 4.49995C467.758 5.17329 467.601 5.77662 467.288 6.30995C466.974 6.83662 466.534 7.24995 465.968 7.54995C465.408 7.84995 464.764 7.99995 464.038 7.99995L461.268 7.99995V0.999951ZM463.998 7.53995C464.644 7.53995 465.214 7.41328 465.708 7.15995C466.201 6.89995 466.581 6.53995 466.848 6.07995C467.114 5.61995 467.248 5.09329 467.248 4.49995C467.248 3.90662 467.114 3.37995 466.848 2.91995C466.581 2.45995 466.201 2.10328 465.708 1.84995C465.214 1.58995 464.644 1.45995 463.998 1.45995L461.778 1.45995V7.53995H463.998Z" fill="url(#paint30_linear)"/>
<defs>
<linearGradient id="paint0_linear" x1="-27.5" y1="7.99994" x2="516.5" y2="7.99994" gradientUnits="userSpaceOnUse">
<stop stop-color="#191919"/>
<stop offset="0.143646" stop-color="white" stop-opacity="0.45073"/>
<stop offset="0.510184" stop-color="#DEDEDE" stop-opacity="0.529935"/>
<stop offset="1" stop-color="#191919"/>
</linearGradient>
<linearGradient id="paint1_linear" x1="-27.5" y1="7.99994" x2="516.5" y2="7.99994" gradientUnits="userSpaceOnUse">
<stop stop-color="#191919"/>
<stop offset="0.143646" stop-color="white" stop-opacity="0.45073"/>
<stop offset="0.510184" stop-color="#DEDEDE" stop-opacity="0.529935"/>
<stop offset="1" stop-color="#191919"/>
</linearGradient>
<linearGradient id="paint2_linear" x1="-27.5" y1="7.99994" x2="516.5" y2="7.99994" gradientUnits="userSpaceOnUse">
<stop stop-color="#191919"/>
<stop offset="0.143646" stop-color="white" stop-opacity="0.45073"/>
<stop offset="0.510184" stop-color="#DEDEDE" stop-opacity="0.529935"/>
<stop offset="1" stop-color="#191919"/>
</linearGradient>
<linearGradient id="paint3_linear" x1="-27.5" y1="7.99994" x2="516.5" y2="7.99994" gradientUnits="userSpaceOnUse">
<stop stop-color="#191919"/>
<stop offset="0.143646" stop-color="white" stop-opacity="0.45073"/>
<stop offset="0.510184" stop-color="#DEDEDE" stop-opacity="0.529935"/>
<stop offset="1" stop-color="#191919"/>
</linearGradient>
<linearGradient id="paint4_linear" x1="-27.5" y1="7.99994" x2="516.5" y2="7.99994" gradientUnits="userSpaceOnUse">
<stop stop-color="#191919"/>
<stop offset="0.143646" stop-color="white" stop-opacity="0.45073"/>
<stop offset="0.510184" stop-color="#DEDEDE" stop-opacity="0.529935"/>
<stop offset="1" stop-color="#191919"/>
</linearGradient>
<linearGradient id="paint5_linear" x1="-27.5" y1="7.99994" x2="516.5" y2="7.99994" gradientUnits="userSpaceOnUse">
<stop stop-color="#191919"/>
<stop offset="0.143646" stop-color="white" stop-opacity="0.45073"/>
<stop offset="0.510184" stop-color="#DEDEDE" stop-opacity="0.529935"/>
<stop offset="1" stop-color="#191919"/>
</linearGradient>
<linearGradient id="paint6_linear" x1="-27.5" y1="7.99994" x2="516.5" y2="7.99994" gradientUnits="userSpaceOnUse">
<stop stop-color="#191919"/>
<stop offset="0.143646" stop-color="white" stop-opacity="0.45073"/>
<stop offset="0.510184" stop-color="#DEDEDE" stop-opacity="0.529935"/>
<stop offset="1" stop-color="#191919"/>
</linearGradient>
<linearGradient id="paint7_linear" x1="-27.5" y1="7.99994" x2="516.5" y2="7.99994" gradientUnits="userSpaceOnUse">
<stop stop-color="#191919"/>
<stop offset="0.143646" stop-color="white" stop-opacity="0.45073"/>
<stop offset="0.510184" stop-color="#DEDEDE" stop-opacity="0.529935"/>
<stop offset="1" stop-color="#191919"/>
</linearGradient>
<linearGradient id="paint8_linear" x1="-27.5" y1="7.99994" x2="516.5" y2="7.99994" gradientUnits="userSpaceOnUse">
<stop stop-color="#191919"/>
<stop offset="0.143646" stop-color="white" stop-opacity="0.45073"/>
<stop offset="0.510184" stop-color="#DEDEDE" stop-opacity="0.529935"/>
<stop offset="1" stop-color="#191919"/>
</linearGradient>
<linearGradient id="paint9_linear" x1="-27.5" y1="7.99994" x2="516.5" y2="7.99994" gradientUnits="userSpaceOnUse">
<stop stop-color="#191919"/>
<stop offset="0.143646" stop-color="white" stop-opacity="0.45073"/>
<stop offset="0.510184" stop-color="#DEDEDE" stop-opacity="0.529935"/>
<stop offset="1" stop-color="#191919"/>
</linearGradient>
<linearGradient id="paint10_linear" x1="-27.5" y1="7.99994" x2="516.5" y2="7.99994" gradientUnits="userSpaceOnUse">
<stop stop-color="#191919"/>
<stop offset="0.143646" stop-color="white" stop-opacity="0.45073"/>
<stop offset="0.510184" stop-color="#DEDEDE" stop-opacity="0.529935"/>
<stop offset="1" stop-color="#191919"/>
</linearGradient>
<linearGradient id="paint11_linear" x1="-27.5" y1="7.99994" x2="516.5" y2="7.99994" gradientUnits="userSpaceOnUse">
<stop stop-color="#191919"/>
<stop offset="0.143646" stop-color="white" stop-opacity="0.45073"/>
<stop offset="0.510184" stop-color="#DEDEDE" stop-opacity="0.529935"/>
<stop offset="1" stop-color="#191919"/>
</linearGradient>
<linearGradient id="paint12_linear" x1="-27.5" y1="7.99994" x2="516.5" y2="7.99994" gradientUnits="userSpaceOnUse">
<stop stop-color="#191919"/>
<stop offset="0.143646" stop-color="white" stop-opacity="0.45073"/>
<stop offset="0.510184" stop-color="#DEDEDE" stop-opacity="0.529935"/>
<stop offset="1" stop-color="#191919"/>
</linearGradient>
<linearGradient id="paint13_linear" x1="-27.5" y1="7.99994" x2="516.5" y2="7.99994" gradientUnits="userSpaceOnUse">
<stop stop-color="#191919"/>
<stop offset="0.143646" stop-color="white" stop-opacity="0.45073"/>
<stop offset="0.510184" stop-color="#DEDEDE" stop-opacity="0.529935"/>
<stop offset="1" stop-color="#191919"/>
</linearGradient>
<linearGradient id="paint14_linear" x1="-27.5" y1="7.99994" x2="516.5" y2="7.99994" gradientUnits="userSpaceOnUse">
<stop stop-color="#191919"/>
<stop offset="0.143646" stop-color="white" stop-opacity="0.45073"/>
<stop offset="0.510184" stop-color="#DEDEDE" stop-opacity="0.529935"/>
<stop offset="1" stop-color="#191919"/>
</linearGradient>
<linearGradient id="paint15_linear" x1="-27.5" y1="7.99994" x2="516.5" y2="7.99994" gradientUnits="userSpaceOnUse">
<stop stop-color="#191919"/>
<stop offset="0.143646" stop-color="white" stop-opacity="0.45073"/>
<stop offset="0.510184" stop-color="#DEDEDE" stop-opacity="0.529935"/>
<stop offset="1" stop-color="#191919"/>
</linearGradient>
<linearGradient id="paint16_linear" x1="-27.5" y1="7.99994" x2="516.5" y2="7.99994" gradientUnits="userSpaceOnUse">
<stop stop-color="#191919"/>
<stop offset="0.143646" stop-color="white" stop-opacity="0.45073"/>
<stop offset="0.510184" stop-color="#DEDEDE" stop-opacity="0.529935"/>
<stop offset="1" stop-color="#191919"/>
</linearGradient>
<linearGradient id="paint17_linear" x1="-27.5" y1="7.99994" x2="516.5" y2="7.99994" gradientUnits="userSpaceOnUse">
<stop stop-color="#191919"/>
<stop offset="0.143646" stop-color="white" stop-opacity="0.45073"/>
<stop offset="0.510184" stop-color="#DEDEDE" stop-opacity="0.529935"/>
<stop offset="1" stop-color="#191919"/>
</linearGradient>
<linearGradient id="paint18_linear" x1="-27.5" y1="7.99994" x2="516.5" y2="7.99994" gradientUnits="userSpaceOnUse">
<stop stop-color="#191919"/>
<stop offset="0.143646" stop-color="white" stop-opacity="0.45073"/>
<stop offset="0.510184" stop-color="#DEDEDE" stop-opacity="0.529935"/>
<stop offset="1" stop-color="#191919"/>
</linearGradient>
<linearGradient id="paint19_linear" x1="-27.5" y1="7.99994" x2="516.5" y2="7.99994" gradientUnits="userSpaceOnUse">
<stop stop-color="#191919"/>
<stop offset="0.143646" stop-color="white" stop-opacity="0.45073"/>
<stop offset="0.510184" stop-color="#DEDEDE" stop-opacity="0.529935"/>
<stop offset="1" stop-color="#191919"/>
</linearGradient>
<linearGradient id="paint20_linear" x1="-27.5" y1="7.99994" x2="516.5" y2="7.99994" gradientUnits="userSpaceOnUse">
<stop stop-color="#191919"/>
<stop offset="0.143646" stop-color="white" stop-opacity="0.45073"/>
<stop offset="0.510184" stop-color="#DEDEDE" stop-opacity="0.529935"/>
<stop offset="1" stop-color="#191919"/>
</linearGradient>
<linearGradient id="paint21_linear" x1="-27.5" y1="7.99994" x2="516.5" y2="7.99994" gradientUnits="userSpaceOnUse">
<stop stop-color="#191919"/>
<stop offset="0.143646" stop-color="white" stop-opacity="0.45073"/>
<stop offset="0.510184" stop-color="#DEDEDE" stop-opacity="0.529935"/>
<stop offset="1" stop-color="#191919"/>
</linearGradient>
<linearGradient id="paint22_linear" x1="-27.5" y1="7.99994" x2="516.5" y2="7.99994" gradientUnits="userSpaceOnUse">
<stop stop-color="#191919"/>
<stop offset="0.143646" stop-color="white" stop-opacity="0.45073"/>
<stop offset="0.510184" stop-color="#DEDEDE" stop-opacity="0.529935"/>
<stop offset="1" stop-color="#191919"/>
</linearGradient>
<linearGradient id="paint23_linear" x1="-27.5" y1="7.99994" x2="516.5" y2="7.99994" gradientUnits="userSpaceOnUse">
<stop stop-color="#191919"/>
<stop offset="0.143646" stop-color="white" stop-opacity="0.45073"/>
<stop offset="0.510184" stop-color="#DEDEDE" stop-opacity="0.529935"/>
<stop offset="1" stop-color="#191919"/>
</linearGradient>
<linearGradient id="paint24_linear" x1="-27.5" y1="7.99994" x2="516.5" y2="7.99994" gradientUnits="userSpaceOnUse">
<stop stop-color="#191919"/>
<stop offset="0.143646" stop-color="white" stop-opacity="0.45073"/>
<stop offset="0.510184" stop-color="#DEDEDE" stop-opacity="0.529935"/>
<stop offset="1" stop-color="#191919"/>
</linearGradient>
<linearGradient id="paint25_linear" x1="-27.5" y1="7.99994" x2="516.5" y2="7.99994" gradientUnits="userSpaceOnUse">
<stop stop-color="#191919"/>
<stop offset="0.143646" stop-color="white" stop-opacity="0.45073"/>
<stop offset="0.510184" stop-color="#DEDEDE" stop-opacity="0.529935"/>
<stop offset="1" stop-color="#191919"/>
</linearGradient>
<linearGradient id="paint26_linear" x1="-27.5" y1="7.99994" x2="516.5" y2="7.99994" gradientUnits="userSpaceOnUse">
<stop stop-color="#191919"/>
<stop offset="0.143646" stop-color="white" stop-opacity="0.45073"/>
<stop offset="0.510184" stop-color="#DEDEDE" stop-opacity="0.529935"/>
<stop offset="1" stop-color="#191919"/>
</linearGradient>
<linearGradient id="paint27_linear" x1="-27.5" y1="7.99994" x2="516.5" y2="7.99994" gradientUnits="userSpaceOnUse">
<stop stop-color="#191919"/>
<stop offset="0.143646" stop-color="white" stop-opacity="0.45073"/>
<stop offset="0.510184" stop-color="#DEDEDE" stop-opacity="0.529935"/>
<stop offset="1" stop-color="#191919"/>
</linearGradient>
<linearGradient id="paint28_linear" x1="-27.5" y1="7.99994" x2="516.5" y2="7.99994" gradientUnits="userSpaceOnUse">
<stop stop-color="#191919"/>
<stop offset="0.143646" stop-color="white" stop-opacity="0.45073"/>
<stop offset="0.510184" stop-color="#DEDEDE" stop-opacity="0.529935"/>
<stop offset="1" stop-color="#191919"/>
</linearGradient>
<linearGradient id="paint29_linear" x1="-27.5" y1="7.99994" x2="516.5" y2="7.99994" gradientUnits="userSpaceOnUse">
<stop stop-color="#191919"/>
<stop offset="0.143646" stop-color="white" stop-opacity="0.45073"/>
<stop offset="0.510184" stop-color="#DEDEDE" stop-opacity="0.529935"/>
<stop offset="1" stop-color="#191919"/>
</linearGradient>
<linearGradient id="paint30_linear" x1="-27.5" y1="7.99994" x2="516.5" y2="7.99994" gradientUnits="userSpaceOnUse">
<stop stop-color="#191919"/>
<stop offset="0.143646" stop-color="white" stop-opacity="0.45073"/>
<stop offset="0.510184" stop-color="#DEDEDE" stop-opacity="0.529935"/>
<stop offset="1" stop-color="#191919"/>
</linearGradient>
</defs>
</svg>
