<?xml version="1.0" encoding="utf-8"?>
<!-- Generator: Adobe Illustrator 21.0.0, SVG Export Plug-In . SVG Version: 6.00 Build 0)  -->
<svg version="1.1" id="Layer_1" xmlns="http://www.w3.org/2000/svg" xmlns:xlink="http://www.w3.org/1999/xlink" x="0px" y="0px"
	 viewBox="0 0 432.8 432.8" style="enable-background:new 0 0 432.8 432.8;" xml:space="preserve">
<style type="text/css">
	.st0{fill:#1769FF;}
</style>
<title>Artboard 1</title>
<path class="st0" d="M216.4,0C97.1,0,0,97.1,0,216.4s97.1,216.4,216.4,216.4s216.4-97.1,216.4-216.4S335.7,0,216.4,0z M361.8,361.8
	c-18.8,18.8-41,33.8-65.5,44.2c-25.3,10.8-52.5,16.3-79.9,16.3c-113.5,0-205.9-92.4-205.9-205.9S102.9,10.5,216.4,10.5
	s205.9,92.4,205.9,205.9c0,27.5-5.5,54.7-16.3,79.9C395.6,320.8,380.6,343,361.8,361.8z"/>
<path class="st0" d="M216.4,144.7c-39.6,0-71.7,32.1-71.7,71.7s32.1,71.7,71.7,71.7s71.7-32.1,71.7-71.7l0,0
	C288,176.8,256,144.8,216.4,144.7z M216.4,276.8c-33.3-0.1-60.1-27.2-60-60.4s27.2-60.1,60.4-60c33.1,0.1,59.9,26.9,60,60
	C276.8,250.3,250.3,276.8,216.4,276.8L216.4,276.8z"/>
<path class="st0" d="M216.4,188.7c-15.3,0-27.7,12.3-27.7,27.6s12.3,27.7,27.6,27.7s27.7-12.3,27.7-27.6c0,0,0,0,0,0
	C244,201.1,231.6,188.8,216.4,188.7z"/>
</svg>
