<?xml version="1.0" encoding="utf-8"?>
<!-- Generator: Adobe Illustrator 21.0.0, SVG Export Plug-In . SVG Version: 6.00 Build 0)  -->
<svg version="1.1" id="Layer_1" xmlns="http://www.w3.org/2000/svg" xmlns:xlink="http://www.w3.org/1999/xlink" x="0px" y="0px"
	 viewBox="0 0 568.5 566.2" style="enable-background:new 0 0 568.5 566.2;" xml:space="preserve">
<style type="text/css">
	.st0{fill:#1769FF;}
</style>
<title>Artboard 1</title>
<path class="st0" d="M6.1,226.1l-2,9.2L0,234.4l4.9-23.1l4.2,0.9l-2,9.2l31.4,6.7l-1,4.6L6.1,226.1z"/>
<path class="st0" d="M10.3,192.9l1.6-4.2l15.9,5.8c-2.2-2.3-3-5.7-1.6-9.4c1.1-3.1,3-4.9,5.4-5.6c2.1-0.6,4.2-0.4,7.4,0.8l13,4.8
	l-1.6,4.2L38.6,185c-4.1-1.5-7.8-1.2-9.3,2.9s1.3,7.6,5.2,9.1l11.4,4.2l-1.6,4.2L10.3,192.9z"/>
<path class="st0" d="M51,162.3c3.6,1.7,7.5,1.6,10-2.9c1.7-3.1,1-5.4-0.4-7l2.2-4c3.1,2.6,4.4,7.6,1.6,12.9
	c-3.8,7-10.5,7.7-16.5,4.4c-6.3-3.4-8.9-9.6-5.3-16.1c2.7-5.2,9-7.3,14.3-4.7c0.1,0,0.1,0.1,0.2,0.1c0.9,0.5,1.7,1,2.5,1.6L51,162.3
	z M48,160.6l6.5-12c-3-1.8-6.9-0.9-8.8,2.1c-0.1,0.2-0.2,0.4-0.3,0.6C43.5,154.8,44.3,158.5,48,160.6L48,160.6z"/>
<path class="st0" d="M84.8,109.7c3.7,3.3,8.2,3,11.5-0.6c2.8-3.1,3.1-7,0.3-9.5c-3.3-3-6.7-1-9.5,0.7c-5.9,3.5-10.9,6.3-16.4,1.3
	c-4.3-3.9-4-10.1,0.4-14.9s10.9-5.5,15.9-1l-3.2,3.5c-3.1-2.8-6.8-2.7-9.5,0.3s-2.9,6.4-0.4,8.6c2.9,2.6,6.1,1.1,9.2-0.8
	c5.1-2.9,11.1-6.3,16.3-1.6s4.5,11.3-0.1,16.5s-11.9,6.2-17.6,1L84.8,109.7z"/>
<path class="st0" d="M113.9,81.9c2.7,3,6.3,4.3,10.3,1.1c2.7-2.2,3-4.7,2.2-6.7l3.5-2.9c1.9,3.6,1.2,8.8-3.4,12.5
	c-6.1,5-12.6,3.2-17-2.1c-4.5-5.5-4.6-12.3,1.1-17c4.4-3.8,11.1-3.4,15,1.1c0.1,0.1,0.2,0.2,0.3,0.3c0.6,0.8,1.2,1.6,1.7,2.4
	L113.9,81.9z M111.7,79.2l10.6-8.7c-2.1-2.8-6-3.5-8.9-1.4c-0.2,0.1-0.3,0.3-0.5,0.4C109.8,72.2,109.1,75.9,111.7,79.2z"/>
<path class="st0" d="M163,60.2l-4.4,2.7l-9-4.3l-0.2,9.9l-4.4,2.7l0.6-14.3l-12.8-5.8l4.4-2.7l8.8,4.2l0.2-9.8l4.4-2.7l-0.6,14
	L163,60.2z"/>
<path class="st0" d="M184.8,33.1c-1.5-2.5-4-3.8-8.1-2c-4.5,2-5.1,6.6-3.3,10.6s5.5,6.7,10.3,4.5c3.6-1.6,4.4-3.9,3.9-6.8l4.1-1.8
	c1.3,4.8-0.4,9.7-6.7,12.4c-7,3.1-13.2-0.7-15.8-6.5s-1.3-13,5.7-16.1s11.7-0.1,13.9,3.9L184.8,33.1z"/>
<path class="st0" d="M224,11.4l6.3,22.7l-4.4,1.2l-1.1-4c-0.7,3.4-3.3,6.1-6.7,6.8c-3.1,0.9-5.8,0.4-7.7-1s-2.7-3.3-3.6-6.4
	l-3.7-13.4l4.3-1.2l3.3,12c1.2,4.2,3.6,7,7.8,5.8c4.4-1.2,5.5-5.5,4.4-9.5l-3.2-11.7L224,11.4z"/>
<path class="st0" d="M263.5,22.1c0.6,4.7-3,7.5-8.2,8.2s-10-1.5-10.8-7.2l4.4-0.6c0.5,3.5,3,4.6,6.1,4.2c2.8-0.4,4.5-1.6,4.2-4
	c-0.4-2.6-3.2-2.5-8.1-3.5c-3.7-0.7-6.6-1.4-7.2-5.6c-0.6-4.4,3-7.3,7.8-7.9c5.1-0.7,9.4,2,10,6.7l-4.3,0.6
	c-0.4-2.7-2.2-4.1-5.3-3.7c-2.5,0.3-4.2,1.7-3.9,3.8c0.3,2.4,2.8,2.4,7.3,3.2C259.4,17.1,263,17.7,263.5,22.1z"/>
<path class="st0" d="M282.9,17c0.2,4,2.1,7.4,7.3,7.4c3.5,0,5.3-1.7,6-3.7h4.6c-0.8,4-4.7,7.5-10.6,7.5c-7.9,0-11.8-5.6-11.7-12.4
	c0-7.1,4.3-12.4,11.7-12.4c5.9-0.1,10.7,4.5,10.8,10.4c0,0.1,0,0.2,0,0.3c0,1-0.1,2-0.2,3L282.9,17z M283,13.6l13.6,0.1
	c0.2-3.5-2.5-6.5-6-6.7c-0.2,0-0.4,0-0.7,0C286,6.9,283.1,9.3,283,13.6L283,13.6z"/>
<path class="st0" d="M363.8,20.7l16.9,4.7l-1.1,4.1l-3.8-1c-3.6,7.7-10.8,11.6-20.5,8.9c-11.5-3.2-15.5-13.8-12.9-23.3
	s11.9-16.4,23-13.3c7.9,2.2,12.5,8.6,11.7,14.6l-4.6-1.3c0.1-3.9-3.1-7.8-8.3-9.2C355.9,2.5,349,8,347,15.4s0.7,15.5,9.9,18
	c6.8,1.9,11.8-1.3,14-6.3l-8.3-2.3L363.8,20.7z"/>
<path class="st0" d="M396.2,39.8c-1.5,3.7-1.2,7.6,3.5,9.8c3.2,1.5,5.5,0.7,7-0.8l4.1,2c-2.4,3.3-7.4,4.8-12.8,2.3
	c-7.2-3.4-8.3-10.1-5.4-16.2c3-6.4,9.1-9.4,15.8-6.2c5.4,2.4,7.8,8.6,5.4,14c0,0.1-0.1,0.2-0.1,0.3c-0.4,0.9-0.9,1.8-1.5,2.6
	L396.2,39.8z M397.7,36.7l12.3,5.9c1.7-3.1,0.5-6.9-2.6-8.6c-0.2-0.1-0.4-0.2-0.6-0.3C403.2,31.9,399.6,32.9,397.7,36.7z"/>
<path class="st0" d="M434.9,45.3l3.8,2.5l-2.3,3.5c2.8-1.6,6.2-1.6,9.6,0.6c2.7,1.8,4.1,4.1,4.1,6.5c0.1,2.2-0.6,4.2-2.5,7L439.8,77
	l-3.8-2.5l6.9-10.4c2.4-3.6,3-7.3-0.7-9.7s-7.7-0.5-10,3l-6.7,10.1l-3.8-2.5L434.9,45.3z"/>
<path class="st0" d="M462.2,81.4c-2.5,3.1-3.4,6.9,0.5,10.4c2.6,2.4,5,2.3,6.9,1.2l3.4,3.1c-3.3,2.4-8.5,2.5-12.9-1.5
	c-5.9-5.3-5-12-0.4-17.1c4.8-5.3,11.4-6.4,17-1.4c4.5,3.8,5,10.5,1.1,15c-0.1,0.1-0.1,0.2-0.2,0.2c-0.7,0.7-1.4,1.4-2.1,2.1
	L462.2,81.4z M464.6,78.9l10.1,9.2c2.5-2.5,2.5-6.5,0-9c-0.1-0.1-0.3-0.3-0.5-0.4C471.3,76,467.5,75.8,464.6,78.9L464.6,78.9z"/>
<path class="st0" d="M503.6,111.7c-0.3-0.7-0.8-1.3-1.3-1.9c-3.4-4-7.9-3.6-12.2,0.1l-7.9,6.7l-2.9-3.4l17.9-15.3l2.9,3.4l-3.5,3
	c3.2-0.9,6.7,0.2,8.9,2.7c0.5,0.6,0.9,1.2,1.2,1.9L503.6,111.7z"/>
<path class="st0" d="M529.5,141.8l-19.8,12.7l-2.4-3.8l3.5-2.2c-3.4,0.2-6.6-1.5-8.4-4.4c-3.9-6.1-1.7-13.3,3.9-16.8
	s13.1-2.6,17,3.5c1.9,2.8,2.1,6.4,0.5,9.5l3.4-2.2L529.5,141.8z M517.1,144.4c3.8-2.4,5.3-7.1,2.7-11.2s-7.5-4.6-11.3-2.1
	s-5.3,7.1-2.7,11.1S513.3,146.9,517.1,144.4L517.1,144.4z"/>
<path class="st0" d="M523.2,181.7c-0.8-1.1-1.4-2.3-2-3.5c-1.2-2.6-2.7-6.9,4.3-10.2l10.7-5l-1.9-4l3.4-1.6l1.9,3.9l7.2-3.4l1.9,4.1
	l-7.2,3.4l2.6,5.5l-3.4,1.6l-2.6-5.6l-9.8,4.6c-4.1,1.9-4,3.6-3,5.7c0.4,0.9,0.9,1.8,1.5,2.7L523.2,181.7z"/>
<path class="st0" d="M539.2,189.6c6.5-2.1,13.5,1.5,15.6,8c2.1,6.5-1.5,13.5-8,15.6s-13.5-1.5-15.6-8c0,0,0-0.1,0-0.1
	c-2.2-6.3,1.1-13.2,7.4-15.4C538.8,189.7,539,189.6,539.2,189.6z M545.5,208.9c4.3-1.4,7-5.5,5.5-10.2s-6.1-6.3-10.4-4.9
	s-7,5.5-5.5,10.1S541.2,210.3,545.5,208.9L545.5,208.9z"/>
<path class="st0" d="M560.7,243c0-0.8,0-1.5-0.2-2.2c-1-5.2-5-7-10.6-6l-10.2,1.9l-0.8-4.4l23.2-4.3l0.8,4.4l-4.5,0.8
	c3.3,0.8,5.7,3.5,6.3,6.8c0.1,0.7,0.1,1.5,0,2.3L560.7,243z"/>
<path class="st0" d="M551.1,286.5l-0.2,7l-6.9-0.1l0.1-7L551.1,286.5z M568.5,286.9l-0.1,7l-6.9-0.1l0.2-7L568.5,286.9z"/>
<path class="st0" d="M534.9,352.8l9.7,2.3c4.3,1,6-1,6.6-3.4c0.9-3.8-2.6-6.5-6-7.3l-7.9-1.9l0.2-0.7l8.8,2.1c5.4,1.3,7-1,7.5-3.2
	c0.9-3.7-2.6-6.4-6-7.2l-7.9-1.9l0.2-0.7l15.6,3.7l-0.2,0.7l-4.8-1.1c2.8,1,4.4,3.8,3.8,6.7c-0.7,2.9-2.8,4.6-6.4,4.1
	c2.8,1.1,4.4,4.1,3.8,7c-0.6,2.4-2.3,5.1-7.4,4l-9.8-2.3L534.9,352.8z"/>
<path class="st0" d="M538.5,367.7c4.4,1.6,6.6,6.4,5,10.8c-1.6,4.4-6.4,6.6-10.8,5c-4.4-1.6-6.6-6.4-5-10.8c0,0,0-0.1,0-0.1
	c1.5-4.3,6.1-6.5,10.3-5C538.3,367.6,538.4,367.6,538.5,367.7z M532.9,382.7c3.9,1.5,8.4-0.5,9.9-4.4s-0.5-8.4-4.4-9.9
	s-8.4,0.5-9.9,4.4c0,0,0,0,0,0c-1.6,3.8,0.2,8.1,4,9.7C532.6,382.6,532.8,382.6,532.9,382.7L532.9,382.7z"/>
<path class="st0" d="M529.9,406.7c0.4-0.4,0.7-0.9,0.9-1.4c2-4.2-1.4-8-4.5-9.5l-6.7-3.2l0.3-0.6l14.5,7l-0.3,0.7l-4.6-2.2
	c3,2.8,3.2,5.8,2,8.3c-0.2,0.5-0.5,1-0.9,1.3L529.9,406.7z"/>
<path class="st0" d="M524.9,417.6l-0.4,0.7l-4.2-2.5c2.2,2.4,2.6,6,0.9,8.7c-0.8,1.6-2.3,2.7-4.1,3.2c-1.9,0.4-3.9,0-5.5-1.1
	l-7.9-4.8l0.4-0.7l7.9,4.7c3.1,1.9,6.5,1.6,8.6-1.8c2.4-4,0-8.2-2.8-9.8l-7-4.2l0.4-0.7L524.9,417.6z"/>
<path class="st0" d="M508.8,442.6l-0.5,0.6l-13-9.4l0.5-0.6L508.8,442.6z M515.9,447.7l-0.5,0.6l-3.2-2.3l0.5-0.6L515.9,447.7z"/>
<path class="st0" d="M499,455.6l-0.5,0.6l-3.7-3.2c1.8,2.7,1.5,6.3-0.6,8.8c-1.1,1.4-2.7,2.3-4.5,2.5c-1.9,0-3.8-0.7-5.2-2l-7-6
	l0.5-0.6l7,6c2.8,2.4,6.1,2.7,8.8-0.3c3-3.5,1.3-8.1-1.1-10.2l-6.1-5.3l0.5-0.6L499,455.6z"/>
<path class="st0" d="M455.7,474.9c-4.7-5.1-4-9-0.1-12.7c4.3-4,8.4-2.6,11.6,0.5l-0.6,0.5c-2.8-2.8-6.5-4.2-10.5-0.5
	c-3.6,3.3-4.2,6.9,0.1,11.6l4.5,4.8c-1.3-3.1-0.5-6.8,2.1-9c3.5-3.1,8.8-2.7,11.8,0.7c3,3.3,2.8,8.4-0.4,11.5
	c-2.4,2.4-6.1,3-9.1,1.5l3.3,3.5l-0.6,0.5L455.7,474.9z M474.1,471.1c-2.8-3.1-7.7-3.3-10.8-0.5c-3.1,2.8-3.3,7.7-0.5,10.8
	c2.8,3.1,7.7,3.3,10.8,0.5c0,0,0.1-0.1,0.1-0.1c3.1-2.7,3.4-7.4,0.7-10.4C474.3,471.3,474.2,471.2,474.1,471.1L474.1,471.1z"/>
<path class="st0" d="M424.9,504.8c-1.5-2.3-0.8-4.8,2.6-7c3.2-2.1,6.6-2.5,8.9,1.1l-0.6,0.4c-2-3.1-5-2.7-7.8-0.9s-3.6,4.1-2.4,5.9
	c1.5,2.4,4.1,1.1,6.7,0c2.8-1.3,5.5-2.5,7.3,0.3c1.6,2.4,0.5,5-2.4,6.9c-3,1.9-6.2,2-8.2-1l0.6-0.4c1.6,2.5,4.4,2.5,7,0.8
	s3.5-3.9,2.2-5.9s-3.4-1.3-6.4,0.1S426.7,507.7,424.9,504.8z"/>
<path class="st0" d="M416.1,514.7c-1.9-3.6-5.7-5.9-10-3.6c-2.9,1.5-4,4.2-3.7,6.4l-0.7,0.4c-0.5-2.6,0.7-5.7,4.1-7.4
	c4.8-2.5,8.9-0.1,10.9,3.8c2.2,4.3,1.3,8.7-3.1,11c-3.5,1.9-7.8,0.7-9.8-2.8c0-0.1-0.1-0.1-0.1-0.2c-0.1-0.2-0.3-0.5-0.4-0.9
	L416.1,514.7z M416.4,515.4l-12.1,6.3c1.6,3.2,5.5,4.6,8.7,3c0.1,0,0.2-0.1,0.3-0.1C416.9,522.6,417.9,519,416.4,515.4L416.4,515.4z
	"/>
<path class="st0" d="M377.5,523.3l0.9-0.3l8.1,4.8l2.5-9l0.9-0.3l-2.7,9.7l8.7,5.2l-0.9,0.3l-8-4.8l-2.5,9l-0.9,0.3l2.7-9.8
	L377.5,523.3z"/>
<path class="st0" d="M353.2,547.5l-0.7,0.2l-3.8-15.6l0.7-0.2L353.2,547.5z M355.3,556l-0.7,0.2l-0.9-3.8l0.7-0.2L355.3,556z"/>
<path class="st0" d="M324.2,541c-0.5-2.7,1.2-4.7,5.2-5.4c3.7-0.6,7,0.4,7.7,4.6l-0.8,0.1c-0.6-3.6-3.5-4.5-6.8-4
	c-3.4,0.6-4.9,2.3-4.6,4.5c0.5,2.8,3.3,2.7,6.1,2.6c3.1-0.1,6-0.1,6.6,3.2c0.5,2.8-1.5,4.8-5,5.4s-6.5-0.7-7.1-4.2l0.8-0.1
	c0.5,3,3,4,6.1,3.5s4.8-2.2,4.4-4.5s-2.6-2.5-5.8-2.5S324.8,544.4,324.2,541z"/>
<path class="st0" d="M293,539.4h0.8l-0.2,26.8h-0.8l0.1-15.6c-1.2,3.2-4.3,5.3-7.7,5.1c-4.6-0.2-8.2-4.1-8-8.7
	c0.2-4.4,3.7-7.9,8.1-8c3.4-0.1,6.5,2,7.7,5.2L293,539.4z M277.7,547.3c-0.1,4.2,3.3,7.7,7.5,7.8s7.7-3.3,7.8-7.5
	c0.1-4.2-3.3-7.7-7.5-7.8c0,0-0.1,0-0.1,0c-4.1-0.2-7.5,3-7.7,7.1C277.6,547,277.6,547.1,277.7,547.3L277.7,547.3z"/>
<path class="st0" d="M264.5,546.6c0.5-4.1-1.4-8-6.2-8.6c-3.2-0.4-5.7,1.2-6.6,3.2l-0.8-0.1c1-2.4,3.7-4.3,7.5-3.9
	c5.3,0.6,7.4,4.9,6.9,9.3c-0.6,4.8-3.8,8-8.8,7.4c-4-0.3-6.9-3.8-6.5-7.8c0-0.1,0-0.1,0-0.2c0-0.3,0.1-0.6,0.1-1L264.5,546.6z
	 M264.3,547.4l-13.6-1.6c-0.5,3.6,2,6.9,5.6,7.4c0.1,0,0.2,0,0.3,0C260.7,553.6,263.5,551.2,264.3,547.4z"/>
<path class="st0" d="M230.5,532.8c0.9,0,1.8,0.1,2.6,0.3c2.4,0.5,4.3,1.5,3.3,6.3l-2,9.8l3.8,0.8l-0.2,0.8l-3.8-0.8l-1.5,7l-0.8-0.2
	l1.5-7l-5.6-1.2l0.2-0.8l5.6,1.2l2-9.8c0.9-4.1-0.8-5-2.7-5.4c-0.9-0.2-1.7-0.3-2.6-0.3L230.5,532.8z"/>
<path class="st0" d="M212.2,527.8c0.9,0.1,1.7,0.3,2.6,0.5c2.3,0.7,4.1,1.9,2.8,6.5l-2.8,9.6l3.7,1.1l-0.2,0.7l-3.7-1.1l-2,6.9
	l-0.7-0.2l2-6.9l-5.5-1.6l0.2-0.7l5.5,1.6l2.8-9.6c1.1-4-0.4-5.1-2.3-5.6c-0.9-0.2-1.7-0.4-2.6-0.5L212.2,527.8z"/>
<path class="st0" d="M199.9,532.4c1.5-3.8,0.6-8.1-3.9-9.9c-3-1.2-5.8-0.3-7.2,1.4l-0.8-0.3c1.6-2.1,4.7-3.2,8.2-1.9
	c5,1.9,6,6.6,4.4,10.7c-1.7,4.5-5.6,6.8-10.3,5c-3.7-1.3-5.7-5.4-4.4-9.2c0-0.1,0-0.1,0.1-0.2c0.1-0.3,0.3-0.6,0.4-0.9L199.9,532.4z
	 M199.6,533.1l-12.8-4.9c-1.4,3.3,0.2,7.1,3.5,8.5c0.1,0,0.2,0.1,0.3,0.1C194.6,538.3,197.9,536.6,199.6,533.1z"/>
<path class="st0" d="M163,524c0.4,0.4,0.8,0.7,1.3,0.9c4.2,2.1,8-1.3,9.5-4.4l3.3-6.6l0.7,0.3l-7.1,14.4l-0.7-0.3l2.3-4.6
	c-2.8,2.9-5.9,3.1-8.3,1.9c-0.5-0.2-1-0.6-1.3-1L163,524z"/>
<path class="st0" d="M139,491.3c0.8,0.4,1.6,0.8,2.3,1.3c2,1.4,3.3,3.1,0.6,7.1l-5.6,8.3l3.2,2.2l-0.4,0.6l-3.2-2.2l-4.1,6l-0.6-0.4
	l4.1-6l-4.7-3.2l0.4-0.6l4.7,3.2l5.6-8.3c2.4-3.5,1.2-4.9-0.4-6c-0.7-0.5-1.5-0.9-2.3-1.3L139,491.3z"/>
<path class="st0" d="M113.4,505.6l-0.6-0.5l10-12.1c-2.7,1.8-6.3,1.7-8.8-0.5c-1.4-1.1-2.4-2.7-2.6-4.5c-0.1-1.9,0.7-3.8,2-5.2
	l5.9-7.1l0.6,0.5l-5.9,7.1c-2.3,2.8-2.6,6.2,0.5,8.8c3.6,3,8.1,1.2,10.2-1.3l5.2-6.3l0.6,0.5L113.4,505.6z"/>
<path class="st0" d="M87.4,466.8l11.6-11.1l0.5,0.5l-3.4,3.3c3.1-1.4,6.8-0.5,9,2c3,3.5,2.7,8.8-0.8,11.8c-3.2,2.8-8.1,2.7-11.2-0.2
	c-2.5-2.4-3.2-6.1-1.6-9.2l-3.5,3.4L87.4,466.8z M93.7,461.8c-3.1,2.9-3.2,7.7-0.3,10.8s7.7,3.2,10.8,0.3c3.1-2.9,3.2-7.7,0.3-10.8
	c0,0,0,0,0,0c-2.7-3.1-7.4-3.3-10.5-0.6C93.9,461.6,93.8,461.7,93.7,461.8L93.7,461.8z"/>
<path class="st0" d="M77.1,454.8l-0.5-0.6l3.9-3c-3,1.2-6.5,0.2-8.5-2.4c-1.2-1.4-1.7-3.2-1.5-5c0.4-1.9,1.5-3.6,3.1-4.7l7.4-5.6
	l0.5,0.6l-7.3,5.6c-2.9,2.2-3.9,5.5-1.5,8.7c2.8,3.7,7.6,2.9,10.2,1l6.4-5l0.5,0.6L77.1,454.8z"/>
<path class="st0" d="M47.1,395.8c-2.3,1.5-4,4.4-2,8.4s6.5,4.8,10,3.1s5.7-5.6,3.6-9.8c-1.8-3.7-4.8-4.6-7.5-3.8l-0.4-0.7
	c3.2-1,6.5-0.1,8.6,4.1c2.3,4.7-0.1,8.9-4,10.9s-8.8,1.2-11-3.4s-0.4-7.8,2.3-9.4L47.1,395.8z"/>
<path class="st0" d="M44,383.3c-4.3,1.6-9.2-0.5-10.8-4.9c-1.6-4.3,0.5-9.2,4.9-10.8c4.3-1.6,9.2,0.5,10.8,4.9c0,0,0,0.1,0,0.1
	c1.7,4.2-0.3,8.9-4.5,10.6C44.2,383.2,44.1,383.2,44,383.3z M38.4,368.3c-3.9,1.6-5.8,6-4.3,9.9c1.5,3.8,5.7,5.7,9.6,4.4
	c3.9-1.6,5.8-6,4.3-9.9C46.5,368.9,42.2,366.9,38.4,368.3z"/>
<path class="st0" d="M15,351.6c-0.1,0.8-0.1,1.6,0.2,2.4c0.4,1.6,1.6,3.3,5.6,2.2l5.2-1.4l-1.5-5.7l0.7-0.2l1.5,5.7l14.7-4l0.2,0.7
	l-14.7,4l1.1,3.9l-0.7,0.2l-1.1-3.9L21,357c-4.7,1.3-6-0.8-6.5-2.8c-0.2-0.8-0.3-1.6-0.2-2.4L15,351.6z"/>
<path class="st0" d="M10.6,331.1c-0.2,0.8-0.2,1.6,0,2.4c0.3,1.6,1.3,3.4,5.4,2.6l5.3-1l-1.1-5.8l0.8-0.1l1.2,5.8l15-2.9l0.2,0.8
	l-15,2.9l0.8,4l-0.8,0.1l-0.8-4l-5.3,1c-4.7,0.9-5.9-1.2-6.3-3.2c-0.2-0.8-0.2-1.6,0-2.4L10.6,331.1z"/>
<path class="st0" d="M26.3,317.2c4.1-0.4,7.5-3.1,7-8c-0.3-3.2-2.4-5.3-4.6-5.8l-0.1-0.8c2.6,0.4,5,2.7,5.4,6.5
	c0.5,5.3-3.2,8.3-7.5,8.8c-4.8,0.5-8.6-2-9.1-7c-0.5-3.9,2.2-7.5,6.2-8.1c0.1,0,0.1,0,0.2,0c0.3,0,0.7-0.1,1-0.1L26.3,317.2z
	 M25.6,317.2l-1.4-13.6c-3.6,0.3-6.3,3.4-6,7c0,0.1,0,0.2,0,0.3C18.6,315.1,21.7,317.3,25.6,317.2L25.6,317.2z"/>
<path class="st0" d="M24.2,290.1c4.1,0,7.8-2.3,7.8-7.2c0-3.3-1.8-5.5-3.9-6.2v-0.8c2.5,0.7,4.7,3.2,4.7,7c0,5.4-4,8-8.4,8
	c-4.8,0-8.4-2.8-8.4-7.9c-0.1-4,3-7.3,7-7.4c0.1,0,0.1,0,0.2,0c0.3,0,0.7,0,1,0L24.2,290.1z M23.4,290.1v-13.7
	c-3.6-0.1-6.6,2.8-6.6,6.4c0,0.1,0,0.2,0,0.2C16.8,287.2,19.6,289.7,23.4,290.1L23.4,290.1z"/>
</svg>
