<?xml version="1.0" encoding="utf-8"?>
<!-- Generator: Adobe Illustrator 19.2.1, SVG Export Plug-In . SVG Version: 6.00 Build 0)  -->
<svg version="1.1" id="Layer_1" xmlns="http://www.w3.org/2000/svg" xmlns:xlink="http://www.w3.org/1999/xlink" x="0px" y="0px"
	 viewBox="0 0 2150 289.3" style="enable-background:new 0 0 2150 289.3;" xml:space="preserve">
<style type="text/css">
	.st0{fill:#FFFFFF;}
	.st1{fill:#A98738;}
</style>
<g>
	<path class="st0" d="M1431.8,13.9h16.7v260.9h-16.7V13.9z"/>
</g>
<g>
	<path class="st0" d="M270.1,244.2c-13.6-5.1-33.1-20.2-44.3-34c-14.5-16.6-49.3-63.4-49.3-63.4C158.6,123.7,134.7,85.4,111,66
		v153.4h21.2V142c14.9,19,32.3,43.2,45.3,58.5c5.7,6.9,20.6,23,24.8,26.5c27.2,26.5,77.2,38.4,118.8,23.9v-1.5
		C306.8,252.5,288.3,251.4,270.1,244.2 M912.2,139.7c20.9,16.6,55.2,24.6,59.5,38c2.6,7.3-0.5,14.3-5.5,19.3
		c-18.6,17.2-48.3,6.4-67.5-2.1l0,18.5c20.8,9.3,47.1,11.7,70.5,6.7c16-3.6,34-17.7,36.8-35.1c2.9-17.2-0.7-28.4-12-38
		c-17.3-15-38.4-19.7-53.2-29.9c-10.4-8-8.8-18.4-3.5-24c12.5-13.9,38.5-7.3,44.6-5.9c7.7,2.3,11.8,4.6,19.1,7.9V76.4
		c-31-9-80.7-17.7-100.3,13.5C893.4,102.8,891.5,126.2,912.2,139.7 M141.3,79.1c14.5,16.6,49.3,63.4,49.3,63.4
		c17.9,23.1,41.8,61.4,65.5,80.8V69.9H235v77.4c-14.9-19-32.3-43.2-45.3-58.5c-5.8-6.9-20.6-23-24.8-26.5
		C137.6,35.7,87.7,23.8,46,38.4v1.5c14.3-3.1,32.8-1.9,51,5.3C110.6,50.2,130.1,65.3,141.3,79.1 M551.2,175.2l0-10.3
		c0,0,54.2,3,69.4-17.2c11.4-13,12-33.8,7.3-49.9c-6.2-18.3-19.8-27.7-39.8-27.7h-74.9v149.7h37.9V175.2z M551.1,86.9
		c0,0,33.7-4.7,42.6,10.6c5.1,9.2,6.3,29.8-1.3,40C583.6,148,564,147.9,551,147L551.1,86.9z M379.8,86.8l0.1-16.7H277.4v149.7h102.5
		l-0.1-16.7c-19.6,0.5-44.3,3.6-64.5,1.6v-53.7c16.4-0.9,36.3-0.6,51.5,0.8V134c-15.5,2-35,1.8-51.5,0.8V85.3
		C335.5,83.2,360.1,86.5,379.8,86.8 M1205.6,67.8c-9.9-0.1-74.1,1-74.4,76.5c0,75,63.4,77.9,74.3,77.9c11,0.1,74.4-2.9,74.2-77.9
		C1279.7,68.8,1215.6,67.8,1205.6,67.8 M1205.9,201.4h-0.6c-4.2,0-34.8,1.3-34.6-59.9c0.2-56.7,30-55.1,34.9-55.1
		c4.9,0,34.7-1.6,35,55.1C1240.8,202.7,1210.1,201.4,1205.9,201.4 M1110.1,147c-17.3-15-38.3-19.7-53-29.9c-10.5-8-8.9-18.4-3.7-24
		c12.5-13.9,38.5-7.3,44.6-5.9c7.7,2.3,11.8,4.6,19.1,7.9V76.4c-31.1-9-80.7-17.7-100.3,13.5c-7.3,12.8-9.2,36.2,11.7,49.7
		c20.9,16.6,55.2,24.6,59.4,38c2.7,7.3-0.4,14.3-5.5,19.3c-18.5,17.2-48.3,6.4-67.4-2.1l-0.1,18.5c20.9,9.3,47.1,11.7,70.5,6.7
		c16.1-3.6,33.9-17.7,36.9-35.1C1125.1,167.8,1121.5,156.6,1110.1,147 M731.9,219.8h40.7l-3.7-7c-0.2-0.3-0.3-0.6-0.4-0.8l-4.6-8.8
		c-9.9-18.6-17.9-34.1-26.6-54.2c0.9-0.6,0.7-0.3,3.3-1.6c13.9-6.6,23-18.6,22.8-39.3c-0.7-25.4-23.9-38-44.1-37.9h-75.9v149.7h38.2
		v-61.9h21.7c7.2,12.1,22,46.4,24.3,51.8L731.9,219.8z M721.4,131.6c-9,10.8-27.5,10-40.3,9.9V86.7c0,0,32.6-4.9,41.6,10.8
		C727.3,106.2,727.8,122.8,721.4,131.6 M390.5,194.9l0,18.5c20.8,9.3,47.1,11.7,70.4,6.7c16-3.6,34-17.7,36.8-35.1
		c2.9-17.2-0.7-28.4-12-38c-17.3-15-38.3-19.7-53.1-29.9c-10.4-8-8.8-18.4-3.5-24c12.5-13.9,38.5-7.3,44.5-5.9
		c7.7,2.3,11.8,4.6,19.1,7.9V76.4c-31-9-80.7-17.7-100.3,13.5c-7.2,12.8-9.1,36.2,11.7,49.7c20.9,16.6,55.2,24.6,59.5,38
		c2.6,7.3-0.5,14.3-5.5,19.3C439.5,214.2,409.7,203.4,390.5,194.9 M887.5,203c-19.7,0.5-44.4,3.6-64.5,1.6v-53.7
		c16.4-0.9,36.3-0.6,51.5,0.8V134c-15.6,2-35,1.8-51.6,0.8c0-3.2,0-49.4,0-49.4c20.2-2.1,44.8,1.1,64.5,1.5V70.1H785.1v149.7h102.4
		V203z"/>
</g>
<g>
	<path class="st1" d="M1636.7,100.2h1.3l38.8,86.8h-13.2l-7.3-16.9h-38.5l-7.3,16.9h-12.8L1636.7,100.2z M1652.4,159.8l-15.2-35.2
		l-15.2,35.2H1652.4z"/>
	<path class="st1" d="M1723.3,112.1h-24.9v-10.6h62.3v10.6h-24.9v75h-12.4V112.1z"/>
	<path class="st1" d="M1790.2,101.5h50.5v10.6h-38.1v26.1h27.8v10.4h-27.8v27.7h39.7V187h-52.1V101.5z"/>
	<path class="st1" d="M1871.1,101.5h12.4v74.8h41V187h-53.4V101.5z"/>
	<path class="st1" d="M1953.6,101.5h12.4V187h-12.4V101.5z"/>
	<path class="st1" d="M2001.3,101.5h50.5v10.6h-38.1v26.1h27.8v10.4h-27.8v27.7h39.7V187h-52.1V101.5z"/>
	<path class="st1" d="M2146,187h-14.8l-19.8-31.4h-16.8V187h-12.4v-85.5h26.1c10.2,0,18.3,2,24.4,6c6.1,4,9.1,11,9.1,20.9
		c0,7-1.7,12.6-5,16.8c-3.3,4.2-7.6,7-12.8,8.5L2146,187z M2123.2,141.8c4.1-2.4,6.1-6.8,6.1-13.2c0-6.4-2.1-10.8-6.3-13.1
		c-4.2-2.3-9.6-3.5-16.2-3.5h-12.1v33.4h12.5C2113.8,145.3,2119.1,144.1,2123.2,141.8z"/>
</g>
</svg>
