<svg width="24" height="23" viewBox="0 0 24 23" version="1.1" xmlns="http://www.w3.org/2000/svg" xmlns:xlink="http://www.w3.org/1999/xlink">
<title>github</title>
<desc>Created using Figma</desc>
<g id="Canvas" transform="translate(-3758 2244)">
<g id="github">
<use xlink:href="#path0_fill" transform="translate(3758 -2244)" fill="#FFFFFF"/>
</g>
</g>
<defs>
<path id="path0_fill" fill-rule="evenodd" d="M 11.9633 0C 5.3578 0 0 5.27773 0 11.7845C 0 16.9899 3.44954 21.4001 8.14679 22.9906C 8.73395 23.0629 8.95413 22.7015 8.95413 22.4123C 8.95413 22.1231 8.95413 21.4001 8.95413 20.3879C 5.65138 21.1109 4.91743 18.7974 4.91743 18.7974C 4.40367 17.4237 3.59633 17.0622 3.59633 17.0622C 2.49541 16.3393 3.66972 16.3393 3.66972 16.3393C 4.84404 16.4116 5.50459 17.5683 5.50459 17.5683C 6.6055 19.3758 8.29358 18.8697 8.95413 18.5805C 9.02752 17.7852 9.3945 17.2791 9.68807 16.9899C 7.04587 16.7008 4.25688 15.6886 4.25688 11.1338C 4.25688 9.83248 4.69725 8.82031 5.50459 7.95274C 5.43119 7.73585 4.99083 6.50679 5.65138 4.91624C 5.65138 4.91624 6.6789 4.62705 8.95413 6.1453C 9.90826 5.85611 10.9358 5.78381 11.9633 5.78381C 12.9908 5.78381 14.0183 5.92841 14.9725 6.1453C 17.2477 4.62705 18.2752 4.91624 18.2752 4.91624C 18.9358 6.50679 18.4954 7.73585 18.422 8.02504C 19.156 8.82031 19.6697 9.90478 19.6697 11.2061C 19.6697 15.7609 16.8807 16.7008 14.2385 16.9899C 14.6789 17.3514 15.0459 18.0744 15.0459 19.1589C 15.0459 20.7494 15.0459 21.9785 15.0459 22.4123C 15.0459 22.7015 15.2661 23.0629 15.8532 22.9906C 20.6239 21.4001 24 16.9899 24 11.7845C 23.9266 5.27773 18.5688 0 11.9633 0Z"/>
</defs>
</svg>
