<svg width="26" height="20" viewBox="0 0 26 20" version="1.1" xmlns="http://www.w3.org/2000/svg" xmlns:xlink="http://www.w3.org/1999/xlink">
<title>twitter</title>
<desc>Created using Figma</desc>
<g id="Canvas" transform="translate(-3650 2242)">
<g id="twitter">
<use xlink:href="#path0_fill" transform="translate(3650 -2242)" fill="#FFFFFF"/>
</g>
</g>
<defs>
<path id="path0_fill" d="M 8.1744 20C 17.9816 20 23.348 12.2993 23.348 5.63261C 23.348 5.41597 23.348 5.19933 23.3376 4.98268C 24.3776 4.26382 25.2824 3.37755 26 2.37312C 25.0224 2.77686 23.9928 3.05259 22.932 3.17076C 24.0448 2.54052 24.8768 1.54593 25.272 0.374091C 24.2216 0.964936 23.0776 1.37853 21.8816 1.59517C 19.864 -0.443245 16.484 -0.541719 14.3312 1.37853C 12.948 2.60946 12.3552 4.45092 12.792 6.20376C 8.5176 5.99697 4.5136 4.07672 1.8096 0.925547C 0.3952 3.22984 1.1128 6.18407 3.4632 7.66118C 2.6104 7.64149 1.7888 7.42484 1.04 7.03095C 1.04 7.05064 1.04 7.07034 1.04 7.09003C 1.04 9.4928 2.8288 11.5608 5.3248 12.0433C 4.5344 12.2501 3.7128 12.2796 2.912 12.1319C 3.6088 14.19 5.616 15.5982 7.8936 15.6376C 6.0008 17.0458 3.6712 17.804 1.2688 17.804C 0.8424 17.804 0.416 17.7745 0 17.7351C 2.444 19.2221 5.2728 20 8.1744 20Z"/>
</defs>
</svg>
