<svg xmlns="http://www.w3.org/2000/svg" width="240" height="97.63" viewBox="0 0 240 97.63">
  <defs>
    <style>
      .cls-1 {
        fill: #fff;
      }

      .cls-1, .cls-2 {
        fill-rule: evenodd;
      }

      .cls-2 {
        fill: #ecb86f;
      }
    </style>
  </defs>
  <path class="cls-1" d="M66.73,4450.97c2.78,0,4.778-1.51,4.778-3.83v-0.04c0-2.07-1.44-3.19-4.561-3.83-3.1-.62-3.8-1.36-3.8-2.63v-0.04c0-1.24,1.14-2.19,2.98-2.19a6.333,6.333,0,0,1,4.037,1.47l0.916-1.18a7.423,7.423,0,0,0-4.911-1.66c-2.655,0-4.595,1.58-4.595,3.69v0.04c0,2.23,1.473,3.23,4.694,3.91,2.938,0.62,3.637,1.32,3.637,2.58v0.04c0,1.33-1.223,2.29-3.121,2.29a6.672,6.672,0,0,1-4.794-1.91l-0.982,1.12A8.243,8.243,0,0,0,66.73,4450.97Zm8.49-.2H76.8v-3.63l2.98-2.92,5.368,6.55H87.13l-6.251-7.62,5.993-5.92H84.833l-8.032,8.09v-8.09H75.219v13.54h0Zm15.007,0h1.582v-13.54H90.226v13.54Zm6.176,0h1.54v-11.1l9.031,11.1h1.257v-13.54h-1.54v10.86l-8.814-10.86H96.4v13.54Zm16.281,0H122.9v-1.39h-8.632v-4.74H121.9v-1.39h-7.633v-4.63H122.8v-1.39H112.683v13.54Zm12.826,0h1.823l4.47-5.82,4.478,5.82h1.881l-5.377-6.92,5.177-6.62h-1.839l-4.254,5.54-4.3-5.54h-1.856l5.177,6.64Zm16.048,0h1.573V4446h3.4c2.979,0,5.5-1.51,5.5-4.44v-0.04c0-2.66-2.08-4.29-5.235-4.29h-5.235v13.54h0Zm1.573-6.17v-5.95h3.537c2.264,0,3.762,1,3.762,2.94v0.04c0,1.78-1.523,2.97-3.837,2.97H143.13Zm12.268,6.17h10.213v-1.39H156.98v-4.74h7.632v-1.39H156.98v-4.63h8.531v-1.39H155.4v13.54Zm13.892,0h1.573v-5.26h4l4.062,5.26h1.94l-4.3-5.53c2.2-.42,3.8-1.7,3.8-3.95v-0.04a3.593,3.593,0,0,0-1.082-2.66,5.619,5.619,0,0,0-3.979-1.36H169.29v13.54h0Zm1.573-6.63v-5.49h4.32c2.256,0,3.571.98,3.571,2.67v0.04c0,1.73-1.515,2.78-3.6,2.78h-4.295Zm16.921,6.63h1.6v-12.12h4.7v-1.42h-11v1.42h4.695v12.12h0Zm14.308,0h6.476c3.113,0,5.177-1.29,5.177-3.71v-0.04c0-1.84-1.124-2.75-2.78-3.29a3.172,3.172,0,0,0,2-3.01v-0.04a3,3,0,0,0-.941-2.25,5.079,5.079,0,0,0-3.654-1.2h-6.276v13.54h0Zm2.422-7.83v-3.6h3.53c1.606,0,2.463.64,2.463,1.72v0.04c0,1.24-1.04,1.84-2.638,1.84h-3.355Zm0,5.73v-3.72h3.9c1.939,0,2.871.66,2.871,1.82v0.04c0,1.24-1.015,1.86-2.7,1.86h-4.071Zm12.5,2.1h9.813v-2.16h-7.357v-11.38h-2.456v13.54h0Zm18.7,0.23a7.068,7.068,0,0,0,7.332-6.79c0-.07,0-0.14,0-0.21v-0.04a6.975,6.975,0,0,0-7-6.96h-0.3a7.083,7.083,0,0,0-7.332,6.8c0,0.07,0,.13,0,0.2v0.04a6.969,6.969,0,0,0,7,6.96,1.444,1.444,0,0,0,.294,0h0Zm0.041-2.18a4.709,4.709,0,0,1-4.757-4.65c0-.05,0-0.11.005-0.17v-0.04a4.628,4.628,0,0,1,4.5-4.77h0.214a4.7,4.7,0,0,1,4.757,4.65c0,0.05,0,.11,0,0.16v0.04a4.616,4.616,0,0,1-4.5,4.77,1.526,1.526,0,0,1-.214.01h0Zm17.4,2.18a9.11,9.11,0,0,0,5.835-2.1v-5.69h-5.96v2.07h3.58v2.53a5.713,5.713,0,0,1-3.38,1.03,4.59,4.59,0,0,1-4.752-4.84v-0.04a4.651,4.651,0,0,1,4.536-4.77,5.533,5.533,0,0,1,3.912,1.45l1.565-1.8a7.694,7.694,0,0,0-5.377-1.84,7.015,7.015,0,0,0-7.218,6.79c0,0.07,0,.14,0,0.21v0.04a6.8,6.8,0,0,0,6.675,6.96,5.669,5.669,0,0,0,.583,0h0Z" transform="translate(-40 -4411)"/>
  <path id="icon" class="cls-2" d="M169.33,4493.39a0.993,0.993,0,0,0-1,.99v12.25H147v-21.19h12.331a0.99,0.99,0,1,0,0-1.98H145v25.15H170.33v-14.23a0.982,0.982,0,0,0-.98-0.99h-0.02Zm-5-11.59a1,1,0,1,0,0,1.99h4.261l-14.962,14.85a0.995,0.995,0,0,0,1.383,1.43l0.028-.03L170,4485.19v4.23a1,1,0,0,0,2,0v-7.62h-7.671Z" transform="translate(-40 -4411)"/>
  <path id="more" class="cls-1" d="M54.835,4422.88l-1.869.06q0-1.2.02-2.01t0.02-1.53v-6.01q0-.36-0.01-0.78c-0.007-.28-0.01-0.55-0.01-0.8l1.79-.02,0.02-.54q-0.616.015-1,.03h-1.12c-0.2,0-.428,0-0.686-0.02s-0.673-.01-1.243-0.01c-0.57,1.65-1.13,3.23-1.68,4.71s-1.09,2.98-1.621,4.46c-0.265-.79-0.56-1.63-0.885-2.54-0.325-.89-0.634-1.78-0.924-2.64q-0.339-1.02-.627-1.95c-0.192-.62-0.4-1.31-0.626-2.04H43.563c-0.225.01-.418,0.01-0.577,0.01s-0.3.01-.408,0.02H41.124q-0.388-.015-1-0.03l-0.02.54,1.909,0.02q0,0.585-.01,1.29t-0.01,1.47c0,0.51,0,1.02-.01,1.54s-0.01,1.03-.01,1.52v3.81a2.428,2.428,0,0,1-.1.65,0.9,0.9,0,0,1-.468.7,2.521,2.521,0,0,1-.944.15H40v0.54c0.53-.02.951-0.03,1.263-0.04s0.567-.01.766-0.01,0.388,0,.53.01,0.295,0.01.464,0.02,0.388,0.01.646,0.02h1.044v-0.54h-0.5a4.054,4.054,0,0,1-.7-0.06,0.885,0.885,0,0,1-.487-0.24,1.172,1.172,0,0,1-.288-0.54,3.537,3.537,0,0,1-.1-0.95v-1.73c0-.53,0-1.12.01-1.78s0.01-1.33.01-2.02v-3.77q0.2,0.57.417,1.23c0.146,0.45.312,0.94,0.5,1.48q0.318,0.96.646,1.98c0.219,0.67.434,1.34,0.646,1.98,0.345,1.05.663,1.98,0.945,2.79s0.533,1.53.746,2.17h0.378q0.219-.66.587-1.71t0.8-2.22c0.285-.8.583-1.6,0.9-2.42s0.6-1.59.865-2.31,0.5-1.34.7-1.87,0.338-.91.418-1.12c0,0.58.01,1.2,0.03,1.88s0.03,1.31.03,1.89c0,0.75-.007,1.52-0.02,2.3s-0.026,1.54-.04,2.26c-0.013.24-.02,0.48-0.02,0.71v2.07l-1.809.04v0.5c0.265-.01.5-0.01,0.706-0.01H50.6c0.318,0,.587,0,0.805-0.01s0.408-.01.567-0.01c0.133,0,.278,0,0.438.01s0.345,0.01.557,0.01,0.464,0,.756.01H54.8Zm7.269-11.45a0.538,0.538,0,0,0-.447-0.02,0.716,0.716,0,0,0-.338.31,2.775,2.775,0,0,0-.258.54l-0.915,2.36,0.318,0.18,1.65-2.08a0.964,0.964,0,0,0,.318-0.98,0.621,0.621,0,0,0-.328-0.31h0Zm0.368,9.48a2.8,2.8,0,0,1-.119.82,2.124,2.124,0,0,1-.368.72,1.913,1.913,0,0,1-.616.51,1.758,1.758,0,0,1-.845.19,1.99,1.99,0,0,1-.835-0.18,1.594,1.594,0,0,1-.657-0.6,3.262,3.262,0,0,1-.437-1.11,7.986,7.986,0,0,1-.159-1.75,5.182,5.182,0,0,1,.133-1.15,3.526,3.526,0,0,1,.388-1,2.232,2.232,0,0,1,.647-0.72,1.519,1.519,0,0,1,.9-0.27,2.112,2.112,0,0,1,.825.15,2.028,2.028,0,0,1,.616.38,1.858,1.858,0,0,1,.388.55,1.621,1.621,0,0,1,.139.65v2.81h0Zm2.585,1.24a1.183,1.183,0,0,1-.278.55,0.605,0.605,0,0,1-.4.24,0.31,0.31,0,0,1-.308-0.15,0.862,0.862,0,0,1-.066-0.36v-2.37l0.02-4.29h-0.4a3.3,3.3,0,0,1-.487.47,0.9,0.9,0,0,1-.508.15,1.088,1.088,0,0,1-.557-0.15c-0.172-.09-0.345-0.19-0.517-0.29a2.215,2.215,0,0,0-1.213-.28,3.413,3.413,0,0,0-1.412.31,3.841,3.841,0,0,0-1.2.86,4,4,0,0,0-.835,1.3,4.267,4.267,0,0,0-.308,1.64,5.213,5.213,0,0,0,.219,1.54,3.471,3.471,0,0,0,.663,1.25,3.017,3.017,0,0,0,1.133.84,3.835,3.835,0,0,0,1.641.3,2.868,2.868,0,0,0,1.789-.62,1.49,1.49,0,0,0,.4-0.41,0.91,0.91,0,0,0,.437.76,1.733,1.733,0,0,0,.836.24,1.816,1.816,0,0,0,1.173-.39,1.869,1.869,0,0,0,.636-1.01Zm7.974-4.97-0.02.37c-0.013.27-.026,0.59-0.04,0.99s-0.043.79-.09,1.21a11.3,11.3,0,0,1-.209,1.25,4.793,4.793,0,0,1-.388,1.12,2.305,2.305,0,0,1-.636.81,1.5,1.5,0,0,1-.964.31,1.441,1.441,0,0,1-1.1-.43,2.731,2.731,0,0,1-.616-1.11,6.837,6.837,0,0,1-.268-1.49c-0.04-.54-0.06-1.07-0.06-1.58v-1.45l2.267,0.01Zm-0.746-.54c-0.272.01-.54,0.01-0.805,0.01H69.043c-0.126,0-.262-0.01-0.408-0.02q0-.69.07-1.59a8.336,8.336,0,0,1,.3-1.68,3.888,3.888,0,0,1,.656-1.34,1.467,1.467,0,0,1,1.965-.3,1.38,1.38,0,0,1,.312.29,3.8,3.8,0,0,1,.676,1.33,8.826,8.826,0,0,1,.331,1.68c0.06,0.6.09,1.14,0.09,1.61-0.228,0-.477.01-0.748,0.01h0Zm2.187-1.6a7.387,7.387,0,0,0-.706-2.03,4.3,4.3,0,0,0-1.223-1.45,2.889,2.889,0,0,0-1.76-.56,3.018,3.018,0,0,0-1.78.54,4.252,4.252,0,0,0-1.233,1.42,6.951,6.951,0,0,0-.716,2.01,11.663,11.663,0,0,0-.229,2.32q0,0.51.06,1.2a11.126,11.126,0,0,0,.219,1.41,9.877,9.877,0,0,0,.427,1.42,4.609,4.609,0,0,0,.716,1.25,3.593,3.593,0,0,0,1.074.87,3.3,3.3,0,0,0,3.181-.21,3.911,3.911,0,0,0,1.214-1.36,7.169,7.169,0,0,0,.736-2.03,12.189,12.189,0,0,0,.022-4.8h0Zm4.385,4.45a2.478,2.478,0,0,0-.885.29,2.8,2.8,0,0,0-.606.49,1.943,1.943,0,0,0-.349.58,1.62,1.62,0,0,0-.109.57,1.782,1.782,0,0,0,.319,1.06,2.444,2.444,0,0,0,.815.73,3.837,3.837,0,0,0,1.094.43,5.578,5.578,0,0,0,1.153.13,5.064,5.064,0,0,0,2.039-.4,3.56,3.56,0,0,0,1.521-1.37l-0.338-.28a3.985,3.985,0,0,1-1.223,1.1,3.389,3.389,0,0,1-1.657.39,1.91,1.91,0,0,1-.746-0.15,1.756,1.756,0,0,1-.606-0.39,2.114,2.114,0,0,1-.408-0.59,1.882,1.882,0,0,1-.149-0.74,1.178,1.178,0,0,1,.676-1.16,3.849,3.849,0,0,1,1.671-.38,1.985,1.985,0,0,1,.487.01c0.152,0.03.288,0.05,0.408,0.08l0.04-.57q-0.417,0-.994-0.03a5.757,5.757,0,0,1-1.094-.19,2.378,2.378,0,0,1-.885-0.46,1.087,1.087,0,0,1-.368-0.88,1.124,1.124,0,0,1,.189-0.64,1.741,1.741,0,0,1,.487-0.48,2.485,2.485,0,0,1,.646-0.3,2.279,2.279,0,0,1,.687-0.1,3.212,3.212,0,0,1,.537.04,1.843,1.843,0,0,1,.517.2,0.452,0.452,0,0,1,.189.29,0.351,0.351,0,0,1-.089.31,1.407,1.407,0,0,0-.109.19,0.8,0.8,0,0,0-.066.36,0.78,0.78,0,0,0,.248.49,0.845,0.845,0,0,0,.646.22,0.777,0.777,0,0,0,.646-0.26,0.987,0.987,0,0,0,.209-0.64,1.245,1.245,0,0,0-.288-0.83,1.963,1.963,0,0,0-.729-0.53,3.958,3.958,0,0,0-.954-0.29,6.1,6.1,0,0,0-.955-0.08,4.668,4.668,0,0,0-1.054.12,3.775,3.775,0,0,0-1.034.39,2.594,2.594,0,0,0-.8.66,1.558,1.558,0,0,0-.318.98,1.423,1.423,0,0,0,.457,1.07,1.888,1.888,0,0,0,1.133.51v0.05h0Zm17.918,1.42a2.8,2.8,0,0,1-.119.82,2.125,2.125,0,0,1-.368.72,1.913,1.913,0,0,1-.616.51,1.758,1.758,0,0,1-.845.19,1.993,1.993,0,0,1-.836-0.18,1.594,1.594,0,0,1-.656-0.6,3.259,3.259,0,0,1-.437-1.11,7.974,7.974,0,0,1-.159-1.75,5.176,5.176,0,0,1,.133-1.15,3.529,3.529,0,0,1,.388-1,2.234,2.234,0,0,1,.646-0.72,1.522,1.522,0,0,1,.905-0.27,2.112,2.112,0,0,1,.825.15,2.027,2.027,0,0,1,.616.38,1.86,1.86,0,0,1,.388.55,1.622,1.622,0,0,1,.139.65v2.81h0Zm2.585,1.24a1.183,1.183,0,0,1-.278.55,0.605,0.605,0,0,1-.4.24,0.3,0.3,0,0,1-.308-0.15,0.828,0.828,0,0,1-.07-0.36v-2.37l0.02-4.29h-0.4a3.3,3.3,0,0,1-.488.47,0.9,0.9,0,0,1-.507.15,1.089,1.089,0,0,1-.557-0.15c-0.172-.09-0.345-0.19-0.517-0.29a2.307,2.307,0,0,0-1.213-.28,3.413,3.413,0,0,0-1.412.31,3.841,3.841,0,0,0-1.2.86,3.983,3.983,0,0,0-.835,1.3,4.265,4.265,0,0,0-.309,1.64,5.226,5.226,0,0,0,.219,1.54,3.475,3.475,0,0,0,.667,1.25,3.018,3.018,0,0,0,1.133.84,3.835,3.835,0,0,0,1.641.3,2.869,2.869,0,0,0,1.79-.62,1.49,1.49,0,0,0,.4-0.41,0.9,0.9,0,0,0,.447.76,1.7,1.7,0,0,0,.826.24,1.816,1.816,0,0,0,1.173-.39,1.87,1.87,0,0,0,.636-1.01Zm4.355,0.83c-0.013-.68-0.026-1.28-0.039-1.79s-0.02-1.03-.02-1.54q0-.8.02-1.68c0.013-.59.026-1.31,0.039-2.15l-0.119-.05c-0.384.07-.785,0.15-1.2,0.22s-0.958.16-1.621,0.23v0.43l1.293,0.02c0,0.29,0,.52.01,0.7s0.01,0.32.01,0.45,0,0.24.01,0.36,0.01,0.24.01,0.39v0.37c0,0.14-.008.32-0.02,0.51l-0.02.64c-0.014.45-.02,0.8-0.02,1.07v1.82l-1.353.01-0.02.49c0.438-.02.789-0.03,1.054-0.04s0.491-.01.677-0.01,0.345,0.01.477,0.01,0.282,0.01.448,0.02,0.367,0.01.606,0.02h0.934l0.02-.52Zm2.983-5.69a2.334,2.334,0,0,1,1.1-.7,2.184,2.184,0,0,1,.507-0.09c0.159-.01.312-0.02,0.458-0.02h0.457l0.02-.51-2.088.06-2.506-.08-0.02.53H105.4a0.765,0.765,0,0,1,.676.25,0.727,0.727,0,0,1-.338.77c-0.4.41-.759,0.79-1.084,1.12s-0.626.65-.905,0.97l2.9,3.39-0.974.01-0.02.49c0.49-.02.888-0.03,1.193-0.04s0.556-.01.755-0.01,0.365,0,.5.01l0.438,0.02c0.159,0.01.348,0.01,0.567,0.02h0.862l0.02-.52-1.213.02q-0.956-1.02-1.84-2.01c-0.59-.66-1.193-1.34-1.8-2.06Zm10.112-5.86a0.538,0.538,0,0,0-.447-0.02,0.714,0.714,0,0,0-.338.31,2.737,2.737,0,0,0-.259.54l-0.913,2.36,0.318,0.18,1.651-2.08a0.963,0.963,0,0,0,.318-0.98,0.62,0.62,0,0,0-.327-0.31h0Zm-0.239,5.16a2.461,2.461,0,0,1,.647.93,4.184,4.184,0,0,1,.265,1.16c0.033,0.41.049,0.75,0.049,1.04,0,0.32-.016.69-0.049,1.09a3.835,3.835,0,0,1-.265,1.14,2.308,2.308,0,0,1-.647.9,1.888,1.888,0,0,1-1.2.36,1.776,1.776,0,0,1-1.2-.38,2.425,2.425,0,0,1-.646-0.92,3.771,3.771,0,0,1-.265-1.13c-0.033-.41-0.05-0.76-0.05-1.06s0.017-.63.05-1.04a4.149,4.149,0,0,1,.265-1.16,2.448,2.448,0,0,1,.646-0.93,2.058,2.058,0,0,1,2.411,0H116.57Zm-2.724-.58a3.993,3.993,0,0,0-1.283,6.58,4.022,4.022,0,0,0,5.608,0,4.1,4.1,0,0,0,.885-1.27,3.841,3.841,0,0,0,.332-1.6,4.009,4.009,0,0,0-.318-1.6,4.076,4.076,0,0,0-.856-1.27,4.082,4.082,0,0,0-4.366-.84h0Zm9.963,8.58q0.011-.48.03-0.99a4.026,4.026,0,0,0,1.093.15,3.155,3.155,0,0,0,1.542-.34,9.918,9.918,0,0,0,1.163-.71l-0.02,1.01,0.119,0.06a8.811,8.811,0,0,1,1.353-.24c0.477-.04.955-0.08,1.432-0.1v-0.45h-1.313c0-.53,0-1.06-0.01-1.6s-0.01-1.09-.01-1.66c0-.64.007-1.27,0.02-1.9s0.02-1.25.02-1.87c-0.438.02-.759,0.03-0.965,0.03s-0.381.01-.527,0.01-0.284-.01-0.457-0.02-0.445-.02-0.815-0.02l-0.02.47,1.173,0.04c-0.013.34-.026,0.73-0.04,1.19s-0.019.88-.019,1.28c0,0.6.006,1.16,0.019,1.67s0.027,1,.04,1.44a5.1,5.1,0,0,1-1.014.73,2.415,2.415,0,0,1-1.233.34,1.34,1.34,0,0,1-1.362-.8,2.408,2.408,0,0,1-.179-0.78c-0.02-.29-0.03-0.57-0.03-0.85s-0.023-.59-0.03-0.94-0.01-.73-0.01-1.13c0-.48,0-0.96.01-1.44s0.017-.89.03-1.22q-0.417.03-.656,0.03c-0.159.01-.319,0.01-0.478,0.01s-0.348-.01-0.567-0.02-0.526-.02-0.924-0.02l-0.02.47,1.054,0.04v3.72c0,0.24,0,.48.01,0.7a3.481,3.481,0,0,0,.03.44q-0.021.75-.03,1.53c-0.007.51-.023,1.07-0.05,1.67-0.013.55-.007,1.05,0.02,1.49s0.046,0.93.06,1.49l-1.392.01v0.5q0.656-.045,1.064-0.06c0.271-.01.5-0.02,0.685-0.02s0.372,0.01.518,0.01,0.308,0.02.487,0.03,0.4,0.02.656,0.03,0.587,0.01.984,0.01l0.02-.53-1.332.02c-0.027-.28-0.053-0.58-0.079-0.92s-0.04-.69-0.04-1.08c-0.011-.29-0.015-0.59-0.007-0.91h0Zm11.068-8.84-0.1-.06c-0.212.05-.415,0.1-0.607,0.15s-0.4.1-.607,0.14-0.444.08-.7,0.12a8.518,8.518,0,0,1-.875.1v0.45l0.637-.02,0.656,0.02v4.75q-0.019.375-.02,0.66v0.51q0,0.42-1.352.39l-0.02.52c0.4-.02.712-0.03,0.944-0.04s0.421-.01.567-0.01,0.3,0,.428.01,0.281,0.01.464,0.02,0.424,0.01.716,0.02h1.173v-0.49l-1.292-.01c-0.014-.18-0.02-0.36-0.02-0.56v-4.41c0-.23.006-0.43,0.02-0.6a4.192,4.192,0,0,1,1-.75,2.479,2.479,0,0,1,1.223-.33,1.549,1.549,0,0,1,.895.22,1.334,1.334,0,0,1,.467.58,2.39,2.39,0,0,1,.179.78c0.02,0.29.037,0.58,0.05,0.85,0,0.33,0,.68.01,1.07s0.013,0.78.02,1.17,0.01,0.76.01,1.1a8.482,8.482,0,0,1-.04.88l-1.352-.02,0.02,0.52c0.4-.02.712-0.03,0.944-0.04s0.421-.01.567-0.01,0.275,0.01.388,0.01,0.258,0.01.437,0.02,0.411,0.01.7,0.02h1.143v-0.49l-1.273-.01c0.013-.33.02-0.64,0.02-0.95v-2.76a9.36,9.36,0,0,0-.09-1.3,3.3,3.3,0,0,0-.368-1.15,2.112,2.112,0,0,0-.825-0.82,3.039,3.039,0,0,0-1.458-.31,3.333,3.333,0,0,0-1.524.34,7.372,7.372,0,0,0-1.163.72v-1h0Zm23.207,7.24-1.272-.01c0-.31,0-0.77.01-1.36s0.01-1.21.01-1.86v-3.22l1.252-.02-0.02-.57H157.17c-0.12,0-.246.01-0.378,0.02h-0.457l-3,.06-2.307-.06c-0.186-.01-0.385-0.02-0.6-0.02H149.05a5.535,5.535,0,0,1-.586-0.02l-0.02.57,1.391,0.02c0,0.99,0,1.91-.009,2.75s-0.01,1.56-.01,2.13v1.58l-1.372-.02-0.02.52c0.318-.01.579-0.01,0.785-0.02s0.385-.01.537-0.01h0.447c0.146,0,.332,0,0.547.01s0.484,0.01.795,0.02h1.2v-0.49l-1.313-.01c-0.013-.18-0.02-0.36-0.02-0.56v-2.02c0-.27,0-0.59.01-0.95s0.01-.75.01-1.13,0-.72.01-1.05,0.01-.57.01-0.75h2.546l1.213,0.02c0.013,0.21.026,0.5,0.04,0.85s0.022,0.75.03,1.18,0.01,0.87.01,1.32v1.3c0,0.4,0,.76-0.01,1.08s-0.018.56-.03,0.71l-1.353-.02,0.02,0.52c0.331-.01.6-0.01,0.805-0.02s0.381-.01.531-0.01h0.417c0.211,0,.491,0,0.835.02s0.875,0.01,1.591.01v-0.49h-0.007Zm3.759-3.5a2.48,2.48,0,0,0-.885.29,2.823,2.823,0,0,0-.607.49,1.944,1.944,0,0,0-.347.58,1.627,1.627,0,0,0-.11.57,1.79,1.79,0,0,0,.318,1.06,2.453,2.453,0,0,0,.815.73,3.851,3.851,0,0,0,1.094.43,5.584,5.584,0,0,0,1.154.13,5.062,5.062,0,0,0,2.038-.4,3.568,3.568,0,0,0,1.524-1.37l-0.338-.28a3.987,3.987,0,0,1-1.223,1.1,3.391,3.391,0,0,1-1.657.39,1.912,1.912,0,0,1-.746-0.15,1.758,1.758,0,0,1-.607-0.39,2.1,2.1,0,0,1-.407-0.59,1.883,1.883,0,0,1-.15-0.74,1.178,1.178,0,0,1,.677-1.16,3.845,3.845,0,0,1,1.67-.38,1.983,1.983,0,0,1,.487.01c0.153,0.03.289,0.05,0.408,0.08l0.04-.57q-0.419,0-.994-0.03a5.759,5.759,0,0,1-1.094-.19,2.377,2.377,0,0,1-.885-0.46,1.086,1.086,0,0,1-.368-0.88,1.124,1.124,0,0,1,.189-0.64,1.727,1.727,0,0,1,.487-0.48,2.494,2.494,0,0,1,.647-0.3,2.274,2.274,0,0,1,.686-0.1,3.2,3.2,0,0,1,.536.04,1.839,1.839,0,0,1,.517.2,0.446,0.446,0,0,1,.189.29,0.352,0.352,0,0,1-.089.31,1.453,1.453,0,0,0-.11.19,0.812,0.812,0,0,0-.069.36,0.779,0.779,0,0,0,.248.49,0.847,0.847,0,0,0,.647.22,0.776,0.776,0,0,0,.646-0.26,0.985,0.985,0,0,0,.209-0.64,1.251,1.251,0,0,0-.288-0.83,1.967,1.967,0,0,0-.729-0.53,3.97,3.97,0,0,0-.954-0.29,6.113,6.113,0,0,0-.955-0.08,4.675,4.675,0,0,0-1.054.12,3.776,3.776,0,0,0-1.034.39,2.588,2.588,0,0,0-.795.66,1.56,1.56,0,0,0-.319.98,1.426,1.426,0,0,0,.458,1.07,1.887,1.887,0,0,0,1.133.51v0.05h0Zm11.186-2.9a2.286,2.286,0,0,1,.627.93,4.625,4.625,0,0,1,.248,1.16c0.033,0.41.05,0.75,0.05,1.04,0,0.32-.017.69-0.05,1.09a4.305,4.305,0,0,1-.248,1.14,2.1,2.1,0,0,1-.627.9,1.774,1.774,0,0,1-1.163.36,2.419,2.419,0,0,1-1.064-.22,1.779,1.779,0,0,1-.646-0.57,1.9,1.9,0,0,1-.318-0.78,4.641,4.641,0,0,1-.08-0.86v-1.06c0-.29.017-0.63,0.05-1.04a4.356,4.356,0,0,1,.258-1.16,2.389,2.389,0,0,1,.627-0.93,1.947,1.947,0,0,1,2.338,0h0Zm-4.036,11.42,0.825-.06,0.159-.19v-0.07c0-.01,0-0.06-0.01-0.16s-0.017-.22-0.03-0.4-0.023-.45-0.03-0.8-0.016-.8-0.03-1.35-0.026-1.22-.039-2.02a1.287,1.287,0,0,0,.407.34,2.926,2.926,0,0,0,.577.24,4.333,4.333,0,0,0,.617.16,3.331,3.331,0,0,0,.547.05,3.236,3.236,0,0,0,1.5-.34,4.027,4.027,0,0,0,1.193-.9,4.1,4.1,0,0,0,.785-1.31,4.378,4.378,0,0,0,.278-1.55,3.805,3.805,0,0,0-.357-1.68,4.174,4.174,0,0,0-.905-1.24,4,4,0,0,0-1.214-.76,3.719,3.719,0,0,0-1.282-.26,4.568,4.568,0,0,0-1.1.17,3.542,3.542,0,0,0-1.243.62,3.66,3.66,0,0,0-1.014,1.25,4.468,4.468,0,0,0-.418,2.06l-0.019,2.4,0.039,1.75v2.22c0,0.29,0,.58.01,0.86s0.016,0.59.03,0.91a2.961,2.961,0,0,0,.728.06h0Zm11.664-5.03c0-1.25.007-2.46,0.02-3.64s0.02-2.41.02-3.65l-0.1-.05a10.433,10.433,0,0,1-1.113.27c-0.437.08-1.028,0.15-1.77,0.24v0.42c0.252,0,.437.01,0.556,0.02h0.737c0,1.07,0,2.14-.01,3.19s-0.01,2.13-.01,3.2l-1.353.01-0.02.46c0.477,0,.865,0,1.164.01s0.54,0.01.726,0.01H180c0.225,0,.464,0,0.716.01s0.656,0.02,1.212.02l0.02-.54Zm6.959-7.03a4.142,4.142,0,0,0-2.8,1.09,3.793,3.793,0,0,0-.885,1.23,3.9,3.9,0,0,0,0,3.13,3.793,3.793,0,0,0,.885,1.23,4.17,4.17,0,0,0,1.283.81,4.1,4.1,0,0,0,3.042,0,4.17,4.17,0,0,0,1.283-.81,3.793,3.793,0,0,0,.885-1.23,3.753,3.753,0,0,0,.331-1.57,3.5,3.5,0,0,0-.537-1.95,4.005,4.005,0,0,0-1.431-1.33l1.372-.01,0.974-.02,0.02-.6-2.028.09Zm1.2,0.88a2.414,2.414,0,0,1,.647.89,3.816,3.816,0,0,1,.268,1.11c0.033,0.39.05,0.73,0.05,1q0,0.495-.05,1.08a3.569,3.569,0,0,1-.268,1.09,2.335,2.335,0,0,1-.647.86,2.216,2.216,0,0,1-2.406-.01,2.338,2.338,0,0,1-.647-0.89,3.643,3.643,0,0,1-.265-1.1c-0.033-.38-0.05-0.73-0.05-1.03,0-.27.017-0.61,0.05-1a3.779,3.779,0,0,1,.265-1.11,2.4,2.4,0,0,1,.647-0.89,2.154,2.154,0,0,1,2.407,0h0Zm8.919-.88a4.1,4.1,0,0,0-2.8,1.09,3.793,3.793,0,0,0-.885,1.23,3.9,3.9,0,0,0,0,3.13,3.793,3.793,0,0,0,.885,1.23,4.17,4.17,0,0,0,1.283.81,4.1,4.1,0,0,0,3.042,0,4.17,4.17,0,0,0,1.283-.81,3.793,3.793,0,0,0,.885-1.23,3.754,3.754,0,0,0,.332-1.57,3.509,3.509,0,0,0-.537-1.95,4.011,4.011,0,0,0-1.433-1.33l1.373-.01,0.974-.02,0.02-.6-2.028.09Zm1.2,0.88a2.4,2.4,0,0,1,.646.89,3.748,3.748,0,0,1,.265,1.11c0.034,0.39.05,0.73,0.05,1,0,0.33-.016.69-0.05,1.08a3.507,3.507,0,0,1-.265,1.09,2.322,2.322,0,0,1-.646.86,2.216,2.216,0,0,1-2.406-.01,2.348,2.348,0,0,1-.647-0.89,3.643,3.643,0,0,1-.265-1.1c-0.033-.38-0.049-0.73-0.049-1.03,0-.27.016-0.61,0.049-1a3.779,3.779,0,0,1,.265-1.11,2.414,2.414,0,0,1,.647-0.89,2.154,2.154,0,0,1,2.407,0h0Zm10.441-5.4a0.54,0.54,0,0,0-.448-0.02,0.723,0.723,0,0,0-.338.31,2.79,2.79,0,0,0-.258.54l-0.915,2.36,0.318,0.18,1.65-2.08a0.966,0.966,0,0,0,.319-0.98,0.623,0.623,0,0,0-.327-0.31h0Zm-0.239,5.16a2.448,2.448,0,0,1,.646.93,4.149,4.149,0,0,1,.265,1.16c0.033,0.41.05,0.75,0.05,1.04,0,0.32-.017.69-0.05,1.09a3.774,3.774,0,0,1-.265,1.14,2.3,2.3,0,0,1-.646.9,1.888,1.888,0,0,1-1.2.36,1.78,1.78,0,0,1-1.2-.38,2.436,2.436,0,0,1-.646-0.92,3.775,3.775,0,0,1-.268-1.13c-0.033-.41-0.05-0.76-0.05-1.06s0.017-.63.05-1.04a4.19,4.19,0,0,1,.268-1.16,2.47,2.47,0,0,1,.646-0.93,2.053,2.053,0,0,1,2.408,0h0Zm-2.725-.58a3.993,3.993,0,0,0-1.282,6.58,4.022,4.022,0,0,0,5.608,0,4.1,4.1,0,0,0,.885-1.27,3.856,3.856,0,0,0,.331-1.6,3.975,3.975,0,0,0-.318-1.6,4.056,4.056,0,0,0-.855-1.27,3.932,3.932,0,0,0-1.273-.84,4.2,4.2,0,0,0-1.571-.3,3.961,3.961,0,0,0-1.523.3h0Zm12.7,6.48a5.5,5.5,0,0,1-.537.31,1.522,1.522,0,0,1-.7.16,0.967,0.967,0,0,1-.676-0.23,1.268,1.268,0,0,1-.348-0.61,3.783,3.783,0,0,1-.13-0.9c-0.013-.33-0.019-0.7-0.019-1.09l0.059-3.61c0.186,0,.411,0,0.676-0.01s0.53-.01.8-0.01h0.934l0.02-.58q-0.537,0-1.363.03c-0.55.02-1.123,0.02-1.723,0.02-0.544,0-1.091,0-1.641-.02s-0.977-.04-1.282-0.05l-0.02.56,2.029,0.04-0.16,4.28a5.906,5.906,0,0,0,.01,1.03,2.134,2.134,0,0,0,.348,1,1.734,1.734,0,0,0,.905.69,3.441,3.441,0,0,0,.845.14,3.116,3.116,0,0,0,.805-0.1,3.756,3.756,0,0,0,.657-0.22,2.972,2.972,0,0,0,.487-0.28c0.133-.09.232-0.16,0.3-0.21Zm3.9-3a2.485,2.485,0,0,0-.886.29,2.817,2.817,0,0,0-.606.49,1.948,1.948,0,0,0-.348.58,1.6,1.6,0,0,0-.109.57,1.777,1.777,0,0,0,.318,1.06,2.453,2.453,0,0,0,.815.73,3.84,3.84,0,0,0,1.094.43,5.582,5.582,0,0,0,1.153.13,5.067,5.067,0,0,0,2.039-.4,3.56,3.56,0,0,0,1.521-1.37l-0.338-.29a3.9,3.9,0,0,1-1.223,1.11,3.4,3.4,0,0,1-1.661.39,1.9,1.9,0,0,1-.745-0.15,1.758,1.758,0,0,1-.607-0.39,2.1,2.1,0,0,1-.407-0.59,1.864,1.864,0,0,1-.149-0.74,1.177,1.177,0,0,1,.676-1.16,3.842,3.842,0,0,1,1.67-.38,1.992,1.992,0,0,1,.488.01c0.151,0.03.288,0.05,0.407,0.08l0.04-.57c-0.278,0-.61-0.01-0.994-0.03a5.759,5.759,0,0,1-1.094-.19,2.385,2.385,0,0,1-.885-0.46,1.085,1.085,0,0,1-.367-0.88,1.117,1.117,0,0,1,.189-0.64,1.727,1.727,0,0,1,.487-0.48,2.473,2.473,0,0,1,.646-0.3,2.274,2.274,0,0,1,.686-0.1,3.213,3.213,0,0,1,.537.04,1.851,1.851,0,0,1,.517.2,0.454,0.454,0,0,1,.189.29,0.352,0.352,0,0,1-.089.31,1.257,1.257,0,0,0-.11.19,0.785,0.785,0,0,0-.069.36,0.747,0.747,0,0,0,.248.49,0.845,0.845,0,0,0,.646.22,0.779,0.779,0,0,0,.647-0.26,0.99,0.99,0,0,0,.208-0.64,1.241,1.241,0,0,0-.288-0.83,1.956,1.956,0,0,0-.726-0.53,3.964,3.964,0,0,0-.955-0.29,6.09,6.09,0,0,0-.954-0.08,4.668,4.668,0,0,0-1.054.12,3.776,3.776,0,0,0-1.034.39,2.6,2.6,0,0,0-.8.66,1.559,1.559,0,0,0-.318.98,1.425,1.425,0,0,0,.457,1.07,1.89,1.89,0,0,0,1.134.51v0.05h0Zm11.186-2.9a2.306,2.306,0,0,1,.627.93,4.669,4.669,0,0,1,.248,1.16c0.033,0.41.05,0.75,0.05,1.04,0,0.32-.017.69-0.05,1.09a4.305,4.305,0,0,1-.248,1.14,2.014,2.014,0,0,1-.627.89,1.732,1.732,0,0,1-1.163.37,2.419,2.419,0,0,1-1.064-.22,1.787,1.787,0,0,1-.646-0.57,1.9,1.9,0,0,1-.318-0.78,4.641,4.641,0,0,1-.081-0.86v-1.06c0-.29.017-0.63,0.05-1.04a4.4,4.4,0,0,1,.259-1.16,2.389,2.389,0,0,1,.627-0.93,1.946,1.946,0,0,1,2.337,0h0Zm-4.037,11.42,0.826-.06,0.159-.19v-0.07c0-.01,0-0.06-0.01-0.16s-0.017-.22-0.03-0.4-0.024-.45-0.03-0.8-0.017-.8-0.03-1.35-0.027-1.22-.039-2.02a1.276,1.276,0,0,0,.407.34,2.926,2.926,0,0,0,.577.24,4.355,4.355,0,0,0,.616.16,3.331,3.331,0,0,0,.547.05,3.24,3.24,0,0,0,1.5-.34,3.865,3.865,0,0,0,1.193-.9,4.1,4.1,0,0,0,.785-1.31,4.378,4.378,0,0,0,.278-1.55,3.805,3.805,0,0,0-.357-1.68,4.174,4.174,0,0,0-.905-1.24,4,4,0,0,0-1.213-.76,3.73,3.73,0,0,0-1.283-.26,4.576,4.576,0,0,0-1.1.17,3.542,3.542,0,0,0-1.243.62,3.66,3.66,0,0,0-1.014,1.25,4.454,4.454,0,0,0-.417,2.06l-0.02,2.4,0.039,1.75v2.22c0,0.29,0,.57.01,0.86s0.017,0.59.03,0.91a2.953,2.953,0,0,0,.727.06h0Zm14.825-7.1a2.82,2.82,0,0,1-.119.82,2.119,2.119,0,0,1-.368.72,1.914,1.914,0,0,1-.616.51,1.758,1.758,0,0,1-.845.19,1.987,1.987,0,0,1-.835-0.18,1.588,1.588,0,0,1-.657-0.6,3.263,3.263,0,0,1-.438-1.11,8.041,8.041,0,0,1-.159-1.75,5.173,5.173,0,0,1,.13-1.15,3.519,3.519,0,0,1,.387-1,2.238,2.238,0,0,1,.647-0.72,1.519,1.519,0,0,1,.905-0.27,2.111,2.111,0,0,1,.825.15,2.014,2.014,0,0,1,.616.38,1.859,1.859,0,0,1,.388.55,1.617,1.617,0,0,1,.139.65v2.81h0Zm2.585,1.24a1.181,1.181,0,0,1-.278.55,0.607,0.607,0,0,1-.4.24,0.31,0.31,0,0,1-.308-0.15,0.855,0.855,0,0,1-.07-0.36v-2.37l0.02-4.29h-0.4a3.286,3.286,0,0,1-.487.47,0.9,0.9,0,0,1-.507.15,1.09,1.09,0,0,1-.557-0.15c-0.172-.09-0.345-0.19-0.517-0.29a2.217,2.217,0,0,0-1.213-.28,3.412,3.412,0,0,0-1.412.31,3.836,3.836,0,0,0-1.2.86,3.991,3.991,0,0,0-.835,1.3,4.248,4.248,0,0,0-.308,1.64,5.222,5.222,0,0,0,.218,1.54,3.474,3.474,0,0,0,.663,1.25,3.024,3.024,0,0,0,1.133.84,3.836,3.836,0,0,0,1.641.3,2.871,2.871,0,0,0,1.79-.62,1.489,1.489,0,0,0,.4-0.41,0.9,0.9,0,0,0,.449.76,1.692,1.692,0,0,0,.825.24,1.816,1.816,0,0,0,1.173-.39,1.867,1.867,0,0,0,.636-1.01Zm11.375-6.2a4.142,4.142,0,0,0-2.8,1.09,3.778,3.778,0,0,0-.885,1.23,3.892,3.892,0,0,0,0,3.13,3.778,3.778,0,0,0,.885,1.23,4.17,4.17,0,0,0,1.283.81,4.1,4.1,0,0,0,3.042,0,4.17,4.17,0,0,0,1.283-.81,3.793,3.793,0,0,0,.885-1.23,3.75,3.75,0,0,0,.328-1.57,3.509,3.509,0,0,0-.537-1.95,4,4,0,0,0-1.432-1.33l1.372-.01,0.975-.02,0.02-.6-2.029.09Zm1.2,0.88a2.414,2.414,0,0,1,.647.89,3.784,3.784,0,0,1,.268,1.11c0.033,0.39.05,0.73,0.05,1q0,0.495-.05,1.08a3.541,3.541,0,0,1-.268,1.09,2.335,2.335,0,0,1-.647.86,2.216,2.216,0,0,1-2.406-.01,2.335,2.335,0,0,1-.646-0.89,3.585,3.585,0,0,1-.265-1.1c-0.034-.38-0.05-0.73-0.05-1.03,0-.27.016-0.61,0.05-1a3.717,3.717,0,0,1,.265-1.11,2.4,2.4,0,0,1,.646-0.89,2.156,2.156,0,0,1,2.408,0h0Zm10.052,5.66a5.369,5.369,0,0,1-.536.31,1.522,1.522,0,0,1-.7.16,0.967,0.967,0,0,1-.676-0.23,1.268,1.268,0,0,1-.348-0.61,3.734,3.734,0,0,1-.133-0.9c-0.014-.33-0.02-0.7-0.02-1.09l0.06-3.61c0.186,0,.41,0,0.676-0.01s0.53-.01.8-0.01h0.935l0.02-.58q-0.537,0-1.362.03c-0.55.02-1.127,0.02-1.724,0.02-0.543,0-1.09,0-1.64-.02s-0.977-.04-1.282-0.05l-0.02.56,2.028,0.04-0.159,4.28a5.906,5.906,0,0,0,.01,1.03,2.123,2.123,0,0,0,.348,1,1.734,1.734,0,0,0,.905.69,3.441,3.441,0,0,0,.845.14,3.11,3.11,0,0,0,.805-0.1,3.718,3.718,0,0,0,.656-0.22,2.981,2.981,0,0,0,.488-0.28c0.132-.09.232-0.16,0.3-0.21Zm6.971-5.9a2.448,2.448,0,0,1,.646.93,4.184,4.184,0,0,1,.265,1.16c0.033,0.41.05,0.75,0.05,1.04,0,0.32-.017.69-0.05,1.09a3.8,3.8,0,0,1-.265,1.14,2.214,2.214,0,0,1-.646.89,1.839,1.839,0,0,1-1.2.37,1.78,1.78,0,0,1-1.2-.38,2.436,2.436,0,0,1-.646-0.92,3.775,3.775,0,0,1-.268-1.13c-0.034-.41-0.05-0.76-0.05-1.06s0.016-.63.05-1.04a4.155,4.155,0,0,1,.268-1.16,2.448,2.448,0,0,1,.646-0.93,2.055,2.055,0,0,1,2.409,0h0Zm-2.725-.58a3.993,3.993,0,0,0-1.282,6.58,4.022,4.022,0,0,0,5.608,0,4.115,4.115,0,0,0,.885-1.27,3.856,3.856,0,0,0,.331-1.6,3.975,3.975,0,0,0-.318-1.6,4.056,4.056,0,0,0-.855-1.27,4.084,4.084,0,0,0-4.367-.84h0Z" transform="translate(-40 -4411)"/>
</svg>
