<svg xmlns="http://www.w3.org/2000/svg" width="666.937" height="30.19" viewBox="0 0 666.937 30.19">
  <defs>
    <style>
      .cls-1 {
        fill: #fff;
      }

      .cls-1, .cls-2 {
        fill-rule: evenodd;
      }

      .cls-2 {
        fill: #ecb86f;
      }
    </style>
  </defs>
  <path id="SkinExpert_Blog_" data-name="SkinExpert Blog " class="cls-1" d="M1010.16,2046.17c3.34,0,5.74-1.9,5.74-4.81v-0.05c0-2.59-1.73-4-5.48-4.8-3.72-.78-4.56-1.7-4.56-3.3v-0.05c0-1.55,1.37-2.74,3.58-2.74a7.359,7.359,0,0,1,4.85,1.84l1.1-1.48a8.7,8.7,0,0,0-5.9-2.08c-3.19,0-5.52,1.98-5.52,4.63v0.05c0,2.79,1.77,4.05,5.64,4.9,3.53,0.78,4.37,1.65,4.37,3.23v0.05c0,1.67-1.47,2.88-3.75,2.88a7.836,7.836,0,0,1-5.76-2.4l-1.18,1.41A9.664,9.664,0,0,0,1010.16,2046.17Zm10.2-.25h1.9v-4.56l3.58-3.66,6.45,8.22h2.38l-7.51-9.56,7.2-7.42h-2.45l-9.65,10.14v-10.14h-1.9v16.98Zm18.03,0h1.9v-16.98h-1.9v16.98Zm7.42,0h1.85V2032l10.85,13.92h1.51v-16.98h-1.85v13.61l-10.59-13.61h-1.77v16.98Zm19.56,0h12.27v-1.74h-10.37v-5.95h9.17v-1.75h-9.17v-5.8h10.25v-1.74h-12.15v16.98Zm15.41,0h2.19l5.37-7.3,5.38,7.3h2.26l-6.46-8.68,6.22-8.3h-2.21l-5.11,6.94-5.17-6.94h-2.23l6.22,8.32Zm19.28,0h1.89v-5.99h4.08c3.58,0,6.61-1.89,6.61-5.56v-0.05c0-3.34-2.5-5.38-6.29-5.38h-6.29v16.98Zm1.89-7.74v-7.47h4.25c2.72,0,4.52,1.26,4.52,3.69v0.05c0,2.23-1.83,3.73-4.61,3.73h-4.16Zm14.74,7.74h12.27v-1.74h-10.37v-5.95h9.17v-1.75h-9.17v-5.8h10.25v-1.74h-12.15v16.98Zm16.69,0h1.89v-6.6h4.8l4.88,6.6h2.33l-5.17-6.94c2.64-.53,4.57-2.13,4.57-4.95v-0.05a4.617,4.617,0,0,0-1.3-3.34,6.546,6.546,0,0,0-4.78-1.7h-7.22v16.98Zm1.89-8.32v-6.89h5.19c2.71,0,4.29,1.24,4.29,3.35v0.05c0,2.18-1.82,3.49-4.32,3.49h-5.16Zm20.33,8.32h1.92v-15.21h5.65v-1.77h-13.21v1.77h5.64v15.21Zm17.19,0h7.78c3.74,0,6.22-1.62,6.22-4.66v-0.04c0-2.31-1.35-3.45-3.34-4.13a3.987,3.987,0,0,0,2.4-3.78v-0.05a3.845,3.845,0,0,0-1.13-2.82,5.938,5.938,0,0,0-4.39-1.5h-7.54v16.98Zm2.91-9.82v-4.52h4.24c1.93,0,2.96.8,2.96,2.16v0.05c0,1.55-1.25,2.31-3.17,2.31h-4.03Zm0,7.18v-4.66h4.68c2.33,0,3.45.82,3.45,2.28v0.05c0,1.55-1.22,2.33-3.24,2.33h-4.89Zm15.02,2.64h11.79v-2.71h-8.84v-14.27h-2.95v16.98Zm22.47,0.29a8.666,8.666,0,0,0,8.81-8.78v-0.05a8.57,8.57,0,0,0-8.76-8.73,8.666,8.666,0,0,0-8.81,8.78v0.05A8.57,8.57,0,0,0,1213.19,2046.21Zm0.05-2.74a5.773,5.773,0,0,1-5.71-6.04v-0.05a5.7,5.7,0,0,1,5.66-5.99,5.773,5.773,0,0,1,5.71,6.04v0.05A5.7,5.7,0,0,1,1213.24,2043.47Zm20.91,2.74a10.657,10.657,0,0,0,7.01-2.64v-7.13H1234v2.59h4.3v3.18a6.735,6.735,0,0,1-4.06,1.29c-3.43,0-5.71-2.58-5.71-6.07v-0.05a5.736,5.736,0,0,1,5.45-5.99,6.5,6.5,0,0,1,4.7,1.82l1.88-2.26a8.988,8.988,0,0,0-6.46-2.3,8.591,8.591,0,0,0-8.67,8.78v0.05A8.382,8.382,0,0,0,1234.15,2046.21Z" transform="translate(-629.063 -2023)"/>
  <path class="cls-2" d="M1293.33,2034.67a1,1,0,0,0-1,1V2048H1271v-21.33h12.33a1,1,0,0,0,0-2H1269V2050h25.33v-14.33A0.99,0.99,0,0,0,1293.33,2034.67Zm-5-11.67a1,1,0,0,0,0,2h4.26l-14.96,14.96a1,1,0,0,0,0,1.41,0.978,0.978,0,0,0,1.41,0l14.96-14.96v4.26a1,1,0,0,0,2,0V2023h-7.67Z" transform="translate(-629.063 -2023)"/>
  <path id="Μάθε_ακόμη_περισσότερα_στο_" data-name="Μάθε ακόμη περισσότερα στο " class="cls-1" d="M651.444,2044.95l-2.82.09q0-1.935.03-3.24t0.03-2.46v-9.67q0-.585-0.015-1.26-0.015-.69-0.015-1.29l2.7-.03,0.03-.88c-0.62.02-1.125,0.04-1.515,0.05s-0.725.01-1,.01h-0.69q-0.45,0-1.035-.03t-1.876-.03q-1.29,4.005-2.535,7.6t-2.446,7.17q-0.6-1.9-1.335-4.08c-0.49-1.44-.956-2.87-1.395-4.26-0.341-1.09-.656-2.14-0.946-3.14s-0.605-2.1-.945-3.29c-0.48,0-.89,0-1.23.01s-0.63.02-.87,0.02-0.446.01-.615,0.02-0.345.01-.525,0.01H631.73c-0.26,0-.585,0-0.975-0.01s-0.895-.03-1.515-0.05l-0.03.88,2.881,0.03c0,0.63-.006,1.32-0.015,2.08s-0.015,1.54-.015,2.36-0.006,1.65-.015,2.49-0.015,1.65-.015,2.44v6.14a4.2,4.2,0,0,1-.15,1.05,1.435,1.435,0,0,1-.706,1.12,3.485,3.485,0,0,1-1.425.24h-0.69v0.88c0.8-.04,1.435-0.06,1.905-0.07s0.856-.02,1.156-0.02c0.319,0,.585.01,0.8,0.02s0.445,0.02.7,0.03,0.585,0.02.975,0.03,0.915,0.01,1.575.01v-0.88h-0.75a5.407,5.407,0,0,1-1.05-.09,1.349,1.349,0,0,1-.735-0.39,1.973,1.973,0,0,1-.435-0.87,6.081,6.081,0,0,1-.15-1.53v-2.79c0-.85,0-1.8.015-2.86s0.015-2.15.015-3.26v-6.07c0.2,0.61.41,1.27,0.63,1.99s0.47,1.51.75,2.38q0.48,1.545.975,3.18c0.33,1.09.655,2.16,0.975,3.19,0.52,1.69,1,3.2,1.426,4.5s0.805,2.47,1.125,3.5h0.57q0.33-1.08.885-2.76c0.37-1.11.77-2.3,1.2-3.58s0.88-2.57,1.351-3.89,0.905-2.57,1.305-3.72,0.75-2.16,1.05-3.02,0.51-1.46.63-1.8q0,1.395.045,3.03c0.03,1.09.045,2.11,0.045,3.04,0,1.21-.01,2.45-0.03,3.71s-0.04,2.47-.06,3.63c-0.02.4-.03,0.78-0.03,1.15v3.33l-2.73.06v0.82q0.6-.03,1.065-0.03h0.795c0.48,0,.885,0,1.215-0.01s0.615-.02.856-0.02c0.2,0,.42.01,0.66,0.02s0.52,0.01.84,0.01,0.7,0.01,1.14.02,0.98,0.01,1.62.01Zm10.967-18.45a0.764,0.764,0,0,0-.675-0.02,1.087,1.087,0,0,0-.51.49,4.9,4.9,0,0,0-.39.88l-1.38,3.79,0.48,0.3,2.49-3.36a1.609,1.609,0,0,0,.48-1.58A1,1,0,0,0,662.411,2026.5Zm0.555,15.27a4.854,4.854,0,0,1-.18,1.33,3.659,3.659,0,0,1-.555,1.16,2.784,2.784,0,0,1-.93.81,2.535,2.535,0,0,1-1.275.31,2.774,2.774,0,0,1-1.26-.29,2.509,2.509,0,0,1-.991-0.96,5.508,5.508,0,0,1-.66-1.79,13.7,13.7,0,0,1-.24-2.82,8.875,8.875,0,0,1,.2-1.85,6.091,6.091,0,0,1,.585-1.62,3.543,3.543,0,0,1,.976-1.15,2.227,2.227,0,0,1,1.365-.44,3.106,3.106,0,0,1,1.245.24,2.967,2.967,0,0,1,.93.62,2.88,2.88,0,0,1,.585.88,2.733,2.733,0,0,1,.21,1.05v4.52Zm3.9,2a1.893,1.893,0,0,1-.42.88,0.88,0.88,0,0,1-.6.39,0.452,0.452,0,0,1-.465-0.24,1.432,1.432,0,0,1-.1-0.58v-3.82l0.03-6.91h-0.6a4.962,4.962,0,0,1-.735.76,1.228,1.228,0,0,1-.766.24,1.658,1.658,0,0,1-.84-0.23c-0.26-.15-0.52-0.31-0.78-0.47a3.129,3.129,0,0,0-1.83-.45,4.694,4.694,0,0,0-2.131.5,5.875,5.875,0,0,0-1.815,1.38,6.517,6.517,0,0,0-1.26,2.09,7.3,7.3,0,0,0-.465,2.64,8.992,8.992,0,0,0,.33,2.49,5.843,5.843,0,0,0,1,2.01,4.551,4.551,0,0,0,1.71,1.35,5.7,5.7,0,0,0,2.476.49,4.222,4.222,0,0,0,2.7-1,2.479,2.479,0,0,0,.6-0.67,1.484,1.484,0,0,0,.66,1.23,2.351,2.351,0,0,0,1.261.38,2.593,2.593,0,0,0,1.77-.63,2.973,2.973,0,0,0,.96-1.62Zm12.032-8.01-0.03.61c-0.02.42-.04,0.95-0.06,1.58s-0.065,1.28-.135,1.95a19.718,19.718,0,0,1-.315,2.02,8.09,8.09,0,0,1-.585,1.8,3.748,3.748,0,0,1-.96,1.31,2.178,2.178,0,0,1-1.455.5,2.094,2.094,0,0,1-1.666-.7,4.535,4.535,0,0,1-.93-1.79,11.454,11.454,0,0,1-.405-2.39q-0.09-1.305-.09-2.55v-2.34l3.421,0.03Zm-1.125-.86c-0.41.01-.815,0.01-1.215,0.01h-3.676q-0.285,0-.615-0.03c0-.74.035-1.6,0.105-2.56a14.33,14.33,0,0,1,.45-2.71,6.526,6.526,0,0,1,.99-2.16,2.124,2.124,0,0,1,3.436-.01,6.263,6.263,0,0,1,1.02,2.14,15.143,15.143,0,0,1,.5,2.71c0.09,0.96.135,1.83,0.135,2.59C678.559,2034.88,678.184,2034.89,677.774,2034.9Zm3.3-2.58a12.431,12.431,0,0,0-1.065-3.27,6.9,6.9,0,0,0-1.846-2.34,4.114,4.114,0,0,0-2.655-.89,4.253,4.253,0,0,0-2.686.86,6.743,6.743,0,0,0-1.86,2.29,11.8,11.8,0,0,0-1.08,3.24,20.007,20.007,0,0,0-.346,3.74q0,0.81.09,1.92a18.793,18.793,0,0,0,.331,2.28,16.827,16.827,0,0,0,.645,2.29,7.54,7.54,0,0,0,1.08,2,5.465,5.465,0,0,0,1.62,1.41,4.708,4.708,0,0,0,4.8-.34,6.247,6.247,0,0,0,1.831-2.19,12.143,12.143,0,0,0,1.11-3.27A20.931,20.931,0,0,0,681.075,2032.32Zm6.616,7.17a3.518,3.518,0,0,0-1.335.47,3.962,3.962,0,0,0-.915.79,2.977,2.977,0,0,0-.526.93,2.786,2.786,0,0,0-.165.91,2.981,2.981,0,0,0,.481,1.71,3.941,3.941,0,0,0,1.23,1.18,5.492,5.492,0,0,0,1.65.69,7.65,7.65,0,0,0,1.74.21,7.114,7.114,0,0,0,3.076-.65,5.483,5.483,0,0,0,2.295-2.2l-0.51-.46a6.211,6.211,0,0,1-1.845,1.78,4.824,4.824,0,0,1-2.5.62,2.83,2.83,0,0,1-1.126-.23,2.658,2.658,0,0,1-.915-0.64,3.049,3.049,0,0,1-.615-0.95,3.1,3.1,0,0,1-.225-1.18,1.949,1.949,0,0,1,1.02-1.88,5.709,5.709,0,0,1,2.521-.61,2.96,2.96,0,0,1,.735.03q0.345,0.06.615,0.12l0.06-.91q-0.63,0-1.5-.06a7.3,7.3,0,0,1-1.651-.3,3.434,3.434,0,0,1-1.335-.75,1.791,1.791,0,0,1-.555-1.41,1.924,1.924,0,0,1,.285-1.03,2.692,2.692,0,0,1,.735-0.77,3.571,3.571,0,0,1,.975-0.49,3.432,3.432,0,0,1,1.036-.16,4.3,4.3,0,0,1,.81.07,2.353,2.353,0,0,1,.78.32,0.711,0.711,0,0,1,.285.47,0.6,0.6,0,0,1-.135.5,3.079,3.079,0,0,0-.165.3,1.367,1.367,0,0,0-.1.58,1.269,1.269,0,0,0,.375.79,1.287,1.287,0,0,0,.975.36,1.14,1.14,0,0,0,.975-0.42,1.681,1.681,0,0,0,.315-1.03,2.093,2.093,0,0,0-.435-1.34,3.107,3.107,0,0,0-1.1-.86,5.921,5.921,0,0,0-1.44-.46,8.47,8.47,0,0,0-1.441-.13,7.022,7.022,0,0,0-1.59.19,5.613,5.613,0,0,0-1.56.63,3.973,3.973,0,0,0-1.2,1.07,2.583,2.583,0,0,0-.48,1.57,2.341,2.341,0,0,0,.69,1.72,2.767,2.767,0,0,0,1.71.82v0.09Zm27.035,2.28a4.854,4.854,0,0,1-.18,1.33,3.659,3.659,0,0,1-.555,1.16,2.784,2.784,0,0,1-.93.81,2.538,2.538,0,0,1-1.275.31,2.782,2.782,0,0,1-1.261-.29,2.513,2.513,0,0,1-.99-0.96,5.508,5.508,0,0,1-.66-1.79,13.7,13.7,0,0,1-.24-2.82,8.875,8.875,0,0,1,.2-1.85,6.091,6.091,0,0,1,.585-1.62,3.553,3.553,0,0,1,.975-1.15,2.23,2.23,0,0,1,1.366-.44,3.11,3.11,0,0,1,1.245.24,2.967,2.967,0,0,1,.93.62,2.88,2.88,0,0,1,.585.88,2.733,2.733,0,0,1,.21,1.05v4.52Zm3.9,2a1.893,1.893,0,0,1-.42.88,0.88,0.88,0,0,1-.6.39,0.452,0.452,0,0,1-.465-0.24,1.415,1.415,0,0,1-.105-0.58v-3.82l0.03-6.91h-0.6a4.961,4.961,0,0,1-.736.76,1.225,1.225,0,0,1-.765.24,1.658,1.658,0,0,1-.84-0.23c-0.26-.15-0.52-0.31-0.78-0.47a3.131,3.131,0,0,0-1.83-.45,4.694,4.694,0,0,0-2.131.5,5.875,5.875,0,0,0-1.815,1.38,6.481,6.481,0,0,0-1.26,2.09,7.3,7.3,0,0,0-.466,2.64,9.03,9.03,0,0,0,.33,2.49,5.844,5.844,0,0,0,1.006,2.01,4.551,4.551,0,0,0,1.71,1.35,5.694,5.694,0,0,0,2.476.49,4.224,4.224,0,0,0,2.7-1,2.479,2.479,0,0,0,.6-0.67,1.471,1.471,0,0,0,.675,1.23,2.377,2.377,0,0,0,1.246.38,2.593,2.593,0,0,0,1.77-.63,2.973,2.973,0,0,0,.96-1.62Zm6.571,1.33q-0.03-1.635-.06-2.88c-0.02-.83-0.03-1.65-0.03-2.48q0-1.275.03-2.7c0.02-.95.04-2.11,0.06-3.46l-0.18-.09q-0.87.18-1.815,0.36c-0.631.12-1.446,0.25-2.446,0.37v0.69l1.951,0.03c0,0.47,0,.84.015,1.13s0.015,0.52.015,0.72,0,0.4.015,0.58,0.015,0.39.015,0.64v0.59c0,0.23-.011.51-0.03,0.83l-0.03,1.03c-0.021.71-.03,1.28-0.03,1.72v2.92l-2.041.03-0.03.79c0.66-.04,1.19-0.06,1.59-0.07s0.74-.02,1.021-0.02,0.52,0.01.72,0.02,0.425,0.02.675,0.03,0.555,0.02.915,0.03,0.83,0.01,1.41.01l0.03-.85Zm4.5-9.15a3.436,3.436,0,0,1,1.665-1.13,3.819,3.819,0,0,1,.765-0.15q0.36-.03.691-0.03h0.69l0.03-.82-3.151.09-3.781-.12-0.03.85h1.171a1.1,1.1,0,0,1,1.02.41,1.19,1.19,0,0,1-.51,1.23q-0.9,1.005-1.636,1.8c-0.49.54-.945,1.06-1.365,1.57l4.381,5.45-1.47.03-0.03.79c0.739-.04,1.34-0.06,1.8-0.07s0.84-.02,1.14-0.02,0.55,0.01.75,0.02l0.66,0.03q0.361,0.015.856,0.03c0.33,0.01.765,0.01,1.3,0.01l0.03-.85-1.83.03c-0.961-1.09-1.886-2.16-2.776-3.23s-1.8-2.16-2.716-3.32Zm15.258-9.45a0.764,0.764,0,0,0-.675-0.02,1.082,1.082,0,0,0-.51.49,4.83,4.83,0,0,0-.39.88L742,2031.64l0.48,0.3,2.491-3.36a1.609,1.609,0,0,0,.48-1.58A1,1,0,0,0,744.957,2026.5Zm-0.36,8.31a3.98,3.98,0,0,1,.975,1.51,6.938,6.938,0,0,1,.4,1.87c0.05,0.65.075,1.2,0.075,1.67,0,0.52-.025,1.11-0.075,1.76a6.5,6.5,0,0,1-.4,1.83,3.577,3.577,0,0,1-.975,1.44,2.607,2.607,0,0,1-1.816.58,2.523,2.523,0,0,1-1.815-.61,3.829,3.829,0,0,1-.975-1.47,6.577,6.577,0,0,1-.4-1.83c-0.05-.65-0.075-1.22-0.075-1.7s0.025-1.02.075-1.67a6.938,6.938,0,0,1,.4-1.87,3.98,3.98,0,0,1,.975-1.51A2.968,2.968,0,0,1,744.6,2034.81Zm-4.111-.93a6.352,6.352,0,0,0-1.935,1.35,6.532,6.532,0,0,0-1.336,2.05,6.971,6.971,0,0,0,0,5.16,6.486,6.486,0,0,0,1.336,2.04,6.023,6.023,0,0,0,1.935,1.35,5.622,5.622,0,0,0,4.591,0,6.034,6.034,0,0,0,1.935-1.35,6.52,6.52,0,0,0,1.336-2.04,6.627,6.627,0,0,0,.5-2.58,6.827,6.827,0,0,0-.48-2.58,6.636,6.636,0,0,0-1.291-2.05,5.81,5.81,0,0,0-4.291-1.83A5.656,5.656,0,0,0,740.486,2033.88Zm15.033,13.82q0.015-.78.045-1.59a5.58,5.58,0,0,0,1.65.24,4.63,4.63,0,0,0,2.326-.55,14.1,14.1,0,0,0,1.755-1.15l-0.03,1.64,0.18,0.09a11.707,11.707,0,0,1,2.04-.38c0.72-.07,1.441-0.13,2.161-0.17v-0.73h-1.981c0-.84,0-1.7-0.015-2.57s-0.015-1.76-.015-2.67c0-1.03.01-2.05,0.03-3.07s0.03-2.01.03-3c-0.66.02-1.145,0.04-1.455,0.05s-0.575.01-.795,0.01q-0.3,0-.69-0.03c-0.26-.02-0.671-0.03-1.23-0.03l-0.03.76,1.77,0.06c-0.02.55-.04,1.18-0.06,1.91s-0.03,1.42-.03,2.06q0,1.455.03,2.7t0.06,2.31a7.92,7.92,0,0,1-1.53,1.18,3.588,3.588,0,0,1-1.861.55,2.006,2.006,0,0,1-2.055-1.29,4.149,4.149,0,0,1-.27-1.26c-0.03-.47-0.045-0.92-0.045-1.37-0.02-.44-0.035-0.95-0.045-1.51s-0.015-1.17-.015-1.82c0-.77,0-1.54.015-2.32s0.025-1.43.045-1.96c-0.42.02-.75,0.04-0.99,0.05s-0.481.01-.721,0.01-0.525-.01-0.855-0.03-0.795-.03-1.395-0.03l-0.03.76,1.59,0.06v5.98c0,0.4,0,.78.015,1.13a6.732,6.732,0,0,0,.045.72c-0.02.8-.035,1.62-0.045,2.45s-0.035,1.73-.075,2.7q-0.03,1.335.03,2.4c0.04,0.7.07,1.5,0.09,2.39l-2.1.03v0.79q0.99-.06,1.605-0.09t1.035-.03c0.3,0,.56.01,0.781,0.02s0.465,0.02.735,0.04,0.6,0.04.99,0.05,0.885,0.01,1.485.01l0.03-.85-2.01.03c-0.041-.44-0.08-0.93-0.12-1.47s-0.06-1.12-.06-1.74C755.514,2048.7,755.508,2048.21,755.519,2047.7Zm16.7-14.24-0.15-.09c-0.32.08-.626,0.16-0.915,0.24s-0.6.16-.916,0.23-0.67.13-1.05,0.19a13.279,13.279,0,0,1-1.32.16v0.72l0.96-.03,0.99,0.03v7.65c-0.02.4-.03,0.76-0.03,1.07v0.81q0,0.69-2.04.63l-0.03.85c0.6-.04,1.075-0.06,1.425-0.07s0.635-.02.855-0.02c0.24,0,.455.01,0.646,0.02s0.424,0.02.7,0.03,0.64,0.02,1.08.03,1.03,0.01,1.77.01v-0.79l-1.95-.03c-0.02-.28-0.03-0.58-0.03-0.89v-7.1c0-.37.01-0.7,0.03-0.98a6.8,6.8,0,0,1,1.515-1.2,3.573,3.573,0,0,1,1.846-.53,2.212,2.212,0,0,1,1.35.36,2.1,2.1,0,0,1,.705.93,4.021,4.021,0,0,1,.27,1.26c0.03,0.46.055,0.92,0.075,1.36,0,0.53,0,1.1.015,1.73s0.02,1.25.03,1.88,0.015,1.22.015,1.77a13.827,13.827,0,0,1-.06,1.41l-2.04-.03,0.03,0.85c0.6-.04,1.075-0.06,1.425-0.07s0.635-.02.855-0.02,0.415,0.01.585,0.02,0.39,0.02.66,0.03,0.62,0.02,1.051.03,1,0.01,1.725.01v-0.79l-1.921-.03q0.03-.78.031-1.53v-4.44a15.951,15.951,0,0,0-.136-2.09,5.56,5.56,0,0,0-.555-1.85,3.224,3.224,0,0,0-1.245-1.32,4.164,4.164,0,0,0-2.2-.5,4.774,4.774,0,0,0-2.3.54,11.609,11.609,0,0,0-1.755,1.16v-1.61Zm35.016,11.67-1.92-.03c0-.5,0-1.23.015-2.18s0.015-1.95.015-3v-5.19l1.89-.03-0.03-.91h-1.35c-0.18,0-.37.01-0.57,0.02s-0.43.01-.69,0.01l-4.531.09-3.481-.09q-0.42-.03-0.9-0.03H793.6q-0.466,0-.885-0.03l-0.03.91,2.1,0.03q0,2.4-.015,4.44t-0.015,3.42v2.54l-2.07-.03-0.03.85c0.48-.02.874-0.03,1.185-0.04s0.58-.02.81-0.02h0.675c0.22,0,.5.01,0.825,0.02s0.73,0.02,1.2.03,1.076,0.01,1.816.01v-0.79l-1.981-.03c-0.02-.28-0.03-0.58-0.03-0.89v-3.26q0-.645.015-1.53c0.01-.6.015-1.2,0.015-1.81s0-1.17.015-1.7,0.015-.92.015-1.21h3.841l1.831,0.03q0.029,0.525.06,1.38c0.019,0.58.034,1.21,0.045,1.9s0.015,1.39.015,2.12v2.09c0,0.65-.006,1.23-0.015,1.75s-0.026.89-.045,1.13l-2.041-.03,0.03,0.85c0.5-.02.9-0.03,1.215-0.04s0.575-.02.8-0.02h0.63c0.319,0,.74.01,1.26,0.03s1.32,0.03,2.4.03v-0.79Zm5.671-5.64a3.518,3.518,0,0,0-1.335.47,3.983,3.983,0,0,0-.915.79,2.993,2.993,0,0,0-.525.93,2.786,2.786,0,0,0-.165.91,2.988,2.988,0,0,0,.48,1.71,3.962,3.962,0,0,0,1.23,1.18,5.492,5.492,0,0,0,1.65.69,7.666,7.666,0,0,0,1.741.21,7.112,7.112,0,0,0,3.075-.65,5.485,5.485,0,0,0,2.3-2.2l-0.51-.46a6.2,6.2,0,0,1-1.846,1.78,4.821,4.821,0,0,1-2.5.62,2.822,2.822,0,0,1-1.125-.23,2.653,2.653,0,0,1-.916-0.64,3.049,3.049,0,0,1-.615-0.95,3.1,3.1,0,0,1-.225-1.18,1.948,1.948,0,0,1,1.021-1.88,5.7,5.7,0,0,1,2.52-.61,2.958,2.958,0,0,1,.735.03q0.345,0.06.615,0.12l0.06-.91q-0.63,0-1.5-.06a7.3,7.3,0,0,1-1.65-.3,3.431,3.431,0,0,1-1.336-.75,1.791,1.791,0,0,1-.555-1.41,1.924,1.924,0,0,1,.285-1.03,2.692,2.692,0,0,1,.735-0.77,3.577,3.577,0,0,1,.976-0.49,3.425,3.425,0,0,1,1.035-.16,4.284,4.284,0,0,1,.81.07,2.344,2.344,0,0,1,.78.32,0.711,0.711,0,0,1,.285.47,0.6,0.6,0,0,1-.135.5,3.079,3.079,0,0,0-.165.3,1.367,1.367,0,0,0-.105.58,1.269,1.269,0,0,0,.375.79,1.287,1.287,0,0,0,.975.36,1.141,1.141,0,0,0,.976-0.42,1.681,1.681,0,0,0,.315-1.03,2.1,2.1,0,0,0-.435-1.34,3.12,3.12,0,0,0-1.1-.86,5.921,5.921,0,0,0-1.44-.46,8.45,8.45,0,0,0-1.44-.13,7.016,7.016,0,0,0-1.59.19,5.607,5.607,0,0,0-1.561.63,3.985,3.985,0,0,0-1.2,1.07,2.59,2.59,0,0,0-.48,1.57,2.345,2.345,0,0,0,.69,1.72,2.767,2.767,0,0,0,1.71.82v0.09Zm16.879-4.68a3.7,3.7,0,0,1,.945,1.51,7.757,7.757,0,0,1,.375,1.87c0.05,0.65.075,1.2,0.075,1.67,0,0.52-.025,1.11-0.075,1.76a7.253,7.253,0,0,1-.375,1.83,3.33,3.33,0,0,1-.945,1.44,2.512,2.512,0,0,1-1.755.58,3.267,3.267,0,0,1-1.606-.35,2.756,2.756,0,0,1-.975-0.91,3.307,3.307,0,0,1-.48-1.26,8.155,8.155,0,0,1-.12-1.39v-1.7c0-.47.025-1.02,0.075-1.67a7.321,7.321,0,0,1,.39-1.87,3.917,3.917,0,0,1,.945-1.51A2.817,2.817,0,0,1,829.783,2034.81Zm-6.091,18.39q0.615-.03,1.245-0.09l0.24-.3v-0.11c0-.03,0-0.11-0.015-0.26s-0.025-.36-0.045-0.65-0.035-.72-0.045-1.29-0.025-1.29-.045-2.17-0.04-1.96-.06-3.26a1.848,1.848,0,0,0,.615.55,4.274,4.274,0,0,0,.87.39,6.389,6.389,0,0,0,.931.25,4.4,4.4,0,0,0,.825.09,4.713,4.713,0,0,0,2.265-.55,6.012,6.012,0,0,0,1.8-1.45,6.722,6.722,0,0,0,1.185-2.11,7.5,7.5,0,0,0,.42-2.5,6.444,6.444,0,0,0-.54-2.7,6.579,6.579,0,0,0-1.365-1.99,5.972,5.972,0,0,0-1.831-1.23,5.01,5.01,0,0,0-1.935-.42,6.409,6.409,0,0,0-1.666.27,5.27,5.27,0,0,0-1.875,1,5.886,5.886,0,0,0-1.53,2.02,7.558,7.558,0,0,0-.63,3.32l-0.03,3.85,0.06,2.82v3.58c0,0.47,0,.93.015,1.38s0.024,0.95.045,1.47A3.765,3.765,0,0,0,823.692,2053.2Zm17.6-8.1c0-2,.01-3.95.03-5.86s0.03-3.87.03-5.87l-0.15-.09a14.276,14.276,0,0,1-1.68.44c-0.66.13-1.551,0.25-2.671,0.38v0.69c0.38,0,.66.01,0.84,0.02s0.32,0.01.42,0.01H838.8c0,1.72-.006,3.44-0.015,5.14s-0.015,3.43-.015,5.14l-2.041.03-0.03.73c0.72,0,1.305.01,1.756,0.02s0.814,0.01,1.095.01h0.75q0.51,0,1.08.03t1.83,0.03l0.03-.88Zm10.5-11.31a6.022,6.022,0,0,0-4.231,1.75,6.117,6.117,0,0,0-1.335,1.98,6.662,6.662,0,0,0,0,5.04,6.117,6.117,0,0,0,1.335,1.98,6.238,6.238,0,0,0,1.936,1.31,5.838,5.838,0,0,0,4.59,0,6.249,6.249,0,0,0,1.936-1.31,6.117,6.117,0,0,0,1.335-1.98,6.33,6.33,0,0,0,.5-2.52,5.955,5.955,0,0,0-.81-3.15,6.121,6.121,0,0,0-2.16-2.13l2.07-.03,1.47-.03,0.03-.97-3.06.15Zm1.815,1.41a3.888,3.888,0,0,1,.976,1.44,6.452,6.452,0,0,1,.405,1.79c0.049,0.63.075,1.17,0.075,1.61,0,0.53-.026,1.1-0.075,1.73a6.017,6.017,0,0,1-.405,1.76,3.67,3.67,0,0,1-.976,1.38,2.7,2.7,0,0,1-1.815.56,2.6,2.6,0,0,1-1.815-.58,3.639,3.639,0,0,1-.976-1.42,6.314,6.314,0,0,1-.4-1.78c-0.05-.61-0.075-1.17-0.075-1.65,0-.44.025-0.98,0.075-1.61a6.382,6.382,0,0,1,.4-1.79,3.864,3.864,0,0,1,.976-1.44A3.087,3.087,0,0,1,853.607,2035.2Zm13.458-1.41a6.018,6.018,0,0,0-4.231,1.75,6.117,6.117,0,0,0-1.335,1.98,6.662,6.662,0,0,0,0,5.04,6.117,6.117,0,0,0,1.335,1.98,6.245,6.245,0,0,0,1.935,1.31,5.841,5.841,0,0,0,4.591,0,6.261,6.261,0,0,0,1.936-1.31,6.133,6.133,0,0,0,1.335-1.98,6.33,6.33,0,0,0,.5-2.52,5.955,5.955,0,0,0-.81-3.15,6.115,6.115,0,0,0-2.161-2.13l2.071-.03,1.47-.03,0.03-.97-3.06.15Zm1.815,1.41a3.874,3.874,0,0,1,.975,1.44,6.382,6.382,0,0,1,.4,1.79c0.05,0.63.075,1.17,0.075,1.61,0,0.53-.025,1.1-0.075,1.73a5.954,5.954,0,0,1-.4,1.76,3.656,3.656,0,0,1-.975,1.38,2.7,2.7,0,0,1-1.815.56,2.607,2.607,0,0,1-1.816-.58,3.647,3.647,0,0,1-.975-1.42,6.314,6.314,0,0,1-.4-1.78c-0.05-.61-0.075-1.17-0.075-1.65,0-.44.025-0.98,0.075-1.61a6.382,6.382,0,0,1,.4-1.79,3.874,3.874,0,0,1,.975-1.44A3.088,3.088,0,0,1,868.88,2035.2Zm15.753-8.7a0.764,0.764,0,0,0-.675-0.02,1.087,1.087,0,0,0-.51.49,4.9,4.9,0,0,0-.39.88l-1.38,3.79,0.48,0.3,2.49-3.36a1.609,1.609,0,0,0,.48-1.58A1,1,0,0,0,884.633,2026.5Zm-0.36,8.31a3.98,3.98,0,0,1,.975,1.51,6.938,6.938,0,0,1,.4,1.87c0.05,0.65.075,1.2,0.075,1.67,0,0.52-.025,1.11-0.075,1.76a6.5,6.5,0,0,1-.4,1.83,3.577,3.577,0,0,1-.975,1.44,2.6,2.6,0,0,1-1.815.58,2.526,2.526,0,0,1-1.816-.61,3.829,3.829,0,0,1-.975-1.47,6.577,6.577,0,0,1-.405-1.83c-0.05-.65-0.075-1.22-0.075-1.7s0.025-1.02.075-1.67a6.938,6.938,0,0,1,.405-1.87,3.98,3.98,0,0,1,.975-1.51A2.968,2.968,0,0,1,884.273,2034.81Zm-4.111-.93a6.364,6.364,0,0,0-1.935,1.35,6.547,6.547,0,0,0-1.335,2.05,6.958,6.958,0,0,0,0,5.16,6.5,6.5,0,0,0,1.335,2.04,6.034,6.034,0,0,0,1.935,1.35,5.622,5.622,0,0,0,4.591,0,6.049,6.049,0,0,0,1.936-1.35,6.518,6.518,0,0,0,1.335-2.04,6.627,6.627,0,0,0,.5-2.58,6.808,6.808,0,0,0-.48-2.58,6.615,6.615,0,0,0-1.29-2.05,5.971,5.971,0,0,0-1.921-1.35,5.907,5.907,0,0,0-2.37-.48A5.657,5.657,0,0,0,880.162,2033.88Zm19.159,10.44a8.724,8.724,0,0,1-.81.5,2.206,2.206,0,0,1-1.051.25,1.38,1.38,0,0,1-1.02-.36,2.13,2.13,0,0,1-.525-0.99,6.512,6.512,0,0,1-.195-1.44c-0.02-.54-0.03-1.13-0.03-1.76l0.09-5.82c0.28,0,.62,0,1.02-0.01s0.8-.02,1.2-0.02h1.41l0.03-.94c-0.54,0-1.226.02-2.056,0.05s-1.695.04-2.6,0.04c-0.821,0-1.646-.01-2.476-0.04s-1.475-.06-1.935-0.08l-0.03.91,3.061,0.06-0.24,6.89a10.054,10.054,0,0,0,.015,1.66,3.556,3.556,0,0,0,.525,1.61,2.573,2.573,0,0,0,1.365,1.11,4.727,4.727,0,0,0,1.275.23,4.253,4.253,0,0,0,1.215-.16,5.74,5.74,0,0,0,.991-0.36,4.5,4.5,0,0,0,.735-0.44c0.2-.15.35-0.27,0.45-0.35Zm5.881-4.83a3.517,3.517,0,0,0-1.336.47,3.983,3.983,0,0,0-.915.79,2.993,2.993,0,0,0-.525.93,2.786,2.786,0,0,0-.165.91,2.988,2.988,0,0,0,.48,1.71,3.962,3.962,0,0,0,1.23,1.18,5.5,5.5,0,0,0,1.651.69,7.65,7.65,0,0,0,1.74.21,7.12,7.12,0,0,0,3.076-.65,5.483,5.483,0,0,0,2.295-2.2l-0.51-.46a6.211,6.211,0,0,1-1.845,1.78,4.825,4.825,0,0,1-2.506.62,2.829,2.829,0,0,1-1.125-.23,2.658,2.658,0,0,1-.915-0.64,3.049,3.049,0,0,1-.615-0.95,3.1,3.1,0,0,1-.225-1.18,1.949,1.949,0,0,1,1.02-1.88,5.707,5.707,0,0,1,2.52-.61,2.968,2.968,0,0,1,.736.03c0.229,0.04.435,0.08,0.615,0.12l0.06-.91q-0.63,0-1.5-.06a7.3,7.3,0,0,1-1.65-.3,3.434,3.434,0,0,1-1.335-.75,1.787,1.787,0,0,1-.555-1.41,1.915,1.915,0,0,1,.285-1.03,2.692,2.692,0,0,1,.735-0.77,3.571,3.571,0,0,1,.975-0.49,3.43,3.43,0,0,1,1.035-.16,4.284,4.284,0,0,1,.81.07,2.357,2.357,0,0,1,.781.32,0.714,0.714,0,0,1,.285.47,0.6,0.6,0,0,1-.135.5,2.7,2.7,0,0,0-.165.3,1.352,1.352,0,0,0-.105.58,1.258,1.258,0,0,0,.375.79,1.285,1.285,0,0,0,.975.36,1.14,1.14,0,0,0,.975-0.42,1.681,1.681,0,0,0,.315-1.03,2.093,2.093,0,0,0-.435-1.34,3.107,3.107,0,0,0-1.095-.86,5.928,5.928,0,0,0-1.441-.46,8.45,8.45,0,0,0-1.44-.13,7.022,7.022,0,0,0-1.59.19,5.613,5.613,0,0,0-1.56.63,3.977,3.977,0,0,0-1.2,1.07,2.59,2.59,0,0,0-.48,1.57,2.345,2.345,0,0,0,.69,1.72,2.767,2.767,0,0,0,1.711.82v0.09Zm16.878-4.68a3.708,3.708,0,0,1,.946,1.51,7.805,7.805,0,0,1,.375,1.87c0.049,0.65.075,1.2,0.075,1.67,0,0.52-.026,1.11-0.075,1.76a7.3,7.3,0,0,1-.375,1.83,3.341,3.341,0,0,1-.946,1.44,2.512,2.512,0,0,1-1.755.58,3.263,3.263,0,0,1-1.605-.35,2.756,2.756,0,0,1-.975-0.91,3.291,3.291,0,0,1-.48-1.26,8.057,8.057,0,0,1-.121-1.39v-1.7c0-.47.025-1.02,0.075-1.67a7.323,7.323,0,0,1,.391-1.87,3.917,3.917,0,0,1,.945-1.51A2.815,2.815,0,0,1,922.08,2034.81Zm-6.091,18.39q0.615-.03,1.246-0.09l0.24-.3v-0.11c0-.03-0.006-0.11-0.015-0.26s-0.026-.36-0.045-0.65-0.036-.72-0.045-1.29-0.026-1.29-.045-2.17-0.041-1.96-.06-3.26a1.838,1.838,0,0,0,.615.55,4.249,4.249,0,0,0,.87.39,6.411,6.411,0,0,0,.93.25,4.4,4.4,0,0,0,.825.09,4.72,4.72,0,0,0,2.266-.55,6,6,0,0,0,1.8-1.45,6.7,6.7,0,0,0,1.185-2.11,7.5,7.5,0,0,0,.42-2.5,6.444,6.444,0,0,0-.54-2.7,6.562,6.562,0,0,0-1.365-1.99,5.968,5.968,0,0,0-1.83-1.23,5.018,5.018,0,0,0-1.936-.42,6.408,6.408,0,0,0-1.665.27,5.282,5.282,0,0,0-1.876,1,5.886,5.886,0,0,0-1.53,2.02,7.558,7.558,0,0,0-.63,3.32l-0.03,3.85,0.06,2.82v3.58q0,0.7.015,1.38,0.015,0.69.045,1.47A3.768,3.768,0,0,0,915.989,2053.2Zm22.369-11.43a4.854,4.854,0,0,1-.18,1.33,3.659,3.659,0,0,1-.555,1.16,2.784,2.784,0,0,1-.93.81,2.535,2.535,0,0,1-1.275.31,2.774,2.774,0,0,1-1.26-.29,2.509,2.509,0,0,1-.991-0.96,5.508,5.508,0,0,1-.66-1.79,13.7,13.7,0,0,1-.24-2.82,8.875,8.875,0,0,1,.195-1.85,6.091,6.091,0,0,1,.585-1.62,3.543,3.543,0,0,1,.976-1.15,2.227,2.227,0,0,1,1.365-.44,3.106,3.106,0,0,1,1.245.24,2.967,2.967,0,0,1,.93.62,2.88,2.88,0,0,1,.585.88,2.733,2.733,0,0,1,.21,1.05v4.52Zm3.9,2a1.893,1.893,0,0,1-.42.88,0.88,0.88,0,0,1-.6.39,0.452,0.452,0,0,1-.465-0.24,1.432,1.432,0,0,1-.105-0.58v-3.82l0.03-6.91h-0.6a4.962,4.962,0,0,1-.735.76,1.226,1.226,0,0,1-.766.24,1.658,1.658,0,0,1-.84-0.23c-0.26-.15-0.52-0.31-0.78-0.47a3.129,3.129,0,0,0-1.83-.45,4.694,4.694,0,0,0-2.131.5,5.875,5.875,0,0,0-1.815,1.38,6.517,6.517,0,0,0-1.26,2.09,7.3,7.3,0,0,0-.465,2.64,8.992,8.992,0,0,0,.33,2.49,5.843,5.843,0,0,0,1,2.01,4.551,4.551,0,0,0,1.71,1.35,5.7,5.7,0,0,0,2.476.49,4.222,4.222,0,0,0,2.7-1,2.479,2.479,0,0,0,.6-0.67,1.47,1.47,0,0,0,.676,1.23,2.373,2.373,0,0,0,1.245.38,2.593,2.593,0,0,0,1.77-.63,2.973,2.973,0,0,0,.96-1.62Zm17.163-9.98a6.022,6.022,0,0,0-4.231,1.75,6.117,6.117,0,0,0-1.335,1.98,6.662,6.662,0,0,0,0,5.04,6.117,6.117,0,0,0,1.335,1.98,6.238,6.238,0,0,0,1.936,1.31,5.841,5.841,0,0,0,4.591,0,6.245,6.245,0,0,0,1.935-1.31,6.117,6.117,0,0,0,1.335-1.98,6.33,6.33,0,0,0,.495-2.52,5.955,5.955,0,0,0-.81-3.15,6.121,6.121,0,0,0-2.16-2.13l2.07-.03,1.471-.03,0.03-.97-3.061.15Zm1.816,1.41a3.9,3.9,0,0,1,.975,1.44,6.382,6.382,0,0,1,.405,1.79c0.05,0.63.075,1.17,0.075,1.61,0,0.53-.025,1.1-0.075,1.73a5.954,5.954,0,0,1-.405,1.76,3.679,3.679,0,0,1-.975,1.38,2.7,2.7,0,0,1-1.816.56,2.6,2.6,0,0,1-1.815-.58,3.637,3.637,0,0,1-.975-1.42,6.246,6.246,0,0,1-.4-1.78c-0.051-.61-0.075-1.17-0.075-1.65,0-.44.024-0.98,0.075-1.61a6.313,6.313,0,0,1,.4-1.79,3.862,3.862,0,0,1,.975-1.44A3.088,3.088,0,0,1,961.238,2035.2Zm15.167,9.12a8.464,8.464,0,0,1-.81.5,2.2,2.2,0,0,1-1.05.25,1.38,1.38,0,0,1-1.02-.36,2.121,2.121,0,0,1-.525-0.99,6.453,6.453,0,0,1-.2-1.44c-0.021-.54-0.03-1.13-0.03-1.76l0.09-5.82c0.28,0,.619,0,1.02-0.01s0.8-.02,1.2-0.02h1.41l0.03-.94c-0.54,0-1.225.02-2.055,0.05s-1.7.04-2.6,0.04c-0.82,0-1.645-.01-2.475-0.04s-1.475-.06-1.935-0.08l-0.03.91,3.06,0.06-0.24,6.89a10.278,10.278,0,0,0,.015,1.66,3.568,3.568,0,0,0,.525,1.61,2.571,2.571,0,0,0,1.366,1.11,4.72,4.72,0,0,0,1.275.23,4.253,4.253,0,0,0,1.215-.16,5.7,5.7,0,0,0,.99-0.36,4.456,4.456,0,0,0,.735-0.44c0.2-.15.35-0.27,0.45-0.35Zm10.517-9.51a3.98,3.98,0,0,1,.975,1.51,6.938,6.938,0,0,1,.4,1.87c0.05,0.65.075,1.2,0.075,1.67,0,0.52-.025,1.11-0.075,1.76a6.5,6.5,0,0,1-.4,1.83,3.577,3.577,0,0,1-.975,1.44,2.6,2.6,0,0,1-1.815.58,2.526,2.526,0,0,1-1.816-.61,3.829,3.829,0,0,1-.975-1.47,6.577,6.577,0,0,1-.405-1.83c-0.05-.65-0.075-1.22-0.075-1.7s0.025-1.02.075-1.67a6.938,6.938,0,0,1,.405-1.87,3.98,3.98,0,0,1,.975-1.51A2.968,2.968,0,0,1,986.922,2034.81Zm-4.111-.93a6.364,6.364,0,0,0-1.935,1.35,6.547,6.547,0,0,0-1.335,2.05,6.971,6.971,0,0,0,0,5.16,6.5,6.5,0,0,0,1.335,2.04,6.034,6.034,0,0,0,1.935,1.35,5.622,5.622,0,0,0,4.591,0,6.049,6.049,0,0,0,1.936-1.35,6.518,6.518,0,0,0,1.335-2.04,6.627,6.627,0,0,0,.5-2.58,6.808,6.808,0,0,0-.48-2.58,6.615,6.615,0,0,0-1.29-2.05,5.815,5.815,0,0,0-4.291-1.83A5.661,5.661,0,0,0,982.811,2033.88Z" transform="translate(-629.063 -2023)"/>
</svg>
