<?xml version="1.0" encoding="utf-8"?>
<svg version="1.1" id="loreal_logo" xmlns="http://www.w3.org/2000/svg" xmlns:xlink="http://www.w3.org/1999/xlink" x="0px"
	 y="0px" viewBox="0 0 232.3 61.9" style="enable-background:new 0 0 232.3 61.9;" xml:space="preserve">

    <style>
      .logo-color {
        fill: #fff;
      }
    </style>
<g class='logo-color'>
	<g>
		<g>
			<g>
				<path d="M84.8,48.1h-8.4v13.4h2.5v-5.7h5.9c4.1,0,5.6-2.1,5.6-4C90.4,49.7,88.3,48.1,84.8,48.1z M83.9,54.3h-5v-4.6H84
					c2.1,0,3.7,0.5,3.7,2.2C87.8,53.7,86.2,54.3,83.9,54.3z"/>
				<path d="M128.7,61.4h-2.9L122,56c0-0.1-0.1-0.1-0.2-0.1h0.1c0,0-0.1,0-0.1,0h-5.1v5.7h-2.5V48.1h8.4c3.5,0,5.6,1.6,5.6,3.8
					c0,1.5-1,3.2-3.7,3.8L128.7,61.4z M116.6,54.3h5c2.3,0,3.8-0.6,3.8-2.4c0-1.7-1.6-2.2-3.7-2.2h-5.1V54.3z"/>
				<path d="M98.8,48.1L91,61.5h2.9l2.2-3.9h8.3l2.1,3.9h3.1L102,48.1H98.8z M97,56l3.3-5.9h0.1l3.1,5.9H97z"/>
				<path d="M153,54.3l-5.2-0.9c-1.1-0.2-2.1-0.6-2.1-1.7c0-2,2.6-2.4,4.1-2.4c2,0,4.4,0.7,4.5,2.7h2.3c-0.1-1.5-0.7-4.3-7.1-4.3
					c-4.4,0-6.2,2.1-6.2,4.1c0,2.3,2.7,2.9,3.9,3.2l3.7,0.6c3,0.5,3.9,1,3.9,2.4c0,1.9-3,2.3-4.7,2.3c-2.3,0-5-0.7-5-3.1h-2.3
					c0,1.3,0.3,2.4,1.8,3.4c0.8,0.5,2.1,1.3,5.5,1.3c3.1,0,7.1-0.9,7.1-4C157.1,55.7,155.3,54.7,153,54.3z"/>
				<rect x="134.6" y="48" width="2.4" height="2.4"/>
				<rect x="134.6" y="51.9" width="2.4" height="9.6"/>
			</g>
		</g>
	</g>
	<g>
		<polygon points="126.4,39.2 156.4,39.2 156.4,35.5 131.5,35.5 131.5,23.8 150.2,23.8 150.2,20.1 131.5,20.1 131.5,9.3 156.4,9.3 
			156.4,5.7 126.4,5.7 		"/>
		<polygon points="142,0.3 137.9,4.8 150.6,0.3 		"/>
		<polygon points="206.7,35.5 206.7,5.7 202,5.7 202,39.2 232.3,39.2 232.3,35.5 		"/>
		<path d="M175.8,5.7l-17,33.5h5.8l4.4-8.7h20.4l4.4,8.7h5.7L182.3,5.7H175.8z M171,26.3l8-16l8.1,16H171z"/>
		<path d="M110.1,25.2c7.7-2,8.4-7.8,8.4-9.8c-0.5-6-4.5-9.7-11.7-9.7H85.6v33.5h4.8V25.1h13.8l10.1,14.1h6.1
			C120.4,39.2,113.1,29.7,110.1,25.2z M106.1,21.2H90.4V9.6h16.2c3.7,0,5.8,1.7,6.6,4c0.5,1.5,0.2,3.5-0.6,4.9
			C111.2,20.7,108.7,21.2,106.1,21.2z"/>
		<path d="M56.7,0C43.1,0,33.8,9.6,33.8,21.2C33.8,33.4,44.1,42,56.7,42c12.6,0,22.9-8.5,22.9-20.8C79.5,9.6,70.1,0,56.7,0z
			 M56.5,37.9c-9.4,0-17.2-7.6-17.2-16.7c0-9.1,7.4-17,17.5-17c9.9,0,17.2,7.9,17.2,17C74,30.3,65.9,37.9,56.5,37.9z"/>
		<polygon points="21.7,17.5 25.2,17.5 31.5,5.7 26.4,5.7 		"/>
		<polygon points="4.7,35.5 4.7,5.7 0,5.7 0,39.2 30.3,39.2 30.3,35.5 		"/>
	</g>
</g>
</svg>
