<svg id="SALES" xmlns="http://www.w3.org/2000/svg" width="293" height="433" viewBox="0 0 293 433">
  <defs>
    <style>
      .cls-1 {
        fill: #eebf7d;
      }

      .cls-1, .cls-2 {
        fill-rule: evenodd;
      }
    </style>
  </defs>
  <path id="Shape_12_copy" data-name="Shape 12 copy" class="cls-1" d="M961,1021h-2V913h2v108Z" transform="translate(-821 -913)"/>
  <path id="Shape_12_copy_2" data-name="Shape 12 copy 2" class="cls-1" d="M961,1241h-2v-88h2v88Z" transform="translate(-821 -913)"/>
  <path id="Shape_12_copy_3" data-name="Shape 12 copy 3" class="cls-1" d="M961,1346h-2v-32h2v32Z" transform="translate(-821 -913)"/>
  <path class="cls-1" d="M948.1,1099.75a39.347,39.347,0,0,1-3.263,16.37,38.427,38.427,0,0,1-8.552,12.23,37.489,37.489,0,0,1-25.568,10.3,35.745,35.745,0,0,1-16.311-3.61,38.1,38.1,0,0,1-12.167-9.59,42.154,42.154,0,0,1-7.67-13.91,51.9,51.9,0,0,1-2.645-16.55,73.156,73.156,0,0,1,4.761-26.58,71.754,71.754,0,0,1,33.768-38.02,80.379,80.379,0,0,1,26.185-8.45l0.881,5.11q-20.279,3.525-31.3,15.4t-12.255,32.12a26.066,26.066,0,0,1,9.7-7.92,31.829,31.829,0,0,1,13.577-2.64,26.847,26.847,0,0,1,12.167,2.82,31.005,31.005,0,0,1,9.787,7.66,36.662,36.662,0,0,1,6.524,11.35A40.2,40.2,0,0,1,948.1,1099.75Zm-21.16,2.99q0-4.05-.265-9.51A45.634,45.634,0,0,0,925,1082.85a19.782,19.782,0,0,0-4.673-8.36q-3.264-3.435-9.257-3.44a12.209,12.209,0,0,0-9.258,3.61,22.668,22.668,0,0,0-5.113,8.72,48.658,48.658,0,0,0-2.205,10.47q-0.528,5.37-.529,8.89a84.037,84.037,0,0,0,.794,11.88,36.142,36.142,0,0,0,2.645,9.68,16.506,16.506,0,0,0,5.113,6.6,12.888,12.888,0,0,0,8.024,2.47q5.641,0,8.9-3a18.9,18.9,0,0,0,4.937-7.48,36.86,36.86,0,0,0,2.116-9.94Q926.939,1107.49,926.942,1102.74Zm107.908-20.6a80.929,80.929,0,0,1-2.64,20.51,64.214,64.214,0,0,1-7.76,18.22,42.98,42.98,0,0,1-12.69,13.11,33.178,33.178,0,0,1-35.1,0,42.918,42.918,0,0,1-12.7-13.11,62.454,62.454,0,0,1-7.67-18.22,82.813,82.813,0,0,1,0-40.84,65.247,65.247,0,0,1,7.582-18.3,42.76,42.76,0,0,1,12.608-13.3,31.141,31.141,0,0,1,17.809-5.1q10.758,0,18.512,5.1a40.155,40.155,0,0,1,12.61,13.3,63.017,63.017,0,0,1,7.14,18.3A91.712,91.712,0,0,1,1034.85,1082.14Zm-21.33,0a177.079,177.079,0,0,0-1.59-26.58q-1.59-10.035-4.23-15.4t-6.08-7.04a16.613,16.613,0,0,0-7.322-1.67,16.057,16.057,0,0,0-7.229,1.76q-3.529,1.755-6.172,7.13t-4.232,15.4a175.865,175.865,0,0,0-1.587,26.4q0,17.085,1.675,27.02t4.408,15.14c1.822,3.47,3.88,5.66,6.172,6.6a18.213,18.213,0,0,0,6.965,1.41,17.589,17.589,0,0,0,7.232-1.58q3.525-1.59,6.17-6.78t4.23-15.14Q1013.52,1098.865,1013.52,1082.14Zm33.36-47.58a13.245,13.245,0,0,1-.72,4.3,12.182,12.182,0,0,1-2.15,3.83,10.794,10.794,0,0,1-3.51,2.79,10.46,10.46,0,0,1-4.79,1.05,10.613,10.613,0,0,1-4.86-1.05,10.437,10.437,0,0,1-3.47-2.79,12.478,12.478,0,0,1-2.11-3.83,13.245,13.245,0,0,1-.72-4.3,14.53,14.53,0,0,1,.68-4.29,11.508,11.508,0,0,1,2.08-3.91,10.867,10.867,0,0,1,3.46-2.82,10.47,10.47,0,0,1,4.94-1.1,11.046,11.046,0,0,1,5.13,1.1,10.288,10.288,0,0,1,3.47,2.82,10.911,10.911,0,0,1,1.96,3.91A16.215,16.215,0,0,1,1046.88,1034.56Zm-5.89,0a25.669,25.669,0,0,0-.41-5.04,9.337,9.337,0,0,0-1.13-3.05,3.881,3.881,0,0,0-1.7-1.5,5.1,5.1,0,0,0-2.04-.42,4.53,4.53,0,0,0-1.99.45,4.263,4.263,0,0,0-1.7,1.62,9.5,9.5,0,0,0-1.17,3.09,29.126,29.126,0,0,0,.04,9.97,8.471,8.471,0,0,0,1.2,3.01,3.684,3.684,0,0,0,1.7,1.4,5.8,5.8,0,0,0,1.92.34,4.847,4.847,0,0,0,2-.42,4.109,4.109,0,0,0,1.7-1.5,8.588,8.588,0,0,0,1.17-3.01A24.641,24.641,0,0,0,1040.99,1034.56Zm-0.9,35.46h-3.4l21.95-46.67h3.24Zm33.63-11.37a13.781,13.781,0,0,1-.71,4.33,12.1,12.1,0,0,1-2.15,3.88,11.036,11.036,0,0,1-3.51,2.79,10.46,10.46,0,0,1-4.79,1.05,10.613,10.613,0,0,1-4.86-1.05,10.461,10.461,0,0,1-3.47-2.79,12.189,12.189,0,0,1-2.11-3.88,13.513,13.513,0,0,1-.72-4.33,14.53,14.53,0,0,1,.68-4.29,11.661,11.661,0,0,1,2.07-3.91,10.907,10.907,0,0,1,3.47-2.82,10.442,10.442,0,0,1,4.94-1.1,11.046,11.046,0,0,1,5.13,1.1,10.386,10.386,0,0,1,3.47,2.82,11.076,11.076,0,0,1,1.96,3.91A16.194,16.194,0,0,1,1073.72,1058.65Zm-5.88,0a25.669,25.669,0,0,0-.41-5.04,8.67,8.67,0,0,0-1.17-3.05,4.17,4.17,0,0,0-1.7-1.5,4.881,4.881,0,0,0-2-.42,4.377,4.377,0,0,0-2,.49,4.7,4.7,0,0,0-1.69,1.62,8.6,8.6,0,0,0-1.17,3.05,23.292,23.292,0,0,0-.42,4.85,24.132,24.132,0,0,0,.45,5.2,8.651,8.651,0,0,0,1.21,3.01,3.61,3.61,0,0,0,1.7,1.39,5.554,5.554,0,0,0,1.92.34,5.04,5.04,0,0,0,2-.41,4.109,4.109,0,0,0,1.7-1.55,8.932,8.932,0,0,0,1.17-3.04A24.641,24.641,0,0,0,1067.84,1058.65Zm-27.61,52.11a2.157,2.157,0,0,1-2.01-1.98c0-1.84,1.99-2.58,3.99-2.58a5.576,5.576,0,0,1,3.97,1.41c-0.18.21-.72,0.77-0.83,0.9a4.556,4.556,0,0,0-3.18-1.14c-1.26,0-2.5.38-2.5,1.55,0,0.76.77,1.39,2.23,1.39h1.93v1.04h-2.02c-1.46,0-2.56.58-2.56,1.69,0,1.32,1.36,1.73,2.94,1.73a5.058,5.058,0,0,0,3.43-1.38l0.79,0.84a6.047,6.047,0,0,1-4.25,1.71c-2.56,0-4.33-.75-4.33-2.77a2.669,2.669,0,0,1,2.4-2.38v-0.03Zm3.08-8.37,1.44,0.66-2.04,1.95h-1.11Zm5.59,4.01h1.39v5.24l5.03-5.24h1.73l-3.91,4,4.03,5.31h-1.65l-3.34-4.34-1.89,1.91v2.43h-1.39v-9.31Zm10.43,0h7.92v9.31h-1.39v-8.14h-5.14v8.14h-1.39v-9.31Zm13.15,1.23h-3v-1.23h7.36v1.23h-2.97v8.08h-1.39v-8.08Zm14.84,8.29a2.962,2.962,0,0,0-5.61,0c-2.27,0-3.61-1.63-3.61-4.62,0-3.04,1.8-5.02,4.11-5.1v1.25c-2.02.19-2.68,2.28-2.68,3.88,0,2.18.77,3.37,2.23,3.37,1.1,0,2.08-.74,2.08-2.7v-2.95h1.37V1112c0,1.94.97,2.7,2.05,2.7,1.48,0,2.26-1.19,2.26-3.37,0-1.6-.69-3.69-2.71-3.88v-1.25c2.36,0.09,4.13,2.04,4.13,5.1C1090.94,1114.29,1089.52,1115.92,1087.32,1115.92Zm15.91-8.33h-2.75a3.707,3.707,0,0,1,2.27,3.53,4.683,4.683,0,0,1-4.8,4.8,4.749,4.749,0,0,1-4.87-4.8,4.672,4.672,0,0,1,4.89-4.72h5.26v1.19Zm-1.92,3.49a3.4,3.4,0,1,0-6.8.02,3.439,3.439,0,0,0,3.46,3.58A3.331,3.331,0,0,0,1101.31,1111.08Zm4.54-4.68h1.38v1.62a3.545,3.545,0,0,1,3.2-1.82,3.409,3.409,0,0,1,3.57,3.73v5.78h-1.39v-5.44c0-1.73-.94-2.81-2.58-2.81a2.743,2.743,0,0,0-2.8,2.92v5.33h-1.38v-9.31Zm-75.59,24.7v-0.04a4.86,4.86,0,0,1,9.72-.04v0.04a4.827,4.827,0,0,1-4.89,4.86A4.768,4.768,0,0,1,1030.26,1131.1Zm8.29,0v-0.04a3.528,3.528,0,0,0-3.46-3.64,3.44,3.44,0,0,0-3.41,3.6v0.04a3.5,3.5,0,0,0,3.45,3.62A3.449,3.449,0,0,0,1038.55,1131.1Zm4.11-4.7h1.39v1.62a3.552,3.552,0,0,1,3.19-1.82,3.409,3.409,0,0,1,3.57,3.73v5.77h-1.39v-5.43c0-1.73-.92-2.81-2.58-2.81a2.74,2.74,0,0,0-2.79,2.92v5.32h-1.39v-9.3Zm11.41-3.84h1.39v13.14h-1.39v-13.14Zm4.83,0.27h1.59v1.53h-1.59v-1.53Zm0.09,3.57h1.39v9.3h-1.39v-9.3Zm4.8,0h1.39v1.62a3.54,3.54,0,0,1,3.19-1.82,3.414,3.414,0,0,1,3.57,3.73v5.77h-1.39v-5.43c0-1.73-.92-2.81-2.58-2.81a2.74,2.74,0,0,0-2.79,2.92v5.32h-1.39v-9.3Zm12.11,5.22a3.252,3.252,0,0,0,3.28,3.09,3.855,3.855,0,0,0,2.94-1.31l0.87,0.77a4.725,4.725,0,0,1-3.84,1.75,4.643,4.643,0,0,1-4.65-4.86,4.584,4.584,0,0,1,4.47-4.86c2.76,0,4.34,2.2,4.34,4.93v0.22c0,0.07,0,.16-0.01.27h-7.4Zm6.01-1.12c-0.15-1.67-1.16-3.13-2.98-3.13a3.233,3.233,0,0,0-3.03,3.13h6.01ZM829.025,1022.45a4.186,4.186,0,0,1-3.571,2.07A4.539,4.539,0,0,1,821,1019.7v-0.04a4.57,4.57,0,0,1,4.454-4.84,4.2,4.2,0,0,1,3.571,1.98v-1.79h1.388v9.31h-1.388v-1.87Zm0.054-2.77v-0.04a3.461,3.461,0,0,0-3.373-3.58,3.284,3.284,0,0,0-3.281,3.58v0.04a3.357,3.357,0,0,0,3.281,3.6A3.479,3.479,0,0,0,829.079,1019.68Zm3.693-4.67h1.533l3.137,7.8,3.156-7.8h1.5l-3.968,9.28v2.91h-1.388v-2.91Zm10.564,4.7v-0.03a4.86,4.86,0,0,1,9.719-.04v0.04a4.835,4.835,0,0,1-4.886,4.86A4.775,4.775,0,0,1,843.336,1019.71Zm8.295,0v-0.03a3.527,3.527,0,0,0-3.462-3.64,3.439,3.439,0,0,0-3.409,3.6v0.04a3.5,3.5,0,0,0,3.444,3.62A3.439,3.439,0,0,0,851.631,1019.71Zm-2.344-8.71,1.442,0.67-2.038,1.94h-1.118Zm7.408,16.2h-1.371v-7.5a4.562,4.562,0,0,1,4.761-4.88,4.514,4.514,0,0,1,4.634,4.82,4.649,4.649,0,0,1-4.544,4.88,3.944,3.944,0,0,1-3.48-1.91v4.59Zm6.6-7.5c0-2.26-1.353-3.71-3.282-3.71a3.689,3.689,0,0,0,0,7.34C861.852,1023.33,863.3,1021.98,863.3,1019.7Zm11.609,2.75a4.183,4.183,0,0,1-3.571,2.07,4.54,4.54,0,0,1-4.454-4.82v-0.04a4.57,4.57,0,0,1,4.454-4.84,4.193,4.193,0,0,1,3.571,1.98v-1.79h1.389v9.31H874.9v-1.87Zm0.054-2.77v-0.04a3.461,3.461,0,0,0-3.372-3.58,3.285,3.285,0,0,0-3.282,3.58v0.04a3.357,3.357,0,0,0,3.282,3.6A3.479,3.479,0,0,0,874.958,1019.68Zm14.188-3.48h-2.759a3.717,3.717,0,0,1,2.272,3.53,4.686,4.686,0,0,1-4.8,4.81,4.756,4.756,0,0,1-4.868-4.81,4.668,4.668,0,0,1,4.887-4.72h5.265v1.19Zm-1.929,3.5a3.4,3.4,0,1,0-6.8.01,3.446,3.446,0,0,0,3.463,3.59A3.328,3.328,0,0,0,887.217,1019.7Zm6.272-.33a2.142,2.142,0,0,1-2-1.98c0-1.84,1.984-2.57,3.986-2.57a5.561,5.561,0,0,1,3.967,1.4c-0.18.22-.722,0.77-0.83,0.9a4.543,4.543,0,0,0-3.174-1.13c-1.262,0-2.506.38-2.506,1.54,0,0.76.775,1.39,2.236,1.39h1.93v1.04h-2.02c-1.461,0-2.561.58-2.561,1.7,0,1.31,1.353,1.73,2.939,1.73a5.063,5.063,0,0,0,3.427-1.39l0.793,0.85a6.086,6.086,0,0,1-4.256,1.71c-2.56,0-4.328-.76-4.328-2.78a2.661,2.661,0,0,1,2.4-2.37v-0.04Zm-55.2,16.87H835.3v-1.23h7.358v1.23h-2.976v8.08h-1.388v-8.08Zm13.684,6.21a4.2,4.2,0,0,1-3.57,2.07,4.548,4.548,0,0,1-4.454-4.83v-0.03a4.573,4.573,0,0,1,4.454-4.85,4.215,4.215,0,0,1,3.57,1.98v-1.78h1.389v9.31h-1.389v-1.87Zm0.055-2.78v-0.03a3.464,3.464,0,0,0-3.373-3.59,3.294,3.294,0,0,0-3.282,3.59v0.03a3.351,3.351,0,0,0,3.282,3.6A3.473,3.473,0,0,0,852.028,1039.67Zm10.2,7.53v-12.19h1.389v5.24a2.777,2.777,0,0,0,2.651,3.01,2.747,2.747,0,0,0,2.723-2.92v-5.33h1.388v9.31h-1.388v-1.62a3.071,3.071,0,0,1-2.705,1.78,3.014,3.014,0,0,1-2.669-1.73v4.45h-1.389Zm13.233-7.83a2.149,2.149,0,0,1-2-1.98c0-1.84,1.983-2.58,3.985-2.58a5.561,5.561,0,0,1,3.967,1.41c-0.18.21-.721,0.77-0.829,0.9a4.505,4.505,0,0,0-3.174-1.14c-1.262,0-2.507.38-2.507,1.55,0,0.76.776,1.39,2.236,1.39h1.93v1.04h-2.02c-1.46,0-2.561.58-2.561,1.69,0,1.32,1.353,1.73,2.94,1.73a5.053,5.053,0,0,0,3.426-1.38l0.794,0.84a6.045,6.045,0,0,1-4.256,1.71c-2.561,0-4.328-.75-4.328-2.77a2.669,2.669,0,0,1,2.4-2.38v-0.03Z" transform="translate(-821 -913)"/>
  <path id="σου_προτείνουμε_επίσης" data-name="σου προτείνουμε επίσης" class="cls-2" d="M867.193,1263.57a5.98,5.98,0,0,0-2.295.45,6.13,6.13,0,0,0-1.935,1.27,6.294,6.294,0,0,0-1.335,1.97,6.51,6.51,0,0,0,0,4.98,6.028,6.028,0,0,0,1.335,1.96,6,6,0,0,0,8.46,0,6.028,6.028,0,0,0,1.335-1.96,6.184,6.184,0,0,0,.5-2.49,5.847,5.847,0,0,0-.81-3.12,6.038,6.038,0,0,0-2.16-2.1l2.07-.03,1.47-.03,0.03-.96-3.06.15Zm1.815,1.39a3.758,3.758,0,0,1,.975,1.43,6.169,6.169,0,0,1,.405,1.77q0.075,0.93.075,1.59,0,0.78-.075,1.71a5.824,5.824,0,0,1-.405,1.74,3.439,3.439,0,0,1-.975,1.36,3.2,3.2,0,0,1-3.63-.01,3.612,3.612,0,0,1-.975-1.41,6.1,6.1,0,0,1-.4-1.76c-0.05-.6-0.075-1.15-0.075-1.63q0-.66.075-1.59a6.169,6.169,0,0,1,.4-1.77,3.758,3.758,0,0,1,.975-1.43A3.13,3.13,0,0,1,869.008,1264.96Zm14.67-.39a4.114,4.114,0,0,1,.975,1.5,6.879,6.879,0,0,1,.4,1.85c0.049,0.64.075,1.19,0.075,1.65q0,0.78-.075,1.74a6.362,6.362,0,0,1-.4,1.81,3.621,3.621,0,0,1-.975,1.43,2.652,2.652,0,0,1-1.815.57,2.564,2.564,0,0,1-1.815-.6,3.857,3.857,0,0,1-.975-1.46,6.3,6.3,0,0,1-.4-1.81q-0.075-.96-0.075-1.68,0-.69.075-1.65a6.8,6.8,0,0,1,.4-1.85,4.089,4.089,0,0,1,.975-1.5A3.005,3.005,0,0,1,883.678,1264.57Zm-4.11-.91a6.113,6.113,0,0,0-1.935,1.33,6.578,6.578,0,0,0,0,9.15,6.142,6.142,0,0,0,1.935,1.34,5.726,5.726,0,0,0,4.59,0,6.165,6.165,0,0,0,1.935-1.34,6.439,6.439,0,0,0,1.83-4.57,6.673,6.673,0,0,0-.48-2.55,6.518,6.518,0,0,0-1.29-2.03,5.763,5.763,0,0,0-1.92-1.33,5.907,5.907,0,0,0-2.37-.48A5.656,5.656,0,0,0,879.568,1263.66Zm22.89,6.42c0.009-.36.015-0.68,0.015-0.96l-0.03-3.33v-2.13c-0.521.02-.906,0.04-1.155,0.04a4.145,4.145,0,0,1-.705,0c-0.221,0-.48-0.02-0.78-0.04s-0.75-.04-1.35-0.06v0.75l1.56,0.09c0.019,0.14.034,0.27,0.045,0.37,0.009,0.12.015,0.22,0.015,0.32v0.31a2.5,2.5,0,0,0,.03.38c0.019,0.34.03,0.69,0.03,1.03v3.02c0,0.42-.015.93-0.045,1.51a6.769,6.769,0,0,1-.3,1.7,3.354,3.354,0,0,1-.825,1.38,2.236,2.236,0,0,1-1.65.57,2.731,2.731,0,0,1-1.785-.51,2.865,2.865,0,0,1-.885-1.26,5.185,5.185,0,0,1-.3-1.59c-0.021-.56-0.03-1.06-0.03-1.5q0-1.53.075-3.21t0.135-3.3a2.071,2.071,0,0,1-.39.03h-1.92q-0.332-.03-0.63-0.03a5.153,5.153,0,0,1-.57-0.03c-0.341-.04-0.51.2-0.51,0.72l1.5,0.09-0.09,4.68c0,0.28-.006.6-0.015,0.96s-0.015.72-.015,1.08a4.786,4.786,0,0,0,1.29,3.45,5.241,5.241,0,0,0,3.96,1.35,6.249,6.249,0,0,0,2.175-.36,5.207,5.207,0,0,0,1.68-.99,4.163,4.163,0,0,0,1.08-1.52,4.867,4.867,0,0,0,.375-1.93C902.443,1270.8,902.447,1270.44,902.458,1270.08Zm25.454,4.71-1.92-.03q0-.75.015-2.16t0.015-2.97v-5.13l1.89-.03-0.03-.9h-1.35c-0.18,0-.37.01-0.57,0.01-0.2.02-.43,0.02-0.69,0.02l-4.53.09-3.48-.09q-0.42-.03-0.9-0.03h-2.085q-0.465,0-.885-0.03l-0.03.9,2.1,0.03c0,1.58,0,3.04-.015,4.39s-0.015,2.48-.015,3.38v2.52l-2.07-.03-0.03.84c0.48-.02.875-0.03,1.185-0.05,0.31,0,.58-0.01.81-0.01H916c0.22,0,.5.01,0.825,0.01q0.5,0.03,1.2.03c0.47,0.02,1.075.02,1.815,0.02v-0.78l-1.98-.03c-0.02-.28-0.03-0.57-0.03-0.89v-3.22c0-.42,0-0.92.015-1.52,0.01-.58.015-1.18,0.015-1.78s0-1.16.015-1.68,0.015-.92.015-1.2h3.84l1.83,0.03c0.02,0.34.04,0.79,0.06,1.36s0.035,1.2.045,1.88,0.015,1.38.015,2.1v2.07c0,0.64,0,1.21-.015,1.72s-0.025.89-.045,1.13l-2.04-.03,0.03,0.84c0.5-.02.905-0.03,1.215-0.05,0.31,0,.575-0.01.795-0.01h0.63q0.48,0,1.26.03t2.4,0.03v-0.78Zm9.825-10.22a3.8,3.8,0,0,1,.945,1.5,7.694,7.694,0,0,1,.375,1.85q0.075,0.96.075,1.65,0,0.78-.075,1.74a7.1,7.1,0,0,1-.375,1.81,3.356,3.356,0,0,1-.945,1.43,2.556,2.556,0,0,1-1.755.57,3.156,3.156,0,0,1-1.605-.35,2.564,2.564,0,0,1-.975-0.9,3.214,3.214,0,0,1-.48-1.24,8.04,8.04,0,0,1-.12-1.38v-1.68q0-.69.075-1.65a7.261,7.261,0,0,1,.39-1.85,4.033,4.033,0,0,1,.945-1.5A2.851,2.851,0,0,1,937.737,1264.57Zm-6.09,18.2q0.615-.03,1.245-0.09l0.24-.3v-0.11c0-.03,0-0.11-0.015-0.25s-0.025-.36-0.045-0.65-0.035-.71-0.045-1.27-0.025-1.28-.045-2.15-0.04-1.94-.06-3.22a1.941,1.941,0,0,0,.615.54,4.274,4.274,0,0,0,.87.39,7.946,7.946,0,0,0,.93.24,4.4,4.4,0,0,0,.825.09,4.822,4.822,0,0,0,2.265-.54,5.963,5.963,0,0,0,1.8-1.44,6.5,6.5,0,0,0,1.185-2.09,7.283,7.283,0,0,0,.42-2.47,6.3,6.3,0,0,0-.54-2.67,6.588,6.588,0,0,0-1.365-1.97,6.072,6.072,0,0,0-1.83-1.21,5.01,5.01,0,0,0-1.935-.42,6.408,6.408,0,0,0-1.665.27,5.24,5.24,0,0,0-1.875.99,5.852,5.852,0,0,0-1.53,1.99,7.478,7.478,0,0,0-.63,3.29l-0.03,3.81,0.06,2.79v3.54c0,0.46,0,.91.015,1.36s0.025,0.94.045,1.46A3.768,3.768,0,0,0,931.647,1282.77Zm20.76-18.2a4.127,4.127,0,0,1,.975,1.5,6.956,6.956,0,0,1,.405,1.85c0.049,0.64.075,1.19,0.075,1.65q0,0.78-.075,1.74a6.431,6.431,0,0,1-.405,1.81,3.632,3.632,0,0,1-.975,1.43,2.652,2.652,0,0,1-1.815.57,2.563,2.563,0,0,1-1.815-.6,3.846,3.846,0,0,1-.975-1.46,6.3,6.3,0,0,1-.4-1.81c-0.051-.64-0.075-1.2-0.075-1.68,0-.46.024-1.01,0.075-1.65a6.8,6.8,0,0,1,.4-1.85,4.076,4.076,0,0,1,.975-1.5A3.005,3.005,0,0,1,952.407,1264.57Zm-4.11-.91a6.113,6.113,0,0,0-1.935,1.33,6.578,6.578,0,0,0,0,9.15,6.142,6.142,0,0,0,1.935,1.34,5.726,5.726,0,0,0,4.59,0,6.188,6.188,0,0,0,1.935-1.34,6.439,6.439,0,0,0,1.83-4.57,6.673,6.673,0,0,0-.48-2.55,6.536,6.536,0,0,0-1.29-2.03,5.763,5.763,0,0,0-1.92-1.33,5.91,5.91,0,0,0-2.37-.48A5.649,5.649,0,0,0,948.3,1263.66Zm18.224,10.32a5.755,5.755,0,0,1-.81.49,2.1,2.1,0,0,1-1.05.26,1.38,1.38,0,0,1-1.02-.36,2.093,2.093,0,0,1-.525-0.98,6.321,6.321,0,0,1-.195-1.42q-0.03-.81-0.03-1.74l0.09-5.76c0.28,0,.62,0,1.02-0.02,0.4,0,.8-0.01,1.2-0.01h1.41l0.03-.93c-0.54,0-1.225.01-2.055,0.04s-1.7.05-2.6,0.05c-0.82,0-1.645-.02-2.475-0.05s-1.475-.05-1.935-0.07l-0.03.9,3.06,0.06-0.24,6.81a10.155,10.155,0,0,0,.015,1.65,3.528,3.528,0,0,0,.525,1.59,2.575,2.575,0,0,0,1.365,1.09,4.727,4.727,0,0,0,1.275.23,4.648,4.648,0,0,0,1.215-.15,5.7,5.7,0,0,0,.99-0.36,4.456,4.456,0,0,0,.735-0.44c0.2-.15.35-0.26,0.45-0.34Zm5.28-4.77a3.692,3.692,0,0,0-1.335.46,4.211,4.211,0,0,0-.915.78,3.065,3.065,0,0,0-.525.92,2.776,2.776,0,0,0-.165.9,2.9,2.9,0,0,0,.48,1.69,3.822,3.822,0,0,0,1.23,1.17,5.229,5.229,0,0,0,1.65.68,7.65,7.65,0,0,0,1.74.21,7.112,7.112,0,0,0,3.075-.65,5.343,5.343,0,0,0,2.3-2.17l-0.51-.45a5.974,5.974,0,0,1-1.845,1.75,4.727,4.727,0,0,1-2.5.62,2.829,2.829,0,0,1-1.125-.23,2.773,2.773,0,0,1-.915-0.63,2.991,2.991,0,0,1-.84-2.11,1.928,1.928,0,0,1,1.02-1.86,5.849,5.849,0,0,1,2.52-.6,2.958,2.958,0,0,1,.735.03q0.345,0.06.615,0.12l0.06-.9q-0.63,0-1.5-.06a7.3,7.3,0,0,1-1.65-.3,3.547,3.547,0,0,1-1.335-.74,1.761,1.761,0,0,1-.555-1.39,1.866,1.866,0,0,1,.285-1.02,2.692,2.692,0,0,1,.735-0.77,3.848,3.848,0,0,1,.975-0.48,3.775,3.775,0,0,1,1.035-.16,5.306,5.306,0,0,1,.81.07,2.575,2.575,0,0,1,.78.32,0.713,0.713,0,0,1,.285.46,0.587,0.587,0,0,1-.135.5,3.079,3.079,0,0,0-.165.3,1.289,1.289,0,0,0-.105.57,1.245,1.245,0,0,0,.375.78,1.287,1.287,0,0,0,.975.36,1.14,1.14,0,0,0,.975-0.42,1.651,1.651,0,0,0,.315-1.02,2.037,2.037,0,0,0-.435-1.32,3.107,3.107,0,0,0-1.1-.86,5.506,5.506,0,0,0-1.44-.45,8.45,8.45,0,0,0-1.44-.13,7.641,7.641,0,0,0-1.59.19,5.913,5.913,0,0,0-1.56.62,4.092,4.092,0,0,0-1.2,1.06,2.551,2.551,0,0,0-.48,1.55,2.322,2.322,0,0,0,.69,1.71,2.809,2.809,0,0,0,1.71.81v0.09Zm13.11,5.55c0-1.98.01-3.92,0.03-5.81s0.03-3.82.03-5.8l-0.15-.09a11.292,11.292,0,0,1-1.68.43c-0.66.14-1.55,0.26-2.67,0.38v0.69c0.38,0,.66.01,0.84,0.01a3.571,3.571,0,0,0,.42.02h0.69c0,1.7,0,3.4-.015,5.08-0.01,1.7-.015,3.39-0.015,5.09l-2.04.03-0.03.72c0.72,0,1.3.01,1.755,0.01,0.45,0.02.815,0.02,1.1,0.02h0.75q0.51,0,1.08.03t1.83,0.03l0.03-.87Zm0.8-18.41a0.8,0.8,0,0,0-.675-0.01,1.062,1.062,0,0,0-.51.48,5.111,5.111,0,0,0-.39.87l-1.38,3.75,0.48,0.3,2.49-3.33a1.571,1.571,0,0,0,.48-1.56A1.044,1.044,0,0,0,985.706,1256.35Zm15.674,7.25-2.279.06-2.43-.06-0.03.81h0.33a0.963,0.963,0,0,1,1,.42,1.67,1.67,0,0,1-.165,1.2q-0.33.84-.63,1.62c-0.2.52-.405,1.05-0.615,1.57-0.21.54-.43,1.08-0.66,1.65s-0.475,1.19-.735,1.85q-1.05-2.73-1.875-4.98t-1.425-4.14c-0.32,0-.645.01-0.975,0.01-0.33.02-.655,0.02-0.975,0.02h-0.75q-0.33,0-.63-0.03-0.54-.03-0.6.75l1.59,0.06q0.54,1.32,1.23,3.03c0.46,1.14.905,2.26,1.335,3.37s0.82,2.13,1.17,3.06,0.6,1.62.735,2.06h0.84q0.33-.78.75-1.8c0.28-.68.57-1.38,0.87-2.12,0.3-.72.59-1.44,0.87-2.14s0.53-1.33.75-1.89q0.36-.84.555-1.35t0.405-1.05a2.267,2.267,0,0,1,2.339-1.17v-0.81Zm7.94,0.97a4.09,4.09,0,0,1,.97,1.5,6.887,6.887,0,0,1,.41,1.85c0.05,0.64.07,1.19,0.07,1.65,0,0.52-.02,1.1-0.07,1.74a6.367,6.367,0,0,1-.41,1.81,3.6,3.6,0,0,1-.97,1.43,2.664,2.664,0,0,1-1.82.57,2.551,2.551,0,0,1-1.81-.6,3.88,3.88,0,0,1-.98-1.46,6.357,6.357,0,0,1-.4-1.81c-0.05-.64-0.08-1.2-0.08-1.68,0-.46.03-1.01,0.08-1.65a6.872,6.872,0,0,1,.4-1.85,4.113,4.113,0,0,1,.98-1.5,2.555,2.555,0,0,1,1.81-.61A2.581,2.581,0,0,1,1009.32,1264.57Zm-4.11-.91a6.157,6.157,0,0,0-1.94,1.33,6.595,6.595,0,0,0,0,9.15,6.186,6.186,0,0,0,1.94,1.34,5.726,5.726,0,0,0,4.59,0,6.144,6.144,0,0,0,1.93-1.34,6.383,6.383,0,0,0,1.83-4.57,6.654,6.654,0,0,0-.48-2.55,6.518,6.518,0,0,0-1.29-2.03,5.753,5.753,0,0,0-1.92-1.33,5.907,5.907,0,0,0-2.37-.48A5.632,5.632,0,0,0,1005.21,1263.66Zm22.89,6.42c0.01-.36.01-0.68,0.01-0.96l-0.03-3.33v-2.13c-0.52.02-.9,0.04-1.15,0.04a4.2,4.2,0,0,1-.71,0c-0.22,0-.48-0.02-0.78-0.04s-0.75-.04-1.35-0.06v0.75l1.56,0.09c0.02,0.14.04,0.27,0.05,0.37,0.01,0.12.01,0.22,0.01,0.32v0.31a2.636,2.636,0,0,0,.03.38c0.02,0.34.03,0.69,0.03,1.03v3.02c0,0.42-.01.93-0.04,1.51a6.725,6.725,0,0,1-.3,1.7,3.343,3.343,0,0,1-.83,1.38,2.234,2.234,0,0,1-1.65.57,2.718,2.718,0,0,1-1.78-.51,2.884,2.884,0,0,1-.89-1.26,5.214,5.214,0,0,1-.3-1.59q-0.03-.84-0.03-1.5c0-1.02.03-2.09,0.08-3.21s0.09-2.22.13-3.3a2.057,2.057,0,0,1-.39.03h-1.92q-0.33-.03-0.63-0.03a5.166,5.166,0,0,1-.57-0.03q-0.51-.06-0.51.72l1.5,0.09-0.09,4.68c0,0.28,0,.6-0.01.96s-0.02.72-.02,1.08a4.79,4.79,0,0,0,1.29,3.45,5.244,5.244,0,0,0,3.96,1.35,6.27,6.27,0,0,0,2.18-.36,5.186,5.186,0,0,0,1.68-.99,4.139,4.139,0,0,0,1.08-1.52,4.848,4.848,0,0,0,.37-1.93C1028.08,1270.8,1028.09,1270.44,1028.1,1270.08Zm7.02,7.24c0.01-.51.02-1.03,0.04-1.57a5.58,5.58,0,0,0,1.65.24,4.748,4.748,0,0,0,2.33-.54,13.924,13.924,0,0,0,1.75-1.14l-0.03,1.62,0.18,0.09a11.707,11.707,0,0,1,2.04-.38c0.72-.07,1.44-0.12,2.16-0.16v-0.72h-1.98c0-.84,0-1.69-0.01-2.55s-0.02-1.74-.02-2.64q0-1.53.03-3.03t0.03-2.97c-0.66.02-1.14,0.04-1.45,0.04-0.31.02-.58,0.02-0.8,0.02q-0.3,0-.69-0.03t-1.23-.03l-0.03.75,1.77,0.06q-0.03.81-.06,1.89t-0.03,2.04q0,1.44.03,2.67t0.06,2.28a7.892,7.892,0,0,1-1.53,1.17,3.569,3.569,0,0,1-1.86.54,2.212,2.212,0,0,1-1.35-.36,2.065,2.065,0,0,1-.7-0.92,3.894,3.894,0,0,1-.27-1.24c-0.03-.46-0.05-0.91-0.05-1.35-0.02-.44-0.03-0.94-0.04-1.5s-0.02-1.16-.02-1.8c0-.76.01-1.52,0.02-2.3,0.01-.76.02-1.41,0.04-1.93-0.42.02-.75,0.04-0.99,0.04-0.24.02-.48,0.02-0.72,0.02s-0.52-.01-0.85-0.03-0.8-.03-1.4-0.03l-0.03.75,1.59,0.06v5.91c0,0.4.01,0.78,0.02,1.12a6.727,6.727,0,0,0,.04.71c-0.02.8-.03,1.61-0.04,2.43s-0.04,1.71-.08,2.67q-0.03,1.32.03,2.37t0.09,2.37l-2.1.03v0.78c0.66-.04,1.2-0.07,1.61-0.09s0.75-.03,1.03-0.03c0.3,0,.56,0,0.78.01s0.47,0.03.74,0.05,0.6,0.03.99,0.04,0.88,0.02,1.48.02l0.03-.84-2.01.03c-0.04-.44-0.08-0.93-0.12-1.46s-0.06-1.1-.06-1.72C1035.11,1278.32,1035.11,1277.83,1035.12,1277.32Zm15.1-8.11a3.665,3.665,0,0,0-1.33.46,4.019,4.019,0,0,0-.92.78,2.847,2.847,0,0,0-.52.92,2.79,2.79,0,0,0-.17.9,2.9,2.9,0,0,0,.48,1.69,3.822,3.822,0,0,0,1.23,1.17,5.229,5.229,0,0,0,1.65.68,7.65,7.65,0,0,0,1.74.21,7.167,7.167,0,0,0,3.08-.65,5.332,5.332,0,0,0,2.29-2.17l-0.51-.45a5.96,5.96,0,0,1-1.84,1.75,4.746,4.746,0,0,1-2.51.62,2.857,2.857,0,0,1-2.04-.86,3.05,3.05,0,0,1-.84-2.11,1.928,1.928,0,0,1,1.02-1.86,5.849,5.849,0,0,1,2.52-.6,3,3,0,0,1,.74.03c0.22,0.04.43,0.08,0.61,0.12l0.06-.9q-0.63,0-1.5-.06a7.3,7.3,0,0,1-1.65-.3,3.526,3.526,0,0,1-1.33-.74,1.732,1.732,0,0,1-.56-1.39,1.789,1.789,0,0,1,.29-1.02,2.674,2.674,0,0,1,.73-0.77,3.88,3.88,0,0,1,.98-0.48,3.683,3.683,0,0,1,1.03-.16,5.306,5.306,0,0,1,.81.07,2.575,2.575,0,0,1,.78.32,0.72,0.72,0,0,1,.29.46,0.589,0.589,0,0,1-.14.5,3.33,3.33,0,0,0-.16.3,1.158,1.158,0,0,0-.11.57,1.28,1.28,0,0,0,1.35,1.14,1.149,1.149,0,0,0,.98-0.42,1.648,1.648,0,0,0,.31-1.02,2.091,2.091,0,0,0-.43-1.32,3.125,3.125,0,0,0-1.1-.86,5.506,5.506,0,0,0-1.44-.45,8.45,8.45,0,0,0-1.44-.13,7.641,7.641,0,0,0-1.59.19,5.913,5.913,0,0,0-1.56.62,4.092,4.092,0,0,0-1.2,1.06,2.551,2.551,0,0,0-.48,1.55,2.322,2.322,0,0,0,.69,1.71,2.809,2.809,0,0,0,1.71.81v0.09Zm-126.073,25a3.692,3.692,0,0,0-1.335.46,4.211,4.211,0,0,0-.915.78,3.065,3.065,0,0,0-.525.92,2.776,2.776,0,0,0-.165.9,2.9,2.9,0,0,0,.48,1.69,3.822,3.822,0,0,0,1.23,1.17,5.229,5.229,0,0,0,1.65.68,7.65,7.65,0,0,0,1.74.21,7.112,7.112,0,0,0,3.075-.65,5.343,5.343,0,0,0,2.3-2.17l-0.51-.45a5.974,5.974,0,0,1-1.845,1.75,4.727,4.727,0,0,1-2.5.62,2.829,2.829,0,0,1-1.125-.23,2.773,2.773,0,0,1-.915-0.63,2.991,2.991,0,0,1-.84-2.11,1.928,1.928,0,0,1,1.02-1.86,5.849,5.849,0,0,1,2.52-.6,2.958,2.958,0,0,1,.735.03q0.345,0.06.615,0.12l0.06-.9q-0.63,0-1.5-.06a7.3,7.3,0,0,1-1.65-.3,3.547,3.547,0,0,1-1.335-.74,1.761,1.761,0,0,1-.555-1.39,1.866,1.866,0,0,1,.285-1.02,2.692,2.692,0,0,1,.735-0.77,3.848,3.848,0,0,1,.975-0.48,3.775,3.775,0,0,1,1.035-.16,5.306,5.306,0,0,1,.81.07,2.575,2.575,0,0,1,.78.32,0.713,0.713,0,0,1,.285.46,0.587,0.587,0,0,1-.135.5,3.079,3.079,0,0,0-.165.3,1.289,1.289,0,0,0-.105.57,1.245,1.245,0,0,0,.375.78,1.287,1.287,0,0,0,.975.36,1.14,1.14,0,0,0,.975-0.42,1.651,1.651,0,0,0,.315-1.02,2.037,2.037,0,0,0-.435-1.32,3.107,3.107,0,0,0-1.1-.86,5.506,5.506,0,0,0-1.44-.45,8.45,8.45,0,0,0-1.44-.13,7.641,7.641,0,0,0-1.59.19,5.913,5.913,0,0,0-1.56.62,4.092,4.092,0,0,0-1.2,1.06,2.551,2.551,0,0,0-.48,1.55,2.322,2.322,0,0,0,.69,1.71,2.809,2.809,0,0,0,1.71.81v0.09Zm23.13,5.58-1.92-.03q0-.75.015-2.16t0.015-2.97v-5.13l1.89-.03-0.03-.9H945.9c-0.18,0-.37.01-0.57,0.01-0.2.02-.43,0.02-0.69,0.02l-4.53.09-3.48-.09q-0.42-.03-0.9-0.03h-2.085q-0.465,0-.885-0.03l-0.03.9,2.1,0.03c0,1.58,0,3.04-.015,4.39s-0.015,2.48-.015,3.38v2.52l-2.07-.03-0.03.84c0.48-.02.875-0.03,1.185-0.05,0.31,0,.58-0.01.81-0.01h0.675c0.22,0,.5.01,0.825,0.01q0.5,0.03,1.2.03c0.47,0.02,1.075.02,1.815,0.02v-0.78l-1.98-.03c-0.02-.28-0.03-0.57-0.03-0.89v-3.22c0-.42,0-0.92.015-1.52,0.01-.58.015-1.18,0.015-1.78s0-1.16.015-1.68,0.015-.92.015-1.2h3.84l1.83,0.03c0.02,0.34.04,0.79,0.06,1.36s0.035,1.2.045,1.88,0.015,1.38.015,2.1v2.07c0,0.64,0,1.21-.015,1.72s-0.025.89-.045,1.13l-2.04-.03,0.03,0.84c0.5-.02.9-0.03,1.215-0.05,0.31,0,.575-0.01.795-0.01h0.63q0.48,0,1.26.03t2.4,0.03v-0.78Zm5.94-.03c0-1.98.01-3.92,0.03-5.81s0.03-3.82.03-5.8l-0.15-.09a11.292,11.292,0,0,1-1.68.43c-0.66.14-1.55,0.26-2.67,0.38v0.69c0.38,0,.66.01,0.84,0.01a3.571,3.571,0,0,0,.42.02h0.69c0,1.7,0,3.4-.015,5.08-0.01,1.7-.015,3.39-0.015,5.09l-2.04.03-0.03.72c0.72,0,1.305.01,1.755,0.01,0.45,0.02.815,0.02,1.1,0.02h0.75q0.51,0,1.08.03t1.83,0.03l0.03-.87Zm0.795-18.41a0.8,0.8,0,0,0-.675-0.01,1.062,1.062,0,0,0-.51.48,5.111,5.111,0,0,0-.39.87l-1.38,3.75,0.48,0.3,2.49-3.33a1.571,1.571,0,0,0,.48-1.56A1.044,1.044,0,0,0,954.012,1281.35Zm9.105,7.22a5.98,5.98,0,0,0-2.295.45,6.108,6.108,0,0,0-1.935,1.27,6.294,6.294,0,0,0-1.335,1.97,6.51,6.51,0,0,0,0,4.98,6.028,6.028,0,0,0,1.335,1.96,6,6,0,0,0,8.46,0,6.044,6.044,0,0,0,1.335-1.96,6.184,6.184,0,0,0,.5-2.49,5.847,5.847,0,0,0-.81-3.12,6.038,6.038,0,0,0-2.16-2.1l2.07-.03,1.47-.03,0.03-.96-3.06.15Zm1.815,1.39a3.77,3.77,0,0,1,.975,1.43,6.169,6.169,0,0,1,.4,1.77c0.049,0.62.075,1.15,0.075,1.59,0,0.52-.026,1.09-0.075,1.71a5.824,5.824,0,0,1-.4,1.74,3.449,3.449,0,0,1-.975,1.36,3.2,3.2,0,0,1-3.63-.01,3.6,3.6,0,0,1-.975-1.41,6.038,6.038,0,0,1-.4-1.76c-0.05-.6-0.075-1.15-0.075-1.63q0-.66.075-1.59a6.1,6.1,0,0,1,.4-1.77,3.747,3.747,0,0,1,.975-1.43A3.13,3.13,0,0,1,964.932,1289.96Zm11.024-1.72-0.15-.09q-0.48.12-.915,0.24c-0.29.08-.595,0.16-0.915,0.22-0.32.08-.67,0.14-1.05,0.2s-0.82.11-1.32,0.15v0.72l0.96-.03,0.99,0.03v7.56c-0.02.4-.03,0.76-0.03,1.06v0.8q0,0.69-2.04.63l-0.03.84c0.6-.04,1.075-0.06,1.425-0.08,0.35,0,.635-0.01.855-0.01,0.24,0,.455.01,0.645,0.01a6.913,6.913,0,0,0,.705.03q0.42,0.03,1.08.03c0.44,0.02,1.03.02,1.77,0.02v-0.78l-1.95-.03c-0.02-.28-0.03-0.57-0.03-0.89v-7.02c0-.36.01-0.69,0.03-0.97a7.391,7.391,0,0,1,1.515-1.19,3.657,3.657,0,0,1,1.845-.52,2.212,2.212,0,0,1,1.35.36,2.164,2.164,0,0,1,.7.91,4.084,4.084,0,0,1,.27,1.25q0.045,0.69.075,1.35,0,0.78.015,1.71l0.03,1.86c0.01,0.62.015,1.21,0.015,1.75a13.615,13.615,0,0,1-.06,1.4l-2.04-.03,0.03,0.84c0.6-.04,1.075-0.06,1.425-0.08,0.35,0,.635-0.01.855-0.01s0.415,0.01.585,0.01a5.864,5.864,0,0,0,.66.03q0.4,0.03,1.05.03c0.43,0.02,1,.02,1.725.02v-0.78l-1.92-.03c0.02-.52.03-1.02,0.03-1.52v-4.39a15.76,15.76,0,0,0-.135-2.07,5.516,5.516,0,0,0-.555-1.83,3.262,3.262,0,0,0-1.245-1.31,4.264,4.264,0,0,0-2.205-.49,4.772,4.772,0,0,0-2.295.54,11.575,11.575,0,0,0-1.755,1.14v-1.59Zm20.565,1.53a3.657,3.657,0,0,0-1.08-.9,5.442,5.442,0,0,0-1.395-.53,7.028,7.028,0,0,0-1.35-.16,6.9,6.9,0,0,0-1.815.24,5.236,5.236,0,0,0-1.59.72,3.532,3.532,0,0,0-1.125,1.24,3.671,3.671,0,0,0-.42,1.79,3.137,3.137,0,0,0,.42,1.69,3.719,3.719,0,0,0,1.095,1.14,7.31,7.31,0,0,0,1.485.81c0.54,0.24,1.07.47,1.59,0.71a10.016,10.016,0,0,1,1.62.87,1.316,1.316,0,0,1,.66,1.11,1.087,1.087,0,0,1-.285.76,2.069,2.069,0,0,1-.69.51,3.182,3.182,0,0,1-.87.29,4.4,4.4,0,0,1-.825.09,6.559,6.559,0,0,1-1.08-.09,4.18,4.18,0,0,1-.96-0.27l-0.3.69a6.039,6.039,0,0,0,4.08.28,4.921,4.921,0,0,0,1.47-.67,3.755,3.755,0,0,0,1.08-1.13,2.9,2.9,0,0,0,.42-1.57,2.194,2.194,0,0,0-.435-1.34,4.619,4.619,0,0,0-1.08-1.03,8.465,8.465,0,0,0-1.38-.78q-0.735-.33-1.3-0.6a10.834,10.834,0,0,1-1.965-1.01,1.608,1.608,0,0,1-.795-1.42,1.829,1.829,0,0,1,.285-1.05,2.314,2.314,0,0,1,.735-0.69,3.3,3.3,0,0,1,.99-0.39,4.834,4.834,0,0,1,1.05-.12,4.2,4.2,0,0,1,.915.1,2.759,2.759,0,0,1,.825.41,0.713,0.713,0,0,1,.285.46,0.546,0.546,0,0,1-.165.5,1.493,1.493,0,0,0-.18.27,1.15,1.15,0,0,0-.12.57,1.214,1.214,0,0,0,.345.81,1.233,1.233,0,0,0,.975.39,1.214,1.214,0,0,0,.975-0.41,1.483,1.483,0,0,0,.345-1A1.992,1.992,0,0,0,996.521,1289.77Z" transform="translate(-821 -913)"/>
</svg>
