<svg xmlns="http://www.w3.org/2000/svg" width="315" height="42" viewBox="0 0 315 42">
  <defs>
    <style>
      .cls-1 {
        fill: #f6f6f6;
      }

      .cls-2 {
        fill-rule: evenodd;
      }
    </style>
  </defs>
  <rect class="cls-1" width="315" height="42"/>
  <path id="top_πρόταση_για_σένα" data-name="top πρόταση για σένα" class="cls-2" d="M838.964,604.91a6.86,6.86,0,0,1-.81.5,2.2,2.2,0,0,1-1.05.255,1.38,1.38,0,0,1-1.02-.36,2.125,2.125,0,0,1-.525-0.975,6.453,6.453,0,0,1-.195-1.425q-0.03-.81-0.03-1.74l-0.03-5.67,3.39-.03,0.06-.87-1.89.03-1.56-.03q0.06-1.14.03-2.16a18.02,18.02,0,0,1,.06-2.07h-0.75a14.379,14.379,0,0,1-.375,1.47,5,5,0,0,1-.645,1.335,3.792,3.792,0,0,1-1.1,1.05,4.634,4.634,0,0,1-1.755.615v0.66l2.07-.03-0.03,6.72q-0.03.78,0.015,1.65a3.1,3.1,0,0,0,.525,1.59,2.454,2.454,0,0,0,1.35,1.1,4.241,4.241,0,0,0,2.49.075,5.585,5.585,0,0,0,1-.36,4.458,4.458,0,0,0,.735-0.435q0.3-.225.45-0.345Zm9.375-9.4a3.954,3.954,0,0,1,.975,1.5,6.761,6.761,0,0,1,.405,1.845c0.049,0.64.075,1.19,0.075,1.65q0,0.78-.075,1.74a6.4,6.4,0,0,1-.405,1.815,3.6,3.6,0,0,1-.975,1.425,2.652,2.652,0,0,1-1.815.57,2.564,2.564,0,0,1-1.815-.6,3.839,3.839,0,0,1-.975-1.455,6.329,6.329,0,0,1-.405-1.815q-0.075-.96-0.075-1.68,0-.69.075-1.65a6.688,6.688,0,0,1,.405-1.845,3.93,3.93,0,0,1,.975-1.5A2.986,2.986,0,0,1,848.339,595.505Zm-4.11-.915a6.128,6.128,0,0,0-1.935,1.335,6.585,6.585,0,0,0,0,9.15,6.128,6.128,0,0,0,1.935,1.335,5.726,5.726,0,0,0,4.59,0,6.15,6.15,0,0,0,1.935-1.335,6.463,6.463,0,0,0,1.83-4.575,6.673,6.673,0,0,0-.48-2.55,6.494,6.494,0,0,0-1.29-2.025,5.776,5.776,0,0,0-1.92-1.335,5.907,5.907,0,0,0-2.37-.48A5.656,5.656,0,0,0,844.229,594.59Zm20.324,7.86a6.2,6.2,0,0,1-.525,1.71,3.425,3.425,0,0,1-1.065,1.29,2.9,2.9,0,0,1-1.77.51,2.122,2.122,0,0,1-1.335-.405,2.877,2.877,0,0,1-.825-1,4.638,4.638,0,0,1-.42-1.32,8.235,8.235,0,0,1-.12-1.35v-4.47a1.348,1.348,0,0,1,.285-0.765,3.089,3.089,0,0,1,.75-0.735,4.867,4.867,0,0,1,1.035-.555,3.013,3.013,0,0,1,1.11-.225,2.143,2.143,0,0,1,1.65.645,4.342,4.342,0,0,1,.915,1.545,7.314,7.314,0,0,1,.39,1.845q0.075,0.945.075,1.515A11.13,11.13,0,0,1,864.553,602.45Zm2.565-4.365a6.489,6.489,0,0,0-1.08-2.01,5.251,5.251,0,0,0-1.725-1.41,4.974,4.974,0,0,0-2.31-.525,4.479,4.479,0,0,0-1.2.15,5.138,5.138,0,0,0-1.725.84q-0.315.24-.555,0.42v-0.48q0-.15-0.015-0.375t-0.015-.675l-0.15-.09q-0.48.12-.915,0.24t-0.915.225q-0.48.105-1.05,0.2t-1.32.15v0.69l1.83,0.03q0.03,1.86.06,3.435t0.06,3.06q0.03,1.485.015,2.985t-0.075,3.21q-0.03.66-.03,1.26v2.22q0,0.6.03,1.26l-2.1.03v0.78q0.99-.06,1.605-0.09t1.035-.03q0.42,0,.765.015t0.75,0.045q0.4,0.03.99,0.045t1.485,0.015l0.03-.84-2.01.03q-0.03-.33-0.045-0.69t-0.015-.78v-1.71q-0.03-.99-0.015-2.07t0.075-2.22a3.332,3.332,0,0,0,1.425,1.17,4.458,4.458,0,0,0,1.815.39,4.666,4.666,0,0,0,2.31-.585,5.929,5.929,0,0,0,1.785-1.515,7.331,7.331,0,0,0,1.155-2.115,7.1,7.1,0,0,0,.42-2.385A7.212,7.212,0,0,0,867.118,598.085Zm24.045,7.635-1.92-.03q0-.75.015-2.16t0.015-2.97v-5.13l1.89-.03-0.03-.9h-1.35q-0.27,0-.57.015t-0.69.015l-4.53.09-3.48-.09q-0.42-.03-0.9-0.03h-2.085q-0.465,0-.885-0.03l-0.03.9,2.1,0.03q0,2.37-.015,4.395t-0.015,3.375v2.52l-2.07-.03-0.03.84q0.72-.03,1.185-0.045t0.81-.015h0.675q0.33,0,.825.015t1.2,0.03q0.705,0.015,1.815.015v-0.78l-1.98-.03q-0.03-.42-0.03-0.885V601.58q0-.63.015-1.515t0.015-1.785q0-.9.015-1.68t0.015-1.2h3.84l1.83,0.03q0.03,0.51.06,1.365t0.045,1.875q0.015,1.02.015,2.1v2.07q0,0.96-.015,1.725t-0.045,1.125l-2.04-.03,0.03,0.84q0.75-.03,1.215-0.045t0.8-.015h0.63q0.48,0,1.26.03t2.4,0.03v-0.78Zm9.375-10.215a3.66,3.66,0,0,1,.945,1.5,7.6,7.6,0,0,1,.375,1.845c0.049,0.64.075,1.19,0.075,1.65q0,0.78-.075,1.74a7.181,7.181,0,0,1-.375,1.815,3.34,3.34,0,0,1-.945,1.425,2.56,2.56,0,0,1-1.755.57,3.263,3.263,0,0,1-1.605-.345,2.73,2.73,0,0,1-.975-0.9,3.284,3.284,0,0,1-.48-1.245,8.04,8.04,0,0,1-.12-1.38V600.5q0-.69.075-1.65a7.093,7.093,0,0,1,.39-1.845,3.879,3.879,0,0,1,.945-1.5A2.833,2.833,0,0,1,900.538,595.505Zm-6.09,18.2c0.409-.02.825-0.05,1.245-0.09l0.24-.3v-0.1q0-.045-0.015-0.255t-0.045-.645q-0.03-.435-0.045-1.275t-0.045-2.145q-0.03-1.305-.06-3.225a1.93,1.93,0,0,0,.615.54,4.249,4.249,0,0,0,.87.39,7.9,7.9,0,0,0,.93.24,4.4,4.4,0,0,0,.825.09,4.822,4.822,0,0,0,2.265-.54,5.963,5.963,0,0,0,1.8-1.44,6.6,6.6,0,0,0,1.185-2.085,7.354,7.354,0,0,0,.42-2.475,6.3,6.3,0,0,0-.54-2.67,6.439,6.439,0,0,0-1.365-1.965,5.918,5.918,0,0,0-1.83-1.215,5.017,5.017,0,0,0-1.935-.42,6.4,6.4,0,0,0-1.665.27,5.24,5.24,0,0,0-1.875.99,5.778,5.778,0,0,0-1.53,2,7.424,7.424,0,0,0-.63,3.285l-0.03,3.81,0.06,2.79v3.54c0,0.46,0,.915.015,1.365s0.025,0.935.045,1.455A3.765,3.765,0,0,0,894.448,613.7Zm20.789-26.415a0.764,0.764,0,0,0-.675-0.015,1.062,1.062,0,0,0-.51.48,5.111,5.111,0,0,0-.39.87l-1.38,3.75,0.48,0.3,2.49-3.33a1.571,1.571,0,0,0,.48-1.56A0.994,0.994,0,0,0,915.237,587.285Zm-0.36,8.22a3.942,3.942,0,0,1,.975,1.5,6.761,6.761,0,0,1,.4,1.845q0.075,0.96.075,1.65,0,0.78-.075,1.74a6.4,6.4,0,0,1-.4,1.815,3.593,3.593,0,0,1-.975,1.425,2.65,2.65,0,0,1-1.815.57,2.564,2.564,0,0,1-1.815-.6,3.85,3.85,0,0,1-.975-1.455,6.4,6.4,0,0,1-.405-1.815q-0.075-.96-0.075-1.68,0-.69.075-1.65a6.761,6.761,0,0,1,.405-1.845,3.942,3.942,0,0,1,.975-1.5A2.986,2.986,0,0,1,914.877,595.505Zm-4.11-.915a6.15,6.15,0,0,0-1.935,1.335,6.585,6.585,0,0,0,0,9.15,6.15,6.15,0,0,0,1.935,1.335,5.726,5.726,0,0,0,4.59,0,6.15,6.15,0,0,0,1.935-1.335,6.463,6.463,0,0,0,1.83-4.575,6.654,6.654,0,0,0-.48-2.55,6.494,6.494,0,0,0-1.29-2.025,5.766,5.766,0,0,0-1.92-1.335,5.907,5.907,0,0,0-2.37-.48A5.656,5.656,0,0,0,910.767,594.59Zm18.1,10.32a6.86,6.86,0,0,1-.81.5,2.2,2.2,0,0,1-1.05.255,1.38,1.38,0,0,1-1.02-.36,2.125,2.125,0,0,1-.525-0.975,6.453,6.453,0,0,1-.195-1.425q-0.03-.81-0.03-1.74l0.09-5.76q0.42,0,1.02-.015t1.2-.015h1.41l0.03-.93q-0.81,0-2.055.045t-2.6.045q-1.23,0-2.475-.045t-1.935-.075l-0.03.9,3.06,0.06-0.24,6.81a10.155,10.155,0,0,0,.015,1.65,3.528,3.528,0,0,0,.525,1.59,2.586,2.586,0,0,0,1.365,1.1,4.249,4.249,0,0,0,2.49.075,5.7,5.7,0,0,0,.99-0.36,4.458,4.458,0,0,0,.735-0.435q0.3-.225.45-0.345Zm10.47-2.52a4.782,4.782,0,0,1-.18,1.32,3.556,3.556,0,0,1-.555,1.14,2.784,2.784,0,0,1-.93.81,2.639,2.639,0,0,1-1.275.3,2.778,2.778,0,0,1-1.26-.285,2.538,2.538,0,0,1-.99-0.945,5.467,5.467,0,0,1-.66-1.77,13.522,13.522,0,0,1-.24-2.79,8.617,8.617,0,0,1,.2-1.83,5.861,5.861,0,0,1,.585-1.605,3.514,3.514,0,0,1,.975-1.14,2.225,2.225,0,0,1,1.365-.435,3.106,3.106,0,0,1,1.245.24,2.957,2.957,0,0,1,.93.615,2.721,2.721,0,0,1,.585.87,2.624,2.624,0,0,1,.21,1.035v4.47Zm3.9,1.98a1.86,1.86,0,0,1-.42.87,0.88,0.88,0,0,1-.6.39,0.452,0.452,0,0,1-.465-0.24,1.415,1.415,0,0,1-.1-0.57v-3.78l0.03-6.84h-0.6a4.774,4.774,0,0,1-.735.75,1.225,1.225,0,0,1-.765.24,1.653,1.653,0,0,1-.84-0.225q-0.39-.225-0.78-0.465a3.129,3.129,0,0,0-1.83-.45,4.821,4.821,0,0,0-2.13.5,5.983,5.983,0,0,0-1.815,1.365,6.528,6.528,0,0,0-1.26,2.07,7.163,7.163,0,0,0-.465,2.61,8.813,8.813,0,0,0,.33,2.46,5.77,5.77,0,0,0,1,2,4.614,4.614,0,0,0,1.71,1.335,5.843,5.843,0,0,0,2.475.48,4.211,4.211,0,0,0,2.7-.99,2.31,2.31,0,0,0,.6-0.66,1.445,1.445,0,0,0,.675,1.215,2.369,2.369,0,0,0,1.245.375,2.631,2.631,0,0,0,1.77-.615,2.968,2.968,0,0,0,.96-1.6Zm7.56-9.87a6.023,6.023,0,0,0-4.23,1.725,6.239,6.239,0,0,0,1.935,10.2,5.9,5.9,0,0,0,4.59,0,6.16,6.16,0,0,0,3.765-5.745,5.847,5.847,0,0,0-.81-3.12,6.038,6.038,0,0,0-2.16-2.1l2.07-.03,1.47-.03,0.03-.96-3.06.15Zm1.815,1.395a3.751,3.751,0,0,1,.975,1.425,6.169,6.169,0,0,1,.4,1.77c0.049,0.62.075,1.15,0.075,1.59,0,0.52-.026,1.09-0.075,1.71a5.824,5.824,0,0,1-.4,1.74,3.539,3.539,0,0,1-.975,1.365,2.7,2.7,0,0,1-1.815.555,2.65,2.65,0,0,1-1.815-.57,3.6,3.6,0,0,1-.975-1.41,6.08,6.08,0,0,1-.4-1.755q-0.075-.915-0.075-1.635,0-.66.075-1.59a6.1,6.1,0,0,1,.4-1.77,3.729,3.729,0,0,1,.975-1.425A3.108,3.108,0,0,1,952.617,595.9Zm10.575-1.725-0.15-.09q-0.481.12-.915,0.24t-0.915.225q-0.482.105-1.05,0.2t-1.32.15v0.72l0.96-.03,0.99,0.03v7.56c-0.021.4-.03,0.755-0.03,1.065v0.795q0,0.69-2.04.63l-0.03.84c0.6-.04,1.074-0.065,1.425-0.075s0.634-.015.855-0.015c0.24,0,.454,0,0.645.015s0.424,0.02.705,0.03,0.639,0.02,1.08.03,1.029,0.015,1.77.015v-0.78l-1.95-.03c-0.021-.28-0.03-0.575-0.03-0.885v-7.02c0-.37.009-0.695,0.03-0.975a7.023,7.023,0,0,1,1.515-1.185,3.56,3.56,0,0,1,1.845-.525,2.216,2.216,0,0,1,1.35.36,2.126,2.126,0,0,1,.7.915,3.988,3.988,0,0,1,.27,1.245c0.03,0.46.054,0.91,0.075,1.35,0,0.52,0,1.09.015,1.71s0.019,1.24.03,1.86,0.015,1.205.015,1.755a13.94,13.94,0,0,1-.06,1.4l-2.04-.03,0.03,0.84c0.6-.04,1.074-0.065,1.425-0.075s0.634-.015.855-0.015,0.414,0,.585.015,0.39,0.02.66,0.03,0.619,0.02,1.05.03,1,0.015,1.725.015v-0.78l-1.92-.03c0.019-.52.03-1.025,0.03-1.515V599.78a15.76,15.76,0,0,0-.135-2.07,5.54,5.54,0,0,0-.555-1.83,3.263,3.263,0,0,0-1.245-1.3,4.267,4.267,0,0,0-2.205-.5,4.767,4.767,0,0,0-2.295.54,11.475,11.475,0,0,0-1.755,1.14v-1.59Zm31.379,0.36-2.37.06-2.43-.06-0.03.81h0.33a0.929,0.929,0,0,1,.99.42,1.82,1.82,0,0,1-.15,1.2q-0.3.78-.585,1.53t-0.585,1.515q-0.3.765-.645,1.605t-0.735,1.83q-0.33-1.02-.81-2.235t-0.9-2.325l-1.74-4.62-0.27-.12q-0.36.12-.645,0.225t-0.66.21a9.084,9.084,0,0,1-.9.195q-0.525.09-1.365,0.18v0.69q0.6,0,.825.015t0.315,0.015h0.54l2.16,5.25q0.45,1.14.81,2.13t0.6,1.68q0.03,0.39.045,0.855t0.015,1.035v4.68q0,0.6-.015,1.17t-0.045,1.14a3.131,3.131,0,0,0,.96.09q0.48-.03,1.11-0.09l0.54-.48q0-.12-0.03-1.32t-0.09-3.09q-0.03-.87-0.045-1.77t-0.045-1.86q0.39-.93.81-1.965t0.81-2.025q0.39-.99.735-1.845t0.555-1.395q0.3-.81.51-1.365a1.554,1.554,0,0,1,.87-0.855,3.616,3.616,0,0,1,1.56-.3v-0.81Zm5.04,11.16q0-2.97.03-5.805t0.03-5.8l-0.15-.09a12.612,12.612,0,0,1-1.68.435q-0.99.195-2.67,0.375v0.69q0.57,0,.84.015t0.42,0.015h0.69q0,2.55-.015,5.085t-0.015,5.085l-2.04.03-0.03.72q1.08,0,1.755.015t1.1,0.015h0.75q0.51,0,1.08.03t1.829,0.03l0.03-.87Zm12.269-3.3a4.782,4.782,0,0,1-.18,1.32,3.545,3.545,0,0,1-.55,1.14,2.784,2.784,0,0,1-.93.81,2.659,2.659,0,0,1-1.28.3,2.778,2.778,0,0,1-1.26-.285,2.538,2.538,0,0,1-.99-0.945,5.467,5.467,0,0,1-.66-1.77,13.522,13.522,0,0,1-.24-2.79,8.621,8.621,0,0,1,.2-1.83,5.857,5.857,0,0,1,.58-1.605,3.527,3.527,0,0,1,.98-1.14,2.21,2.21,0,0,1,1.36-.435,3.131,3.131,0,0,1,1.25.24,2.957,2.957,0,0,1,.93.615,2.707,2.707,0,0,1,.58.87,2.624,2.624,0,0,1,.21,1.035v4.47Zm3.9,1.98a1.86,1.86,0,0,1-.42.87,0.88,0.88,0,0,1-.6.39,0.444,0.444,0,0,1-.46-0.24,1.413,1.413,0,0,1-.11-0.57v-3.78l0.03-6.84h-0.6a4.779,4.779,0,0,1-.73.75,1.24,1.24,0,0,1-.77.24,1.653,1.653,0,0,1-.84-0.225q-0.39-.225-0.78-0.465a3.129,3.129,0,0,0-1.83-.45,4.821,4.821,0,0,0-2.13.5,5.963,5.963,0,0,0-1.81,1.365,6.528,6.528,0,0,0-1.26,2.07,7.164,7.164,0,0,0-.47,2.61,8.813,8.813,0,0,0,.33,2.46,5.779,5.779,0,0,0,1.01,2,4.614,4.614,0,0,0,1.71,1.335,5.82,5.82,0,0,0,2.47.48,4.211,4.211,0,0,0,2.7-.99,2.31,2.31,0,0,0,.6-0.66,1.449,1.449,0,0,0,.68,1.215,2.352,2.352,0,0,0,1.24.375,2.631,2.631,0,0,0,1.77-.615,2.968,2.968,0,0,0,.96-1.6Zm15.06-9.87a6.046,6.046,0,0,0-4.23,1.725,6.308,6.308,0,0,0,0,8.91,6.209,6.209,0,0,0,1.94,1.29,5.9,5.9,0,0,0,4.59,0,6.139,6.139,0,0,0,3.76-5.745,5.847,5.847,0,0,0-.81-3.12,6.038,6.038,0,0,0-2.16-2.1l2.07-.03,1.47-.03,0.03-.96-3.06.15Zm1.82,1.395a3.729,3.729,0,0,1,.97,1.425,6.175,6.175,0,0,1,.41,1.77c0.05,0.62.07,1.15,0.07,1.59,0,0.52-.02,1.09-0.07,1.71a5.828,5.828,0,0,1-.41,1.74,3.517,3.517,0,0,1-.97,1.365,2.712,2.712,0,0,1-1.82.555,2.637,2.637,0,0,1-1.81-.57,3.623,3.623,0,0,1-.98-1.41,6.14,6.14,0,0,1-.4-1.755c-0.05-.61-0.08-1.155-0.08-1.635,0-.44.03-0.97,0.08-1.59a6.164,6.164,0,0,1,.4-1.77,3.752,3.752,0,0,1,.98-1.425,2.593,2.593,0,0,1,1.81-.585A2.619,2.619,0,0,1,1032.66,595.9Zm9.58,4.245a3.49,3.49,0,0,0-1.33.465,3.754,3.754,0,0,0-.92.78,2.91,2.91,0,0,0-.52.915,2.79,2.79,0,0,0-.17.9,2.939,2.939,0,0,0,.48,1.695,4.047,4.047,0,0,0,1.23,1.17,5.463,5.463,0,0,0,1.65.675,7.65,7.65,0,0,0,1.74.21,7.133,7.133,0,0,0,3.08-.645,5.405,5.405,0,0,0,2.29-2.175l-0.51-.45a6.1,6.1,0,0,1-1.84,1.755,4.839,4.839,0,0,1-2.51.615,2.825,2.825,0,0,1-2.04-.855,3.075,3.075,0,0,1-.84-2.115,1.928,1.928,0,0,1,1.02-1.86,5.849,5.849,0,0,1,2.52-.6,3,3,0,0,1,.74.03c0.23,0.04.43,0.08,0.61,0.12l0.06-.9q-0.63,0-1.5-.06a7.3,7.3,0,0,1-1.65-.3,3.517,3.517,0,0,1-1.33-.735,1.775,1.775,0,0,1-.56-1.395,1.87,1.87,0,0,1,.29-1.02,2.656,2.656,0,0,1,.73-0.765,3.571,3.571,0,0,1,.98-0.48,3.408,3.408,0,0,1,1.03-.165,4.281,4.281,0,0,1,.81.075,2.329,2.329,0,0,1,.78.315,0.707,0.707,0,0,1,.29.465,0.588,0.588,0,0,1-.14.5,3.33,3.33,0,0,0-.16.3,1.283,1.283,0,0,0-.11.57,1.252,1.252,0,0,0,.38.78,1.275,1.275,0,0,0,.97.36,1.149,1.149,0,0,0,.98-0.42,1.648,1.648,0,0,0,.31-1.02,2.034,2.034,0,0,0-.43-1.32,3.113,3.113,0,0,0-1.1-.855,5.506,5.506,0,0,0-1.44-.45,8.487,8.487,0,0,0-1.44-.135,7.041,7.041,0,0,0-1.59.195,5.581,5.581,0,0,0-1.56.615,3.97,3.97,0,0,0-1.2,1.065,2.515,2.515,0,0,0-.48,1.545,2.322,2.322,0,0,0,.69,1.71,2.809,2.809,0,0,0,1.71.81v0.09Zm4.76-12.855a0.774,0.774,0,0,0-.68-0.015,1.062,1.062,0,0,0-.51.48,5.111,5.111,0,0,0-.39.87l-1.38,3.75,0.48,0.3,2.49-3.33a1.571,1.571,0,0,0,.48-1.56A0.984,0.984,0,0,0,1047,587.285Zm16.42,7.245-2.28.06-2.43-.06-0.03.81h0.33a0.971,0.971,0,0,1,1.01.42,1.677,1.677,0,0,1-.17,1.2q-0.33.84-.63,1.62c-0.2.52-.4,1.045-0.61,1.575s-0.43,1.08-.66,1.65-0.48,1.185-.74,1.845q-1.05-2.73-1.87-4.98c-0.55-1.5-1.03-2.88-1.43-4.14-0.32,0-.64,0-0.97.015s-0.66.015-.98,0.015h-0.75q-0.33,0-.63-0.03-0.54-.03-0.6.75l1.59,0.06q0.54,1.32,1.23,3.03c0.46,1.14.91,2.265,1.34,3.375s0.82,2.13,1.17,3.06,0.59,1.615.73,2.055h0.84q0.33-.78.75-1.8l0.87-2.115q0.45-1.1.87-2.145t0.75-1.89c0.24-.56.43-1.01,0.56-1.35s0.26-.69.4-1.05a2.268,2.268,0,0,1,2.34-1.17v-0.81Zm9.96,7.86a4.782,4.782,0,0,1-.18,1.32,3.545,3.545,0,0,1-.55,1.14,2.884,2.884,0,0,1-.93.81,2.687,2.687,0,0,1-1.28.3,2.778,2.778,0,0,1-1.26-.285,2.538,2.538,0,0,1-.99-0.945,5.467,5.467,0,0,1-.66-1.77,13.522,13.522,0,0,1-.24-2.79,8.019,8.019,0,0,1,.2-1.83,5.857,5.857,0,0,1,.58-1.605,3.527,3.527,0,0,1,.98-1.14,2.21,2.21,0,0,1,1.36-.435,3.166,3.166,0,0,1,1.25.24,3.076,3.076,0,0,1,.93.615,2.707,2.707,0,0,1,.58.87,2.624,2.624,0,0,1,.21,1.035v4.47Zm3.9,1.98a1.86,1.86,0,0,1-.42.87,0.88,0.88,0,0,1-.6.39,0.444,0.444,0,0,1-.46-0.24,1.262,1.262,0,0,1-.11-0.57v-3.78l0.03-6.84h-0.6a4.779,4.779,0,0,1-.73.75,1.24,1.24,0,0,1-.77.24,1.653,1.653,0,0,1-.84-0.225q-0.39-.225-0.78-0.465a3.129,3.129,0,0,0-1.83-.45,4.821,4.821,0,0,0-2.13.5,5.844,5.844,0,0,0-1.81,1.365,6.528,6.528,0,0,0-1.26,2.07,6.96,6.96,0,0,0-.47,2.61,8.813,8.813,0,0,0,.33,2.46,5.779,5.779,0,0,0,1.01,2,4.614,4.614,0,0,0,1.71,1.335,5.82,5.82,0,0,0,2.47.48,4.211,4.211,0,0,0,2.7-.99,2.31,2.31,0,0,0,.6-0.66,1.449,1.449,0,0,0,.68,1.215,2.326,2.326,0,0,0,1.24.375,2.631,2.631,0,0,0,1.77-.615,2.968,2.968,0,0,0,.96-1.6Z" transform="translate(-795 -586)"/>
</svg>
