<svg id="SvgjsSvg1008" xmlns="http://www.w3.org/2000/svg" version="1.1" xmlns:xlink="http://www.w3.org/1999/xlink" xmlns:svgjs="http://svgjs.com/svgjs" width="25" height="24"><defs id="SvgjsDefs1009"></defs><path id="SvgjsPath1010" d="M1293.61 619.999C1287.1899999999998 619.999 1281.99 621.177 1281.99 631.499C1281.99 641.8190000000001 1287.19 642.999 1293.61 642.999C1300.03 642.999 1305.24 641.8190000000001 1305.24 631.499C1305.24 621.177 1300.03 619.999 1293.61 619.999ZM1295.73 627.892C1295.73 627.892 1294.91 627.892 1294.73 627.892C1294.55 627.892 1294.14 627.749 1294.14 628.1790000000001L1294.14 629.4080000000001L1295.73 629.4080000000001L1295.69 630.9760000000001L1294.14 630.9760000000001C1294.14 633.5900000000001 1294.14 636.7260000000001 1294.14 636.7260000000001L1292.0300000000002 636.7260000000001C1292.0300000000002 636.7260000000001 1292.0300000000002 633.5900000000001 1292.0300000000002 630.9760000000001L1290.9700000000003 630.9760000000001L1290.9700000000003 629.4080000000001L1292.0300000000002 629.4080000000001L1292.0300000000002 628.0630000000001C1292.0300000000002 627.1600000000001 1292.4600000000003 625.7490000000001 1294.15 625.7490000000001L1295.73 625.7550000000001Z " fill="#a8a9ac" transform="matrix(1,0,0,1,-1281,-619)"></path></svg>