<?xml version="1.0" encoding="utf-8"?>
<!-- Generator: Adobe Illustrator 17.0.0, SVG Export Plug-In . SVG Version: 6.00 Build 0)  -->
<!DOCTYPE svg PUBLIC "-//W3C//DTD SVG 1.1//EN" "http://www.w3.org/Graphics/SVG/1.1/DTD/svg11.dtd">
<svg version="1.1" id="Layer_1" xmlns="http://www.w3.org/2000/svg" xmlns:xlink="http://www.w3.org/1999/xlink" x="0px" y="0px"
	 width="67.307px" height="66.665px" viewBox="0 0 67.307 66.665" enable-background="new 0 0 67.307 66.665" xml:space="preserve">
<text transform="matrix(1 0 0 1 306 395.9998)"><tspan x="0" y="0" font-family="'TimesNewRomanPSMT'" font-size="12">&lt;svg version=&quot;1&quot; id=&quot;Layer_1&quot; xmlns=&quot;http://www.w3.org/2000/svg&quot; xmlns:xlink=&quot;http://www.w3.org/1999/xlink&quot; x=&quot;0px&quot; y=&quot;0px&quot;</tspan><tspan x="0" y="14.4" font-family="'TimesNewRomanPSMT'" font-size="12" letter-spacing="33">	</tspan><tspan x="36" y="14.4" font-family="'TimesNewRomanPSMT'" font-size="12"> width=&quot;67px&quot; height=&quot;67px&quot; viewBox=&quot;0 0 67 67&quot; enable-background=&quot;new 0 0 67 67&quot; xml:space=&quot;preserve&quot;&gt;</tspan><tspan x="0" y="28.8" font-family="'TimesNewRomanPSMT'" font-size="12">&lt;path fill-rule=&quot;evenodd&quot; clip-rule=&quot;evenodd&quot; d=&quot;M67,33c0,30-15,33-34,33</tspan><tspan x="0" y="43.2" font-family="'TimesNewRomanPSMT'" font-size="12" letter-spacing="33">	</tspan><tspan x="36" y="43.2" font-family="'TimesNewRomanPSMT'" font-size="12">C15,67,0,63,0,33C0,3,15,0,34,0C52,0,67,3,67,33z&quot;/&gt;</tspan><tspan x="0" y="57.6" font-family="'TimesNewRomanPSMT'" font-size="12">&lt;path fill=&quot;#FFFFFF&quot; d=&quot;M34,26c-4,0-7,3-7,7s3,7,7,7s7-3,7-7</tspan><tspan x="0" y="72" font-family="'TimesNewRomanPSMT'" font-size="12" letter-spacing="33">	</tspan><tspan x="36" y="72" font-family="'TimesNewRomanPSMT'" font-size="12">S37,26,34,26z M34,38c-2,0-4-2-4-4c0-2,2-4,4-4</tspan><tspan x="0" y="86.4" font-family="'TimesNewRomanPSMT'" font-size="12" letter-spacing="33">	</tspan><tspan x="36" y="86.4" font-family="'TimesNewRomanPSMT'" font-size="12">c2,0,4,2,4,4C38,36,36,38,34,38z M41,25c1,0,2,1,2,2</tspan><tspan x="0" y="100.8" font-family="'TimesNewRomanPSMT'" font-size="12" letter-spacing="33">	</tspan><tspan x="36" y="100.8" font-family="'TimesNewRomanPSMT'" font-size="12">s-1,2-2,2s-2-1-2-2S40,25,41,25z M45,22</tspan><tspan x="0" y="115.2" font-family="'TimesNewRomanPSMT'" font-size="12" letter-spacing="33">	</tspan><tspan x="36" y="115.2" font-family="'TimesNewRomanPSMT'" font-size="12">c-1-1-3-2-6-2h-11c-5,0-8,3-8,8v11c0,2,1,4,2,6</tspan><tspan x="0" y="129.6" font-family="'TimesNewRomanPSMT'" font-size="12" letter-spacing="33">	</tspan><tspan x="36" y="129.6" font-family="'TimesNewRomanPSMT'" font-size="12">c1,1,3,2,6,2h11c2,0,4-1,6-2c1-1,2-3,2-6v-11</tspan><tspan x="0" y="144" font-family="'TimesNewRomanPSMT'" font-size="12" letter-spacing="33">	</tspan><tspan x="36" y="144" font-family="'TimesNewRomanPSMT'" font-size="12">C47,26,46,24,45,22z M45,39c0,2-0,3-1,4s-2,1-4,1H28</tspan><tspan x="0" y="158.4" font-family="'TimesNewRomanPSMT'" font-size="12" letter-spacing="33">	</tspan><tspan x="36" y="158.4" font-family="'TimesNewRomanPSMT'" font-size="12">c-2,0-3-0-4-1c-1-1-1-2-1-4V28c0-2,0-3,1-4</tspan><tspan x="0" y="172.8" font-family="'TimesNewRomanPSMT'" font-size="12" letter-spacing="33">	</tspan><tspan x="36" y="172.8" font-family="'TimesNewRomanPSMT'" font-size="12">c1-1,2-1,4-1h11c2,0,3,0,4,1c1,1,1,2,1,4v11H45z&quot;/&gt;</tspan><tspan x="0" y="187.2" font-family="'TimesNewRomanPSMT'" font-size="12">&lt;/svg&gt;</tspan></text>
<text transform="matrix(1 0 0 1 306 395.9998)"><tspan x="0" y="0" font-family="'TimesNewRomanPSMT'" font-size="12">&lt;svg version=&quot;1&quot; id=&quot;Layer_1&quot; xmlns=&quot;http://www.w3.org/2000/svg&quot; xmlns:xlink=&quot;http://www.w3.org/1999/xlink&quot; x=&quot;0px&quot; y=&quot;0px&quot;</tspan><tspan x="0" y="14.4" font-family="'TimesNewRomanPSMT'" font-size="12" letter-spacing="33">	</tspan><tspan x="36" y="14.4" font-family="'TimesNewRomanPSMT'" font-size="12"> width=&quot;67px&quot; height=&quot;67px&quot; viewBox=&quot;0 0 67 67&quot; enable-background=&quot;new 0 0 67 67&quot; xml:space=&quot;preserve&quot;&gt;</tspan><tspan x="0" y="28.8" font-family="'TimesNewRomanPSMT'" font-size="12">&lt;path fill-rule=&quot;evenodd&quot; clip-rule=&quot;evenodd&quot; d=&quot;M67,33c0,30-15,33-34,33</tspan><tspan x="0" y="43.2" font-family="'TimesNewRomanPSMT'" font-size="12" letter-spacing="33">	</tspan><tspan x="36" y="43.2" font-family="'TimesNewRomanPSMT'" font-size="12">C15,67,0,63,0,33C0,3,15,0,34,0C52,0,67,3,67,33z&quot;/&gt;</tspan><tspan x="0" y="57.6" font-family="'TimesNewRomanPSMT'" font-size="12">&lt;path fill=&quot;#FFFFFF&quot; d=&quot;M34,26c-4,0-7,3-7,7s3,7,7,7s7-3,7-7</tspan><tspan x="0" y="72" font-family="'TimesNewRomanPSMT'" font-size="12" letter-spacing="33">	</tspan><tspan x="36" y="72" font-family="'TimesNewRomanPSMT'" font-size="12">S37,26,34,26z M34,38c-2,0-4-2-4-4c0-2,2-4,4-4</tspan><tspan x="0" y="86.4" font-family="'TimesNewRomanPSMT'" font-size="12" letter-spacing="33">	</tspan><tspan x="36" y="86.4" font-family="'TimesNewRomanPSMT'" font-size="12">c2,0,4,2,4,4C38,36,36,38,34,38z M41,25c1,0,2,1,2,2</tspan><tspan x="0" y="100.8" font-family="'TimesNewRomanPSMT'" font-size="12" letter-spacing="33">	</tspan><tspan x="36" y="100.8" font-family="'TimesNewRomanPSMT'" font-size="12">s-1,2-2,2s-2-1-2-2S40,25,41,25z M45,22</tspan><tspan x="0" y="115.2" font-family="'TimesNewRomanPSMT'" font-size="12" letter-spacing="33">	</tspan><tspan x="36" y="115.2" font-family="'TimesNewRomanPSMT'" font-size="12">c-1-1-3-2-6-2h-11c-5,0-8,3-8,8v11c0,2,1,4,2,6</tspan><tspan x="0" y="129.6" font-family="'TimesNewRomanPSMT'" font-size="12" letter-spacing="33">	</tspan><tspan x="36" y="129.6" font-family="'TimesNewRomanPSMT'" font-size="12">c1,1,3,2,6,2h11c2,0,4-1,6-2c1-1,2-3,2-6v-11</tspan><tspan x="0" y="144" font-family="'TimesNewRomanPSMT'" font-size="12" letter-spacing="33">	</tspan><tspan x="36" y="144" font-family="'TimesNewRomanPSMT'" font-size="12">C47,26,46,24,45,22z M45,39c0,2-0,3-1,4s-2,1-4,1H28</tspan><tspan x="0" y="158.4" font-family="'TimesNewRomanPSMT'" font-size="12" letter-spacing="33">	</tspan><tspan x="36" y="158.4" font-family="'TimesNewRomanPSMT'" font-size="12">c-2,0-3-0-4-1c-1-1-1-2-1-4V28c0-2,0-3,1-4</tspan><tspan x="0" y="172.8" font-family="'TimesNewRomanPSMT'" font-size="12" letter-spacing="33">	</tspan><tspan x="36" y="172.8" font-family="'TimesNewRomanPSMT'" font-size="12">c1-1,2-1,4-1h11c2,0,3,0,4,1c1,1,1,2,1,4v11H45z&quot;/&gt;</tspan><tspan x="0" y="187.2" font-family="'TimesNewRomanPSMT'" font-size="12">&lt;/svg&gt;</tspan></text>
<text transform="matrix(1 0 0 1 306 395.9998)"><tspan x="0" y="0" font-family="'TimesNewRomanPSMT'" font-size="12">&lt;svg version=&quot;1&quot; id=&quot;Layer_1&quot; xmlns=&quot;http://www.w3.org/2000/svg&quot; xmlns:xlink=&quot;http://www.w3.org/1999/xlink&quot; x=&quot;0px&quot; y=&quot;0px&quot;</tspan><tspan x="0" y="14.4" font-family="'TimesNewRomanPSMT'" font-size="12" letter-spacing="33">	</tspan><tspan x="36" y="14.4" font-family="'TimesNewRomanPSMT'" font-size="12"> width=&quot;67px&quot; height=&quot;67px&quot; viewBox=&quot;0 0 67 67&quot; enable-background=&quot;new 0 0 67 67&quot; xml:space=&quot;preserve&quot;&gt;</tspan><tspan x="0" y="28.8" font-family="'TimesNewRomanPSMT'" font-size="12">&lt;path fill-rule=&quot;evenodd&quot; clip-rule=&quot;evenodd&quot; d=&quot;M67,33c0,30-15,33-34,33</tspan><tspan x="0" y="43.2" font-family="'TimesNewRomanPSMT'" font-size="12" letter-spacing="33">	</tspan><tspan x="36" y="43.2" font-family="'TimesNewRomanPSMT'" font-size="12">C15,67,0,63,0,33C0,3,15,0,34,0C52,0,67,3,67,33z&quot;/&gt;</tspan><tspan x="0" y="57.6" font-family="'TimesNewRomanPSMT'" font-size="12">&lt;path fill=&quot;#FFFFFF&quot; d=&quot;M34,26c-4,0-7,3-7,7s3,7,7,7s7-3,7-7</tspan><tspan x="0" y="72" font-family="'TimesNewRomanPSMT'" font-size="12" letter-spacing="33">	</tspan><tspan x="36" y="72" font-family="'TimesNewRomanPSMT'" font-size="12">S37,26,34,26z M34,38c-2,0-4-2-4-4c0-2,2-4,4-4</tspan><tspan x="0" y="86.4" font-family="'TimesNewRomanPSMT'" font-size="12" letter-spacing="33">	</tspan><tspan x="36" y="86.4" font-family="'TimesNewRomanPSMT'" font-size="12">c2,0,4,2,4,4C38,36,36,38,34,38z M41,25c1,0,2,1,2,2</tspan><tspan x="0" y="100.8" font-family="'TimesNewRomanPSMT'" font-size="12" letter-spacing="33">	</tspan><tspan x="36" y="100.8" font-family="'TimesNewRomanPSMT'" font-size="12">s-1,2-2,2s-2-1-2-2S40,25,41,25z M45,22</tspan><tspan x="0" y="115.2" font-family="'TimesNewRomanPSMT'" font-size="12" letter-spacing="33">	</tspan><tspan x="36" y="115.2" font-family="'TimesNewRomanPSMT'" font-size="12">c-1-1-3-2-6-2h-11c-5,0-8,3-8,8v11c0,2,1,4,2,6</tspan><tspan x="0" y="129.6" font-family="'TimesNewRomanPSMT'" font-size="12" letter-spacing="33">	</tspan><tspan x="36" y="129.6" font-family="'TimesNewRomanPSMT'" font-size="12">c1,1,3,2,6,2h11c2,0,4-1,6-2c1-1,2-3,2-6v-11</tspan><tspan x="0" y="144" font-family="'TimesNewRomanPSMT'" font-size="12" letter-spacing="33">	</tspan><tspan x="36" y="144" font-family="'TimesNewRomanPSMT'" font-size="12">C47,26,46,24,45,22z M45,39c0,2-0,3-1,4s-2,1-4,1H28</tspan><tspan x="0" y="158.4" font-family="'TimesNewRomanPSMT'" font-size="12" letter-spacing="33">	</tspan><tspan x="36" y="158.4" font-family="'TimesNewRomanPSMT'" font-size="12">c-2,0-3-0-4-1c-1-1-1-2-1-4V28c0-2,0-3,1-4</tspan><tspan x="0" y="172.8" font-family="'TimesNewRomanPSMT'" font-size="12" letter-spacing="33">	</tspan><tspan x="36" y="172.8" font-family="'TimesNewRomanPSMT'" font-size="12">c1-1,2-1,4-1h11c2,0,3,0,4,1c1,1,1,2,1,4v11H45z&quot;/&gt;</tspan><tspan x="0" y="187.2" font-family="'TimesNewRomanPSMT'" font-size="12">&lt;/svg&gt;</tspan></text>
<g>
	<path fill-rule="evenodd" clip-rule="evenodd" d="M39.443,22.761H28.662c-1.57,0-2.931,0.471-3.82,1.361
		c-0.942,0.942-1.413,2.25-1.413,3.82V38.67c0,1.622,0.471,2.931,1.413,3.873c0.942,0.89,2.25,1.361,3.82,1.361h10.676
		c1.57,0,2.878-0.471,3.82-1.361c0.942-0.89,1.413-2.198,1.413-3.82h0.105V27.942c0-1.518-0.523-2.826-1.413-3.768
		C42.321,23.232,41.013,22.761,39.443,22.761z M34,39.979c-3.716,0-6.699-2.983-6.699-6.699s3.035-6.699,6.699-6.699
		c3.664,0,6.699,3.035,6.699,6.699C40.699,36.943,37.716,39.979,34,39.979z M40.961,27.942c-0.838,0-1.518-0.679-1.518-1.518
		s0.68-1.518,1.518-1.518c0.838,0,1.518,0.679,1.518,1.518S41.799,27.942,40.961,27.942z"/>
	<path fill-rule="evenodd" clip-rule="evenodd" d="M33.654,0C15.066,0,0,3.416,0,33.332c0,29.912,15.066,33.333,33.654,33.333
		c18.586,0,33.653-3.421,33.653-33.333C67.307,3.416,52.24,0,33.654,0z M46.979,38.723c0,2.25-0.733,4.187-2.146,5.547
		c-1.361,1.308-3.245,2.041-5.495,2.041H28.662c-2.146,0-4.03-0.68-5.443-2.041c-1.465-1.413-2.198-3.349-2.198-5.6V27.942
		c0-4.553,3.035-7.588,7.589-7.588h10.781c2.198,0,4.135,0.733,5.495,2.146c1.361,1.361,2.094,3.245,2.094,5.443V38.723z"/>
	<path fill-rule="evenodd" clip-rule="evenodd" d="M34,28.989c-2.355,0-4.291,1.936-4.291,4.292c0,2.355,1.936,4.292,4.291,4.292
		c2.355,0,4.292-1.937,4.292-4.292C38.291,30.925,36.355,28.989,34,28.989z"/>
</g>
</svg>
