<svg id="SvgjsSvg1014" xmlns="http://www.w3.org/2000/svg" version="1.1" xmlns:xlink="http://www.w3.org/1999/xlink" xmlns:svgjs="http://svgjs.com/svgjs" width="24" height="24"><defs id="SvgjsDefs1015"></defs><path id="SvgjsPath1016" d="M1357.35 619.999C1350.9299999999998 619.999 1345.73 621.177 1345.73 631.499C1345.73 641.8190000000001 1350.93 642.999 1357.35 642.999C1363.77 642.999 1368.9699999999998 641.8190000000001 1368.9699999999998 631.499C1368.9699999999998 621.177 1363.7699999999998 619.999 1357.35 619.999ZM1358.17 634.231C1357.49 634.231 1356.88 633.914 1356.67 633.506C1356.67 633.506 1356.29 634.721 1356.21 634.995C1355.94 635.964 1355.15 636.933 1355.0900000000001 637.0120000000001C1355.0400000000002 637.067 1354.95 637.051 1354.94 636.9770000000001C1354.92 636.854 1354.6200000000001 635.5820000000001 1354.8600000000001 634.585C1354.98 634.0840000000001 1355.68 631.2750000000001 1355.68 631.2750000000001C1355.68 631.2750000000001 1355.42 630.8820000000001 1355.42 630.3000000000001C1355.42 629.3860000000001 1356 628.565 1356.67 628.565C1357.23 628.565 1357.71 629.0390000000001 1357.71 629.543C1357.71 630.107 1357.24 631.0360000000001 1357.05 631.817C1356.8999999999999 632.472 1357.3799999999999 633.004 1358.04 633.004C1359.21 633.004 1360.01 631.505 1360.01 629.727C1360.01 628.376 1359.09 627.553 1357.42 627.553C1355.53 627.553 1354.52 628.744 1354.52 630.302C1354.52 630.839 1354.6299999999999 631.19 1354.8799999999999 631.482C1354.9899999999998 631.6179999999999 1355.02 631.716 1354.9799999999998 631.87C1354.9499999999998 631.9830000000001 1354.7499999999998 632.256 1354.7199999999998 632.364C1354.6799999999998 632.5210000000001 1354.5599999999997 632.576 1354.4099999999999 632.518C1353.54 632.167 1353.1399999999999 631.224 1353.1399999999999 630.163C1353.1399999999999 628.413 1354.54 626.222 1357.4999999999998 626.222C1359.8799999999999 626.222 1361.6399999999999 628.0509999999999 1361.6399999999999 629.88C1361.6399999999999 632.299 1360.4999999999998 634.231 1358.1699999999998 634.231Z " fill="#a8a9ac" transform="matrix(1,0,0,1,-1345,-619)"></path></svg>