<?xml version="1.0" encoding="utf-8"?>
<!-- Generator: Adobe Illustrator 21.0.0, SVG Export Plug-In . SVG Version: 6.00 Build 0)  -->
<svg version="1.1" id="Layer_1" xmlns="http://www.w3.org/2000/svg" xmlns:xlink="http://www.w3.org/1999/xlink" x="0px" y="0px"
	 viewBox="0 0 63 63" style="enable-background:new 0 0 63 63;" xml:space="preserve">
<style type="text/css">
	.st0{fill:#FFFFFF;}
</style>
<path id="aanalytics" class="st0" d="M31.5,47c1.3,0,2.5-0.1,3.7-0.4C43.8,44.8,50,37.3,50,28.5l0,0c0-0.6,0-1.1-0.1-1.7
	c0-0.1,0-0.2,0-0.3c-0.1-0.5-0.1-1.1-0.2-1.6c0-0.1,0-0.2-0.1-0.3c0-0.2-0.1-0.5-0.1-0.7c0,0,0-0.1,0-0.1C46.8,14,36.8,8,26.9,10.6
	c-6.5,1.7-11.6,6.8-13.3,13.3c0,0,0,0.1,0,0.1c-0.1,0.2-0.1,0.4-0.1,0.7c0,0.1,0,0.2-0.1,0.3c-0.1,0.5-0.2,1.1-0.2,1.6
	c0,0.1,0,0.2,0,0.3C13,27.4,13,27.9,13,28.5l0,0c0,8.8,6.2,16.3,14.8,18.1C29,46.9,30.2,47,31.5,47z M31.5,46
	C21.8,46,14,38.2,14,28.5c0,0,0,0,0,0s0,0,0,0c0-0.6,0-1.2,0.1-1.7c0-0.2,0.1-0.4,0.1-0.6c0-0.4,0.1-0.7,0.2-1.1l5.8,5.8
	c0.2,0.2,0.5,0.2,0.7,0l7.8-7.8c0.1,0,0.1,0.1,0.2,0.1c0.1,0.1,0.2,0.1,0.3,0.2c0.1,0.1,0.2,0.1,0.4,0.2c0.2,0.1,0.3,0.2,0.5,0.2
	l0.1,0c0.5,0.2,0.9,0.2,1.4,0.3c0.5,0,1-0.1,1.4-0.3l0.1,0c0.2-0.1,0.3-0.1,0.5-0.2c0.1-0.1,0.2-0.1,0.4-0.2
	c0.1-0.1,0.2-0.1,0.3-0.2c0.1,0,0.1-0.1,0.2-0.1l7.8,7.8c0.2,0.2,0.5,0.2,0.7,0c0,0,0,0,0,0l5.8-5.8c0.1,0.3,0.1,0.7,0.2,1.1
	c0,0.2,0.1,0.4,0.1,0.6c0.1,0.6,0.1,1.1,0.1,1.7c0,0,0,0,0,0C49,38.2,41.2,46,31.5,46C31.5,46,31.5,46,31.5,46z M33.8,22.1
	c-1.3,1.2-3.3,1.2-4.7,0c-1.4-1.3-1.5-3.5-0.2-4.9c1.3-1.4,3.5-1.5,4.9-0.2c1.4,1.3,1.5,3.5,0.2,4.9C34,21.9,33.9,22,33.8,22.1z
	 M31.5,11c7.9,0,14.8,5.3,16.9,12.9l-5.9,5.9L35,22.3c0.6-0.8,1-1.8,1-2.8c0-2.5-2-4.5-4.5-4.5S27,17,27,19.5c0,1,0.4,2,1,2.8
	l-7.5,7.5l-5.9-5.9C16.7,16.3,23.6,11,31.5,11z M31.5,0C15.8,0,3,12.7,3,28.5c0,13,8.8,24.4,21.4,27.6c0.3,0.1,0.5-0.1,0.6-0.4
	c0.1-0.3-0.1-0.5-0.4-0.6C9.9,51.3,1.1,36.3,4.9,21.6C8.7,6.9,23.7-1.9,38.4,1.9s23.5,18.8,19.8,33.5c-2.5,9.7-10.1,17.3-19.8,19.8
	c-0.3,0.1-0.4,0.3-0.4,0.6c0,0.2,0.3,0.4,0.5,0.4c0,0,0.1,0,0.1,0C53.9,52.2,63,36.6,59.1,21.4C55.9,8.8,44.5,0,31.5,0z M43.5,62H36
	v-1.5c0-2.3-1.7-4.2-4-4.4V51c12.4-0.3,22.3-10.6,22-23S43.4,5.7,31,6S8.7,16.6,9,29c0.3,12,10,21.7,22,22v5.1c-2.3,0.2-4,2.2-4,4.4
	V62h-7.5c-0.3,0-0.5,0.2-0.5,0.5s0.2,0.5,0.5,0.5h24c0.3,0,0.5-0.2,0.5-0.5S43.8,62,43.5,62z M10,28.5C10,16.6,19.6,7,31.5,7
	C43.4,7,53,16.6,53,28.5S43.4,50,31.5,50l0,0C19.6,50,10,40.4,10,28.5z M28,62v-1.5c0-1.9,1.6-3.5,3.5-3.5s3.5,1.6,3.5,3.5V62H28z
	 M31.5,28c-0.3,0-0.5,0.2-0.5,0.5v12c0,0.3,0.2,0.5,0.5,0.5s0.5-0.2,0.5-0.5v-12C32,28.2,31.8,28,31.5,28z"/>
</svg>
