<svg xmlns="http://www.w3.org/2000/svg" width="63" height="63" viewBox="0 0 63 63">
  <metadata><?xpacket begin="﻿" id="W5M0MpCehiHzreSzNTczkc9d"?>
<x:xmpmeta xmlns:x="adobe:ns:meta/" x:xmptk="Adobe XMP Core 5.6-c138 79.159824, 2016/09/14-01:09:01        ">
   <rdf:RDF xmlns:rdf="http://www.w3.org/1999/02/22-rdf-syntax-ns#">
      <rdf:Description rdf:about=""/>
   </rdf:RDF>
</x:xmpmeta>
                                                                                                    
                                                                                                    
                                                                                                    
                                                                                                    
                                                                                                    
                                                                                                    
                                                                                                    
                                                                                                    
                                                                                                    
                                                                                                    
                                                                                                    
                                                                                                    
                                                                                                    
                                                                                                    
                                                                                                    
                                                                                                    
                                                                                                    
                                                                                                    
                                                                                                    
                                                                                                    
                           
<?xpacket end="w"?></metadata>
<defs>
    <style>
      .cls-1 {
        fill: #fff;
        fill-rule: evenodd;
      }
    </style>
  </defs>
  <path id="customer360" class="cls-1" d="M793.866,2026.65l-2.278-3.42a3.351,3.351,0,0,1-.588-1.94v-7.79a20.5,20.5,0,0,0-41,0,20.266,20.266,0,0,0,2.192,9.23,7.3,7.3,0,0,1-.126,7l-6.661,12.09a30.486,30.486,0,0,1-3.883-7.79,0.5,0.5,0,0,0-.95.32,31.382,31.382,0,0,0,5.576,10.12c0.023,0.03.045,0.06,0.069,0.09,0.382,0.46.779,0.91,1.185,1.35,0.022,0.02.043,0.05,0.064,0.07a31.375,31.375,0,0,0,16.927,9.4c0.22,0.05.438,0.1,0.66,0.14,0.367,0.06.737,0.11,1.108,0.16q0.621,0.09,1.247.15c0.293,0.03.585,0.06,0.88,0.08q1.052,0.075,2.111.09h0.1q0.975,0,1.939-.06c0.137-.01.273-0.03,0.409-0.04,0.507-.03,1.012-0.08,1.514-0.14,0.067-.01.136-0.01,0.2-0.02,0.016,0,.028-0.01.042-0.01a31.033,31.033,0,0,0,9.1-2.63,0.5,0.5,0,1,0-.42-0.9,30.306,30.306,0,0,1-8.29,2.46v-10.47l9.354,3.12a4.392,4.392,0,0,0,4.122-.67l0.724-.54a4.407,4.407,0,0,0,1.8-3.6v-10.75l2.286-1.72A2.492,2.492,0,0,0,793.866,2026.65Zm-1.179,2.58-2.487,1.87a0.49,0.49,0,0,0-.2.4v11a3.392,3.392,0,0,1-1.4,2.8l-0.724.54a3.393,3.393,0,0,1-3.206.52l-10.012-3.34h0l-3.263-1.08a3.458,3.458,0,0,1-2.393-3.32v-5.12a0.5,0.5,0,0,0-1,0v5.12a4.447,4.447,0,0,0,3.076,4.27l2.924,0.97v10.94h-0.023c-0.537.06-1.079,0.11-1.622,0.14-0.037,0-.073.01-0.11,0.01-0.581.03-1.164,0.05-1.745,0.05h-0.1c-0.685-.01-1.364-0.04-2.039-0.08-0.281-.02-0.56-0.05-0.84-0.08-0.408-.04-0.813-0.09-1.218-0.15-0.351-.04-0.7-0.09-1.051-0.15l-0.6-.12a30.666,30.666,0,0,1-18.606-11.69l6.894-12.51a8.283,8.283,0,0,0,.144-7.94A19.285,19.285,0,0,1,751,2013.5a19.5,19.5,0,0,1,39,0v7.79a4.28,4.28,0,0,0,.756,2.49l2.278,3.42A1.5,1.5,0,0,1,792.687,2029.23ZM770.5,1997a16.5,16.5,0,1,0,16.5,16.5A16.518,16.518,0,0,0,770.5,1997Zm0,32a15.5,15.5,0,1,1,15.5-15.5A15.515,15.515,0,0,1,770.5,2029Zm-20.457-27.12a0.5,0.5,0,1,0-.672-0.74,31.538,31.538,0,0,0-9.816,29.27,0.5,0.5,0,0,0,.49.41,0.314,0.314,0,0,0,.1-0.01,0.5,0.5,0,0,0,.4-0.58A30.555,30.555,0,0,1,750.043,2001.88Zm41.584-.74a0.5,0.5,0,1,0-.672.74,30.491,30.491,0,0,1,2.944,42.18,0.509,0.509,0,0,0,.063.71,0.544,0.544,0,0,0,.321.11,0.5,0.5,0,0,0,.384-0.18A31.489,31.489,0,0,0,791.627,2001.14ZM770.5,2001a12.5,12.5,0,1,0,12.5,12.5A12.515,12.515,0,0,0,770.5,2001Zm-0.5,1.01V2013H759.011A11.523,11.523,0,0,1,770,2002.01Zm0.5,22.99a11.514,11.514,0,0,1-11.489-11H770.5a0.5,0.5,0,0,0,.5-0.5v-11.49A11.5,11.5,0,0,1,770.5,2025Z" transform="translate(-739 -1993)"/>
</svg>
