<svg xmlns="http://www.w3.org/2000/svg" width="63" height="63" viewBox="0 0 63 63">
  <metadata><?xpacket begin="﻿" id="W5M0MpCehiHzreSzNTczkc9d"?>
<x:xmpmeta xmlns:x="adobe:ns:meta/" x:xmptk="Adobe XMP Core 5.6-c138 79.159824, 2016/09/14-01:09:01        ">
   <rdf:RDF xmlns:rdf="http://www.w3.org/1999/02/22-rdf-syntax-ns#">
      <rdf:Description rdf:about=""/>
   </rdf:RDF>
</x:xmpmeta>
                                                                                                    
                                                                                                    
                                                                                                    
                                                                                                    
                                                                                                    
                                                                                                    
                                                                                                    
                                                                                                    
                                                                                                    
                                                                                                    
                                                                                                    
                                                                                                    
                                                                                                    
                                                                                                    
                                                                                                    
                                                                                                    
                                                                                                    
                                                                                                    
                                                                                                    
                                                                                                    
                           
<?xpacket end="w"?></metadata>
<defs>
    <style>
      .cls-1 {
        fill: #fff;
        fill-rule: evenodd;
      }
    </style>
  </defs>
  <path id="datamanag" class="cls-1" d="M1025,2036.5a2.5,2.5,0,0,0-2.5-2.5H1020v-7.35a17.55,17.55,0,0,0,8.5-4.45l2.92,2.92a2.443,2.443,0,0,0-.42,1.38,2.5,2.5,0,0,0,5,0,2.443,2.443,0,0,0-.42-1.38l8.54-8.54a2.443,2.443,0,0,0,1.38.42,2.5,2.5,0,1,0-2.5-2.5,2.443,2.443,0,0,0,.42,1.38l-8.54,8.54a2.477,2.477,0,0,0-2.76,0l-2.91-2.92a17.5,17.5,0,1,0-25.42,0l-2.91,2.92a2.472,2.472,0,0,0-2.757,0l-8.539-8.54A2.5,2.5,0,1,0,987.5,2017a2.426,2.426,0,0,0,1.377-.42l8.539,8.54a2.5,2.5,0,1,0,4.584,1.38,2.443,2.443,0,0,0-.42-1.38l2.92-2.92a17.55,17.55,0,0,0,8.5,4.45V2030h-2.66a4.34,4.34,0,0,0-3.25,1.39l-3.8,3.96c-0.11.11-.19,0.24-0.29,0.36v-0.21a0.5,0.5,0,0,0-.5-0.5H999v-1.5a0.5,0.5,0,0,0-.5-0.5H986v-1.5a0.5,0.5,0,0,0-1,0v23a0.5,0.5,0,0,0,1,0V2053h12.5a0.5,0.5,0,0,0,.5-0.5V2051h3.5a0.5,0.5,0,0,0,.5-0.5v-1.21a4.461,4.461,0,0,0,3.5,1.71h6.5v0.5a3.5,3.5,0,0,0,7,0V2051h2.5a24.622,24.622,0,0,1,2.5-6.5,2.5,2.5,0,0,1,0-4A2.5,2.5,0,0,1,1025,2036.5Zm20.5-23.5a1.5,1.5,0,1,1-1.5,1.5A1.5,1.5,0,0,1,1045.5,2013Zm-10.5,13.5a1.5,1.5,0,1,1-1.5-1.5A1.5,1.5,0,0,1,1035,2026.5Zm-18.5-33.5a16.49,16.49,0,0,1,2.08,32.85c-0.16.02-.33,0.05-0.5,0.07-0.47.04-.96,0.07-1.44,0.07h-0.28c-0.48,0-.97-0.03-1.44-0.07-0.17-.02-0.34-0.05-0.5-0.07A16.49,16.49,0,0,1,1016.5,1993ZM986,2014.5a1.5,1.5,0,1,1,1.5,1.5A1.5,1.5,0,0,1,986,2014.5Zm13.5,13.5a1.5,1.5,0,1,1,1.5-1.5A1.5,1.5,0,0,1,999.5,2028Zm15.41-1.08c0.52,0.05,1.04.08,1.56,0.08h0.06c0.52,0,1.04-.03,1.56-0.08,0.15-.01.29-0.03,0.44-0.05s0.31-.03.47-0.05V2034h-5v-7.18c0.16,0.02.32,0.03,0.47,0.05S1014.76,2026.91,1014.91,2026.92ZM998,2052H986v-18h12v18Zm4-2h-3v-14h3v14Zm17,1.5a2.5,2.5,0,0,1-5,0V2051h5v0.5Zm3.5-13.5a0.5,0.5,0,0,0,0,1,1.5,1.5,0,0,1,0,3,0.5,0.5,0,0,0,0,1,1.5,1.5,0,0,1,0,3,0.5,0.5,0,0,0,0,1,1.5,1.5,0,0,1,0,3h-16a3.5,3.5,0,0,1-3.5-3.5v-8a3.475,3.475,0,0,1,1.01-2.45l3.8-3.97a3.349,3.349,0,0,1,2.53-1.08H1013v3h-2.5a0.5,0.5,0,0,0,0,1h12A1.5,1.5,0,0,1,1022.5,2038Zm-15.55-18.96a0.053,0.053,0,0,0,.03.02,13.471,13.471,0,0,0,19.03.01c0.01-.01.03-0.01,0.04-0.02s0.01-.03.02-0.04a13.5,13.5,0,1,0-19.14,0A0.144,0.144,0,0,1,1006.95,2019.04Zm1.09-.37,6.37-6.38a3.431,3.431,0,0,0,4.18,0l6.37,6.38A12.411,12.411,0,0,1,1008.04,2018.67Zm8.46-6.67a2.5,2.5,0,1,1,2.5-2.5A2.5,2.5,0,0,1,1016.5,2012Zm0-15a12.475,12.475,0,0,1,9.17,20.96l-6.38-6.37a3.5,3.5,0,1,0-5.58,0l-6.38,6.37A12.475,12.475,0,0,1,1016.5,1997Zm-30.774,22.72a0.5,0.5,0,0,0-.55.44,32.066,32.066,0,0,0-.176,3.34,31.73,31.73,0,0,0,.263,4.07,0.506,0.506,0,0,0,.5.44,0.148,0.148,0,0,0,.065-0.01,0.493,0.493,0,0,0,.432-0.56,30.493,30.493,0,0,1-.255-3.94,30.91,30.91,0,0,1,.17-3.23A0.5,0.5,0,0,0,985.726,2019.72Zm57.6-10.73a0.5,0.5,0,0,0,.44.26,0.533,0.533,0,0,0,.24-0.06,0.5,0.5,0,0,0,.2-0.68,31.865,31.865,0,0,0-9.9-11,0.519,0.519,0,0,0-.7.13,0.5,0.5,0,0,0,.13.7A30.634,30.634,0,0,1,1043.33,2008.99Zm3.94,10.73a0.5,0.5,0,0,0-.44.55,31.466,31.466,0,0,1,.17,3.23,30.518,30.518,0,0,1-20.47,28.81,0.489,0.489,0,0,0-.3.64,0.5,0.5,0,0,0,.47.33,0.453,0.453,0,0,0,.16-0.03A31.519,31.519,0,0,0,1048,2023.5a31.006,31.006,0,0,0-.18-3.34A0.5,0.5,0,0,0,1047.27,2019.72Zm-58.281-10.53a0.509,0.509,0,0,0,.238.06,0.493,0.493,0,0,0,.44-0.26,30.734,30.734,0,0,1,9.594-10.65,0.507,0.507,0,0,0,.129-0.7,0.514,0.514,0,0,0-.7-0.13,31.832,31.832,0,0,0-9.906,11A0.5,0.5,0,0,0,988.989,2009.19Zm48.171-1.49a0.5,0.5,0,0,0-.11.7,25.708,25.708,0,0,1,2.44,4.06,0.5,0.5,0,0,0,.45.28,0.442,0.442,0,0,0,.22-0.05,0.5,0.5,0,0,0,.23-0.67,26.851,26.851,0,0,0-2.53-4.21A0.509,0.509,0,0,0,1037.16,2007.7Zm-42.016.11a26.962,26.962,0,0,0-2.536,4.21,0.5,0.5,0,0,0,.234.67,0.42,0.42,0,0,0,.217.05,0.5,0.5,0,0,0,.45-0.28,25.859,25.859,0,0,1,2.44-4.06A0.5,0.5,0,1,0,995.144,2007.81Zm-4.639,14.85h0a0.5,0.5,0,0,0-.5.49l0,0.35a26.535,26.535,0,0,0,.711,6.11,0.5,0.5,0,0,0,.486.39,0.463,0.463,0,0,0,.116-0.01,0.512,0.512,0,0,0,.371-0.61,25.651,25.651,0,0,1-.684-5.88l0-.34A0.494,0.494,0,0,0,990.505,2022.66Zm37.5,23.6a0.5,0.5,0,0,0-.22.67,0.494,0.494,0,0,0,.45.28,0.585,0.585,0,0,0,.22-0.05A26.4,26.4,0,0,0,1043,2023.5v-0.35a0.5,0.5,0,0,0-.5-0.49h0a0.5,0.5,0,0,0-.5.5v0.34A25.382,25.382,0,0,1,1028,2046.26ZM994.519,2037H994.51a0.493,0.493,0,0,0-.5.5A0.5,0.5,0,1,0,994.519,2037Z" transform="translate(-985 -1992)"/>
</svg>
