<?xml version="1.0" standalone="no"?>
<!DOCTYPE svg PUBLIC "-//W3C//DTD SVG 1.1//EN" "http://www.w3.org/Graphics/SVG/1.1/DTD/svg11.dtd">
<svg xmlns="http://www.w3.org/2000/svg">
<metadata>Copyright (C) 2016 by original authors @ fontello.com</metadata>
<defs>
<font id="fontello" horiz-adv-x="1000" >
<font-face font-family="fontello" font-weight="400" font-stretch="normal" units-per-em="1000" ascent="850" descent="-150" />
<missing-glyph horiz-adv-x="1000" />
<glyph glyph-name="table-check" unicode="&#xe82;" d="M500 850c-276 0-500-224-500-500s224-500 500-500 500 224 500 500-224 500-500 500z m172-429l-167-174-31-33c-4-5-10-7-16-7-6 0-11 2-15 7l-32 33-83 87c-4 4-6 10-6 16 0 6 2 12 6 16l31 33c5 5 10 7 16 7s11-2 16-7l67-71 151 158c5 5 10 7 16 7s11-2 16-7l31-33c4-4 7-9 7-16 0-6-3-12-7-16z" horiz-adv-x="1000" />

<glyph glyph-name="src" unicode="&#xe800;" d="M463-21l0 0c0 0 0 0 0 0l0 0z m0 0c-248-7-455 188-463 435 0 231 180 422 410 436 241 14 448-169 462-410 14-240-169-447-409-461z m286 417c10 169-118 313-286 323h0 0 0c-174 5-318-131-324-305 0-161 126-295 287-305 169-10 313 119 323 287z m282-364c40-42 39-110-3-150-47-43-118-43-165 0l-110 105c-8 6-12 16-11 26 1 10 6 20 15 25 40 28 76 61 106 100 7 9 18 14 29 14 9 0 18-4 25-10l111-104c0-3 1-4 3-6z" horiz-adv-x="1063" />

<glyph glyph-name="menu" unicode="&#xe801;" d="M1176 368c0 29-19 47-49 47l-1078 0c-29 0-48-18-48-47l0-94c0-28 19-47 48-47l1078 0c30 0 49 19 49 47z m0 377c0 28-19 47-49 47l-607 0c-29 0-49-19-49-47l0-94c0-29 20-47 49-47l607 0c30 0 49 18 49 47z m0-753c0 28-19 47-49 47l-901 0c-29 0-49-19-49-47l0-94c0-29 20-47 49-47l901 0c30 0 49 18 49 47z" horiz-adv-x="1176" />

<glyph glyph-name="attachment_delete" unicode="&#xe802;" d="M557 129l0 0c0-154-125-279-278-279-154 0-279 125-279 279s125 278 279 278c0 0 1 0 1 0 154 0 278-125 277-278z m-238 4l95 95c0 0 0 0 1 0 4 5 4 13-1 17l-17 18c-3 2-6 4-9 4-4 0-7-2-9-4l-95-95c0 0 0 0 0 0-3-3-7-2-9 0l-95 95c0 0 0 0 0 1-5 4-13 4-18-1l-17-18c0 0-1 0-1 0-4-5-4-13 1-17l95-95c0 0 0-1 0-1 2-2 2-6 0-8l-95-95c0 0-1 0-1-1-4-4-4-12 1-17l17-18c3-2 6-4 9-3 4 0 7 1 9 3l95 95c0 0 0 0 0 0 3 3 7 3 9 0l95-95c2-2 5-4 9-3 3 0 6 1 9 3l17 18c0 0 0 0 1 1 4 4 4 12-1 17l-95 95c0 0 0 0 0 0-2 3-2 6 0 9z" horiz-adv-x="886" />

<glyph glyph-name="logo_vector" unicode="&#xe803;" d="M1724 849l-335-823c-35-84 27-176 118-176h0 435 3 187l-408 999z m-153-836l153 392 154-392h-307z m-1571 837l0 0c115 0 218-70 259-177l148-378 149 378c41 107 144 177 259 177l0 0-408-999-407 999z m1029-997h-520l341 841c39 99 86 153 220 153l6 0 546 2-332-820c-43-107-145-176-261-176z m-283 160h283c50 0 94 30 113 76l242 599-309-1-5 0c-51 0-51 0-72-53l-252-621z" horiz-adv-x="2132" />

<glyph glyph-name="company" unicode="&#xe804;" d="M867 413l-62 0 0 375c0 34-28 62-62 62l-433 0c-35 0-62-28-62-62l0-125-186 0c-34 0-62-28-62-63l0-688c0-34 28-62 62-62l805 0c34 0 62 28 62 62l0 438c0 35-28 63-62 63z m-124-501l-186 0 0 188-62 0 0-188-185 0 0 876 433 0z m-495 0l-186 0 0 688 186 0z m433 813l-62 0 0-62 62 0z m0-500l-62 0 0-62 62 0z m0 250l-62 0 0-62 62 0z m0 125l-62 0 0-62 62 0z m0-500l-62 0 0-62 62 0z m0 250l-62 0 0-62 62 0z m186-438l-62 0 0 63 62 0z m0 126l-62 0 0 62 62 0z m0 125l-62 0 0 62 62 0z m-681 0l-62 0 0-63 62 0z m0-125l-62 0 0-63 62 0z m371 562l-62 0 0-62 62 0z m-124-375l-62 0 0-62 62 0z m124 250l-62 0 0-62 62 0z m0-125l-62 0 0-62 62 0z m-124 375l-62 0 0-62 62 0z m-247-187l-62 0 0-63 62 0z m0-125l-62 0 0-63 62 0z m247 62l-62 0 0-62 62 0z m124-250l-62 0 0-62 62 0z m0 500l-62 0 0-62 62 0z m-124-375l-62 0 0-62 62 0z m0-250l-62 0 0-62 62 0z m-247 188l-62 0 0-63 62 0z m247 312l-62 0 0-62 62 0z m434-312l-62 0 0 62 62 0z" horiz-adv-x="929" />

<glyph glyph-name="home" unicode="&#xe805;" d="M989 351l-120 122 0 0-310 313 0 0-13 13c-14 15-38 15-53 0l-13-13-309-313 0-1-120-121c-15-15-15-39 0-54 7-8 17-12 27-12 9 0 19 4 26 12l56 56 0-410c0-51 41-93 91-93l537 0c51 0 92 42 92 93l0 410 55-56c8-8 17-12 27-12 10 0 20 4 27 12 15 15 15 39 0 54z m-201-424l-537 0c-9 0-16 7-16 16l0 486 285 289 284-289 0-486c0-9-7-16-16-16z" horiz-adv-x="1000" />

<glyph glyph-name="close" unicode="&#xe806;" d="M606 306c-9 8-9 21 0 30l322 322c9 9 13 22 13 30 0 9-4 22-13 30l-60 60c-9 9-21 13-30 13-13 0-21-4-30-13l-323-322c-8-9-21-9-30 0l-322 322c-8 9-21 13-30 13-8 0-21-4-30-13l-60-60c-9-8-13-21-13-30 0-8 4-21 13-30l322-322c9-9 9-22 0-30l-322-323c-9-8-13-21-13-30 0-8 4-21 13-30l60-60c9-9 22-13 30-13 9 0 22 4 30 13l322 322c9 9 22 9 30 0l323-322c9-9 21-13 30-13 9 0 21 4 30 13l60 60c9 9 13 22 13 30 0 9-4 22-13 30z" horiz-adv-x="941" />

<glyph glyph-name="pinterest" unicode="&#xe807;" d="M515 808c-268 0-485-49-485-479 0-430 217-479 485-479 267 0 484 49 484 479 0 430-217 479-484 479z m34-593c-29 0-54 14-63 31 0 0-16-51-19-62-11-41-44-81-47-84-2-3-5-2-6 1-1 5-13 58-3 100 5 21 34 138 34 138 0 0-11 16-11 40 0 38 24 73 52 73 24 0 44-20 44-41 0-24-20-62-28-95-6-27 14-49 41-49 49 0 82 62 82 136 0 56-38 91-107 91-79 0-121-50-121-115 0-22 4-37 15-49 4-6 6-10 4-16-1-5-10-16-11-21-2-6-7-9-13-6-36 14-53 54-53 98 0 73 59 164 182 164 99 0 172-76 172-152 0-101-47-182-144-182z" horiz-adv-x="1000" />

<glyph glyph-name="vk" unicode="&#xe808;" d="M520 808c-267 0-484-49-484-479 0-430 217-479 484-479 268 0 484 49 484 479 0 430-216 479-484 479z m161-501c-3-7-2-14 4-21 3-3 10-10 21-21l1 0 0 0 1-1c24-22 41-41 50-57 0-1 1-2 2-3 0-1 1-4 1-7 1-3 1-6 0-9-1-2-3-5-6-7-4-2-9-3-16-3l-67-1c-4-1-9-1-15 1-6 2-10 4-14 6l-5 3c-5 4-12 9-18 17-7 7-14 14-19 20-5 5-10 10-16 15-5 4-10 5-15 4 0-1-1-1-2-1 0-1-2-2-4-4-2-2-4-5-6-8-1-3-3-7-4-13-1-6-2-13-2-20 0-3 0-5-1-7-1-2-1-4-2-5l-1-1c-3-4-8-6-14-6l-30 0c-13-1-26 1-39 4-13 4-25 8-34 14-10 6-19 11-27 17-9 6-15 11-19 15l-7 6c-1 2-4 4-7 8-3 3-9 11-18 23-10 13-20 26-28 39-10 14-20 32-33 55-12 22-24 46-34 70-1 3-2 5-2 7 0 2 0 3 1 4l1 2c3 3 8 5 15 5l72 0c3 0 4-1 6-1 2-1 4-2 4-3l2 0c3-2 5-5 6-9 4-8 8-17 12-26 5-10 8-17 11-21l4-8c5-10 10-19 15-27 5-7 9-13 13-18 4-4 7-7 11-9 3-3 6-4 9-4 2 0 5 0 7 1 0 0 0 1 1 1 1 1 2 3 3 6 2 3 3 7 4 12 1 5 2 12 2 21 1 9 1 20 0 33 0 6-1 13-2 18-1 6-3 10-4 12l-1 3c-5 6-12 10-23 12-2 0-2 2 2 6 3 3 6 6 10 8 9 4 30 6 63 6 14 0 26-2 35-4 4 0 7-2 9-3 2-2 4-4 5-6 1-3 3-6 3-9 1-2 1-6 1-11 0-5 0-10 0-15 0-4 0-10-1-18 0-7 0-15 0-21 0-2 0-6-1-11 0-5 0-9 0-12 0-3 1-7 1-11 1-4 2-7 3-10 2-3 4-5 6-6 2-1 3-1 5-1 1-1 4 0 7 3 2 2 6 5 10 8 3 4 8 10 13 18 6 8 12 17 18 28 11 17 20 37 29 58 0 1 1 3 2 4 1 2 2 2 3 3l1 1c0 0 1 0 1 0 1 1 2 1 4 1 1 0 3 0 5 0l76 1c7 1 12 0 17-1 4-1 7-3 8-4l1-3c4-11-9-36-39-76-4-5-10-13-17-22-14-17-22-28-24-34z" horiz-adv-x="1042" />

<glyph glyph-name="fb" unicode="&#xe809;" d="M525 808c-267 0-484-49-484-479 0-430 217-479 484-479 268 0 485 49 485 479 0 430-217 479-485 479z m89-328c0 0-34 0-42 0-7 0-24 6-24-12l0-52 66 0-2-65-64 0c0-109 0-240 0-240l-88 0c0 0 0 131 0 240l-45 0 0 65 45 0 0 56c0 38 18 97 88 97l66 0z" horiz-adv-x="1042" />

<glyph glyph-name="link" unicode="&#xe80a;" d="M206 406c-30 31-49 73-49 120 0 92 76 170 167 170 46 0 88-20 119-51l95-96c15-16 38-16 54 0l53 54c15 15 15 39 0 54l-95 97c-61 61-142 96-229 96-176 0-321-147-321-324 0-85 34-170 95-232l96-96c15-16 38-16 53 0l54 54c15 15 15 38 0 54z m420-239l53 54c16 15 16 38 0 54l-251 255c-16 15-39 15-54 0l-53-54c-16-16-16-39 0-54l252-255c15-16 38-16 53 0z m275 235l-96 97c-15 15-38 15-53 0l-53-54c-16-16-16-39 0-54l95-97c30-31 50-73 50-120 0-92-77-169-168-169-46 0-88 19-119 50l-95 96c-15 16-38 16-54 0l-53-54c-15-15-15-38 0-54l95-96c61-62 142-97 229-97 176 0 321 147 321 324-4 85-38 166-99 228z" horiz-adv-x="1000" />

<glyph glyph-name="instagram" unicode="&#xe80b;" d="M592 509h-162c-24 0-44-7-57-21-14-14-22-34-22-57v-161c0-24 8-44 22-58 14-13 33-21 57-21h160c24 0 43 8 57 21 15 13 22 33 22 57h1v162c0 23-8 42-21 56-14 15-34 22-57 22z m-82-259c-56 0-100 45-100 101s45 100 100 100c55 0 101-45 101-100 0-55-45-101-101-101z m104 181c-12 0-22 10-22 23s10 22 22 22c13 0 23-10 23-22s-10-23-23-23z m-109 419c-279 0-505-51-505-500 0-449 226-500 505-500 279 0 505 51 505 500 0 449-226 500-505 500z m200-581c0-34-11-63-32-83-21-20-49-31-83-31h-160c-32 0-60 11-82 31-22 21-33 50-33 84v161c0 68 46 114 114 114h162c33 0 62-11 82-32 21-21 32-49 32-82v-162z m-195 146c-35 0-64-29-64-64 0-36 29-65 64-65 35 0 64 29 64 65 0 35-29 64-64 64z" horiz-adv-x="1010" />

<glyph glyph-name="comments" unicode="&#xe80c;" d="M1062 590c-48 60-113 108-194 142-82 35-171 52-268 52-97 0-187-17-268-52-82-34-147-82-195-142-47-59-71-125-71-195 0-61 18-118 54-171 36-53 85-97 147-134-4-16-9-31-15-46-6-15-11-27-16-36-5-9-11-19-19-31-9-11-15-19-19-24-4-4-11-12-21-23-9-11-15-18-18-21 0 0-2-2-5-6-3-3-4-4-4-4l-3-6c-2-3-4-5-3-6 0 0-1-3-1-6-2-3-1-6 0-7l0-1c2-7 5-12 10-16 4-5 10-7 16-7l2 0c26 3 49 8 68 13 104 28 196 77 274 148 30-4 59-5 87-5 97 0 186 17 268 52 81 35 146 81 194 141 47 60 71 126 71 196 0 70-24 136-71 195z" horiz-adv-x="1133" />

<glyph glyph-name="heart" unicode="&#xe80d;" d="M1039 694c-122 120-318 120-440 1-122 119-320 119-441-1-122-120-122-315 0-434 6-6 295-289 401-393 22-22 57-22 78 0 107 104 396 387 402 393 122 119 122 314 0 434z" horiz-adv-x="1133" />

<glyph glyph-name="eye" unicode="&#xe80e;" d="M643 850c-355 0-607-321-643-500 36-179 288-500 643-500 355 0 607 321 643 500-36 179-288 500-643 500z m0-893c-280 0-489 248-533 393 44 145 253 393 533 393 280 0 489-248 532-393-43-145-252-393-532-393z m0 607c-119 0-214-96-214-214 0-118 95-214 214-214 118 0 214 95 214 214 0 118-96 214-214 214z m0-321c-59 0-107 48-107 107 0 59 48 107 107 107 59 0 107-48 107-107 0-59-48-107-107-107z" horiz-adv-x="1286" />

<glyph glyph-name="close-thin" unicode="&#xe80f;" d="M629 337l381 371c22 21 22 56 0 78-22 21-58 21-80 0l-381-371-381 371c-22 21-58 21-80 0-22-22-22-57 0-78l381-371-404-393c-22-22-22-56 0-78 11-11 25-16 40-16 14 0 29 5 40 16l404 393 404-393c12-11 26-16 40-16 15 0 29 5 40 16 23 22 23 56 0 78z" horiz-adv-x="1050" />

<glyph glyph-name="check" unicode="&#xe810;" d="M1185 742l-677-683-280 282c-34 34-88 34-122 0-34-34-34-89 0-123l338-343c18-17 41-25 64-25 22 0 45 8 62 25l738 744c33 34 33 89 0 123-35 35-89 35-123 0z" horiz-adv-x="1333" />

<glyph glyph-name="link-arrow" unicode="&#xe811;" d="M1645 397l-464 431c-28 26-74 26-102 0-28-26-28-69 0-95l340-317-1238 0c-40 0-72-30-72-67 0-37 32-68 72-68l1238 0-340-316c-28-26-28-69 0-95 14-13 33-20 51-20 19 0 37 7 51 20l464 431c28 27 28 69 0 96z" horiz-adv-x="1667" />

<glyph glyph-name="mail" unicode="&#xe812;" d="M502 302l-472-425a95 95 0 0 1 66-27h1141a95 95 0 0 1 66 27l-472 425-164-152z m735 548h-1141a95 95 0 0 1-66-27l637-573 636 573a93 93 0 0 1-66 27z m-1237-919l460 411-460 420v-831z m1333 0v832l-460-421z" horiz-adv-x="1333" />

<glyph glyph-name="phone" unicode="&#xe813;" d="M211-150a48 48 0 0 0-42 15l-140 141a78 78 0 0 0-18 25 93 93 0 0 0-9 30 50 50 0 0 0-1 6 98 98 0 0 0 0 14 504 504 0 0 0 6 65 498 498 0 0 0 34 110 899 899 0 0 0 81 148 1111 1111 0 0 0 149 176 1136 1136 0 0 0 140 123 991 991 0 0 0 123 78 649 649 0 0 0 103 45 544 544 0 0 0 79 20 261 261 0 0 0 52 4c13-1 20-1 21-1a108 108 0 0 0 31-9 77 77 0 0 0 24-18l142-141a47 47 0 0 0 15-34 38 38 0 0 0-9-25 68 68 0 0 0-19-18l-215-113a52 52 0 0 0-37-6 67 67 0 0 0-34 18l-52 52a20 20 0 0 1-7 4 23 23 0 0 1-8 2 184 184 0 0 1-51-19 450 450 0 0 1-62-39 717 717 0 0 1-84-76 752 752 0 0 1-76-84 491 491 0 0 1-39-62 147 147 0 0 1-16-38l-3-14a24 24 0 0 1 2-7 16 16 0 0 1 4-6l61-61a64 64 0 0 0 17-44 53 53 0 0 0-6-29v-1l-121-204a55 55 0 0 0-35-27z" horiz-adv-x="1000" />

<glyph glyph-name="at" unicode="&#xe814;" d="M924 724c-92 84-206 126-343 126-143 0-266-48-367-143-101-96-151-215-151-357 0-137 48-254 144-353 96-98 226-147 389-147 99 0 195 20 290 60 31 13 46 48 33 79-13 32-49 47-81 33-83-35-163-52-242-52-125 0-222 37-291 113-68 75-103 164-103 266 0 111 37 203 111 277 73 74 163 111 270 111 99 0 182-31 250-91 68-61 102-138 102-230 0-63-16-116-47-157-31-42-63-63-97-63-18 0-27 9-27 29 0 15 1 34 4 55l38 310-132 0-8-30c-34 27-71 41-111 41-63 0-117-25-162-75-46-50-68-115-68-194 0-76 20-139 60-186 40-47 88-71 145-71 50 0 93 21 129 63 27-40 67-60 119-60 77 0 144 33 200 100 56 67 85 147 85 241 0 119-46 221-139 305z m-303-469c-23-31-51-47-83-47-22 0-40 11-53 34-14 23-21 51-21 85 0 42 10 76 29 102 19 26 42 39 70 39 24 0 46-10 65-29 19-20 28-45 28-78 0-40-12-75-35-106z" horiz-adv-x="1063" />

<glyph glyph-name="enter" unicode="&#xe815;" d="M895 613v-210h-695l190 189-74 74-316-316 316-316 74 74-190 189h800v316h-105z" horiz-adv-x="1000" />

<glyph glyph-name="user" unicode="&#xe816;" d="M438 361c109 0 198 109 198 245 0 135-29 244-198 244-170 0-199-109-199-244 0-136 89-245 199-245z m374-380c1 2 1 16 0 0z m-749 7c0 8-1 2 0 0z m749 9c-4 236-34 303-266 345 0 0-32-42-108-42-77 0-109 42-109 42-230-42-262-108-266-337 0-19 0-20 0-17 0-5 0-12 0-25 0 0 55-113 375-113 319 0 374 113 374 113 0 8 0 14 0 18 0-1 0 1 0 16z" horiz-adv-x="813" />

<glyph glyph-name="attachment_file" unicode="&#xe817;" d="M680 711v103c0 7 3 12 9 14 6 3 13 1 17-3 39-37 112-107 152-145 4-5 5-11 3-17-3-5-8-9-14-9h-108c-32 0-59 25-59 57z m191-116c0 0 0 0 0 0h-132l0 0c-65-1-119 51-120 116 0 0 0 0 0 0v124c0 9-7 15-15 15-1 0-1 0-1 0h-386c-49 1-89-38-90-87v-286c47 20 98 31 152 31 209 0 379-170 379-379 0-54-11-105-31-152h169c49-1 89 38 90 87v516c0 8-7 15-15 15z" horiz-adv-x="886" />

<glyph glyph-name="attachment" unicode="&#xe818;" d="M680 711v103c0 7 3 12 9 14 6 3 13 1 17-3 39-37 112-107 152-145 4-5 5-11 3-17-3-5-8-9-14-9h-108c-32 0-59 25-59 57z m191-116c0 0 0 0 0 0h-132l0 0c-65-1-119 51-120 116 0 0 0 0 0 0v124c0 9-7 15-15 15-1 0-1 0-1 0h-386c-49 1-89-38-90-87v-286c47 20 98 31 152 31 209 0 379-170 379-379 0-54-11-105-31-152h169c49-1 89 38 90 87v516c0 8-7 15-15 15z m-314-466c0 0 0 0 0 0 0-154-125-279-278-279-154 0-279 125-279 279s125 278 279 278c0 0 1 0 1 0 154 0 278-125 277-278z m-238 4l95 95c0 0 0 0 1 0 4 5 4 13-1 17l-17 18c-3 2-6 4-9 4-4 0-7-2-9-4l-95-95c0 0 0 0 0 0-3-3-7-2-9 0l-95 95c0 0 0 0 0 1-5 4-13 4-18-1l-17-18c0 0-1 0-1 0-4-5-4-13 1-17l95-95c0 0 0-1 0-1 2-2 2-6 0-8l-95-95c0 0-1 0-1-1-4-4-4-12 1-17l17-18c3-2 6-4 9-3 4 0 7 1 9 3l95 95c0 0 0 0 0 0 3 3 7 3 9 0l95-95c2-2 5-4 9-3 3 0 6 1 9 3l17 18c0 0 0 0 1 1 4 4 4 12-1 17l-95 95c0 0 0 0 0 0-2 3-2 6 0 9z" horiz-adv-x="886" />

<glyph glyph-name="attach" unicode="&#xe819;" d="M785 306c-20 20-52 20-72 0l-283-293c-36-37-84-58-136-58-51 0-99 21-136 58-36 38-56 88-56 141 0 53 20 103 56 140l364 375c33 35 87 35 120 0 16-16 25-38 25-62 0-24-9-46-25-62l-308-319c-20-20-20-54 0-74 20-21 52-21 72 0l308 318c36 37 55 85 55 137 0 52-19 100-55 137-73 75-191 75-264 0l-364-376c-55-57-86-133-86-214 0-81 31-158 86-215 56-57 130-89 208-89 79 0 153 32 208 89l283 292c20 21 20 54 0 75z" horiz-adv-x="800" />

<glyph glyph-name="star" unicode="&#xe81a;" d="M878 509l-253 28c-16 1-30 13-36 30l-91 252c-14 41-65 41-80 0l-89-252c-6-17-21-29-36-30l-252-28c-38-4-54-58-25-87l190-192c12-12 17-30 14-49l-57-269c-9-42 30-77 64-55l211 142c13 10 30 10 43 0l211-142c33-22 72 12 64 55l-57 269c-3 19 2 37 14 49l190 192c28 29 12 83-25 87z" horiz-adv-x="1000" />

<glyph glyph-name="socialcircle" unicode="&#xe81b;" d="M658-84c-50-21-103-32-158-32-110 0-216 45-293 123 21 22 34 51 34 84 0 67-54 121-120 121-67 0-121-54-121-121 0-66 54-120 121-120 21 0 41 5 58 15 84-87 200-136 321-136 59 0 117 11 171 34 9 4 13 14 10 22-4 9-14 13-23 10z m279 282c7 33 11 67 11 100 0 157-80 300-213 382-8 5-19 3-24-5-5-8-2-19 6-24 123-76 197-208 197-353 0-29-4-59-10-88-8 1-16 2-25 2-66 0-120-54-120-121 0-66 54-120 120-120 67 0 121 54 121 120 0 46-26 86-63 107z m-868 114c0 0 1 0 1 0 9 0 17 7 17 16 13 174 131 319 297 367 15-50 61-86 116-86 67 0 121 54 121 120 0 67-54 121-121 121-66 0-120-54-121-120-182-51-313-210-326-400-1-9 7-17 16-18z" horiz-adv-x="1000" />

<glyph glyph-name="slider-next" unicode="&#xe81c;" d="M507 353l-460 457c-11 11-28 11-39 0-11-11-11-28 0-39l441-437-441-437c-11-11-11-28 0-39 6-5 13-8 20-8 7 0 14 3 19 8l460 457c11 10 11 28 0 38z" horiz-adv-x="516" />

<glyph glyph-name="calc" unicode="&#xe81d;" d="M854 850l-708 0c-44 0-79-37-79-83l0-834c0-46 35-83 79-83l708 0c44 0 79 37 79 83l0 834c0 46-35 83-79 83z m-277-861c0-12-10-22-22-22l-110 0c-12 0-22 10-22 22l0 116c0 12 10 23 22 23l110 0c12 0 22-11 22-23z m0 256c0-13-10-23-22-23l-110 0c-12 0-22 10-22 23l0 115c0 12 10 23 22 23l110 0c12 0 22-11 22-23z m254-256c0-12-9-22-21-22l-111 0c-12 0-21 10-21 22l0 116c0 12 9 23 21 23l111 0c12 0 21-11 21-23z m0 256c0-13-9-23-21-23l-111 0c-12 0-21 10-21 23l0 115c0 12 9 23 21 23l111 0c12 0 21-11 21-23z m-509-256c0-12-9-22-21-22l-111 0c-12 0-21 10-21 22l0 116c0 12 9 23 21 23l111 0c12 0 21-11 21-23z m0 256c0-13-9-23-21-23l-111 0c-12 0-21 10-21 23l0 115c0 12 9 23 21 23l111 0c12 0 21-11 21-23z m509 276c0-13-9-23-21-23l-620 0c-12 0-21 10-21 23l0 206c0 13 9 23 21 23l620 0c12 0 21-10 21-23z" horiz-adv-x="933" />

<glyph glyph-name="price-info" unicode="&#xe81e;" d="M493 850a500 500 0 1 1 507-493 500 500 0 0 1-507 493z m56-167a58 58 0 0 0 66-63 84 84 0 0 0-92-81 59 59 0 0 0-69 64 86 86 0 0 0 95 80z m-131-645c-34 0-60 21-35 113l39 165c7 26 9 37 0 37a265 265 0 0 1-82-36l-17 28a462 462 0 0 0 223 112c35 0 41-41 23-104l-45-173c-8-31-5-41 3-41a180 180 0 0 1 78 39l20-27a363 363 0 0 0-207-113z" horiz-adv-x="1000" />

<glyph glyph-name="home-plus" unicode="&#xe81f;" d="M550 850c-276 0-500-224-500-500s224-500 500-500c276 0 500 224 500 500s-224 500-500 500z m200-527c0-8-3-14-8-20-5-5-12-7-19-7h-118v-119c0-7-3-14-8-19-6-5-12-8-20-8h-54c-8 0-14 3-20 8-5 5-7 12-7 19v119h-119c-7 0-14 2-19 7-5 6-8 12-8 20v54c0 8 3 14 8 20 5 5 12 8 19 8h118v118c0 7 3 14 8 19 6 5 12 8 20 8h54c8 0 14-3 20-8 5-5 8-12 8-19v-118h118c7 0 14-3 19-8 5-6 8-12 8-20v-54z" horiz-adv-x="1000" />

<glyph glyph-name="home-percent" unicode="&#xe820;" d="M653 286c22 0 41-18 41-40 0-22-19-40-41-40-22 0-41 18-41 40 0 22 19 40 41 40z m-259 161c23 0 41-18 41-40 0-22-18-39-41-39-22 0-40 17-40 39 0 22 18 40 40 40z m574-264l-22-12c-23-12-36-39-31-65l5-24c6-37-21-71-59-73l-25-1c-27-2-50-20-58-46l-6-23c-10-36-50-56-85-41l-24 9c-25 10-54 3-72-17l-16-18c-25-28-69-28-95-1l-16 18c-19 20-48 27-73 16l-23-10c-35-14-75 4-86 40l-7 23c-7 26-31 44-58 45l-25 1c-38 2-66 36-60 72l5 24c4 27-9 53-33 65l-22 12c-34 17-44 60-22 90l15 20c15 22 15 51-1 72l-15 20c-22 30-13 73 21 91l21 12c24 13 37 39 32 65l-5 24c-7 37 21 71 59 73l25 2c27 1 50 19 57 45l7 24c10 35 50 55 85 41l23-10c25-10 54-3 72 17l17 18c25 28 69 29 95 1l16-18c18-20 47-26 72-16l23 10c35 14 76-4 86-40l7-23c8-26 31-44 59-45l24-1c39-2 67-35 60-72l-4-24c-4-26 9-53 33-65l22-12c33-17 43-60 22-90l-15-20c-16-22-15-51 1-72l15-20c22-30 12-73-21-91z m-297 280c8 10 7 25-3 33-11 8-26 7-34-3l-258-303c-8-10-7-25 4-33 10-8 25-7 33 3z m80-217c0 53-44 96-98 96-54 0-98-43-98-96 0-53 44-96 98-96 54 0 98 43 98 96z m-357 65c55 0 98 43 98 96 0 53-43 96-98 96-54 0-98-43-98-96 0-52 44-96 98-96z" horiz-adv-x="1048" />

<glyph glyph-name="trophy" unicode="&#xe822;" d="M962 751c1 34 0 56 0 56l-329 0-3 0-329 0c0 0-1-22-1-56l-218 0 0-37c0-8 2-206 121-314 50-45 112-68 185-68 11 0 23 0 34 1 42-58 90-99 144-119l0-161-159 0 0-101-52 0 0-57 553 0 0 57-53 0 0 101-158 0 0 161c54 20 102 61 143 119 12-1 23-1 34-1 73 0 136 23 185 68 120 108 121 306 121 314l0 37z m-711-297c-68 62-88 168-94 224l147 0c7-70 21-156 55-232 6-14 13-27 20-40-51 2-94 18-128 48z m760 0c-33-30-76-46-127-48 7 13 13 26 19 40 34 76 49 162 55 232l148 0c-6-56-26-162-95-224z" horiz-adv-x="1250" />

<glyph glyph-name="angle-down" unicode="&#xf107;" d="M600 439q0-7-6-12l-260-261q-5-5-13-5t-12 5l-260 261q-6 5-6 12t6 13l28 28q5 6 12 6t13-6l219-219 220 219q5 6 13 6t12-6l28-28q6-5 6-13z" horiz-adv-x="642.9" />
</font>
</defs>
</svg>
