<?xml version="1.0" encoding="utf-8"?>
<!-- Generator: Adobe Illustrator 19.0.0, SVG Export Plug-In . SVG Version: 6.00 Build 0)  -->
<svg version="1.1" id="Isolation_Mode" xmlns="http://www.w3.org/2000/svg" xmlns:xlink="http://www.w3.org/1999/xlink" x="0px" y="0px" width="50" height="50" viewBox="0 0 462.5 462.5" style="enable-background:new 0 0 462.5 462.5;" xml:space="preserve">
<style type="text/css">
	.st0{fill:#BD945E;}
	.st1{fill:#FFFFFF;}
</style>
<g>
	<circle class="st0" cx="231.2" cy="231.2" r="231.2"/>
</g>
<g>
	<g>
		<path class="st1" d="M278.7,93.4c18.7,68.8,37.3,137.2,56,205.9c-68.8,18.7-137.4,37.4-206.2,56.1c-18.7-68.8-37.3-137.2-56-205.9
			C141.3,130.8,209.8,112.2,278.7,93.4z M317.9,266.3c-14.7-54.1-29.4-107.9-44.1-161.9c-64,17.4-127.8,34.8-191.6,52.2
			c14.8,54.3,29.4,108,44.1,161.9C190.3,301,253.9,283.7,317.9,266.3z"/>
	</g>
	<path class="st1" d="M362.2,144.7l-56.4-1.7l-0.4,13l43.2,1.3L342,313.6c-48.9,13.2-97.2,26-145.9,39.3c0,0.2,0.1,0.4,0.1,0.6
		c52.4,2.1,104.7,4.1,157.4,6.2c0.6-16.1,0.9-31.4,1.5-47.4L362.2,144.7z"/>
</g>
</svg>
