<svg data-name="Isolation Mode" xmlns="http://www.w3.org/2000/svg" viewBox="0 0 700 700"><defs><style>.cls-1{fill:#fff;}.cls-2{fill:#bd945e;}</style></defs><title>Vector Smart Object</title><path class="cls-1 first-frame" d="M-125.92,214.67L-141.13,595l-381-15.23,15.24-380.33ZM-152,529.83l12-299.13-354-14.15-12,299.1Z" transform="translate(644.72 -111.55)"/><path class="cls-2" d="M-269.49,118.91l100,367.3L-537.42,586.34l-99.93-367.28,367.86-100.14m4.21-7.37-5.79,1.58L-638.93,213.27l-5.79,1.58,1.58,5.79,73,268.28,26.94,99,1.58,5.79,5.79-1.58L-168,492l5.79-1.58-1.58-5.79-29.8-109.48L-263.7,117.34l-1.58-5.79h0Z" transform="translate(644.72 -111.55)"/><polygon class="cls-2" points="24.72 119.95 103.33 408.79 445.18 315.77 366.56 26.91 24.72 119.95"/><path class="cls-1 last-frame" d="M-641,217l373.65-101.72,101.54,373.08L-539.53,590Zm101.75,299.7,336.06-91.44-77-283.07-336,91.47Z" transform="translate(644.72 -111.55)"/></svg>