<svg width="447" height="325" viewBox="0 0 447 325" version="1.1" xmlns="http://www.w3.org/2000/svg" xmlns:xlink="http://www.w3.org/1999/xlink">
<title>line</title>
<desc>Created using Figma</desc>
<g id="Canvas" transform="translate(-204 -205)">
<g id="line">
<use xlink:href="#path0_stroke" transform="translate(205 205)" fill="#FF0000"/>
</g>
</g>
<defs>
<path id="path0_stroke" d="M 110 137L 109.819 136.534L 110 137ZM -0.5 0C -0.5 37.9933 2.33915 81.9389 17.5737 111.599C 25.2003 126.448 35.9546 137.758 51.0465 142.922C 66.1311 148.083 85.4611 147.072 110.181 137.466L 109.819 136.534C 85.2302 146.089 66.1559 147.034 51.3702 141.976C 36.5917 136.919 26.0095 125.835 18.4633 111.143C 3.3522 81.7225 0.5 38.0067 0.5 0L -0.5 0ZM 110.181 137.466C 206.556 100.014 290.125 110.523 349.588 152.284C 409.057 194.05 444.5 267.134 444.5 355L 445.5 355C 445.5 266.866 409.943 193.45 350.162 151.466C 290.375 109.477 206.444 98.9855 109.819 136.534L 110.181 137.466Z"/>
</defs>
</svg>
