<svg width="30" height="40" viewBox="0 0 30 40" version="1.1" xmlns="http://www.w3.org/2000/svg" xmlns:xlink="http://www.w3.org/1999/xlink">
<title>Group 2</title>
<desc>Created using Figma</desc>
<g id="Canvas" transform="translate(-674 463)">
<g id="Group 2">
<g id="Group">
<g id="Vector">
<mask id="mask0_outline_ins">
<use xlink:href="#path0_fill" fill="white" transform="translate(674 -463)"/>
</mask>
<g mask="url(#mask0_outline_ins)">
<use xlink:href="#path1_stroke_2x" transform="translate(674 -463)" fill="#FFFFFF"/>
</g>
</g>
</g>
<g id="Rectangle">
<use xlink:href="#path2_fill" transform="translate(683 -450)" fill="#FFFFFF"/>
</g>
<g id="Rectangle">
<use xlink:href="#path2_fill" transform="translate(683 -445)" fill="#FFFFFF"/>
</g>
</g>
</g>
<defs>
<path id="path0_fill" d="M 15.0007 0C 6.73057 0 0.0363473 6.7395 0.00134733 14.5732C -0.0455527 18.5456 1.13675 21.4774 2.80101 23.9024C 4.61765 26.4982 7.01013 28.7057 9.2293 30.8689C 11.1937 33.3024 12.3364 35.9084 13.5617 38.5823C 13.8738 39.3024 14.3158 39.988 15.0007 40C 15.855 39.9253 16.1773 39.1843 16.5178 38.5975C 18.1914 35.7833 19.6321 32.7687 21.2726 30.3811C 23.4679 28.0053 25.5992 26.1726 27.2473 23.8567C 28.9032 21.5297 30 18.699 30 14.6341C 29.9545 6.35045 23.4545 0.00899026 15.0007 0Z"/>
<path id="path1_stroke_2x" d="M 15.0007 0L 15.0017 -1L 15.0007 -1L 15.0007 0ZM 0.00134733 14.5732L 1.0013 14.585L 1.00134 14.5777L 0.00134733 14.5732ZM 2.80101 23.9024L 1.97647 24.4683L 1.98172 24.4758L 2.80101 23.9024ZM 9.2293 30.8689L 10.0074 30.2407L 9.96999 30.1944L 9.92731 30.1528L 9.2293 30.8689ZM 13.5617 38.5823L 14.4793 38.1847L 14.4752 38.1751L 14.4708 38.1657L 13.5617 38.5823ZM 15.0007 40L 14.9832 40.9998L 15.0356 41.0007L 15.0878 40.9962L 15.0007 40ZM 16.5178 38.5975L 15.6583 38.0864L 15.6529 38.0956L 16.5178 38.5975ZM 21.2726 30.3811L 20.5381 29.7024L 20.4892 29.7553L 20.4483 29.8148L 21.2726 30.3811ZM 27.2473 23.8567L 26.4325 23.2768L 26.4325 23.2769L 27.2473 23.8567ZM 30 14.6341L 31 14.6341L 31 14.6286L 30 14.6341ZM 15.0007 -1C 6.19253 -1 -0.961128 6.17208 -0.998643 14.5687L 1.00134 14.5777C 1.03382 7.30692 7.26861 1 15.0007 1L 15.0007 -1ZM -0.998583 14.5614C -1.02835 18.7303 0.255549 21.9502 1.97651 24.4683L 3.62552 23.3366C 2.01796 21.0047 0.937244 18.3609 1.00128 14.585L -0.998583 14.5614ZM 1.98172 24.4758C 3.86459 27.1562 6.322 29.4313 8.53128 31.5849L 9.92731 30.1528C 7.69826 27.9801 5.3707 25.8403 3.62031 23.329L 1.98172 24.4758ZM 8.45118 31.497C 10.3392 33.8219 11.4239 36.3175 12.6527 38.9989L 14.4708 38.1657C 13.2489 35.4993 12.0482 32.783 10.0074 30.2407L 8.45118 31.497ZM 12.6442 38.9799C 12.8176 39.3779 13.0872 39.8675 13.396 40.2233C 13.747 40.6158 14.2725 40.9874 14.9832 40.9998L 15.0182 39.0001C 14.9783 39.0081 15.0525 39.0265 15.0069 38.9953C 14.9522 38.9717 14.9563 38.9714 14.8868 38.8901C 14.7574 38.7454 14.6197 38.5086 14.4793 38.1847L 12.6442 38.9799ZM 15.0878 40.9962C 15.8371 40.9307 16.3558 40.5557 16.7108 40.142C 17.015 39.776 17.2278 39.3654 17.3827 39.0994L 15.6529 38.0956C 15.4372 38.4673 15.3439 38.6638 15.1931 38.8395C 15.0882 38.9617 15.0186 38.9946 14.9136 39.0038L 15.0878 40.9962ZM 17.3773 39.1087C 19.0732 36.2549 20.498 33.269 22.0968 30.9473L 20.4483 29.8148C 18.7662 32.2685 17.3097 35.3116 15.6583 38.0864L 17.3773 39.1087ZM 22.007 31.0597C 24.1623 28.7249 26.338 26.8465 28.062 24.4365L 26.4325 23.2769C 24.8604 25.4987 22.7736 27.2857 20.5381 29.7024L 22.007 31.0597ZM 28.062 24.4365C 29.7836 22.0039 30.983 18.8827 31 14.6341L 29 14.6341C 29.0171 18.5152 28.0228 21.0555 26.4325 23.2768L 28.062 24.4365ZM 31 14.6286C 30.9513 5.77633 23.9862 -0.990445 15.0017 -0.999999L 14.9996 0.999999C 22.9228 1.00843 28.9576 6.92457 29 14.6396L 31 14.6286Z"/>
<path id="path2_fill" d="M 0 0L 12 0L 12 1L 0 1L 0 0Z"/>
</defs>
</svg>
